<svg viewBox="0 0 348 40" fill="none" xmlns="http://www.w3.org/2000/svg"><path d="M249.506 4.615h7.889l12.57 30.122h-8.774l-2.109-5.384H247.65l-2.109 5.384h-8.562l12.527-30.122zm7.171 18.287l-3.29-8.46-3.332 8.46h6.622zM279.155 4.83h7.635l12.149 15.807V4.83h8.099v29.908h-7.129L287.254 18.33v16.407h-8.099V4.829zM327.997 23.543L316.734 4.829h9.323l6.074 10.895 6.116-10.895h9.154L336.18 23.414v11.323h-8.183V23.543z" fill="#fff"/><path d="M0 4.857h9.104l6.742 18.903 6.741-18.903h8.896L19.529 34.753h-7.575L0 4.857zM38.641 4.857h8.27v29.92h-8.27V4.858zM80.688 0h-6.533L55.46 39.6h6.533L80.688 0z" fill="#FB5F61"/><path d="M86.366 19.869v-.086a15.502 15.502 0 011.123-6.027 15.342 15.342 0 013.366-5.1 15.118 15.118 0 015.071-3.353 14.963 14.963 0 015.963-1.072c6.032 0 9.913 2.564 12.528 6.195l-6.158 4.829c-1.688-2.094-3.628-3.504-6.454-3.504-4.134 0-7.045 3.59-7.045 7.947v.085c0 4.487 2.91 7.99 7.045 7.99 3.079 0 4.893-1.453 6.665-3.632l6.158 4.444c-2.784 3.888-6.538 6.75-13.034 6.75a14.827 14.827 0 01-5.875-1.112 14.982 14.982 0 01-4.979-3.349 15.204 15.204 0 01-3.292-5.052 15.358 15.358 0 01-1.082-5.953zM122.68 19.868v-.085c0-8.588 6.834-15.553 15.945-15.553s15.86 6.88 15.86 15.467v.086c0 8.587-6.833 15.552-15.944 15.552-9.112 0-15.861-6.88-15.861-15.467zm23.411 0v-.085c0-4.358-3.037-8.076-7.55-8.076-4.514 0-7.509 3.675-7.509 7.99v.086c0 4.315 3.079 8.075 7.593 8.075 4.471 0 7.466-3.675 7.466-7.99zM164.604 4.83h8.647l7.045 11.578 7.044-11.579h8.647v29.908h-8.141V17.56l-7.55 11.707h-.169l-7.509-11.664v17.133h-8.014V4.829zM207.539 4.83h12.697c7.425 0 12.233 3.887 12.233 10.467v.085c0 7.092-5.357 10.81-12.654 10.81h-4.092v8.545h-8.183l-.001-29.908zm12.107 14.868c2.868 0 4.682-1.582 4.682-3.931v-.086c0-2.563-1.814-3.887-4.724-3.887h-3.881v7.904h3.923z" fill="#fff"/></svg>