<svg width="96" height="96" viewBox="0 0 96 96" fill="none" xmlns="http://www.w3.org/2000/svg">
<path d="M50.3552 86.0362H67.6822L59.4176 94.2997L60.5494 95.4304L70.7446 85.2362L60.5494 75.041L59.4176 76.1728L67.6822 84.4362H50.3552V86.0362Z" fill="#212A3F"/>
<path d="M36.5824 94.2997L28.32 86.0362H45.6469V84.4362H28.32L36.5824 76.1728L35.4506 75.041L25.2576 85.2362L35.4506 95.4304L36.5824 94.2997Z" fill="#212A3F"/>
<path d="M59.4176 19.8272L60.5494 20.9578L70.7446 10.7626L60.5494 0.568481L59.4176 1.70021L67.6822 9.96262H50.3552V11.5626H67.6822L59.4176 19.8272Z" fill="#212A3F"/>
<path d="M36.5824 19.8272L28.32 11.5626H45.6469V9.96262H28.32L36.5824 1.70021L35.4506 0.568481L25.2576 10.7626L35.4506 20.9578L36.5824 19.8272Z" fill="#212A3F"/>
<path d="M84.4363 28.319V45.6459H86.0363V28.319L94.3008 36.5835L95.4325 35.4518L85.2363 25.2566L75.0432 35.4518L76.1739 36.5835L84.4363 28.319Z" fill="#212A3F"/>
<path d="M95.4325 60.5494L94.3008 59.4187L86.0363 67.6822V50.3552H84.4363V67.6822L76.1739 59.4187L75.0432 60.5494L85.2363 70.7446L95.4325 60.5494Z" fill="#212A3F"/>
<path d="M9.96371 28.319V45.6459H11.5637V28.319L19.8282 36.5835L20.9589 35.4518L10.7637 25.2566L0.56958 35.4518L1.70131 36.5835L9.96371 28.319Z" fill="#212A3F"/>
<path d="M20.9589 60.5494L19.8282 59.4187L11.5637 67.6822V50.3552H9.96371V67.6822L1.70131 59.4187L0.56958 60.5494L10.7637 70.7446L20.9589 60.5494Z" fill="#212A3F"/>
<path d="M64.2126 33.0667H31.2288C29.8123 33.0667 28.6598 34.22 28.6598 35.6357V57.6905H26.6666V60.6765C26.6666 62.323 28.2569 63.6626 30.212 63.6626H65.7879C67.7431 63.6626 69.3333 62.323 69.3333 60.6765V57.6905H66.7833V35.6357C66.7825 34.22 65.6299 33.0667 64.2126 33.0667ZM68.0914 58.9324V60.6774C68.0914 61.6239 67.0365 62.4223 65.7871 62.4223H30.2111C28.9618 62.4223 27.9069 61.6231 27.9069 60.6774V58.9324H28.659H66.7825H68.0914ZM29.9001 57.6913V35.6357C29.9001 34.9026 30.4958 34.3077 31.228 34.3077H64.2118C64.9448 34.3077 65.5406 34.9034 65.5406 35.6357V57.6905H29.9001V57.6913Z" fill="#FB5F61"/>
<path d="M47.7199 38.3702C43.5135 38.3702 40.0914 41.7931 40.0914 45.9996C40.0914 50.206 43.5135 53.6289 47.7199 53.6289C51.9272 53.6289 55.3501 50.206 55.3501 45.9996C55.3501 41.7931 51.9272 38.3702 47.7199 38.3702ZM47.7199 52.3878C44.1978 52.3878 41.3325 49.5218 41.3325 45.9996C41.3325 42.4774 44.1978 39.6113 47.7199 39.6113C51.2429 39.6113 54.109 42.4774 54.109 45.9996C54.109 49.5218 51.2429 52.3878 47.7199 52.3878Z" fill="#FB5F61"/>
<path d="M47.9089 45.3154C47.0177 44.6974 46.7244 44.2511 46.9569 43.8682C47.1353 43.5756 47.3016 43.5248 47.4112 43.5121C47.8535 43.4674 48.4301 43.9384 48.6004 44.1101L49.314 43.4066C49.2432 43.3344 48.7601 42.8767 48.1421 42.6442V41.6H47.1399V42.5447C46.8192 42.6175 46.4204 42.8213 46.1003 43.3478C45.5518 44.2511 45.9681 45.1898 47.3604 46.1552C48.2877 46.7932 48.5831 47.2295 48.3485 47.615C48.1708 47.907 48.0045 47.9578 47.8956 47.9705C47.4593 48.0259 46.8767 47.5442 46.7077 47.3745L45.9928 48.0767C46.0629 48.1482 46.5286 48.6038 47.1399 48.8377V49.8833H48.1421V48.9446C48.4661 48.8757 48.8777 48.6746 49.2051 48.1355C50.0329 46.7772 48.4494 45.6875 47.9089 45.3154Z" fill="#FB5F61"/>
</svg>
