<svg width="96" height="96" viewBox="0 0 96 96" fill="none" xmlns="http://www.w3.org/2000/svg">
<path d="M71.987 44.8191C71.065 43.8441 69.768 43.4151 67.945 43.5811C66.865 43.6801 66.148 44.0111 65.626 44.2521C64.933 44.5711 64.643 44.6571 63.897 44.1701V29.9681H51.052L50.827 30.2711C49.626 31.8851 49.868 32.7261 50.376 33.8241C50.604 34.3171 50.84 34.8281 50.915 35.6501C50.942 35.9521 50.948 36.2351 50.934 36.5001C50.929 36.5721 50.913 36.6331 50.905 36.7021C50.885 36.8881 50.867 37.0731 50.826 37.2381C50.805 37.3171 50.77 37.3831 50.745 37.4581C50.699 37.5971 50.656 37.7381 50.593 37.8601C50.552 37.9391 50.494 38.0021 50.447 38.0741C50.379 38.1751 50.316 38.2821 50.234 38.3701C50.195 38.4111 50.152 38.4441 50.111 38.4811C50.045 38.5421 49.979 38.6031 49.909 38.6541C49.859 38.6901 49.808 38.7191 49.758 38.7511C49.69 38.7941 49.621 38.8361 49.55 38.8711C49.499 38.8971 49.449 38.9191 49.398 38.9401C49.324 38.9721 49.251 39.0031 49.176 39.0281C49.131 39.0441 49.087 39.0571 49.043 39.0711C48.959 39.0951 48.878 39.1171 48.798 39.1351C48.768 39.1411 48.739 39.1481 48.71 39.1541C48.61 39.1751 48.518 39.1891 48.431 39.2011C48.425 39.2021 48.418 39.2031 48.412 39.2031C48.324 39.2141 48.248 39.2201 48.178 39.2241C48.128 39.2281 48.081 39.2301 48.041 39.2321C48.036 39.2321 48.03 39.2321 48.025 39.2321C47.934 39.2351 47.873 39.2341 47.855 39.2351C47.854 39.2351 47.831 39.2361 47.796 39.2361C47.789 39.2361 47.775 39.2351 47.768 39.2351C47.735 39.2351 47.693 39.2331 47.637 39.2301C47.617 39.2291 47.596 39.2271 47.574 39.2251C47.521 39.2211 47.465 39.2161 47.399 39.2081C47.368 39.2041 47.336 39.1991 47.302 39.1941C47.237 39.1851 47.171 39.1731 47.099 39.1591C47.059 39.1511 47.02 39.1421 46.978 39.1331C46.907 39.1161 46.834 39.0971 46.759 39.0741C46.712 39.0601 46.667 39.0461 46.62 39.0301C46.546 39.0041 46.472 38.9731 46.396 38.9411C46.348 38.9201 46.3 38.8991 46.252 38.8761C46.177 38.8391 46.105 38.7941 46.031 38.7481C45.984 38.7201 45.938 38.6931 45.892 38.6601C45.817 38.6061 45.746 38.5421 45.676 38.4771C45.64 38.4431 45.601 38.4141 45.566 38.3761C45.479 38.2841 45.413 38.1731 45.341 38.0661C45.295 37.9971 45.24 37.9371 45.2 37.8621C45.139 37.7451 45.098 37.6091 45.053 37.4761C45.026 37.3951 44.988 37.3241 44.966 37.2381C44.928 37.0861 44.911 36.9131 44.892 36.7441C44.882 36.6601 44.863 36.5871 44.857 36.4991C44.842 36.2341 44.848 35.9511 44.876 35.6491C44.951 34.8251 45.187 34.3151 45.415 33.8221C45.923 32.7231 46.166 31.8841 44.963 30.2681L44.737 29.9661H27.771V44.9361L28.074 45.1611C28.274 45.3101 28.465 45.4381 28.647 45.5471C28.679 45.5671 28.707 45.5761 28.739 45.5951C28.888 45.6791 29.036 45.7581 29.177 45.8171C29.196 45.8261 29.213 45.8281 29.232 45.8361C29.381 45.8961 29.529 45.9431 29.672 45.9751C29.693 45.9801 29.711 45.9801 29.731 45.9841C29.866 46.0091 29.999 46.0241 30.131 46.0261C30.143 46.0261 30.155 46.0301 30.167 46.0301C30.209 46.0301 30.247 46.0211 30.288 46.0191C30.361 46.0151 30.434 46.0101 30.504 45.9991C30.601 45.9831 30.697 45.9631 30.792 45.9361C30.813 45.9301 30.835 45.9261 30.855 45.9201C31.108 45.8451 31.361 45.7371 31.629 45.6121C32.122 45.3841 32.632 45.1491 33.453 45.0741C33.763 45.0461 34.048 45.0421 34.315 45.0561C34.502 45.0671 34.667 45.1011 34.835 45.1331C34.911 45.1471 34.997 45.1521 35.07 45.1701C35.203 45.2051 35.317 45.2601 35.437 45.3101C35.528 45.3471 35.626 45.3771 35.709 45.4221C35.8 45.4731 35.875 45.5401 35.957 45.6011C36.051 45.6701 36.148 45.7331 36.229 45.8151C36.287 45.8741 36.336 45.9361 36.386 45.9991C36.426 46.0501 36.47 46.0991 36.506 46.1511C36.553 46.2211 36.591 46.2941 36.631 46.3671C36.659 46.4191 36.691 46.4691 36.714 46.5201C36.751 46.5981 36.778 46.6741 36.807 46.7521C36.825 46.8001 36.845 46.8481 36.861 46.8961C36.886 46.9781 36.906 47.0561 36.924 47.1351C36.934 47.1751 36.946 47.2171 36.954 47.2561C36.972 47.3401 36.983 47.4171 36.994 47.4941C36.998 47.5221 37.005 47.5541 37.008 47.5801C37.019 47.6651 37.025 47.7391 37.029 47.8091C37.03 47.8211 37.032 47.8371 37.033 47.8491C37.037 47.9221 37.038 47.9831 37.039 48.0301C37.039 48.0331 37.039 48.0391 37.039 48.0421C37.039 48.0501 37.039 48.0501 37.039 48.0581C37.039 48.0911 37.038 48.1211 37.038 48.1301V48.1321V48.1341C37.038 48.1361 37.039 48.1591 37.039 48.1981C37.039 48.2071 37.038 48.2241 37.037 48.2341C37.037 48.2711 37.036 48.3101 37.033 48.3661C37.031 48.3931 37.027 48.4291 37.024 48.4611C37.019 48.5121 37.016 48.5601 37.008 48.6191C37.003 48.6591 36.993 48.7061 36.987 48.7501C36.978 48.8111 36.969 48.8671 36.956 48.9331C36.945 48.9861 36.928 49.0421 36.914 49.0981C36.898 49.1611 36.884 49.2211 36.863 49.2861C36.843 49.3481 36.817 49.4091 36.794 49.4721C36.77 49.5351 36.748 49.5961 36.72 49.6591C36.69 49.7231 36.651 49.7861 36.616 49.8501C36.583 49.9091 36.553 49.9681 36.513 50.0261C36.47 50.0901 36.417 50.1491 36.367 50.2111C36.325 50.2631 36.285 50.3151 36.236 50.3641C36.152 50.4501 36.049 50.5161 35.952 50.5881C35.873 50.6481 35.8 50.7131 35.712 50.7631C35.634 50.8061 35.541 50.8321 35.457 50.8681C35.331 50.9211 35.21 50.9791 35.068 51.0161C35.015 51.0301 34.952 51.0321 34.896 51.0431C34.473 51.1311 33.998 51.1611 33.453 51.1121C32.631 51.0381 32.121 50.8011 31.628 50.5741C31.355 50.4481 31.098 50.3391 30.84 50.2631C30.836 50.2621 30.832 50.2611 30.827 50.2601C30.715 50.2281 30.601 50.2041 30.487 50.1871C30.436 50.1791 30.383 50.1761 30.33 50.1721C30.274 50.1681 30.223 50.1571 30.165 50.1571C30.148 50.1571 30.132 50.1621 30.116 50.1621C30.001 50.1651 29.885 50.1791 29.768 50.1991C29.732 50.2051 29.698 50.2071 29.661 50.2151C29.536 50.2421 29.407 50.2871 29.277 50.3361C29.24 50.3501 29.207 50.3571 29.169 50.3721C29.056 50.4201 28.937 50.4861 28.818 50.5511C28.702 50.6141 28.583 50.6821 28.459 50.7601C28.335 50.8381 28.206 50.9261 28.072 51.0261L27.769 51.2511V66.2201H42.676L42.901 65.9171C44.101 64.3031 43.859 63.4631 43.352 62.3651C43.124 61.8711 42.889 61.3601 42.814 60.5371C42.787 60.2351 42.781 59.9521 42.795 59.6871C42.8 59.6101 42.818 59.5451 42.826 59.4711C42.845 59.2911 42.862 59.1111 42.903 58.9501C42.924 58.8621 42.964 58.7891 42.991 58.7071C43.036 58.5771 43.075 58.4431 43.136 58.3281C43.182 58.2391 43.245 58.1681 43.301 58.0891C43.364 57.9971 43.419 57.9001 43.493 57.8191C43.535 57.7751 43.581 57.7401 43.625 57.7001C43.69 57.6391 43.756 57.5791 43.826 57.5281C43.864 57.5011 43.902 57.4781 43.941 57.4541C44.032 57.3941 44.124 57.3401 44.218 57.2931C44.228 57.2881 44.237 57.2841 44.246 57.2791C44.886 56.9801 45.549 56.9531 45.783 56.9521C45.787 56.9521 45.787 56.9521 45.79 56.9521H45.816C45.836 56.9521 45.863 56.9521 45.87 56.9521C45.872 56.9521 45.896 56.9511 45.935 56.9511C45.938 56.9511 45.945 56.9521 45.948 56.9521C45.982 56.9521 46.029 56.9531 46.09 56.9561C46.114 56.9581 46.142 56.9611 46.17 56.9631C46.217 56.9661 46.264 56.9711 46.319 56.9781C46.361 56.9821 46.405 56.9891 46.451 56.9961C46.504 57.0041 46.555 57.0141 46.611 57.0241C46.665 57.0341 46.718 57.0461 46.775 57.0601C46.832 57.0731 46.888 57.0891 46.948 57.1061C47.008 57.1241 47.065 57.1421 47.127 57.1641C47.189 57.1861 47.249 57.2111 47.312 57.2371C47.372 57.2621 47.429 57.2881 47.489 57.3181C47.555 57.3511 47.618 57.3911 47.683 57.4301C47.737 57.4631 47.79 57.4941 47.842 57.5331C47.912 57.5831 47.977 57.6431 48.042 57.7031C48.084 57.7421 48.128 57.7751 48.168 57.8181C48.246 57.9021 48.305 58.0051 48.371 58.1001C48.423 58.1761 48.484 58.2441 48.527 58.3281C48.588 58.4441 48.627 58.5791 48.672 58.7091C48.7 58.7911 48.738 58.8631 48.76 58.9501C48.8 59.1101 48.819 59.2911 48.837 59.4701C48.845 59.5451 48.863 59.6101 48.868 59.6881C48.883 59.9531 48.877 60.2361 48.849 60.5381C48.775 61.3621 48.538 61.8721 48.31 62.3661C47.803 63.4641 47.561 64.3041 48.763 65.9191L48.988 66.2211H63.892V52.0191C64.641 51.5311 64.93 51.6171 65.621 51.9361C66.143 52.1781 66.859 52.5081 67.941 52.6071C69.754 52.7741 71.06 52.3441 71.982 51.3691C73.252 50.0271 73.164 48.1361 73.159 48.1361C73.168 48.0561 73.258 46.1621 71.987 44.8191ZM70.898 50.3371C70.303 50.9661 69.377 51.2331 68.081 51.1121C67.259 51.0381 66.748 50.8011 66.255 50.5741C65.813 50.3701 65.355 50.1581 64.792 50.1581C64.152 50.1581 63.507 50.4261 62.699 51.0261L62.396 51.2511V64.7201H49.758C49.753 64.7121 49.746 64.7031 49.741 64.6971C49.718 64.6621 49.701 64.6311 49.679 64.5971C49.641 64.5351 49.603 64.4741 49.574 64.4181C49.554 64.3821 49.541 64.3501 49.525 64.3161C49.503 64.2681 49.482 64.2211 49.466 64.1761C49.454 64.1441 49.446 64.1131 49.438 64.0811C49.427 64.0401 49.418 63.9991 49.414 63.9601C49.41 63.9311 49.407 63.9011 49.406 63.8731C49.405 63.8331 49.406 63.7941 49.41 63.7551C49.413 63.7281 49.416 63.7001 49.421 63.6731C49.428 63.6311 49.44 63.5891 49.452 63.5461C49.46 63.5201 49.466 63.4951 49.474 63.4681C49.492 63.4171 49.513 63.3641 49.537 63.3091C49.546 63.2881 49.553 63.2681 49.562 63.2461C49.596 63.1681 49.634 63.0851 49.676 62.9941C49.917 62.4711 50.248 61.7551 50.347 60.6721C50.384 60.2601 50.388 59.8701 50.363 59.5011C50.352 59.3551 50.315 59.2261 50.295 59.0851C50.264 58.8741 50.241 58.6561 50.187 58.4621C50.148 58.3201 50.082 58.1971 50.031 58.0651C49.964 57.8931 49.907 57.7141 49.82 57.5571C49.754 57.4371 49.663 57.3361 49.586 57.2261C49.492 57.0921 49.413 56.9481 49.303 56.8271C49.287 56.8101 49.27 56.7981 49.254 56.7811C49.245 56.7721 49.24 56.7601 49.232 56.7521C49.188 56.7071 49.139 56.6761 49.094 56.6341C48.984 56.5301 48.873 56.4301 48.757 56.3441C48.69 56.2941 48.622 56.2531 48.555 56.2081C48.445 56.1371 48.335 56.0691 48.224 56.0111C48.152 55.9741 48.082 55.9411 48.011 55.9081C47.902 55.8571 47.793 55.8121 47.685 55.7721C47.615 55.7471 47.547 55.7221 47.479 55.7011C47.373 55.6671 47.271 55.6381 47.168 55.6141C47.105 55.5981 47.042 55.5811 46.981 55.5681C46.88 55.5471 46.789 55.5321 46.698 55.5181C46.645 55.5101 46.594 55.5001 46.546 55.4951C46.446 55.4821 46.36 55.4741 46.278 55.4691C46.253 55.4671 46.224 55.4641 46.202 55.4621C46.095 55.4561 46.002 55.4531 45.934 55.4531H45.739C45.616 55.4531 45.411 55.4641 45.165 55.4931C45.144 55.4961 45.125 55.4981 45.102 55.5011C44.966 55.5201 44.822 55.5421 44.664 55.5751C44.633 55.5821 44.602 55.5911 44.571 55.5971C44.442 55.6271 44.312 55.6621 44.175 55.7061C44.119 55.7241 44.065 55.7441 44.008 55.7651C43.89 55.8071 43.771 55.8571 43.651 55.9111C43.585 55.9411 43.52 55.9731 43.454 56.0081C43.339 56.0681 43.226 56.1371 43.113 56.2101C43.047 56.2541 42.98 56.2951 42.915 56.3431C42.799 56.4301 42.687 56.5311 42.576 56.6341C42.531 56.6761 42.482 56.7071 42.439 56.7521C42.43 56.7611 42.425 56.7731 42.417 56.7811C42.401 56.7991 42.384 56.8101 42.368 56.8271C42.258 56.9471 42.18 57.0921 42.086 57.2251C42.008 57.3351 41.917 57.4371 41.851 57.5561C41.764 57.7131 41.707 57.8921 41.641 58.0651C41.589 58.1981 41.523 58.3201 41.484 58.4611C41.429 58.6561 41.407 58.8731 41.376 59.0851C41.355 59.2251 41.318 59.3541 41.308 59.5011C41.283 59.8691 41.287 60.2601 41.324 60.6721C41.423 61.7541 41.754 62.4701 41.995 62.9921C42.037 63.0841 42.075 63.1671 42.109 63.2451C42.118 63.2661 42.125 63.2841 42.132 63.3041C42.156 63.3621 42.179 63.4161 42.196 63.4691C42.205 63.4941 42.211 63.5181 42.217 63.5421C42.231 63.5871 42.242 63.6321 42.25 63.6751C42.254 63.7001 42.256 63.7261 42.259 63.7511C42.264 63.7921 42.266 63.8341 42.264 63.8761C42.263 63.9021 42.26 63.9301 42.257 63.9561C42.251 63.9991 42.242 64.0421 42.231 64.0861C42.223 64.1141 42.215 64.1441 42.205 64.1731C42.188 64.2201 42.167 64.2701 42.143 64.3211C42.127 64.3511 42.115 64.3821 42.098 64.4151C42.067 64.4731 42.028 64.5371 41.987 64.6031C41.968 64.6331 41.952 64.6631 41.93 64.6951C41.925 64.7031 41.918 64.7121 41.913 64.7191H29.271V52.0191C30.018 51.5321 30.306 51.6151 31 51.9371C31.523 52.1781 32.238 52.5081 33.319 52.6071C33.56 52.6281 33.796 52.6401 34.022 52.6401C34.37 52.6401 34.699 52.6121 35.01 52.5611C35.084 52.5481 35.149 52.5231 35.221 52.5071C35.45 52.4591 35.675 52.4071 35.882 52.3301C35.984 52.2931 36.073 52.2371 36.17 52.1931C36.332 52.1181 36.496 52.0451 36.645 51.9511C36.744 51.8881 36.83 51.8071 36.921 51.7351C37.027 51.6531 37.142 51.5831 37.239 51.4891C37.264 51.4651 37.28 51.4381 37.303 51.4141C37.321 51.3961 37.341 51.3861 37.358 51.3681C37.424 51.2981 37.473 51.2211 37.533 51.1471C37.602 51.0621 37.675 50.9801 37.735 50.8931C37.799 50.7981 37.851 50.7031 37.906 50.6061C37.958 50.5161 38.012 50.4281 38.055 50.3371C38.1 50.2441 38.133 50.1531 38.17 50.0611C38.207 49.9691 38.248 49.8761 38.277 49.7861C38.305 49.7011 38.324 49.6221 38.346 49.5401C38.371 49.4471 38.4 49.3541 38.419 49.2671C38.434 49.1991 38.441 49.1401 38.453 49.0771C38.469 48.9851 38.487 48.8931 38.497 48.8121C38.503 48.7691 38.505 48.7381 38.509 48.6991C38.518 48.6101 38.528 48.5221 38.531 48.4531C38.531 48.4461 38.531 48.4441 38.532 48.4381C38.536 48.3451 38.538 48.2701 38.537 48.2171C38.537 48.1641 38.536 48.1351 38.535 48.1351C38.536 48.1171 38.539 48.0051 38.533 47.8451C38.532 47.8171 38.533 47.8001 38.531 47.7691C38.528 47.7091 38.519 47.6351 38.512 47.5641C38.507 47.5061 38.504 47.4571 38.496 47.3931C38.487 47.3241 38.472 47.2451 38.459 47.1691C38.446 47.0881 38.436 47.0131 38.417 46.9261C38.4 46.8501 38.375 46.7691 38.354 46.6901C38.33 46.5941 38.306 46.5011 38.274 46.4021C38.248 46.3211 38.211 46.2391 38.178 46.1561C38.138 46.0521 38.1 45.9511 38.05 45.8461C38.011 45.7631 37.96 45.6821 37.913 45.6001C37.854 45.4961 37.799 45.3931 37.728 45.2911C37.672 45.2091 37.604 45.1331 37.54 45.0531C37.477 44.9761 37.427 44.8951 37.355 44.8201C37.338 44.8021 37.317 44.7931 37.3 44.7751C37.276 44.7511 37.26 44.7231 37.235 44.6991C37.146 44.6131 37.037 44.5551 36.94 44.4791C36.797 44.3641 36.658 44.2441 36.5 44.1501C36.422 44.1051 36.332 44.0771 36.25 44.0371C36.032 43.9281 35.81 43.8231 35.562 43.7531C35.532 43.7441 35.496 43.7421 35.465 43.7341C35.163 43.6541 34.847 43.5941 34.507 43.5691C34.135 43.5431 33.741 43.5431 33.314 43.5821C32.234 43.6811 31.519 44.0121 30.997 44.2531C30.302 44.5721 30.015 44.6581 29.268 44.1711V31.4681H43.969C43.974 31.4751 43.981 31.4851 43.986 31.4911C44.008 31.5251 44.026 31.5551 44.047 31.5891C44.086 31.6521 44.124 31.7151 44.154 31.7721C44.172 31.8051 44.185 31.8351 44.2 31.8671C44.223 31.9181 44.246 31.9681 44.263 32.0141C44.273 32.0431 44.281 32.0731 44.288 32.1011C44.3 32.1451 44.309 32.1881 44.314 32.2301C44.318 32.2571 44.32 32.2851 44.321 32.3111C44.323 32.3531 44.321 32.3941 44.317 32.4361C44.314 32.4601 44.312 32.4861 44.307 32.5121C44.299 32.5561 44.287 32.6011 44.274 32.6471C44.267 32.6701 44.262 32.6931 44.253 32.7161C44.234 32.7701 44.212 32.8251 44.189 32.8831C44.18 32.9031 44.174 32.9211 44.165 32.9421C44.131 33.0201 44.093 33.1031 44.051 33.1941C43.809 33.7161 43.478 34.4321 43.379 35.5151C43.342 35.9281 43.338 36.3201 43.364 36.6891C43.374 36.8171 43.407 36.9281 43.424 37.0501C43.456 37.2811 43.483 37.5161 43.541 37.7281C43.579 37.8641 43.643 37.9811 43.692 38.1091C43.759 38.2871 43.819 38.4701 43.909 38.6321C43.973 38.7501 44.064 38.8501 44.141 38.9601C44.235 39.0941 44.314 39.2391 44.425 39.3611C44.441 39.3791 44.458 39.3901 44.474 39.4071C44.483 39.4161 44.488 39.4281 44.496 39.4361C44.539 39.4811 44.588 39.5121 44.633 39.5541C44.744 39.6581 44.855 39.7581 44.972 39.8451C45.037 39.8941 45.105 39.9351 45.172 39.9791C45.282 40.0501 45.393 40.1191 45.505 40.1781C45.576 40.2151 45.646 40.2481 45.716 40.2811C45.826 40.3311 45.934 40.3761 46.042 40.4161C46.113 40.4421 46.183 40.4671 46.252 40.4891C46.356 40.5211 46.453 40.5491 46.552 40.5731C46.621 40.5901 46.688 40.6081 46.754 40.6221C46.842 40.6401 46.923 40.6531 47.004 40.6661C47.069 40.6771 47.135 40.6881 47.194 40.6951C47.264 40.7041 47.322 40.7091 47.384 40.7141C47.438 40.7191 47.493 40.7251 47.538 40.7281C47.641 40.7341 47.727 40.7361 47.793 40.7361H47.983H47.988C48.022 40.7361 48.075 40.7331 48.12 40.7321C48.153 40.7311 48.179 40.7311 48.218 40.7291C48.274 40.7261 48.343 40.7191 48.409 40.7131C48.455 40.7091 48.495 40.7071 48.546 40.7011C48.61 40.6931 48.687 40.6801 48.758 40.6691C48.821 40.6591 48.878 40.6521 48.945 40.6401C49.015 40.6271 49.091 40.6061 49.166 40.5881C49.243 40.5701 49.317 40.5551 49.398 40.5321C49.468 40.5111 49.542 40.4831 49.614 40.4591C49.704 40.4301 49.791 40.4021 49.883 40.3661C49.953 40.3381 50.024 40.3001 50.095 40.2661C50.19 40.2221 50.283 40.1811 50.378 40.1281C50.448 40.0891 50.516 40.0401 50.584 39.9951C50.679 39.9351 50.772 39.8791 50.864 39.8081C50.933 39.7551 50.998 39.6901 51.064 39.6311C51.138 39.5661 51.215 39.5081 51.287 39.4351C51.297 39.4251 51.302 39.4131 51.311 39.4021C51.326 39.3861 51.343 39.3761 51.358 39.3591C51.464 39.2421 51.541 39.1011 51.632 38.9721C51.713 38.8581 51.807 38.7521 51.875 38.6291C51.963 38.4691 52.021 38.2881 52.089 38.1131C52.139 37.9831 52.204 37.8631 52.242 37.7251C52.301 37.5151 52.327 37.2821 52.358 37.0531C52.376 36.9281 52.409 36.8151 52.419 36.6851C52.445 36.3161 52.441 35.9251 52.404 35.5111C52.304 34.4301 51.974 33.7141 51.732 33.1911C51.69 33.1001 51.652 33.0171 51.618 32.9391C51.608 32.9181 51.601 32.8971 51.593 32.8761C51.57 32.8211 51.548 32.7681 51.53 32.7171C51.521 32.6901 51.515 32.6651 51.508 32.6401C51.495 32.5961 51.484 32.5541 51.477 32.5121C51.472 32.4851 51.469 32.4571 51.466 32.4301C51.462 32.3911 51.461 32.3511 51.462 32.3121C51.463 32.2841 51.466 32.2541 51.47 32.2251C51.475 32.1861 51.484 32.1451 51.494 32.1031C51.502 32.0721 51.511 32.0411 51.522 32.0091C51.538 31.9651 51.558 31.9181 51.58 31.8701C51.597 31.8361 51.61 31.8031 51.63 31.7661C51.658 31.7121 51.694 31.6541 51.732 31.5941C51.753 31.5581 51.773 31.5251 51.798 31.4861C51.802 31.4801 51.808 31.4721 51.813 31.4651H62.392V44.9351L62.695 45.1611C63.503 45.7611 64.148 46.0271 64.788 46.0271C65.351 46.0271 65.809 45.8161 66.251 45.6111C66.745 45.3831 67.2551 45.1481 68.077 45.0731C69.368 44.9531 70.292 45.2181 70.886 45.8401C71.714 46.7061 71.663 48.0401 71.662 48.1341C71.667 48.1481 71.716 49.4731 70.898 50.3371Z" fill="#FB5F61"/>
<path d="M48 0.751953C35.984 0.751953 24.6579 5.21595 15.8979 13.346L15.8989 2.42795H14.3989L14.3979 15.866L27.8359 15.865V14.365L17.002 14.366C25.472 6.54395 36.4039 2.25195 48 2.25195C73.226 2.25195 93.7479 22.774 93.7479 48C93.7479 60.225 88.9859 71.715 80.3389 80.356C79.0289 81.665 77.6259 82.907 76.1709 84.045L75.9069 84.25L76.8229 85.438L77.094 85.228C78.599 84.0499 80.047 82.768 81.3999 81.416C90.3299 72.493 95.2479 60.625 95.2479 48C95.2479 21.947 74.0529 0.751953 48 0.751953Z" fill="#212A3F"/>
<path d="M2.29195 46.0569L0.793953 45.9939C0.765953 46.6599 0.751953 47.3279 0.751953 47.9999C0.751953 51.8169 1.20895 55.6149 2.10895 59.2879L3.56595 58.9309C2.69395 55.3749 2.25195 51.6969 2.25195 47.9999C2.25195 47.3499 2.26595 46.7009 2.29195 46.0569Z" fill="#212A3F"/>
<path d="M52.053 93.571L52.184 95.065C56.656 94.672 61.034 93.648 65.196 92.02L64.649 90.624C60.62 92.199 56.382 93.191 52.053 93.571Z" fill="#212A3F"/>
<path d="M26.235 89.945C30.21 92.012 34.453 93.498 38.845 94.361L39.134 92.888C34.882 92.053 30.775 90.615 26.926 88.615L26.235 89.945Z" fill="#212A3F"/>
<path d="M7.104 71.679C9.348 75.546 12.13 79.077 15.372 82.172L16.407 81.088C13.268 78.09 10.575 74.671 8.401 70.925L7.104 71.679Z" fill="#212A3F"/>
<path d="M3.25195 32.7979L4.67195 33.2799C5.30095 31.4269 6.05995 29.5939 6.92695 27.8319L5.58095 27.1699C4.68595 28.9899 3.90095 30.8839 3.25195 32.7979Z" fill="#212A3F"/>
</svg>
