<svg width="96" height="96" viewBox="0 0 96 96" fill="none" xmlns="http://www.w3.org/2000/svg">
<path d="M51.4723 30.765C51.9563 30.077 52.2463 29.242 52.2463 28.337C52.2463 26.002 50.3473 24.103 48.0123 24.103C45.6763 24.103 43.7763 26.002 43.7763 28.337C43.7763 29.241 44.0673 30.077 44.5513 30.766C42.8683 31.169 40.3633 32.051 40.3633 33.728V39.82H55.6603V33.728C55.6603 32.05 53.1543 31.169 51.4723 30.765ZM48.0123 25.603C49.5203 25.603 50.7463 26.83 50.7463 28.337C50.7463 29.846 49.5193 31.073 48.0123 31.073C46.5033 31.073 45.2763 29.845 45.2763 28.337C45.2753 26.829 46.5033 25.603 48.0123 25.603ZM48.7473 32.499L48.0123 33.936L47.2783 32.499C47.5183 32.541 47.7603 32.573 48.0123 32.573C48.2643 32.573 48.5073 32.541 48.7473 32.499ZM54.1603 38.319H41.8633V33.727C41.8633 33.252 43.5423 32.503 45.3963 32.114L48.0113 37.23L50.6283 32.114C52.4823 32.504 54.1593 33.253 54.1593 33.727V38.319H54.1603Z" fill="#FB5F61"/>
<path d="M48.0111 20.701C55.1293 20.701 60.9201 26.4929 60.9201 33.61C60.9201 40.7272 55.1303 46.517 48.0121 46.517C40.894 46.517 35.1031 40.7262 35.1031 33.61C35.1031 26.4928 40.893 20.701 48.0111 20.701ZM36.3031 33.61C36.3031 40.0649 41.5563 45.317 48.0121 45.317C54.468 45.317 59.7201 40.0649 59.7201 33.61C59.7201 27.1542 54.468 21.901 48.0121 21.901C41.5563 21.901 36.3031 27.1542 36.3031 33.61Z" fill="#FB5F61" stroke="#FB5F61" stroke-width="0.3"/>
<path d="M87.6817 68.278C83.7677 68.278 80.5407 71.268 80.1627 75.085H55.6217C55.2657 71.487 52.3767 68.628 48.7677 68.312V55.23L50.2507 55.229L51.7567 49.16C54.1717 48.581 56.4267 47.454 58.3297 45.875L63.7747 48.637L66.6527 44.905L62.8167 39.9C63.3887 38.582 63.7837 37.205 63.9897 35.798C64.0937 35.08 64.1447 34.34 64.1467 33.55L69.7557 30.99L68.6397 26.144L62.3557 26.024C61.4487 24.278 60.1907 22.673 58.6847 21.34L60.1917 15.32L59.7377 15.029C58.6287 14.319 57.4387 13.705 56.2027 13.204L55.6937 13L51.7687 17.735C51.2677 17.611 50.7967 17.517 50.3417 17.45C48.7867 17.222 47.2047 17.227 45.6327 17.46L41.7947 12.442L37.3157 14.327L38.5707 20.33C36.6787 21.687 35.0927 23.447 33.9447 25.464L27.6507 25.333L26.4097 29.726L31.8687 32.484C31.7077 35.1 32.1767 37.698 33.2327 40.057L29.2797 44.81L31.9117 48.308L37.4917 45.749C39.5097 47.473 41.9377 48.669 44.5687 49.235L45.8087 55.231L47.2667 55.23V68.327C43.7387 68.718 40.9347 71.545 40.5837 75.085H15.8367C15.4587 71.269 12.2327 68.278 8.31774 68.278C4.15074 68.278 0.760742 71.668 0.760742 75.835C0.760742 80.002 4.15074 83.392 8.31774 83.392C12.2317 83.392 15.4587 80.402 15.8367 76.585H40.5847C40.9627 80.401 44.1887 83.392 48.1037 83.392C52.0187 83.392 55.2447 80.402 55.6227 76.585H80.1637C80.5417 80.401 83.7677 83.392 87.6827 83.392C91.8497 83.392 95.2397 80.002 95.2397 75.835C95.2397 71.668 91.8487 68.278 87.6817 68.278ZM47.0297 53.731L45.8347 47.95L45.3377 47.859C42.6247 47.362 40.1317 46.134 38.1277 44.309L37.7617 43.975L32.3847 46.44L31.1927 44.856L35.0017 40.278L34.7907 39.842C33.6347 37.462 33.1547 34.788 33.4037 32.109L33.4507 31.6L28.1907 28.944L28.7817 26.856L34.8317 26.983L35.0477 26.575C36.1737 24.456 37.8257 22.628 39.8267 21.286L40.2467 21.005L39.0387 15.23L41.3097 14.275L44.9927 19.091L45.4417 19.011C47.0037 18.735 48.5797 18.708 50.1247 18.935C50.6587 19.014 51.2227 19.135 51.8467 19.305L52.3137 19.432L56.1457 14.809C56.9497 15.161 57.7297 15.563 58.4747 16.012L57.0047 21.883L57.3657 22.184C58.9897 23.541 60.3197 25.239 61.2137 27.092L61.4137 27.508L67.4417 27.622L68.0207 30.136L62.6317 32.594L62.6427 33.088C62.6637 33.984 62.6187 34.802 62.5057 35.584C62.2997 36.992 61.8837 38.371 61.2697 39.684L61.0777 40.096L64.7617 44.903L63.3467 46.737L58.1087 44.081L57.7267 44.419C55.8217 46.106 53.4917 47.273 50.9887 47.797L50.5277 47.894L49.0787 53.731H47.0297ZM8.31774 81.892C4.97774 81.892 2.26074 79.175 2.26074 75.835C2.26074 72.495 4.97774 69.778 8.31774 69.778C11.6577 69.778 14.3747 72.495 14.3747 75.835C14.3747 79.175 11.6577 81.892 8.31774 81.892ZM48.1037 81.892C44.7637 81.892 42.0467 79.175 42.0467 75.835C42.0467 72.495 44.7637 69.778 48.1037 69.778C51.4437 69.778 54.1607 72.495 54.1607 75.835C54.1607 79.175 51.4427 81.892 48.1037 81.892ZM87.6817 81.892C84.3417 81.892 81.6247 79.175 81.6247 75.835C81.6247 72.495 84.3417 69.778 87.6817 69.778C91.0217 69.778 93.7387 72.495 93.7387 75.835C93.7387 79.175 91.0207 81.892 87.6817 81.892Z" fill="#212A3F"/>
</svg>
