<svg width="96" height="87" viewBox="0 0 96 87" fill="none" xmlns="http://www.w3.org/2000/svg">
<path d="M95.511 20.3861V86.5751H27.8L0.486984 66.3211V0.13208H68.198L95.511 20.3861ZM1.98698 65.1941H27.298V21.1411L1.98698 2.37208V65.1941ZM28.798 65.1941H67.2V21.5141H28.798V65.1941ZM94.011 21.5141H68.7V65.5671L94.011 84.3361V21.5141ZM68.7 2.37308V20.0141H92.49L68.7 2.37308ZM67.703 66.6941H28.798V85.0761H92.49L67.703 66.6941ZM27.298 84.3351V66.6941H3.50899L27.298 84.3351ZM28.296 20.0141H67.2V1.63208H3.50799L28.296 20.0141Z" fill="#212A3F"/>
<g clip-path="url(#clip0)">
<path d="M63.9265 35.6748L63.9872 35.7198V35.7953V57.8583V58.0083H63.8372H41.2668H41.2173L41.1775 57.9788L32.0731 51.2274L32.0125 51.1825V51.1069V29.0439V28.8939H32.1625H54.7328H54.7824L54.8222 28.9235L63.9265 35.6748ZM32.8125 50.5813H40.9495V36.1225L32.8125 30.0886V50.5813ZM41.7495 50.5813H54.2502V36.3213H41.7495V50.5813ZM63.1872 36.3213H55.0502V50.7801L63.1872 56.814V36.3213ZM62.376 35.5213L55.0502 30.0889V35.5213H62.376ZM62.3761 57.2086L54.5183 51.3813H41.7495V57.2086H62.3761ZM33.6239 51.3813L40.9495 56.8136V51.3813H33.6239ZM41.4817 35.5213H54.2502V29.6939H33.6236L41.4817 35.5213Z" fill="#FB5F61" stroke="#FB5F61" stroke-width="0.3"/>
</g>
<defs>
<clipPath id="clip0">
<rect width="32" height="29" fill="white" transform="matrix(-1 0 0 1 64 29)"/>
</clipPath>
</defs>
</svg>
