<svg width="96" height="96" viewBox="0 0 96 96" fill="none" xmlns="http://www.w3.org/2000/svg">
<path d="M64.7 43.4141H56.453V44.9141H64.7V43.4141Z" fill="#FB5F61"/>
<path d="M80.1729 10.793H40.3079C38.5959 10.793 37.2029 12.187 37.2029 13.898V40.554H34.7939V44.163C34.7939 46.153 36.7159 47.772 39.0789 47.772H82.077C84.4399 47.772 86.3619 46.153 86.3619 44.163V40.554H83.2799V13.898C83.2789 12.187 81.8859 10.793 80.1729 10.793ZM84.8609 42.055V44.164C84.8609 45.308 83.5859 46.273 82.0759 46.273H39.0779C37.5679 46.273 36.2929 45.307 36.2929 44.164V42.055H37.2019H83.2789H84.8609ZM38.7019 40.555V13.898C38.7019 13.012 39.4219 12.293 40.3069 12.293H80.1719C81.0579 12.293 81.7779 13.013 81.7779 13.898V40.554H38.7019V40.555Z" fill="#FB5F61"/>
<path d="M60.2395 17.203C55.1555 17.203 51.0195 21.34 51.0195 26.424C51.0195 31.508 55.1555 35.645 60.2395 35.645C65.3245 35.645 69.4615 31.508 69.4615 26.424C69.4615 21.34 65.3245 17.203 60.2395 17.203ZM60.2395 34.145C55.9825 34.145 52.5195 30.681 52.5195 26.424C52.5195 22.167 55.9825 18.703 60.2395 18.703C64.4975 18.703 67.9615 22.167 67.9615 26.424C67.9615 30.681 64.4975 34.145 60.2395 34.145Z" fill="#FB5F61"/>
<path d="M60.623 25.786C59.289 24.861 58.85 24.193 59.198 23.62C59.465 23.182 59.714 23.106 59.878 23.087C60.54 23.02 61.403 23.725 61.658 23.982L62.726 22.929C62.62 22.821 61.897 22.136 60.972 21.788V20.225H59.472V21.639C58.992 21.748 58.395 22.053 57.916 22.841C57.095 24.193 57.718 25.598 59.802 27.043C61.19 27.998 61.632 28.651 61.281 29.228C61.015 29.665 60.766 29.741 60.603 29.76C59.95 29.843 59.078 29.122 58.825 28.868L57.755 29.919C57.86 30.026 58.557 30.708 59.472 31.058V32.623H60.972V31.218C61.457 31.115 62.073 30.814 62.563 30.007C63.802 27.974 61.432 26.343 60.623 25.786Z" fill="#FB5F61"/>
<path d="M85.32 57.395C85.175 57.469 72.138 64.006 63.775 65.749C63.99 65.166 64.091 64.436 64.091 63.498C64.091 61.094 63.671 57.896 60.042 57.896C56.146 57.896 43.087 57.599 38.601 53.78C34.024 49.886 22.506 50.702 19.265 51.02V47.353H0.752014V82.878H19.266V78.439C23.247 79.964 37.695 85.207 48.207 85.207C60.763 85.207 86.011 73.502 93.997 63.979C95.218 62.522 96.038 59.169 94.039 56.28C91.941 53.249 85.93 56.997 85.32 57.395ZM17.766 81.379H2.25201V48.854H17.766V81.379ZM92.848 63.017C85.226 72.105 60.194 83.707 48.207 83.707C37.537 83.707 22.132 77.941 19.266 76.831V52.529C22.121 52.249 33.477 51.39 37.629 54.923C42.372 58.961 54.884 59.397 60.043 59.397C61.333 59.397 62.592 59.713 62.592 63.499C62.592 66.327 62.308 66.437 54.998 66.437H49.08V67.937H54.998C57.843 67.937 59.868 67.932 61.282 67.632V67.638C69.47 67.025 85.325 59.074 86.064 58.697C87.83 57.56 91.802 55.684 92.804 57.135C94.339 59.351 93.736 61.954 92.848 63.017Z" fill="#212A3F"/>
</svg>
