<svg width="91" height="96" viewBox="0 0 91 96" fill="none" xmlns="http://www.w3.org/2000/svg">
<path d="M87.6214 21.0698C64.9211 21.0698 54.9208 11.8804 45.8761 1.64384C45.8599 1.62464 45.8377 1.61726 45.82 1.60101C45.8023 1.58476 45.7964 1.56261 45.7787 1.54636C45.7388 1.51239 45.6901 1.4991 45.6472 1.47104C45.5852 1.42969 45.5246 1.38833 45.4567 1.36027C45.3888 1.33221 45.3208 1.32039 45.2485 1.3071C45.1805 1.29381 45.117 1.28052 45.0476 1.28052C44.9737 1.28052 44.9028 1.29381 44.8305 1.31006C44.764 1.32335 44.7005 1.33516 44.6385 1.36027C44.5676 1.38833 44.5056 1.43116 44.4406 1.47399C44.3992 1.50206 44.3505 1.51387 44.3121 1.54784C44.2944 1.56409 44.287 1.58624 44.2707 1.60249C44.253 1.61873 44.2309 1.62612 44.2146 1.64384C35.1699 11.8804 25.1697 21.0698 2.47085 21.0698C1.85941 21.0698 1.36316 21.5661 1.36316 22.1775C1.36316 62.0987 23.7046 85.7856 44.6148 94.6427C44.6296 94.6501 44.6459 94.6472 44.6606 94.6531C44.7832 94.6974 44.9088 94.7299 45.0417 94.7313C45.0432 94.7313 45.0432 94.7313 45.0446 94.7313C45.0461 94.7313 45.0461 94.7313 45.0476 94.7313C45.1805 94.7299 45.3075 94.6989 45.4286 94.6531C45.4434 94.6472 45.4596 94.6501 45.4744 94.6427C66.3832 85.7856 88.7261 62.0987 88.7261 22.1775C88.7291 21.5661 88.2328 21.0698 87.6214 21.0698ZM45.0461 92.4111C25.1062 83.7711 3.99356 61.1638 3.59774 23.2542C25.6984 22.944 36.3367 13.7428 45.0461 4.0335C53.754 13.7428 64.3923 22.944 86.4945 23.2542C86.0987 61.1638 64.986 83.7711 45.0461 92.4111Z" fill="#212A3F"/>
<path d="M59.0948 34.9011L42.3361 58.715L30.8973 46.5939C30.4764 46.1493 29.7764 46.1286 29.3318 46.5481C28.8873 46.9675 28.8666 47.6691 29.286 48.1136L41.6553 61.2213C41.6804 61.2494 41.7158 61.2582 41.7439 61.2819C41.7734 61.3099 41.7911 61.3439 41.8236 61.3675C41.8679 61.3985 41.9181 61.4133 41.9654 61.4384C42.0023 61.4576 42.0348 61.4768 42.0732 61.4916C42.1988 61.5374 42.3287 61.5699 42.4602 61.5699C42.6167 61.5699 42.7703 61.527 42.9165 61.4606C42.9609 61.4399 42.9978 61.4104 43.0391 61.3823C43.0997 61.3454 43.1661 61.3188 43.2208 61.2686C43.2548 61.2376 43.2695 61.1947 43.2976 61.1593C43.3183 61.1357 43.3478 61.1268 43.3655 61.1002L60.904 36.1771C61.2555 35.6765 61.1359 34.9853 60.6352 34.6338C60.136 34.2778 59.4448 34.4004 59.0948 34.9011Z" fill="#FB5F61"/>
</svg>
