<svg width="96" height="96" viewBox="0 0 96 96" fill="none" xmlns="http://www.w3.org/2000/svg">
<path d="M48 0.751953C60.016 0.751953 71.342 5.21595 80.102 13.346L80.101 2.42795H81.601L81.602 15.866L68.164 15.865V14.365L78.998 14.366C70.528 6.54395 59.596 2.25195 48 2.25195C22.774 2.25195 2.25196 22.774 2.25196 48C2.25196 60.225 7.01396 71.715 15.661 80.356C16.971 81.665 18.374 82.907 19.829 84.045L20.093 84.25L19.177 85.438L18.906 85.228C17.401 84.0499 15.953 82.768 14.6 81.416C5.66996 72.493 0.751961 60.625 0.751961 48C0.751961 21.947 21.947 0.751953 48 0.751953Z" fill="#212A3F"/>
<path d="M93.708 46.0571L95.206 45.9941C95.234 46.6601 95.248 47.3281 95.248 48.0001C95.248 51.8171 94.791 55.6151 93.891 59.2881L92.434 58.9311C93.306 55.3751 93.748 51.6971 93.748 48.0001C93.748 47.3501 93.734 46.7011 93.708 46.0571Z" fill="#FB5F61"/>
<path d="M43.9469 93.571L43.8159 95.065C39.3439 94.672 34.9659 93.648 30.8039 92.02L31.3509 90.624C35.3799 92.199 39.6179 93.191 43.9469 93.571Z" fill="#212A3F"/>
<path d="M69.7648 89.9452C65.7898 92.0122 61.5468 93.4982 57.1548 94.3612L56.8658 92.8882C61.1178 92.0532 65.2248 90.6152 69.0738 88.6152L69.7648 89.9452Z" fill="#212A3F"/>
<path d="M88.8959 71.6788C86.6519 75.5458 83.8699 79.0768 80.6279 82.1718L79.5929 81.0878C82.7319 78.0898 85.4249 74.6708 87.5989 70.9248L88.8959 71.6788Z" fill="#212A3F"/>
<path d="M92.748 32.7979L91.328 33.2799C90.699 31.4269 89.94 29.5939 89.073 27.8319L90.419 27.1699C91.314 28.9899 92.099 30.8839 92.748 32.7979Z" fill="#212A3F"/>
<path d="M48.1355 31.9272C39.5041 31.9272 32.4814 38.9499 32.4814 47.5814C32.4814 56.2118 39.5041 63.2334 48.1355 63.2334C56.7675 63.2334 63.7908 56.2118 63.7908 47.5814C63.7902 38.9499 56.7675 31.9272 48.1355 31.9272ZM48.1355 62.4106C39.9574 62.4106 33.3036 55.7579 33.3036 47.5808C33.3036 39.4027 39.9574 32.7489 48.1355 32.7489C56.3142 32.7489 62.9686 39.4027 62.9686 47.5808C62.968 55.7585 56.3137 62.4106 48.1355 62.4106Z" fill="#FB5F61" stroke="#FB5F61" stroke-width="0.7"/>
<path d="M67.734 47.2516L74.6208 44.1086L73.4196 38.8969L65.7087 38.7501C64.5569 36.4411 62.8978 34.324 60.8895 32.6016L62.7471 25.1787L62.4975 25.0187C61.1424 24.1512 59.6937 23.403 58.1918 22.7955L57.912 22.6823L53.0702 28.5235C52.3424 28.3338 51.6739 28.1947 51.0334 28.0996C49.052 27.8104 47.035 27.8297 45.0338 28.1579L40.3246 22L35.5257 24.0182L37.0667 31.391C34.5719 33.1156 32.4971 35.4147 31.0441 38.0656L23.3156 37.9035L22 42.561L28.706 45.9492C28.4399 49.3379 29.0457 52.7134 30.4663 55.7448L25.6097 61.5833L28.3794 65.2661L35.2355 62.1231C37.8067 64.3986 40.9563 65.9495 44.3763 66.6246L45.9003 73.9925L50.587 73.9903L52.4375 66.5372C55.5876 65.834 58.5228 64.3645 60.9571 62.2716L67.6438 65.6625L70.7109 61.6844L66.0017 55.5414C66.762 53.8646 67.2804 52.1038 67.5454 50.3016C67.6845 49.3341 67.7466 48.3324 67.734 47.2516ZM66.7296 50.184C66.4651 51.9872 65.9335 53.7486 65.1507 55.4205L65.0446 55.6475L69.6713 61.6839L67.4085 64.6185L60.8329 61.2848L60.6228 61.4706C58.1902 63.624 55.2143 65.1166 52.0158 65.7856L51.7624 65.839L49.9421 73.1662L46.5715 73.1684L45.0712 65.9165L44.798 65.8665C41.3334 65.232 38.1481 63.6641 35.5868 61.3315L35.3856 61.1479L28.6395 64.2403L26.6609 61.6097L31.4388 55.8652L31.3228 55.6255C29.8456 52.5848 29.2326 49.168 29.551 45.7452L29.5768 45.4654L22.978 42.1317L23.9363 38.7407L31.5323 38.9007L31.651 38.6764C33.0887 35.9689 35.1997 33.6324 37.7561 31.9193L37.987 31.7648L36.4719 24.5152L40.0569 23.0072L44.6831 29.0567L44.9299 29.0127C46.9256 28.6592 48.9382 28.6257 50.9141 28.916C51.5958 29.0171 52.3149 29.1711 53.1109 29.3877L53.3677 29.4575L58.1616 23.674C59.4255 24.2029 60.6476 24.834 61.8032 25.5547L59.9648 32.9006L60.1632 33.0661C62.2369 34.799 63.9368 36.9672 65.0775 39.3356L65.1875 39.5643L72.7599 39.7078L73.6654 43.6375L66.8973 46.7249L66.9033 46.997C66.9308 48.1389 66.8736 49.1812 66.7296 50.184Z" fill="#FB5F61" stroke="#FB5F61" stroke-width="0.7"/>
</svg>
