<svg width="96" height="96" viewBox="0 0 96 96" fill="none" xmlns="http://www.w3.org/2000/svg">
<path d="M90.1837 70.156V19.2086C90.1837 16.3371 87.8465 14 84.974 14H9.75462C6.8831 14 4.54598 16.3371 4.54598 19.2086V70.156H0V76.3154C0 79.7111 3.33365 82.4747 7.43277 82.4747H88.5672C92.6653 82.4747 96 79.7111 96 76.3154V70.156H90.1837ZM6.07284 19.2086C6.07284 17.1789 7.72491 15.5269 9.75462 15.5269H84.974C87.0047 15.5269 88.6568 17.1789 88.6568 19.2086V70.156H79.8336V55.9338C81.7961 55.5734 83.2904 53.8562 83.2904 51.7909C83.2904 49.4639 81.3971 47.5706 79.0701 47.5706C76.7432 47.5706 74.8499 49.4639 74.8499 51.7909C74.8499 53.8562 76.3452 55.5734 78.3067 55.9338V70.157H70.6072V62.6642L66.162 59.8486C66.2659 59.4832 66.3391 59.1046 66.3391 58.7055C66.3391 56.3786 64.4458 54.4853 62.1189 54.4853C59.792 54.4853 57.8987 56.3786 57.8987 58.7055C57.8987 61.0325 59.792 62.9258 62.1189 62.9258C63.4972 62.9258 64.7125 62.2519 65.4831 61.2259L69.0814 63.504V70.156H26.9166V63.504L30.5159 61.2259C31.2864 62.2519 32.5018 62.9258 33.8811 62.9258C36.208 62.9258 38.1013 61.0325 38.1013 58.7055C38.1013 56.3786 36.208 54.4853 33.8811 54.4853C31.5542 54.4853 29.6608 56.3786 29.6608 58.7055C29.6608 59.1046 29.7341 59.4822 29.838 59.8476L25.3907 62.6642V70.157H17.6913V55.9338C19.6538 55.5734 21.1481 53.8562 21.1481 51.7909C21.1481 49.4639 19.2548 47.5706 16.9278 47.5706C14.6009 47.5706 12.7076 49.4639 12.7076 51.7909C12.7076 53.8562 14.2029 55.5734 16.1644 55.9338V70.157H6.07284V19.2086ZM79.0701 54.4843C77.585 54.4843 76.3767 53.275 76.3767 51.7909C76.3767 50.3068 77.586 49.0975 79.0701 49.0975C80.5543 49.0975 81.7635 50.3068 81.7635 51.7909C81.7635 53.275 80.5553 54.4843 79.0701 54.4843ZM64.8123 58.7045C64.8123 60.1896 63.603 61.3979 62.1189 61.3979C60.6348 61.3979 59.4255 60.1886 59.4255 58.7045C59.4255 57.2204 60.6348 56.0111 62.1189 56.0111C63.603 56.0111 64.8123 57.2194 64.8123 58.7045ZM31.1867 58.7045C31.1867 57.2194 32.396 56.0111 33.8801 56.0111C35.3642 56.0111 36.5735 57.2204 36.5735 58.7045C36.5735 60.1886 35.3642 61.3979 33.8801 61.3979C32.396 61.3979 31.1867 60.1896 31.1867 58.7045ZM16.9268 54.4843C15.4417 54.4843 14.2334 53.275 14.2334 51.7909C14.2334 50.3068 15.4427 49.0975 16.9268 49.0975C18.4109 49.0975 19.6202 50.3068 19.6202 51.7909C19.6202 53.275 18.4119 54.4843 16.9268 54.4843ZM94.4721 76.3154C94.4721 78.8703 91.8225 80.9479 88.5662 80.9479H7.43175C4.17546 80.9479 1.52585 78.8703 1.52585 76.3154V71.6829H4.54496H90.1837H94.4721V76.3154Z" fill="#212A3F"/>
<path d="M55.7792 75.5518H40.2184V77.0786H55.7792V75.5518Z" fill="#212A3F"/>
<path d="M47.3642 53.7698C55.6347 53.7698 62.3621 47.0424 62.3621 38.7719C62.3621 30.5004 55.6347 23.772 47.3642 23.772C39.0937 23.772 32.3663 30.4993 32.3663 38.7709C32.3663 47.0414 39.0937 53.7698 47.3642 53.7698ZM47.3642 25.2978C54.7929 25.2978 60.8352 31.3422 60.8352 38.7709C60.8352 46.1996 54.7919 52.2419 47.3642 52.2419C39.9365 52.2419 33.8932 46.1996 33.8932 38.7709C33.8932 31.3411 39.9355 25.2978 47.3642 25.2978Z" fill="#FB5F61"/>
<path d="M46.9114 39.3999C48.7477 40.6642 50.4954 42.1687 49.5396 43.7373C49.1192 44.4294 48.6266 44.7989 48.0311 44.8681C46.717 45.0402 45.1341 43.7322 44.6303 43.2232L43.5421 44.294C43.6134 44.3673 44.9326 45.6723 46.5724 46.1874V49.1882H48.0993V46.3909C48.1339 46.3879 48.1685 46.3889 48.2051 46.3848C49.2851 46.2596 50.1738 45.6357 50.8456 44.5312C52.6819 41.5182 49.1202 39.0661 47.7247 38.1052C45.2176 36.3686 44.4379 35.0402 45.1932 33.7994C45.6125 33.1083 46.1052 32.7398 46.6997 32.6695C48.0138 32.5209 49.5987 33.8076 50.1025 34.3165L51.1907 33.2457C51.1174 33.1714 49.7717 31.8165 48.1003 31.3157V28.3516H46.5734V31.1488C46.5572 31.1508 46.5429 31.1498 46.5266 31.1518C45.4476 31.277 44.56 31.9 43.8882 33.0054C42.0437 36.0317 45.6634 38.5378 46.9114 39.3999Z" fill="#FB5F61"/>
</svg>
