<svg width="96" height="96" viewBox="0 0 96 96" fill="none" xmlns="http://www.w3.org/2000/svg">
<path d="M8.14695 81.6352H87.8539C91.8799 81.6352 95.1559 78.9202 95.1559 75.5842V69.5332H89.4429V19.4822C89.4429 16.6612 87.1469 14.3652 84.3249 14.3652H10.4289C7.60795 14.3652 5.31195 16.6612 5.31195 19.4822V69.5332H0.845947V75.5842C0.845947 78.9202 4.12095 81.6352 8.14695 81.6352ZM6.81195 19.4822C6.81195 17.4882 8.43495 15.8652 10.4289 15.8652H84.3249C86.3199 15.8652 87.9429 17.4882 87.9429 19.4822V69.5332H6.81195V19.4822ZM2.34595 71.0332H5.31195H89.4439H93.6569V75.5842C93.6569 78.0942 91.0539 80.1352 87.8549 80.1352H8.14695C4.94795 80.1352 2.34495 78.0942 2.34495 75.5842V71.0332H2.34595Z" fill="#212A3F"/>
<path d="M40.506 76.184V74.984H55.493V76.184H40.506Z" fill="#212A3F" stroke="#FB5F61" stroke-width="0.3"/>
<path d="M59.033 24.6298V28.1558H60.533V22.0688H54.446V23.5688H57.972L34.72 46.8218L35.781 47.8828L53.136 30.5278V44.0318H40.117V50.7878H27.097V60.3758V61.8758V63.3298H67.657V61.8758V60.3758V30.5098H53.153L59.033 24.6298ZM41.617 45.5308H53.136V60.3748H41.617V50.7868V45.5308ZM28.598 52.2868H40.118V60.3748H28.598V52.2868ZM54.636 32.0098H66.157V60.3748H54.636V44.0308V32.0098Z" fill="#FB5F61"/>
</svg>
