<svg width="96" height="97" viewBox="0 0 96 97" fill="none" xmlns="http://www.w3.org/2000/svg">
<circle cx="41.5" cy="47.9998" r="2.5" fill="#FB5F61"/>
<circle cx="48.5" cy="47.9998" r="2.5" fill="#FB5F61"/>
<circle cx="55.5" cy="47.9998" r="2.5" fill="#FB5F61"/>
<path d="M48.0009 95.7446C74.0509 95.7446 95.2439 74.5516 95.2449 48.5016V48.5006C95.2449 48.4996 95.2449 48.4996 95.2449 48.4996C95.2449 22.4486 74.0519 1.25464 48.0009 1.25464C21.9489 1.25464 0.754883 22.4486 0.754883 48.4996C0.754883 48.4996 0.754883 48.4996 0.754883 48.5006V48.5016C0.755883 74.5516 21.9499 95.7446 48.0009 95.7446ZM23.9459 26.7216C21.9919 33.2436 20.8809 40.6476 20.8809 48.4996C20.8809 56.3526 21.9919 63.7566 23.9459 70.2786C10.9389 65.7566 2.25588 57.6876 2.25488 48.5016V48.5006C2.25488 39.3126 10.9379 31.2436 23.9459 26.7216ZM22.3809 48.4996C22.3809 40.3886 23.5739 32.7696 25.6569 26.1566C32.2699 24.0736 39.8889 22.8806 47.9999 22.8806C56.1109 22.8806 63.7299 24.0736 70.3439 26.1566C72.4259 32.7696 73.6189 40.3886 73.6189 48.4996C73.6189 56.6106 72.4259 64.2296 70.3429 70.8436C63.7299 72.9256 56.1109 74.1186 47.9999 74.1186C39.8889 74.1186 32.2699 72.9256 25.6569 70.8436C23.5739 64.2296 22.3809 56.6106 22.3809 48.4996ZM26.2219 24.4456C30.7439 11.4376 38.8129 2.75464 48.0009 2.75464C57.1879 2.75464 65.2569 11.4386 69.7789 24.4456C63.2569 22.4916 55.8529 21.3806 47.9999 21.3806C40.1479 21.3806 32.7439 22.4916 26.2219 24.4456ZM72.0539 26.7216C85.0619 31.2436 93.7449 39.3136 93.7449 48.5006V48.5016C93.7439 57.6886 85.0599 65.7566 72.0539 70.2776C74.0079 63.7566 75.1189 56.3516 75.1189 48.4996C75.1189 40.6476 74.0079 33.2436 72.0539 26.7216ZM47.9999 75.6186C55.8529 75.6186 63.2569 74.5076 69.7779 72.5536C65.2569 85.5616 57.1869 94.2446 48.0009 94.2446C38.8129 94.2446 30.7439 85.5606 26.2219 72.5536C32.7439 74.5076 40.1479 75.6186 47.9999 75.6186ZM56.2919 93.4786C62.7599 89.8506 68.1709 82.0986 71.5089 72.0086C81.5989 68.6706 89.3509 63.2596 92.9779 56.7916C89.5589 75.3776 74.8779 90.0596 56.2919 93.4786ZM92.9789 40.2096C89.3509 33.7406 81.5989 28.3296 71.5089 24.9916C68.1709 14.9006 62.7599 7.14864 56.2919 3.52064C74.8789 6.93964 89.5599 21.6226 92.9789 40.2096ZM39.7089 3.52064C33.2409 7.14864 27.8289 14.9006 24.4909 24.9916C14.4009 28.3296 6.64888 33.7406 3.02088 40.2096C6.43988 21.6226 21.1219 6.93964 39.7089 3.52064ZM24.4919 72.0086C27.8299 82.0986 33.2409 89.8506 39.7089 93.4786C21.1229 90.0596 6.44088 75.3776 3.02188 56.7916C6.64888 63.2596 14.4009 68.6706 24.4919 72.0086Z" fill="#212A3F"/>
<path d="M62.4822 56.1483L62.0286 55.551L61.5865 55.8867L61.7784 56.4075L62.4822 56.1483ZM56.0175 59.3055L56.33 58.6237L56.0753 58.507L55.8065 58.5858L56.0175 59.3055ZM65.1951 63.5119L64.8826 64.1937L66.5225 64.9453L65.8989 63.2527L65.1951 63.5119ZM66.25 48.1705C66.25 50.9211 64.7162 53.51 62.0286 55.551L62.9358 56.7456C65.8773 54.5118 67.75 51.5222 67.75 48.1705H66.25ZM48.5 36.7375C53.4831 36.7375 57.9601 38.069 61.169 40.1822C64.384 42.2994 66.25 45.1394 66.25 48.1705H67.75C67.75 44.4731 65.4746 41.2216 61.994 38.9295C58.5072 36.6333 53.7342 35.2375 48.5 35.2375V36.7375ZM30.75 48.1705C30.75 45.1394 32.616 42.2994 35.831 40.1822C39.0399 38.069 43.5169 36.7375 48.5 36.7375V35.2375C43.2658 35.2375 38.4928 36.6333 35.006 38.9295C31.5254 41.2216 29.25 44.4731 29.25 48.1705H30.75ZM48.5 59.6034C43.5169 59.6034 39.0399 58.2719 35.831 56.1587C32.616 54.0415 30.75 51.2016 30.75 48.1705H29.25C29.25 51.8678 31.5254 55.1193 35.006 57.4115C38.4928 59.7076 43.2658 61.1034 48.5 61.1034V59.6034ZM55.8065 58.5858C53.5802 59.2386 51.1075 59.6034 48.5 59.6034V61.1034C51.2459 61.1034 53.8609 60.7195 56.2286 60.0252L55.8065 58.5858ZM55.705 59.9873L64.8826 64.1937L65.5076 62.8301L56.33 58.6237L55.705 59.9873ZM65.8989 63.2527L63.1859 55.889L61.7784 56.4075L64.4914 63.7712L65.8989 63.2527Z" fill="#FB5F61"/>
</svg>
