<svg width="96" height="96" viewBox="0 0 96 96" fill="none" xmlns="http://www.w3.org/2000/svg">
<path d="M41.3719 31.5604C42.2035 31.4623 43.2992 32.3524 43.6164 32.6707C43.9211 32.9764 44.4157 32.9785 44.7225 32.6769C45.0293 32.3733 45.0334 31.8787 44.7308 31.5708C44.6014 31.4394 43.7186 30.5754 42.5844 30.183V28.2296C42.5844 27.7976 42.2338 27.447 41.8018 27.447C41.3698 27.447 41.0191 27.7976 41.0191 28.2296V30.0338C40.4515 30.1402 39.7159 30.4794 39.1273 31.4456C38.1736 33.0108 38.9123 34.6491 41.3635 36.3437C43.1019 37.5406 43.6456 38.3764 43.1823 39.1382C42.7941 39.7757 42.4028 39.8216 42.2745 39.8373C41.4438 39.9406 40.3472 39.0453 40.0299 38.727C39.7252 38.4213 39.2297 38.4192 38.9239 38.7207C38.6171 39.0244 38.6129 39.519 38.9155 39.8268C39.0439 39.9562 39.9047 40.7994 41.0202 41.199V43.1681C41.0202 43.6001 41.3708 43.9507 41.8028 43.9507C42.2348 43.9507 42.5854 43.6001 42.5854 43.1681V41.3712C43.1593 41.2741 43.9158 40.9434 44.52 39.9531C45.9517 37.6021 43.1677 35.6853 42.2129 35.0279C40.5423 33.8738 40.0028 33.0192 40.4651 32.2606C40.8522 31.622 41.2435 31.5761 41.3719 31.5604Z" fill="#FB5F61"/>
<path d="M29.9834 82.8443H28.0185V84.4095H33.4748V82.8443H31.8429L47.2175 58.9173V82.8443H45.2714V84.4095H50.7276V82.8443H48.7815V58.9173L64.1562 82.8443H62.5242V84.4095H67.9806V82.8443H66.0156L49.4307 57.0359H95.737V52.3757H84.8422V15.3823H95.737V10.7222H0.258789V15.3823H11.1538V52.3757H0.258789V57.0359H46.5653L29.9834 82.8443ZM1.82617 13.8161V12.2864H94.174V13.8161H84.8442H11.1558H1.82617ZM12.721 15.3813H83.279V52.3747H12.721V15.3813ZM1.82617 55.4697V53.9399H11.1558H84.8442H94.174V55.4697H1.82617Z" fill="#212A3F"/>
<path d="M61.6111 34.6512H48.7837V21.8226C48.7837 21.3906 48.4331 21.04 48.0011 21.04C40.0644 21.04 33.6084 27.4971 33.6084 35.4327C33.6084 43.3694 40.0654 49.8275 48.0011 49.8275C55.9367 49.8275 62.3937 43.3705 62.3937 35.4338C62.3937 35.2261 62.3113 35.0268 62.1642 34.8807C62.0171 34.7347 61.8188 34.6512 61.6111 34.6512ZM48 48.2623C40.9263 48.2623 35.1725 42.5065 35.1725 35.4327C35.1725 28.623 40.5079 23.0352 47.2174 22.6282V35.4327C47.2174 35.8647 47.568 36.2153 48 36.2153H60.8046C60.3986 42.927 54.8108 48.2623 48 48.2623Z" fill="#FB5F61"/>
<path d="M51.0878 17.917C50.6558 17.917 50.3052 18.2676 50.3052 18.6996V32.3107C50.3052 32.7427 50.6558 33.0933 51.0878 33.0933H64.6978C65.1298 33.0933 65.4804 32.7417 65.4804 32.3097C65.4804 24.374 59.0245 17.917 51.0878 17.917ZM51.8704 31.5281V19.5062C58.3212 19.8964 63.502 25.0773 63.8923 31.5281H51.8704Z" fill="#FB5F61"/>
</svg>
