<svg width="96" height="96" viewBox="0 0 96 96" fill="none" xmlns="http://www.w3.org/2000/svg">
<path d="M75.3809 56.3594L57.6939 74.0453V56.9124H56.1287V76.7176H75.934V75.1524H58.801L76.4869 57.4655L75.3809 56.3594Z" fill="#FB5F61"/>
<path d="M20.066 20.8487H37.1988L19.5129 38.5346L20.6191 39.6407L38.305 21.9547V39.0876H39.8702V19.2834H20.066V20.8487Z" fill="#FB5F61"/>
<path d="M57.1482 11.7914V49.9118H95.738V0.260986H68.6765L57.1482 11.7914ZM68.2195 2.93229V11.3334H59.8194L68.2195 2.93229ZM94.1728 48.3466H58.7134V12.8975H69.7847V1.8262H94.1728V48.3466Z" fill="#212A3F"/>
<path d="M87.3131 23.1079H65.5732V24.6731H87.3131V23.1079Z" fill="#212A3F"/>
<path d="M87.3131 34.8835H65.5732V36.4488H87.3131V34.8835Z" fill="#212A3F"/>
<path d="M0.260986 57.6188V95.7391H38.8508V46.0884H11.7903L0.260986 57.6188ZM11.3333 48.7607V57.1607H2.93324L11.3333 48.7607ZM37.2866 94.1739H1.82722V58.7249H12.8985V47.6536H37.2866V94.1739Z" fill="#212A3F"/>
<path d="M30.4258 68.9343H8.68701V70.4995H30.4258V68.9343Z" fill="#212A3F"/>
<path d="M30.4258 80.709H8.68701V82.2742H30.4258V80.709Z" fill="#212A3F"/>
</svg>
