<svg width="96" height="97" viewBox="0 0 96 97" fill="none" xmlns="http://www.w3.org/2000/svg">
<path d="M47.9999 1.25171C60.0159 1.25171 71.3419 5.71571 80.1019 13.8457L80.1009 2.92771H81.6009L81.6019 16.3657L68.1639 16.3647V14.8647L78.9979 14.8657C70.5279 7.04371 59.5959 2.75171 47.9999 2.75171C22.7739 2.75171 2.25193 23.2737 2.25193 48.4997C2.25193 60.7247 7.01393 72.2147 15.6609 80.8557C16.9709 82.1647 18.3739 83.4067 19.8289 84.5447L20.0929 84.7497L19.1769 85.9377L18.9059 85.7277C17.4009 84.5497 15.9529 83.2677 14.5999 81.9157C5.66993 72.9927 0.75193 61.1247 0.75193 48.4997C0.75193 22.4467 21.9469 1.25171 47.9999 1.25171Z" fill="#212A3F"/>
<path d="M93.7079 46.5567L95.2059 46.4937C95.2339 47.1597 95.2479 47.8277 95.2479 48.4997C95.2479 52.3167 94.7909 56.1147 93.8909 59.7877L92.4339 59.4307C93.3059 55.8747 93.7479 52.1967 93.7479 48.4997C93.7479 47.8497 93.7339 47.2007 93.7079 46.5567Z" fill="#212A3F"/>
<path d="M43.9469 94.0708L43.8159 95.5648C39.3439 95.1718 34.9659 94.1478 30.8039 92.5198L31.3509 91.1238C35.3799 92.6988 39.6179 93.6908 43.9469 94.0708Z" fill="#212A3F"/>
<path d="M69.7648 90.4447C65.7898 92.5117 61.5468 93.9977 57.1548 94.8607L56.8658 93.3877C61.1178 92.5527 65.2248 91.1147 69.0738 89.1147L69.7648 90.4447Z" fill="#212A3F"/>
<path d="M88.8959 72.1788C86.6519 76.0458 83.8699 79.5768 80.6279 82.6718L79.5929 81.5878C82.7319 78.5898 85.4249 75.1708 87.5989 71.4248L88.8959 72.1788Z" fill="#212A3F"/>
<path d="M92.7479 33.2979L91.3279 33.7799C90.6989 31.9269 89.9399 30.0939 89.0729 28.3319L90.4189 27.6699C91.3139 29.4899 92.0989 31.3839 92.7479 33.2979Z" fill="#212A3F"/>
<path d="M48.1355 32.427C39.504 32.427 32.4813 39.4497 32.4813 48.0812C32.4813 56.7115 39.504 63.7331 48.1355 63.7331C56.7675 63.7331 63.7907 56.7115 63.7907 48.0812C63.7902 39.4497 56.7675 32.427 48.1355 32.427ZM48.1355 62.9104C39.9573 62.9104 33.3035 56.2577 33.3035 48.0806C33.3035 39.9025 39.9573 33.2487 48.1355 33.2487C56.3142 33.2487 62.9685 39.9025 62.9685 48.0806C62.968 56.2582 56.3136 62.9104 48.1355 62.9104Z" fill="#212A3F" stroke="#FB5F61" stroke-width="0.7"/>
<path d="M67.734 47.7513L74.6208 44.6084L73.4196 39.3966L65.7087 39.2498C64.5569 36.9409 62.8978 34.8237 60.8895 33.1013L62.7471 25.6785L62.4975 25.5185C61.1424 24.651 59.6937 23.9027 58.1918 23.2953L57.912 23.182L53.0702 29.0232C52.3424 28.8335 51.6739 28.6945 51.0334 28.5993C49.052 28.3102 47.035 28.3294 45.0338 28.6576L40.3246 22.4998L35.5257 24.5179L37.0667 31.8908C34.5719 33.6154 32.4971 35.9145 31.0441 38.5654L23.3156 38.4032L22 43.0608L28.706 46.449C28.4399 49.8377 29.0457 53.2132 30.4663 56.2446L25.6097 62.083L28.3794 65.7659L35.2355 62.6229C37.8067 64.8983 40.9563 66.4492 44.3763 67.1243L45.9003 74.4922L50.587 74.49L52.4375 67.0369C55.5876 66.3338 58.5228 64.8643 60.9571 62.7713L67.6438 66.1623L70.7109 62.1842L66.0017 56.0412C66.762 54.3644 67.2804 52.6035 67.5454 50.8014C67.6845 49.8338 67.7466 48.8322 67.734 47.7513ZM66.7296 50.6838C66.4651 52.487 65.9335 54.2484 65.1507 55.9202L65.0446 56.1473L69.6713 62.1836L67.4085 65.1183L60.8329 61.7845L60.6228 61.9703C58.1902 64.1237 55.2143 65.6163 52.0158 66.2854L51.7624 66.3387L49.9421 73.6659L46.5715 73.6681L45.0712 66.4162L44.798 66.3662C41.3334 65.7318 38.1481 64.1639 35.5868 61.8312L35.3856 61.6476L28.6395 64.74L26.6609 62.1094L31.4388 56.365L31.3228 56.1253C29.8456 53.0846 29.2326 49.6678 29.551 46.245L29.5768 45.9652L22.978 42.6314L23.9363 39.2405L31.5323 39.4005L31.651 39.1762C33.0887 36.4686 35.1997 34.1321 37.7561 32.4191L37.987 32.2646L36.4719 25.0149L40.0569 23.5069L44.6831 29.5565L44.9299 29.5125C46.9256 29.159 48.9382 29.1255 50.9141 29.4157C51.5958 29.5169 52.3149 29.6708 53.1109 29.8874L53.3677 29.9573L58.1616 24.1738C59.4255 24.7026 60.6476 25.3338 61.8032 26.0545L59.9648 33.4004L60.1632 33.5659C62.2369 35.2987 63.9368 37.467 65.0775 39.8353L65.1875 40.064L72.7599 40.2075L73.6654 44.1372L66.8973 47.2247L66.9033 47.4968C66.9308 48.6386 66.8736 49.681 66.7296 50.6838Z" fill="#FB5F61" stroke="#FB5F61" stroke-width="0.7"/>
</svg>
