<svg width="96" height="97" viewBox="0 0 96 97" fill="none" xmlns="http://www.w3.org/2000/svg">
<g clip-path="url(#clip0)">
<path d="M90.6214 21.5696C67.9211 21.5696 57.9208 12.3802 48.8761 2.1436C48.8599 2.1244 48.8377 2.11701 48.82 2.10077C48.8023 2.08452 48.7964 2.06237 48.7787 2.04612C48.7388 2.01215 48.6901 1.99886 48.6472 1.9708C48.5852 1.92944 48.5246 1.88809 48.4567 1.86003C48.3888 1.83197 48.3208 1.82015 48.2485 1.80686C48.1805 1.79357 48.117 1.78027 48.0476 1.78027C47.9737 1.78027 47.9028 1.79357 47.8305 1.80981C47.764 1.8231 47.7005 1.83492 47.6385 1.86003C47.5676 1.88809 47.5056 1.93092 47.4406 1.97375C47.3992 2.00181 47.3505 2.01363 47.3121 2.0476C47.2944 2.06384 47.287 2.086 47.2707 2.10224C47.253 2.11849 47.2309 2.12587 47.2146 2.1436C38.1699 12.3802 28.1697 21.5696 5.47085 21.5696C4.85941 21.5696 4.36316 22.0658 4.36316 22.6773C4.36316 62.5985 26.7046 86.2854 47.6148 95.1425C47.6296 95.1499 47.6459 95.1469 47.6606 95.1528C47.7832 95.1971 47.9088 95.2296 48.0417 95.2311C48.0432 95.2311 48.0432 95.2311 48.0446 95.2311C48.0461 95.2311 48.0461 95.2311 48.0476 95.2311C48.1805 95.2296 48.3075 95.1986 48.4286 95.1528C48.4434 95.1469 48.4596 95.1499 48.4744 95.1425C69.3832 86.2854 91.7261 62.5985 91.7261 22.6773C91.7291 22.0658 91.2328 21.5696 90.6214 21.5696ZM48.0461 92.9109C28.1062 84.2709 6.99356 61.6636 6.59774 23.7539C28.6984 23.4438 39.3367 14.2426 48.0461 4.53326C56.754 14.2426 67.3923 23.4438 89.4945 23.7539C89.0987 61.6636 67.986 84.2709 48.0461 92.9109Z" fill="#212A3F"/>
<path d="M62.0948 35.4008L45.3361 59.2147L33.8973 47.0936C33.4764 46.6491 32.7764 46.6284 32.3318 47.0478C31.8873 47.4673 31.8666 48.1688 32.286 48.6134L44.6553 61.7211C44.6804 61.7491 44.7158 61.758 44.7439 61.7816C44.7734 61.8097 44.7911 61.8437 44.8236 61.8673C44.8679 61.8983 44.9181 61.9131 44.9654 61.9382C45.0023 61.9574 45.0348 61.9766 45.0732 61.9913C45.1988 62.0371 45.3287 62.0696 45.4602 62.0696C45.6167 62.0696 45.7703 62.0268 45.9165 61.9603C45.9609 61.9397 45.9978 61.9101 46.0391 61.8821C46.0997 61.8451 46.1661 61.8185 46.2208 61.7683C46.2548 61.7373 46.2695 61.6945 46.2976 61.659C46.3183 61.6354 46.3478 61.6265 46.3655 61.6L63.904 36.6769C64.2555 36.1762 64.1359 35.485 63.6352 35.1335C63.136 34.7776 62.4448 34.9002 62.0948 35.4008Z" fill="#FB5F61"/>
</g>
<defs>
<clipPath id="clip0">
<rect width="96" height="96" fill="white" transform="translate(0 0.499756)"/>
</clipPath>
</defs>
</svg>
