<svg width="348" height="40" viewBox="0 0 348 40" fill="none" xmlns="http://www.w3.org/2000/svg">
<path d="M249.506 4.61523H257.395L269.965 34.7366H261.191L259.082 29.3532H247.65L245.541 34.7366H236.979L249.506 4.61523ZM256.677 22.9018L253.387 14.4419L250.055 22.9018H256.677Z" fill="white"/>
<path d="M279.155 4.8291H286.79L298.939 20.6371V4.8291H307.038V34.7367H299.909L287.254 18.3303V34.7367H279.155V4.8291Z" fill="white"/>
<path d="M327.997 23.5428L316.734 4.8291H326.057L332.131 15.7238L338.247 4.8291H347.401L336.18 23.4145V34.7367H327.997L327.997 23.5428Z" fill="white"/>
<path d="M6.10352e-05 4.85742H9.10436L15.8457 23.7599L22.5871 4.85742H31.4829L19.5291 34.7533H11.9538L6.10352e-05 4.85742Z" fill="#FB5F61"/>
<path d="M38.641 4.85742H46.9113V34.7775H38.641V4.85742Z" fill="#FB5F61"/>
<path d="M80.6877 0H74.1549L55.4598 39.6001H61.9926L80.6877 0Z" fill="#FB5F61"/>
<path d="M86.3659 19.8688V19.7833C86.3355 17.718 86.7175 15.6677 87.489 13.7557C88.2605 11.8436 89.4055 10.1092 90.8554 8.65665C92.3053 7.20408 94.0301 6.06329 95.9261 5.3028C97.8222 4.54231 99.8504 4.17781 101.889 4.23119C107.921 4.23119 111.802 6.79475 114.417 10.4263L108.259 15.2546C106.571 13.1607 104.631 11.751 101.805 11.751C97.6709 11.751 94.7602 15.3401 94.7602 19.6979V19.7834C94.7602 24.2696 97.6709 27.7728 101.805 27.7728C104.884 27.7728 106.698 26.3202 108.47 24.1412L114.628 28.5849C111.844 32.4728 108.09 35.3355 101.594 35.3355C99.5816 35.3676 97.5838 34.9892 95.7191 34.2227C93.8545 33.4562 92.1613 32.3175 90.7403 30.8742C89.3194 29.431 88.1998 27.7128 87.4483 25.822C86.6967 23.9313 86.3286 21.9067 86.3659 19.8688V19.8688Z" fill="white"/>
<path d="M122.68 19.8681V19.7826C122.68 11.1948 129.514 4.23047 138.625 4.23047C147.736 4.23047 154.485 11.1094 154.485 19.6972V19.7826C154.485 28.3705 147.652 35.3348 138.541 35.3348C129.429 35.3348 122.68 28.4559 122.68 19.8681ZM146.091 19.8681V19.7826C146.091 15.4248 143.054 11.7074 138.541 11.7074C134.027 11.7074 131.032 15.3818 131.032 19.6972V19.7826C131.032 24.0976 134.111 27.8579 138.625 27.8579C143.096 27.8579 146.091 24.1834 146.091 19.8681Z" fill="white"/>
<path d="M164.604 4.8291H173.251L180.296 16.4076L187.34 4.8291H195.987V34.7367H187.846V17.561L180.296 29.2679H180.127L172.618 17.6039V34.7367H164.604L164.604 4.8291Z" fill="white"/>
<path d="M207.539 4.8291H220.236C227.661 4.8291 232.469 8.71734 232.469 15.2971V15.3821C232.469 22.4744 227.112 26.1918 219.815 26.1918H215.723V34.7367H207.54L207.539 4.8291ZM219.646 19.6975C222.514 19.6975 224.328 18.1165 224.328 15.7667V15.6813C224.328 13.1177 222.514 11.7935 219.604 11.7935H215.723V19.6975L219.646 19.6975Z" fill="white"/>
</svg>
