<svg width="264" height="30" viewBox="0 0 264 30" fill="none" xmlns="http://www.w3.org/2000/svg">
<path d="M189.02 3.49658H194.995L204.518 26.3157H197.871L196.274 22.2374H187.614L186.016 26.3157H179.529L189.02 3.49658ZM194.452 17.35L191.959 10.941L189.435 17.35H194.452Z" fill="white"/>
<path d="M211.481 3.6582H217.265L226.468 15.634V3.6582H232.604V26.3154H227.203L217.616 13.8863V26.3154H211.481V3.6582Z" fill="white"/>
<path d="M248.482 17.8352L239.95 3.6582H247.012L251.614 11.9117L256.248 3.6582H263.182L254.681 17.738V26.3154H248.482L248.482 17.8352Z" fill="white"/>
<path d="M6.10352e-05 3.67969H6.89724L12.0043 17.9997L17.1114 3.67969H23.8506L14.7948 26.328H9.0559L6.10352e-05 3.67969Z" fill="#FB5F61"/>
<path d="M29.2734 3.67969H35.5388V26.3464H29.2734V3.67969Z" fill="#FB5F61"/>
<path d="M61.1269 0H56.1778L42.0149 30H46.964L61.1269 0Z" fill="#FB5F61"/>
<path d="M65.4286 15.0522V14.9874C65.4055 13.4228 65.6949 11.8696 66.2794 10.421C66.8639 8.97252 67.7313 7.65859 68.8297 6.55815C69.9281 5.45772 71.2347 4.59348 72.6712 4.01736C74.1076 3.44123 75.6441 3.1651 77.1885 3.20554C81.7583 3.20554 84.698 5.14762 86.6792 7.8988L82.0138 11.5566C80.7354 9.97031 79.2655 8.90235 77.1247 8.90235C73.993 8.90235 71.7879 11.6213 71.7879 14.9227V14.9875C71.7879 18.3861 73.993 21.0401 77.1247 21.0401C79.4572 21.0401 80.8314 19.9396 82.1737 18.2889L86.8391 21.6553C84.7301 24.6006 81.886 26.7694 76.9648 26.7694C75.4405 26.7937 73.9269 26.507 72.5144 25.9263C71.1018 25.3457 69.819 24.483 68.7425 23.3896C67.6661 22.2962 66.8179 20.9946 66.2485 19.5622C65.6792 18.1298 65.4003 16.596 65.4286 15.0522Z" fill="white"/>
<path d="M92.9393 15.0517V14.987C92.9393 8.48108 98.1161 3.20508 105.019 3.20508C111.921 3.20508 117.034 8.41637 117.034 14.9223V14.987C117.034 21.4929 111.857 26.7689 104.955 26.7689C98.0522 26.7689 92.9393 21.5576 92.9393 15.0517ZM110.675 15.0517V14.987C110.675 11.6856 108.374 8.86938 104.955 8.86938C101.535 8.86938 99.2665 11.6531 99.2665 14.9223V14.987C99.2665 18.2559 101.599 21.1046 105.019 21.1046C108.406 21.1046 110.675 18.3209 110.675 15.0517Z" fill="white"/>
<path d="M124.7 3.6582H131.251L136.587 12.4298L141.924 3.6582H148.475V26.3154H142.307V13.3036L136.587 22.1724H136.459L130.771 13.3361V26.3154H124.7L124.7 3.6582Z" fill="white"/>
<path d="M157.227 3.6582H166.845C172.47 3.6582 176.113 6.60383 176.113 11.5885V11.6529C176.113 17.0258 172.054 19.842 166.526 19.842H163.426V26.3154H157.227L157.227 3.6582ZM166.398 14.9221C168.571 14.9221 169.945 13.7244 169.945 11.9443V11.8795C169.945 9.93746 168.571 8.93422 166.366 8.93422H163.426V14.9221L166.398 14.9221Z" fill="white"/>
</svg>
