<svg width="355" height="61" fill="none" xmlns="http://www.w3.org/2000/svg">
  <path d="M88.06 20.603v-.086a15.528 15.528 0 011.144-6.088 15.487 15.487 0 013.433-5.151 15.426 15.426 0 015.17-3.388 15.383 15.383 0 016.08-1.082c6.15 0 10.107 2.59 12.773 6.258l-6.279 4.877c-1.721-2.115-3.699-3.54-6.58-3.54-4.215 0-7.183 3.626-7.183 8.028v.086c0 4.532 2.968 8.07 7.183 8.07 3.139 0 4.989-1.467 6.795-3.668l6.279 4.488c-2.838 3.928-6.666 6.82-13.289 6.82a15.243 15.243 0 01-5.99-1.125 15.283 15.283 0 01-5.077-3.382 15.345 15.345 0 01-3.356-5.103 15.388 15.388 0 01-1.104-6.014zM167.831 5.412h8.817l7.183 11.696 7.182-11.696h8.817v30.21h-8.301v-17.35l-7.698 11.826h-.172l-7.656-11.782v17.306h-8.172V5.412zM211.609 5.412h12.946c7.569 0 12.472 3.928 12.472 10.574v.086c0 7.164-5.462 10.919-12.902 10.919h-4.172v8.63h-8.344V5.413zm12.343 15.019c2.925 0 4.774-1.597 4.774-3.97v-.087c0-2.59-1.849-3.927-4.816-3.927h-3.957v7.984h3.999zM254.399 5.196h8.043l12.816 30.426h-8.946l-2.15-5.438h-11.656l-2.15 5.438h-8.731l12.774-30.426zm7.311 18.472l-3.354-8.546-3.398 8.546h6.752zM284.629 5.412h7.784L304.8 21.38V5.412h8.258v30.21h-7.269L292.887 19.05v16.572h-8.258V5.412zM334.428 24.315L322.944 5.412h9.506l6.193 11.005 6.236-11.005h9.333l-11.44 18.773v11.437h-8.344V24.315z" fill="#fff"/>
  <path d="M0 5.44h9.288l6.877 19.094 6.878-19.093h9.075L19.923 35.639h-7.728L0 5.44zM39.42 5.44h8.438v30.223h-8.437V5.441zM82.316.534h-6.665l-19.072 40h6.665l19.072-40z" fill="#FB5F61"/>
  <path d="M156 22.454h-26L133.5 33l18-.5 4.5-10.046z" fill="#000C8A"/>
  <path d="M151 10.5l-13.5-2-7.5 11.046h26l-5-9.046z" fill="#E1392D"/>
  <path d="M126.04 5H126v.06h.04V5z" fill="#000C8A"/>
  <path d="M126.04 5H126v.03h.04V5z" fill="#E1392D"/>
  <path d="M130.5 14.5l4.5-7 8.04 8.167L156 16.5v9l-12.96.833L135 34l-2-1.5-2.5-18z" fill="#fff"/>
  <path d="M131.5 11.5L133 9l9.6 8.764H157v6.472h-14.4L133.5 32l-2.5-1 .5-19.5z" fill="#007847"/>
  <path d="M129 12l9.16 9-8.66 8-.5-17z" fill="#FFB915"/>
  <path d="M129 15l6 6-6 5.5V15z" fill="#000"/>
  <path d="M155.5 21c0-7.456-6.044-13.5-13.5-13.5s-13.5 6.044-13.5 13.5 6.044 13.5 13.5 13.5 13.5-6.044 13.5-13.5z" stroke="#fff" stroke-width="5"/>
  <g transform="translate(70 50)">
    <path d="M2.982 11H4.312V2.446H7.056V1.2H0.336V2.446H2.982V11ZM7.59139 11H8.83739V7.346C8.83739 5.834 9.55139 5.106 10.4614 5.106C10.7974 5.106 11.1754 5.19 11.4554 5.344L11.8614 4.112C11.6094 3.972 11.1614 3.832 10.7274 3.832C9.81739 3.832 9.20139 4.252 8.82339 4.938L8.64139 4H7.59139V11ZM15.8924 10.034C14.4924 10.034 13.5684 8.914 13.5684 7.5C13.5684 6.086 14.4924 4.966 15.8924 4.966C17.2784 4.966 18.2164 6.086 18.2164 7.5C18.2164 8.914 17.2784 10.034 15.8924 10.034ZM15.7664 11.168C16.8164 11.168 17.7264 10.636 18.1184 10.062L18.3004 11H19.3644V4H18.3004L18.1184 4.882C17.7684 4.42 16.9704 3.832 15.7664 3.832C13.7224 3.832 12.2944 5.456 12.2944 7.5C12.2944 9.544 13.6384 11.168 15.7664 11.168ZM24.9839 10.034C23.5979 10.034 22.6599 8.914 22.6599 7.5C22.6599 6.086 23.5979 4.966 24.9839 4.966C26.3839 4.966 27.3079 6.086 27.3079 7.5C27.3079 8.914 26.3839 10.034 24.9839 10.034ZM24.8859 11.168C25.9779 11.168 26.8459 10.552 27.2379 10.006L27.4059 11H28.4559V0.99H27.2099V4.896C26.8599 4.462 26.0899 3.832 24.8859 3.832C22.8139 3.832 21.3999 5.456 21.3999 7.5C21.3999 9.544 22.7439 11.168 24.8859 11.168ZM33.9773 11.168C35.5033 11.168 36.5673 10.37 37.0993 9.278L36.0773 8.774C35.6153 9.586 34.9573 10.034 34.0333 10.034C32.7313 10.034 31.8493 9.194 31.7513 7.906H37.2673C37.2813 7.738 37.2953 7.514 37.2953 7.346C37.2953 5.386 36.1053 3.832 33.9773 3.832C31.8073 3.832 30.5053 5.456 30.5053 7.5C30.5053 9.572 31.7653 11.168 33.9773 11.168ZM31.7653 6.884C31.8913 5.736 32.7733 4.966 33.9913 4.966C35.1953 4.966 35.9653 5.736 36.0633 6.884H31.7653ZM42.7555 11H44.0015V7.682C44.0015 5.82 44.7855 4.966 45.7375 4.966C46.5915 4.966 47.1655 5.512 47.1655 6.688V11H48.4115V7.682C48.4115 5.82 49.2095 4.966 50.1475 4.966C51.0015 4.966 51.5755 5.512 51.5755 6.688V11H52.8355V6.744C52.8355 4.952 52.0515 3.832 50.3155 3.832C49.1535 3.832 48.4535 4.406 48.1035 5.008C47.7535 4.266 47.1375 3.832 46.0315 3.832C45.0375 3.832 44.4075 4.266 43.9875 4.896L43.8055 4H42.7555V11ZM55.2356 2.572H56.6356V1.2H55.2356V2.572ZM55.3196 11H56.5656V4H55.3196V11ZM60.8274 11.168C62.3254 11.168 63.2774 10.23 63.2774 9.012C63.2774 7.99 62.6614 7.332 61.8214 6.982L60.7994 6.576C60.3934 6.408 59.9874 6.198 59.9874 5.694C59.9874 5.274 60.3514 4.938 60.7994 4.938C61.2614 4.938 61.6254 5.204 61.8354 5.708L62.8294 5.134C62.4374 4.322 61.7794 3.832 60.7994 3.832C59.6654 3.832 58.7974 4.644 58.7974 5.652C58.7974 6.506 59.3014 7.164 60.0294 7.444L60.9254 7.808C61.7374 8.13 62.0874 8.438 62.0874 9.026C62.0874 9.6 61.6114 10.062 60.8974 10.062C60.0854 10.062 59.5674 9.614 59.3434 8.872L58.2934 9.306C58.6854 10.412 59.5114 11.168 60.8274 11.168ZM66.8157 11.168C68.3137 11.168 69.2657 10.23 69.2657 9.012C69.2657 7.99 68.6497 7.332 67.8097 6.982L66.7877 6.576C66.3817 6.408 65.9757 6.198 65.9757 5.694C65.9757 5.274 66.3397 4.938 66.7877 4.938C67.2497 4.938 67.6137 5.204 67.8237 5.708L68.8177 5.134C68.4257 4.322 67.7677 3.832 66.7877 3.832C65.6537 3.832 64.7857 4.644 64.7857 5.652C64.7857 6.506 65.2897 7.164 66.0177 7.444L66.9137 7.808C67.7257 8.13 68.0757 8.438 68.0757 9.026C68.0757 9.6 67.5997 10.062 66.8857 10.062C66.0737 10.062 65.5557 9.614 65.3317 8.872L64.2817 9.306C64.6737 10.412 65.4997 11.168 66.8157 11.168ZM71.0539 2.572H72.4539V1.2H71.0539V2.572ZM71.1379 11H72.3839V4H71.1379V11ZM78.0177 11.168C80.1457 11.168 81.6437 9.544 81.6437 7.5C81.6437 5.456 80.1457 3.832 78.0177 3.832C75.8897 3.832 74.4057 5.456 74.4057 7.5C74.4057 9.544 75.8897 11.168 78.0177 11.168ZM78.0177 10.034C76.6877 10.034 75.6797 8.984 75.6797 7.5C75.6797 6.016 76.6877 4.966 78.0177 4.966C79.3477 4.966 80.3697 6.016 80.3697 7.5C80.3697 8.984 79.3477 10.034 78.0177 10.034ZM83.689 11H84.935V7.682C84.935 5.778 85.817 4.966 86.783 4.966C87.749 4.966 88.421 5.652 88.421 6.898V11H89.667V6.786C89.667 4.994 88.799 3.832 87.049 3.832C86.041 3.832 85.341 4.238 84.921 4.868L84.739 4H83.689V11ZM98.1856 11.168C100.034 11.168 101.224 9.88 101.224 8.326C101.224 7.108 100.636 6.268 99.3756 5.582C99.2496 5.512 98.0736 4.868 97.9476 4.798C97.1496 4.378 96.8136 4.014 96.8136 3.37C96.8136 2.768 97.3456 2.292 97.9896 2.292C98.7596 2.292 99.1516 2.712 99.4176 3.37L100.594 2.782C100.118 1.676 99.2776 1.032 98.0316 1.032C96.5336 1.032 95.4836 2.04 95.4836 3.426C95.4836 4.434 96.0716 5.288 97.0376 5.792C97.2336 5.904 98.1996 6.408 98.4096 6.52C99.2916 6.968 99.8936 7.444 99.8936 8.34C99.8936 9.264 99.1236 9.908 98.1716 9.908C96.9396 9.908 96.2956 9.04 96.0716 8.27L94.8536 8.746C95.3436 10.272 96.4216 11.168 98.1856 11.168ZM106.236 11.168C108.364 11.168 109.862 9.544 109.862 7.5C109.862 5.456 108.364 3.832 106.236 3.832C104.108 3.832 102.624 5.456 102.624 7.5C102.624 9.544 104.108 11.168 106.236 11.168ZM106.236 10.034C104.906 10.034 103.898 8.984 103.898 7.5C103.898 6.016 104.906 4.966 106.236 4.966C107.566 4.966 108.588 6.016 108.588 7.5C108.588 8.984 107.566 10.034 106.236 10.034ZM114.4 11.168C115.408 11.168 116.15 10.734 116.542 10.132L116.738 11H117.788V4H116.542V7.584C116.542 9.18 115.744 10.034 114.666 10.034C113.7 10.034 112.986 9.39 112.986 8.144V4H111.74V8.158C111.74 9.978 112.566 11.168 114.4 11.168ZM120.607 11H121.867V5.134H123.379V4H121.867V1.844L120.607 2.082V4H119.697V5.134H120.607V11ZM125.033 11H126.279V7.682C126.279 5.792 127.189 4.966 128.141 4.966C129.107 4.966 129.807 5.652 129.807 6.898V11H131.067V6.786C131.067 4.994 130.213 3.832 128.407 3.832C127.483 3.832 126.685 4.252 126.279 4.868V0.99H125.033V11ZM138.674 7.416L140.34 2.726L141.992 7.416H138.674ZM135.944 11H137.386L138.24 8.648H142.426L143.28 11H144.75L141.096 1.2H139.598L135.944 11ZM146.38 11H147.64V5.134H149.376V4H147.64V3.328C147.64 2.628 148.018 2.194 148.648 2.194C148.9 2.194 149.166 2.278 149.418 2.404V1.186C149.18 1.088 148.9 1.032 148.55 1.032C147.164 1.032 146.38 1.816 146.38 3.454V4H145.4V5.134H146.38V11ZM151.064 11H152.31V7.346C152.31 5.834 153.024 5.106 153.934 5.106C154.27 5.106 154.648 5.19 154.928 5.344L155.334 4.112C155.082 3.972 154.634 3.832 154.2 3.832C153.29 3.832 152.674 4.252 152.296 4.938L152.114 4H151.064V11ZM156.763 2.572H158.163V1.2H156.763V2.572ZM156.847 11H158.093V4H156.847V11ZM163.629 11.168C165.169 11.168 166.219 10.3 166.737 9.278L165.631 8.774C165.337 9.418 164.651 10.034 163.629 10.034C162.313 10.034 161.389 8.984 161.389 7.5C161.389 6.016 162.313 4.966 163.587 4.966C164.581 4.966 165.169 5.442 165.561 6.212L166.681 5.708C166.135 4.462 165.015 3.832 163.629 3.832C161.515 3.832 160.115 5.456 160.115 7.5C160.115 9.544 161.515 11.168 163.629 11.168ZM171.478 10.034C170.078 10.034 169.154 8.914 169.154 7.5C169.154 6.086 170.078 4.966 171.478 4.966C172.864 4.966 173.802 6.086 173.802 7.5C173.802 8.914 172.864 10.034 171.478 10.034ZM171.352 11.168C172.402 11.168 173.312 10.636 173.704 10.062L173.886 11H174.95V4H173.886L173.704 4.882C173.354 4.42 172.556 3.832 171.352 3.832C169.308 3.832 167.88 5.456 167.88 7.5C167.88 9.544 169.224 11.168 171.352 11.168ZM180.542 11H186.52V9.768H182.152L184.77 6.996C185.778 5.918 186.394 4.994 186.394 3.748C186.394 2.278 185.148 1.032 183.594 1.032C182.012 1.032 181.018 2.04 180.696 3.398L181.914 3.776C182.068 2.95 182.6 2.25 183.524 2.25C184.448 2.25 185.092 2.936 185.092 3.818C185.092 4.756 184.616 5.358 183.622 6.45L180.542 9.824V11ZM191.402 11.168C193.488 11.168 194.972 9.278 194.972 6.1C194.972 2.908 193.488 1.032 191.402 1.032C189.302 1.032 187.818 2.908 187.818 6.1C187.818 9.278 189.302 11.168 191.402 11.168ZM191.402 9.95C190.044 9.95 189.106 8.648 189.106 6.1C189.106 3.552 190.086 2.25 191.402 2.25C192.732 2.25 193.684 3.552 193.684 6.1C193.684 8.648 192.774 9.95 191.402 9.95ZM196.073 11H202.051V9.768H197.683L200.301 6.996C201.309 5.918 201.925 4.994 201.925 3.748C201.925 2.278 200.679 1.032 199.125 1.032C197.543 1.032 196.549 2.04 196.227 3.398L197.445 3.776C197.599 2.95 198.131 2.25 199.055 2.25C199.979 2.25 200.623 2.936 200.623 3.818C200.623 4.756 200.147 5.358 199.153 6.45L196.073 9.824V11ZM209.593 11V9.796H207.731V1.2H206.709L204.595 2.208V3.398L206.443 2.656V9.796H204.539V11H209.593Z" fill="#AFAFAF"/>
  </g>
</svg>
