<svg width="348" height="73" viewBox="0 0 348 73" fill="none" xmlns="http://www.w3.org/2000/svg">
<path d="M249.506 5.43164H257.395L269.965 35.553H261.191L259.082 30.1696H247.65L245.541 35.553H236.979L249.506 5.43164ZM256.677 23.7182L253.387 15.2583L250.055 23.7182H256.677Z" fill="#212A3F"/>
<path d="M279.155 5.64551H286.79L298.939 21.4535V5.64551H307.038V35.5531H299.909L287.254 19.1467V35.5531H279.155V5.64551Z" fill="#212A3F"/>
<path d="M327.997 24.3592L316.734 5.64551H326.057L332.131 16.5402L338.247 5.64551H347.401L336.18 24.2309V35.5531H327.997L327.997 24.3592Z" fill="#212A3F"/>
<path d="M0 5.67383H9.1043L15.8456 24.5763L22.587 5.67383H31.4828L19.5291 35.5697H11.9537L0 5.67383Z" fill="#FB5F61"/>
<path d="M38.641 5.67383H46.9113V35.5939H38.641V5.67383Z" fill="#FB5F61"/>
<path d="M80.6877 0.816406H74.1548L55.4597 40.4165H61.9926L80.6877 0.816406Z" fill="#FB5F61"/>
<path d="M86.3659 20.6852V20.5997C86.3354 18.5344 86.7174 16.4841 87.4889 14.5721C88.2604 12.66 89.4055 10.9256 90.8554 9.47306C92.3052 8.02048 94.03 6.87969 95.9261 6.1192C97.8221 5.35872 99.8504 4.99422 101.889 5.0476C107.921 5.0476 111.801 7.61115 114.417 11.2427L108.258 16.071C106.571 13.9771 104.631 12.5674 101.805 12.5674C97.6709 12.5674 94.7602 16.1565 94.7602 20.5143V20.5998C94.7602 25.086 97.6708 28.5892 101.805 28.5892C104.884 28.5892 106.698 27.1366 108.469 24.9576L114.628 29.4014C111.844 33.2892 108.09 36.1519 101.594 36.1519C99.5816 36.184 97.5837 35.8056 95.7191 35.0391C93.8545 34.2727 92.1612 33.1339 90.7403 31.6906C89.3193 30.2474 88.1997 28.5292 87.4482 26.6385C86.6967 24.7477 86.3286 22.7231 86.3659 20.6852Z" fill="#212A3F"/>
<path d="M122.68 20.6845V20.599C122.68 12.0112 129.514 5.04688 138.625 5.04688C147.736 5.04688 154.485 11.9258 154.485 20.5136V20.599C154.485 29.1869 147.652 36.1512 138.541 36.1512C129.429 36.1512 122.68 29.2723 122.68 20.6845ZM146.091 20.6845V20.599C146.091 16.2412 143.054 12.5238 138.541 12.5238C134.027 12.5238 131.032 16.1982 131.032 20.5136V20.599C131.032 24.914 134.112 28.6743 138.625 28.6743C143.096 28.6743 146.091 24.9998 146.091 20.6845Z" fill="#212A3F"/>
<path d="M164.604 5.64551H173.251L180.296 17.224L187.34 5.64551H195.987V35.5531H187.846V18.3774L180.296 30.0843H180.127L172.618 18.4204V35.5531H164.604L164.604 5.64551Z" fill="#212A3F"/>
<path d="M207.54 5.64551H220.236C227.661 5.64551 232.469 9.53375 232.469 16.1135V16.1985C232.469 23.2908 227.112 27.0082 219.815 27.0082H215.723V35.5531H207.54L207.54 5.64551ZM219.646 20.5139C222.514 20.5139 224.328 18.9329 224.328 16.5831V16.4977C224.328 13.9342 222.514 12.6099 219.604 12.6099H215.723V20.5139L219.646 20.5139Z" fill="#212A3F"/>
<path d="M8.06864 68.9329C10.547 68.9329 12.1429 67.1465 12.1429 64.9912C12.1429 63.3019 11.3543 62.1368 9.66455 61.1854C9.49557 61.0883 7.91844 60.1951 7.74946 60.098C6.67926 59.5154 6.22865 59.0106 6.22865 58.1174C6.22865 57.2824 6.94212 56.6222 7.80579 56.6222C8.83843 56.6222 9.36414 57.2048 9.72088 58.1174L11.298 57.3018C10.6596 55.7679 9.53312 54.8747 7.86211 54.8747C5.85314 54.8747 4.44499 56.2727 4.44499 58.1951C4.44499 59.5931 5.23356 60.7776 6.52906 61.4766C6.79191 61.632 8.08742 62.331 8.36905 62.4863C9.5519 63.1077 10.3592 63.7679 10.3592 65.0106C10.3592 66.2922 9.32659 67.1854 8.04987 67.1854C6.39763 67.1854 5.53396 65.9815 5.23356 64.9135L3.6001 65.5737C4.25724 67.6902 5.70294 68.9329 8.06864 68.9329Z" fill="#212A3F"/>
<path d="M14.6421 57.0106H16.5196V55.1077H14.6421V57.0106ZM14.7547 68.6999H16.4257V58.9912H14.7547V68.6999Z" fill="#212A3F"/>
<path d="M19.9257 68.6999H21.5968V64.098C21.5968 61.5154 22.6482 60.331 23.9249 60.331C25.0702 60.331 25.84 61.0883 25.84 62.7193V68.6999H27.511V64.098C27.511 61.5154 28.5812 60.331 29.8391 60.331C30.9844 60.331 31.7542 61.0883 31.7542 62.7193V68.6999H33.444V62.797C33.444 60.3116 32.3926 58.7582 30.0645 58.7582C28.5061 58.7582 27.5673 59.5543 27.0979 60.3892C26.6286 59.3601 25.8024 58.7582 24.3192 58.7582C22.9861 58.7582 22.1412 59.3601 21.578 60.2339L21.3339 58.9912H19.9257V68.6999Z" fill="#212A3F"/>
<path d="M41.4318 67.3601C39.573 67.3601 38.3151 65.8067 38.3151 63.8456C38.3151 61.8844 39.5918 60.331 41.4506 60.331C43.2905 60.331 44.5673 61.8844 44.5673 63.8456C44.5673 65.8067 43.3093 67.3601 41.4318 67.3601ZM36.7943 72.5834H38.4653V67.4378C38.9159 68.0786 39.9673 68.9329 41.582 68.9329C44.3607 68.9329 46.2571 66.6805 46.2571 63.8456C46.2571 61.0106 44.5109 58.7582 41.6571 58.7582C40.2489 58.7582 39.0098 59.5349 38.4089 60.3698L38.2024 58.9912H36.7943V72.5834Z" fill="#212A3F"/>
<path d="M49.0056 68.6999H50.6766V54.8164H49.0056V68.6999Z" fill="#212A3F"/>
<path d="M54.0631 57.0106H55.9406V55.1077H54.0631V57.0106ZM54.1757 68.6999H55.8467V58.9912H54.1757V68.6999Z" fill="#212A3F"/>
<path d="M59.6659 68.6999H61.3557V60.564H63.6838V58.9912H61.3557V58.0591C61.3557 57.0883 61.8626 56.4863 62.7075 56.4863C63.0455 56.4863 63.4022 56.6028 63.7402 56.7776V55.0883C63.421 54.9523 63.0455 54.8747 62.5761 54.8747C60.7173 54.8747 59.6659 55.962 59.6659 58.2339V58.9912H58.3516V60.564H59.6659V68.6999Z" fill="#212A3F"/>
<path d="M68.4276 72.5834L73.1777 58.9912H71.4316L68.9345 66.3698L66.2121 58.9912H64.4284L68.0708 68.5834L66.7002 72.5834H68.4276Z" fill="#212A3F"/>
<path d="M75.1487 57.0106H77.0263V55.1077H75.1487V57.0106ZM75.2614 68.6999H76.9324V58.9912H75.2614V68.6999Z" fill="#212A3F"/>
<path d="M80.4324 68.6999H82.1034V64.098C82.1034 61.4572 83.2862 60.331 84.5817 60.331C85.8772 60.331 86.7785 61.2824 86.7785 63.0106V68.6999H88.4495V62.8553C88.4495 60.3698 87.2854 58.7582 84.9385 58.7582C83.5866 58.7582 82.6479 59.3213 82.0846 60.1951L81.8405 58.9912H80.4324V68.6999Z" fill="#212A3F"/>
<path d="M95.3484 72.8164C97.7329 72.8164 99.648 71.1465 99.648 68.7582C99.648 67.03 98.6341 65.7291 97.5451 65.2048C98.2398 64.7776 99.0471 63.7096 99.0471 62.4669C99.0471 61.3601 98.559 60.6417 98.1084 60.1951L99.6292 59.9232V58.7582H95.3484C93.3207 58.7582 91.5558 60.2727 91.5558 62.4087C91.5558 63.7873 92.3819 64.7582 93.0766 65.2436C92.0064 65.7679 90.9549 67.1271 90.9549 68.7582C90.9549 71.1465 92.9639 72.8164 95.3484 72.8164ZM95.3484 64.5834C94.0717 64.5834 93.1517 63.5931 93.1517 62.4475C93.1517 61.263 94.0904 60.2921 95.3484 60.2921C96.6814 60.2921 97.4512 61.263 97.4512 62.4475C97.4512 63.5931 96.7002 64.5834 95.3484 64.5834ZM95.3484 71.2825C93.8651 71.2825 92.6072 70.1951 92.6072 68.6999C92.6072 67.2048 93.9027 66.0786 95.3484 66.0786C96.888 66.0786 98.0521 67.2048 98.0521 68.6999C98.0521 70.1951 96.9068 71.2825 95.3484 71.2825Z" fill="#212A3F"/>
<path d="M107.354 68.6999H109.138V62.5252H114.376V60.7776H109.138V56.8358H114.751V55.1077H107.354V68.6999Z" fill="#212A3F"/>
<path d="M117.357 57.0106H119.234V55.1077H117.357V57.0106ZM117.469 68.6999H119.14V58.9912H117.469V68.6999Z" fill="#212A3F"/>
<path d="M122.64 68.6999H124.311V64.098C124.311 61.4572 125.494 60.331 126.79 60.331C128.085 60.331 128.986 61.2824 128.986 63.0106V68.6999H130.657V62.8553C130.657 60.3698 129.493 58.7582 127.146 58.7582C125.795 58.7582 124.856 59.3213 124.293 60.1951L124.048 58.9912H122.64V68.6999Z" fill="#212A3F"/>
<path d="M138.063 67.3601C136.186 67.3601 134.947 65.8067 134.947 63.8456C134.947 61.8844 136.186 60.331 138.063 60.331C139.922 60.331 141.18 61.8844 141.18 63.8456C141.18 65.8067 139.922 67.3601 138.063 67.3601ZM137.894 68.9329C139.302 68.9329 140.523 68.1951 141.049 67.399L141.293 68.6999H142.72V58.9912H141.293L141.049 60.2145C140.579 59.5737 139.509 58.7582 137.894 58.7582C135.153 58.7582 133.238 61.0106 133.238 63.8456C133.238 66.6805 135.04 68.9329 137.894 68.9329Z" fill="#212A3F"/>
<path d="M146.238 68.6999H147.909V64.098C147.909 61.4572 149.092 60.331 150.387 60.331C151.683 60.331 152.584 61.2824 152.584 63.0106V68.6999H154.255V62.8553C154.255 60.3698 153.091 58.7582 150.744 58.7582C149.392 58.7582 148.453 59.3213 147.89 60.1951L147.646 58.9912H146.238V68.6999Z" fill="#212A3F"/>
<path d="M161.548 68.9329C163.614 68.9329 165.022 67.7291 165.716 66.3116L164.233 65.6125C163.839 66.5058 162.919 67.3601 161.548 67.3601C159.783 67.3601 158.544 65.9038 158.544 63.8456C158.544 61.7873 159.783 60.331 161.492 60.331C162.825 60.331 163.614 60.9912 164.139 62.0591L165.641 61.3601C164.909 59.632 163.407 58.7582 161.548 58.7582C158.713 58.7582 156.836 61.0106 156.836 63.8456C156.836 66.6805 158.713 68.9329 161.548 68.9329Z" fill="#212A3F"/>
<path d="M168.091 57.0106H169.968V55.1077H168.091V57.0106ZM168.203 68.6999H169.874V58.9912H168.203V68.6999Z" fill="#212A3F"/>
<path d="M177.411 67.3601C175.533 67.3601 174.294 65.8067 174.294 63.8456C174.294 61.8844 175.533 60.331 177.411 60.331C179.27 60.331 180.528 61.8844 180.528 63.8456C180.528 65.8067 179.27 67.3601 177.411 67.3601ZM177.242 68.9329C178.65 68.9329 179.871 68.1951 180.396 67.399L180.64 68.6999H182.067V58.9912H180.64L180.396 60.2145C179.927 59.5737 178.857 58.7582 177.242 58.7582C174.501 58.7582 172.586 61.0106 172.586 63.8456C172.586 66.6805 174.388 68.9329 177.242 68.9329Z" fill="#212A3F"/>
<path d="M185.586 68.6999H187.257V54.8164H185.586V68.6999Z" fill="#212A3F"/>
<path d="M195.675 68.6999H197.44V58.8358L201.195 68.6999H202.772L206.527 58.8358V68.6999H208.292V55.1077H206.096L202.003 66.1951L197.872 55.1077H195.675V68.6999Z" fill="#212A3F"/>
<path d="M216.08 67.3601C214.203 67.3601 212.963 65.8067 212.963 63.8456C212.963 61.8844 214.203 60.331 216.08 60.331C217.939 60.331 219.197 61.8844 219.197 63.8456C219.197 65.8067 217.939 67.3601 216.08 67.3601ZM215.911 68.9329C217.319 68.9329 218.54 68.1951 219.065 67.399L219.31 68.6999H220.736V58.9912H219.31L219.065 60.2145C218.596 59.5737 217.526 58.7582 215.911 58.7582C213.17 58.7582 211.255 61.0106 211.255 63.8456C211.255 66.6805 213.057 68.9329 215.911 68.9329Z" fill="#212A3F"/>
<path d="M224.255 68.6999H225.926V63.632C225.926 61.5349 226.883 60.5252 228.104 60.5252C228.554 60.5252 229.061 60.6417 229.437 60.8553L229.981 59.1465C229.643 58.9523 229.043 58.7582 228.46 58.7582C227.24 58.7582 226.414 59.3407 225.907 60.2921L225.663 58.9912H224.255V68.6999Z" fill="#212A3F"/>
<path d="M232.102 68.6999H233.773V64.1368L237.66 68.6999H239.781L235.219 63.3989L239.35 58.9912H237.209L233.773 62.7388V54.8164H232.102V68.6999Z" fill="#212A3F"/>
<path d="M245.138 68.9329C247.184 68.9329 248.611 67.8261 249.325 66.3116L247.954 65.6125C247.334 66.7388 246.452 67.3601 245.213 67.3601C243.467 67.3601 242.284 66.1951 242.152 64.4087H249.55C249.569 64.1757 249.587 63.865 249.587 63.632C249.587 60.9135 247.992 58.7582 245.138 58.7582C242.228 58.7582 240.481 61.0106 240.481 63.8456C240.481 66.7193 242.171 68.9329 245.138 68.9329ZM242.171 62.9912C242.34 61.3989 243.523 60.331 245.156 60.331C246.771 60.331 247.804 61.3989 247.935 62.9912H242.171Z" fill="#212A3F"/>
<path d="M252.479 68.6999H254.168V60.564H256.196V58.9912H254.168V56.0009L252.479 56.331V58.9912H251.258V60.564H252.479V68.6999Z" fill="#212A3F"/>
<path d="M260.629 68.9329C262.638 68.9329 263.915 67.632 263.915 65.9426C263.915 64.5252 263.089 63.6125 261.962 63.1271L260.592 62.564C260.047 62.331 259.503 62.0397 259.503 61.3407C259.503 60.7582 259.991 60.2921 260.592 60.2921C261.211 60.2921 261.699 60.6611 261.981 61.3601L263.314 60.564C262.788 59.4378 261.906 58.7582 260.592 58.7582C259.071 58.7582 257.907 59.8844 257.907 61.2824C257.907 62.4669 258.583 63.3795 259.559 63.7679L260.76 64.2727C261.849 64.7193 262.319 65.1465 262.319 65.9621C262.319 66.7582 261.68 67.399 260.723 67.399C259.634 67.399 258.939 66.7776 258.639 65.7485L257.231 66.3504C257.756 67.8844 258.864 68.9329 260.629 68.9329Z" fill="#212A3F"/>
<path d="M273.354 68.6999H275.138V56.8358H278.818V55.1077H269.806V56.8358H273.354V68.6999Z" fill="#212A3F"/>
<path d="M283.885 68.9329C286.739 68.9329 288.748 66.6805 288.748 63.8456C288.748 61.0106 286.739 58.7582 283.885 58.7582C281.031 58.7582 279.041 61.0106 279.041 63.8456C279.041 66.6805 281.031 68.9329 283.885 68.9329ZM283.885 67.3601C282.101 67.3601 280.749 65.9038 280.749 63.8456C280.749 61.7873 282.101 60.331 283.885 60.331C285.668 60.331 287.039 61.7873 287.039 63.8456C287.039 65.9038 285.668 67.3601 283.885 67.3601Z" fill="#212A3F"/>
<path d="M295.02 72.8164C297.405 72.8164 299.32 71.1465 299.32 68.7582C299.32 67.03 298.306 65.7291 297.217 65.2048C297.912 64.7776 298.719 63.7096 298.719 62.4669C298.719 61.3601 298.231 60.6417 297.78 60.1951L299.301 59.9232V58.7582H295.02C292.993 58.7582 291.228 60.2727 291.228 62.4087C291.228 63.7873 292.054 64.7582 292.748 65.2436C291.678 65.7679 290.627 67.1271 290.627 68.7582C290.627 71.1465 292.636 72.8164 295.02 72.8164ZM295.02 64.5834C293.744 64.5834 292.824 63.5931 292.824 62.4475C292.824 61.263 293.762 60.2921 295.02 60.2921C296.353 60.2921 297.123 61.263 297.123 62.4475C297.123 63.5931 296.372 64.5834 295.02 64.5834ZM295.02 71.2825C293.537 71.2825 292.279 70.1951 292.279 68.6999C292.279 67.2048 293.575 66.0786 295.02 66.0786C296.56 66.0786 297.724 67.2048 297.724 68.6999C297.724 70.1951 296.579 71.2825 295.02 71.2825Z" fill="#212A3F"/>
<path d="M305.993 68.9329C308.039 68.9329 309.466 67.8261 310.18 66.3116L308.809 65.6125C308.189 66.7388 307.307 67.3601 306.068 67.3601C304.322 67.3601 303.139 66.1951 303.007 64.4087H310.405C310.424 64.1757 310.443 63.865 310.443 63.632C310.443 60.9135 308.847 58.7582 305.993 58.7582C303.083 58.7582 301.336 61.0106 301.336 63.8456C301.336 66.7193 303.026 68.9329 305.993 68.9329ZM303.026 62.9912C303.195 61.3989 304.378 60.331 306.012 60.331C307.626 60.331 308.659 61.3989 308.79 62.9912H303.026Z" fill="#212A3F"/>
<path d="M313.334 68.6999H315.023V60.564H317.051V58.9912H315.023V56.0009L313.334 56.331V58.9912H312.113V60.564H313.334V68.6999Z" fill="#212A3F"/>
<path d="M319.269 68.6999H320.94V64.098C320.94 61.4766 322.16 60.331 323.437 60.331C324.732 60.331 325.671 61.2824 325.671 63.0106V68.6999H327.361V62.8553C327.361 60.3698 326.215 58.7582 323.793 58.7582C322.554 58.7582 321.484 59.3407 320.94 60.1951V54.8164H319.269V68.6999Z" fill="#212A3F"/>
<path d="M334.578 68.9329C336.624 68.9329 338.051 67.8261 338.764 66.3116L337.394 65.6125C336.774 66.7388 335.892 67.3601 334.653 67.3601C332.906 67.3601 331.724 66.1951 331.592 64.4087H338.99C339.009 64.1757 339.027 63.865 339.027 63.632C339.027 60.9135 337.431 58.7582 334.578 58.7582C331.667 58.7582 329.921 61.0106 329.921 63.8456C329.921 66.7193 331.611 68.9329 334.578 68.9329ZM331.611 62.9912C331.78 61.3989 332.963 60.331 334.596 60.331C336.211 60.331 337.244 61.3989 337.375 62.9912H331.611Z" fill="#212A3F"/>
<path d="M341.674 68.6999H343.345V63.632C343.345 61.5349 344.303 60.5252 345.523 60.5252C345.974 60.5252 346.481 60.6417 346.856 60.8553L347.401 59.1465C347.063 58.9523 346.462 58.7582 345.88 58.7582C344.66 58.7582 343.834 59.3407 343.327 60.2921L343.082 58.9912H341.674V68.6999Z" fill="#212A3F"/>
</svg>
