<svg width="356" height="41" viewBox="0 0 356 41" fill="none" xmlns="http://www.w3.org/2000/svg">
<path d="M88.9165 20.4201V20.3338C88.8855 18.2476 89.275 16.1766 90.0616 14.2452C90.8482 12.3139 92.0157 10.562 93.494 9.09471C94.9723 7.62746 96.7309 6.47515 98.6642 5.70698C100.597 4.93881 102.665 4.57063 104.744 4.62456C110.894 4.62456 114.851 7.214 117.517 10.8822L111.238 15.7593C109.518 13.6443 107.539 12.2203 104.658 12.2203C100.443 12.2203 97.4754 15.8456 97.4754 20.2475V20.3338C97.4754 24.8653 100.443 28.4039 104.658 28.4039C107.797 28.4039 109.647 26.9366 111.454 24.7357L117.733 29.2242C114.894 33.1514 111.066 36.043 104.443 36.043C102.391 36.0754 100.354 35.6931 98.4531 34.9189C96.5519 34.1447 94.8255 32.9945 93.3767 31.5367C91.9279 30.0788 90.7863 28.3433 90.0201 26.4334C89.2538 24.5236 88.8785 22.4785 88.9165 20.4201V20.4201Z" fill="white"/>
<path d="M168.688 5.229H177.505L184.688 16.9244L191.87 5.229H200.687V35.4386H192.386V18.0895L184.688 29.9146H184.516L176.86 18.1329V35.4386H168.688L168.688 5.229Z" fill="white"/>
<path d="M212.466 5.229H225.412C232.982 5.229 237.884 9.15651 237.884 15.8027V15.8886C237.884 23.0525 232.422 26.8074 224.982 26.8074H220.81V35.4386H212.466L212.466 5.229ZM224.809 20.2475C227.734 20.2475 229.583 18.6506 229.583 16.2771V16.1908C229.583 13.6014 227.734 12.2637 224.767 12.2637H220.81V20.2475L224.809 20.2475Z" fill="white"/>
<path d="M255.256 5.01306H263.299L276.115 35.4386H267.169L265.019 30.0008H253.364L251.213 35.4386H242.482L255.256 5.01306ZM262.567 23.4843L259.213 14.939L255.815 23.4843H262.567Z" fill="white"/>
<path d="M285.486 5.229H293.271L305.657 21.1967V5.229H313.915V35.4386H306.647L293.744 18.8665V35.4386H285.486V5.229Z" fill="white"/>
<path d="M335.285 24.1317L323.802 5.229H333.307L339.5 16.2337L345.737 5.229H355.069L343.629 24.0021V35.4386H335.285L335.285 24.1317Z" fill="white"/>
<path d="M0.857178 5.25763H10.1452L17.0226 24.351L23.9 5.25763H32.9753L20.7804 35.4554H13.0522L0.857178 5.25763Z" fill="#FB5F61"/>
<path d="M40.2781 5.25763H48.7153V35.4798H40.2781V5.25763Z" fill="#FB5F61"/>
<path d="M83.1732 0.350952H76.5085L57.4362 40.351H64.1008L83.1732 0.350952Z" fill="#FB5F61"/>
<g clip-path="url(#clip0)">
<path d="M156.853 21.8125H129.99L133.606 32.6875L142.986 33.3568L152.204 32.1719L156.853 21.8125Z" fill="#000C8A"/>
<path d="M150.737 8.09208L137.739 7.42194L129.99 18.8126H156.853L150.737 8.09208Z" fill="#E1392D"/>
<path d="M125.899 3.81256H125.857V3.87436H125.899V3.81256Z" fill="#000C8A"/>
<path d="M125.899 3.81256H125.857V3.84346H125.899V3.81256Z" fill="#E1392D"/>
<path d="M130.507 13.6094L135.224 7.26544L143.463 14.8126L156.853 15.6719V24.9531L143.463 25.8125L135.156 33.7188L133.09 32.1719L130.507 13.6094Z" fill="white"/>
<path d="M131.54 10.5157L133.089 7.93756L143.008 16.9754H156.806V23.3364L143.008 23.6497L133.606 31.6563L131.023 30.6251L131.54 10.5157Z" fill="#007847"/>
<path d="M130.061 11.6868L138.421 20.3126L130.061 28.196L130.061 11.6868Z" fill="#FFB915"/>
<path d="M128.957 14.1251L135.156 20.3126L128.957 25.9844V14.1251Z" fill="black"/>
<path fill-rule="evenodd" clip-rule="evenodd" d="M126.89 20.3126C126.89 11.7694 133.829 4.84381 142.388 4.84381C150.948 4.84381 157.887 11.7694 157.887 20.3126C157.887 28.8557 150.948 35.7813 142.388 35.7813C133.829 35.7813 126.89 28.8557 126.89 20.3126ZM142.388 7.93756C135.541 7.93756 129.99 13.478 129.99 20.3126C129.99 27.147 135.541 32.6876 142.388 32.6876C149.236 32.6876 154.787 27.147 154.787 20.3126C154.787 13.478 149.236 7.93756 142.388 7.93756Z" fill="white"/>
</g>
<defs>
<clipPath id="clip0">
<rect width="32.0294" height="33" fill="white" transform="translate(125.857 3.33215)"/>
</clipPath>
</defs>
</svg>
