<svg width="356" height="68" viewBox="0 0 356 68" fill="none" xmlns="http://www.w3.org/2000/svg">
<path d="M76.982 61H78.312V52.446H81.056V51.2H74.336V52.446H76.982V61ZM81.5914 61H82.8374V57.346C82.8374 55.834 83.5514 55.106 84.4614 55.106C84.7974 55.106 85.1754 55.19 85.4554 55.344L85.8614 54.112C85.6094 53.972 85.1614 53.832 84.7274 53.832C83.8174 53.832 83.2014 54.252 82.8234 54.938L82.6414 54H81.5914V61ZM89.8924 60.034C88.4924 60.034 87.5684 58.914 87.5684 57.5C87.5684 56.086 88.4924 54.966 89.8924 54.966C91.2784 54.966 92.2164 56.086 92.2164 57.5C92.2164 58.914 91.2784 60.034 89.8924 60.034ZM89.7664 61.168C90.8164 61.168 91.7264 60.636 92.1184 60.062L92.3004 61H93.3644V54H92.3004L92.1184 54.882C91.7684 54.42 90.9704 53.832 89.7664 53.832C87.7224 53.832 86.2944 55.456 86.2944 57.5C86.2944 59.544 87.6384 61.168 89.7664 61.168ZM98.9839 60.034C97.5979 60.034 96.6599 58.914 96.6599 57.5C96.6599 56.086 97.5979 54.966 98.9839 54.966C100.384 54.966 101.308 56.086 101.308 57.5C101.308 58.914 100.384 60.034 98.9839 60.034ZM98.8859 61.168C99.9779 61.168 100.846 60.552 101.238 60.006L101.406 61H102.456V50.99H101.21V54.896C100.86 54.462 100.09 53.832 98.8859 53.832C96.8139 53.832 95.3999 55.456 95.3999 57.5C95.3999 59.544 96.7439 61.168 98.8859 61.168ZM107.977 61.168C109.503 61.168 110.567 60.37 111.099 59.278L110.077 58.774C109.615 59.586 108.957 60.034 108.033 60.034C106.731 60.034 105.849 59.194 105.751 57.906H111.267C111.281 57.738 111.295 57.514 111.295 57.346C111.295 55.386 110.105 53.832 107.977 53.832C105.807 53.832 104.505 55.456 104.505 57.5C104.505 59.572 105.765 61.168 107.977 61.168ZM105.765 56.884C105.891 55.736 106.773 54.966 107.991 54.966C109.195 54.966 109.965 55.736 110.063 56.884H105.765ZM116.755 61H118.001V57.682C118.001 55.82 118.785 54.966 119.737 54.966C120.591 54.966 121.165 55.512 121.165 56.688V61H122.411V57.682C122.411 55.82 123.209 54.966 124.147 54.966C125.001 54.966 125.575 55.512 125.575 56.688V61H126.835V56.744C126.835 54.952 126.051 53.832 124.315 53.832C123.153 53.832 122.453 54.406 122.103 55.008C121.753 54.266 121.137 53.832 120.031 53.832C119.037 53.832 118.407 54.266 117.987 54.896L117.805 54H116.755V61ZM129.236 52.572H130.636V51.2H129.236V52.572ZM129.32 61H130.566V54H129.32V61ZM134.827 61.168C136.325 61.168 137.277 60.23 137.277 59.012C137.277 57.99 136.661 57.332 135.821 56.982L134.799 56.576C134.393 56.408 133.987 56.198 133.987 55.694C133.987 55.274 134.351 54.938 134.799 54.938C135.261 54.938 135.625 55.204 135.835 55.708L136.829 55.134C136.437 54.322 135.779 53.832 134.799 53.832C133.665 53.832 132.797 54.644 132.797 55.652C132.797 56.506 133.301 57.164 134.029 57.444L134.925 57.808C135.737 58.13 136.087 58.438 136.087 59.026C136.087 59.6 135.611 60.062 134.897 60.062C134.085 60.062 133.567 59.614 133.343 58.872L132.293 59.306C132.685 60.412 133.511 61.168 134.827 61.168ZM140.816 61.168C142.314 61.168 143.266 60.23 143.266 59.012C143.266 57.99 142.65 57.332 141.81 56.982L140.788 56.576C140.382 56.408 139.976 56.198 139.976 55.694C139.976 55.274 140.34 54.938 140.788 54.938C141.25 54.938 141.614 55.204 141.824 55.708L142.818 55.134C142.426 54.322 141.768 53.832 140.788 53.832C139.654 53.832 138.786 54.644 138.786 55.652C138.786 56.506 139.29 57.164 140.018 57.444L140.914 57.808C141.726 58.13 142.076 58.438 142.076 59.026C142.076 59.6 141.6 60.062 140.886 60.062C140.074 60.062 139.556 59.614 139.332 58.872L138.282 59.306C138.674 60.412 139.5 61.168 140.816 61.168ZM145.054 52.572H146.454V51.2H145.054V52.572ZM145.138 61H146.384V54H145.138V61ZM152.018 61.168C154.146 61.168 155.644 59.544 155.644 57.5C155.644 55.456 154.146 53.832 152.018 53.832C149.89 53.832 148.406 55.456 148.406 57.5C148.406 59.544 149.89 61.168 152.018 61.168ZM152.018 60.034C150.688 60.034 149.68 58.984 149.68 57.5C149.68 56.016 150.688 54.966 152.018 54.966C153.348 54.966 154.37 56.016 154.37 57.5C154.37 58.984 153.348 60.034 152.018 60.034ZM157.689 61H158.935V57.682C158.935 55.778 159.817 54.966 160.783 54.966C161.749 54.966 162.421 55.652 162.421 56.898V61H163.667V56.786C163.667 54.994 162.799 53.832 161.049 53.832C160.041 53.832 159.341 54.238 158.921 54.868L158.739 54H157.689V61ZM172.186 61.168C174.034 61.168 175.224 59.88 175.224 58.326C175.224 57.108 174.636 56.268 173.376 55.582C173.25 55.512 172.074 54.868 171.948 54.798C171.15 54.378 170.814 54.014 170.814 53.37C170.814 52.768 171.346 52.292 171.99 52.292C172.76 52.292 173.152 52.712 173.418 53.37L174.594 52.782C174.118 51.676 173.278 51.032 172.032 51.032C170.534 51.032 169.484 52.04 169.484 53.426C169.484 54.434 170.072 55.288 171.038 55.792C171.234 55.904 172.2 56.408 172.41 56.52C173.292 56.968 173.894 57.444 173.894 58.34C173.894 59.264 173.124 59.908 172.172 59.908C170.94 59.908 170.296 59.04 170.072 58.27L168.854 58.746C169.344 60.272 170.422 61.168 172.186 61.168ZM180.236 61.168C182.364 61.168 183.862 59.544 183.862 57.5C183.862 55.456 182.364 53.832 180.236 53.832C178.108 53.832 176.624 55.456 176.624 57.5C176.624 59.544 178.108 61.168 180.236 61.168ZM180.236 60.034C178.906 60.034 177.898 58.984 177.898 57.5C177.898 56.016 178.906 54.966 180.236 54.966C181.566 54.966 182.588 56.016 182.588 57.5C182.588 58.984 181.566 60.034 180.236 60.034ZM188.4 61.168C189.408 61.168 190.15 60.734 190.542 60.132L190.738 61H191.788V54H190.542V57.584C190.542 59.18 189.744 60.034 188.666 60.034C187.7 60.034 186.986 59.39 186.986 58.144V54H185.74V58.158C185.74 59.978 186.566 61.168 188.4 61.168ZM194.607 61H195.867V55.134H197.379V54H195.867V51.844L194.607 52.082V54H193.697V55.134H194.607V61ZM199.033 61H200.279V57.682C200.279 55.792 201.189 54.966 202.141 54.966C203.107 54.966 203.807 55.652 203.807 56.898V61H205.067V56.786C205.067 54.994 204.213 53.832 202.407 53.832C201.483 53.832 200.685 54.252 200.279 54.868V50.99H199.033V61ZM212.674 57.416L214.34 52.726L215.992 57.416H212.674ZM209.944 61H211.386L212.24 58.648H216.426L217.28 61H218.75L215.096 51.2H213.598L209.944 61ZM220.38 61H221.64V55.134H223.376V54H221.64V53.328C221.64 52.628 222.018 52.194 222.648 52.194C222.9 52.194 223.166 52.278 223.418 52.404V51.186C223.18 51.088 222.9 51.032 222.55 51.032C221.164 51.032 220.38 51.816 220.38 53.454V54H219.4V55.134H220.38V61ZM225.064 61H226.31V57.346C226.31 55.834 227.024 55.106 227.934 55.106C228.27 55.106 228.648 55.19 228.928 55.344L229.334 54.112C229.082 53.972 228.634 53.832 228.2 53.832C227.29 53.832 226.674 54.252 226.296 54.938L226.114 54H225.064V61ZM230.763 52.572H232.163V51.2H230.763V52.572ZM230.847 61H232.093V54H230.847V61ZM237.629 61.168C239.169 61.168 240.219 60.3 240.737 59.278L239.631 58.774C239.337 59.418 238.651 60.034 237.629 60.034C236.313 60.034 235.389 58.984 235.389 57.5C235.389 56.016 236.313 54.966 237.587 54.966C238.581 54.966 239.169 55.442 239.561 56.212L240.681 55.708C240.135 54.462 239.015 53.832 237.629 53.832C235.515 53.832 234.115 55.456 234.115 57.5C234.115 59.544 235.515 61.168 237.629 61.168ZM245.478 60.034C244.078 60.034 243.154 58.914 243.154 57.5C243.154 56.086 244.078 54.966 245.478 54.966C246.864 54.966 247.802 56.086 247.802 57.5C247.802 58.914 246.864 60.034 245.478 60.034ZM245.352 61.168C246.402 61.168 247.312 60.636 247.704 60.062L247.886 61H248.95V54H247.886L247.704 54.882C247.354 54.42 246.556 53.832 245.352 53.832C243.308 53.832 241.88 55.456 241.88 57.5C241.88 59.544 243.224 61.168 245.352 61.168ZM254.542 61H260.52V59.768H256.152L258.77 56.996C259.778 55.918 260.394 54.994 260.394 53.748C260.394 52.278 259.148 51.032 257.594 51.032C256.012 51.032 255.018 52.04 254.696 53.398L255.914 53.776C256.068 52.95 256.6 52.25 257.524 52.25C258.448 52.25 259.092 52.936 259.092 53.818C259.092 54.756 258.616 55.358 257.622 56.45L254.542 59.824V61ZM265.402 61.168C267.488 61.168 268.972 59.278 268.972 56.1C268.972 52.908 267.488 51.032 265.402 51.032C263.302 51.032 261.818 52.908 261.818 56.1C261.818 59.278 263.302 61.168 265.402 61.168ZM265.402 59.95C264.044 59.95 263.106 58.648 263.106 56.1C263.106 53.552 264.086 52.25 265.402 52.25C266.732 52.25 267.684 53.552 267.684 56.1C267.684 58.648 266.774 59.95 265.402 59.95ZM270.073 61H276.051V59.768H271.683L274.301 56.996C275.309 55.918 275.925 54.994 275.925 53.748C275.925 52.278 274.679 51.032 273.125 51.032C271.543 51.032 270.549 52.04 270.227 53.398L271.445 53.776C271.599 52.95 272.131 52.25 273.055 52.25C273.979 52.25 274.623 52.936 274.623 53.818C274.623 54.756 274.147 55.358 273.153 56.45L270.073 59.824V61ZM283.593 61V59.796H281.731V51.2H280.709L278.595 52.208V53.398L280.443 52.656V59.796H278.539V61H283.593Z" fill="#AFAFAF"/>
<path d="M88.9165 20.4201V20.3338C88.8855 18.2476 89.275 16.1766 90.0616 14.2452C90.8482 12.3139 92.0157 10.562 93.494 9.09471C94.9723 7.62746 96.7309 6.47515 98.6642 5.70698C100.597 4.93881 102.665 4.57063 104.744 4.62456C110.894 4.62456 114.851 7.214 117.517 10.8822L111.238 15.7593C109.518 13.6443 107.539 12.2203 104.658 12.2203C100.443 12.2203 97.4754 15.8456 97.4754 20.2475V20.3338C97.4754 24.8653 100.443 28.4039 104.658 28.4039C107.797 28.4039 109.647 26.9366 111.454 24.7357L117.733 29.2242C114.894 33.1514 111.066 36.043 104.443 36.043C102.391 36.0754 100.354 35.6931 98.4531 34.9189C96.5519 34.1447 94.8255 32.9945 93.3767 31.5367C91.9279 30.0788 90.7863 28.3433 90.0201 26.4334C89.2538 24.5236 88.8785 22.4785 88.9165 20.4201V20.4201Z" fill="white"/>
<path d="M168.688 5.229H177.505L184.688 16.9244L191.87 5.229H200.687V35.4386H192.386V18.0895L184.688 29.9146H184.516L176.86 18.1329V35.4386H168.688L168.688 5.229Z" fill="white"/>
<path d="M212.466 5.229H225.412C232.982 5.229 237.884 9.15651 237.884 15.8027V15.8886C237.884 23.0525 232.422 26.8074 224.982 26.8074H220.81V35.4386H212.466L212.466 5.229ZM224.809 20.2475C227.734 20.2475 229.583 18.6506 229.583 16.2771V16.1908C229.583 13.6014 227.734 12.2637 224.767 12.2637H220.81V20.2475L224.809 20.2475Z" fill="white"/>
<path d="M255.256 5.01306H263.299L276.115 35.4386H267.169L265.019 30.0008H253.364L251.213 35.4386H242.482L255.256 5.01306ZM262.567 23.4843L259.213 14.939L255.815 23.4843H262.567Z" fill="white"/>
<path d="M285.486 5.229H293.271L305.657 21.1967V5.229H313.915V35.4386H306.647L293.744 18.8665V35.4386H285.486V5.229Z" fill="white"/>
<path d="M335.285 24.1317L323.802 5.229H333.307L339.5 16.2337L345.737 5.229H355.069L343.629 24.0021V35.4386H335.285L335.285 24.1317Z" fill="white"/>
<path d="M0.857178 5.25763H10.1452L17.0226 24.351L23.9 5.25763H32.9753L20.7804 35.4554H13.0522L0.857178 5.25763Z" fill="#FB5F61"/>
<path d="M40.2781 5.25763H48.7153V35.4798H40.2781V5.25763Z" fill="#FB5F61"/>
<path d="M83.1732 0.350952H76.5085L57.4362 40.351H64.1008L83.1732 0.350952Z" fill="#FB5F61"/>
<g clip-path="url(#clip0)">
<path d="M156.853 21.8125H129.99L133.606 32.6875L142.986 33.3568L152.204 32.1719L156.853 21.8125Z" fill="#000C8A"/>
<path d="M150.737 8.09208L137.739 7.42194L129.99 18.8126H156.853L150.737 8.09208Z" fill="#E1392D"/>
<path d="M125.899 3.81256H125.857V3.87436H125.899V3.81256Z" fill="#000C8A"/>
<path d="M125.899 3.81256H125.857V3.84346H125.899V3.81256Z" fill="#E1392D"/>
<path d="M130.507 13.6094L135.224 7.26544L143.463 14.8126L156.853 15.6719V24.9531L143.463 25.8125L135.156 33.7188L133.09 32.1719L130.507 13.6094Z" fill="white"/>
<path d="M131.54 10.5157L133.089 7.93756L143.008 16.9754H156.806V23.3364L143.008 23.6497L133.606 31.6563L131.023 30.6251L131.54 10.5157Z" fill="#007847"/>
<path d="M130.061 11.6868L138.421 20.3126L130.061 28.196L130.061 11.6868Z" fill="#FFB915"/>
<path d="M128.957 14.1251L135.156 20.3126L128.957 25.9844V14.1251Z" fill="black"/>
<path fill-rule="evenodd" clip-rule="evenodd" d="M126.89 20.3126C126.89 11.7694 133.829 4.84381 142.388 4.84381C150.948 4.84381 157.887 11.7694 157.887 20.3126C157.887 28.8557 150.948 35.7813 142.388 35.7813C133.829 35.7813 126.89 28.8557 126.89 20.3126ZM142.388 7.93756C135.541 7.93756 129.99 13.478 129.99 20.3126C129.99 27.147 135.541 32.6876 142.388 32.6876C149.236 32.6876 154.787 27.147 154.787 20.3126C154.787 13.478 149.236 7.93756 142.388 7.93756Z" fill="white"/>
</g>
<defs>
<clipPath id="clip0">
<rect width="32.0294" height="33" fill="white" transform="translate(125.857 3.33215)"/>
</clipPath>
</defs>
</svg>
