<svg width="177" height="65" viewBox="0 0 177 65" fill="none" xmlns="http://www.w3.org/2000/svg">
<path d="M73.4555 64.5137H0.300781V0.513676H73.4555V64.5137Z" fill="#17223D"/>
<path d="M176.413 64.5137H75.7543V0.513676H176.413V64.5137Z" fill="#66CA9F"/>
<path d="M23.0929 48.75C23.7468 48.75 24.3149 48.9913 24.7967 49.4746C25.2808 49.9565 25.5214 50.5423 25.5214 51.2269C25.5214 51.9107 25.2808 52.4966 24.7967 52.9785C24.3149 53.4641 23.7468 53.7031 23.0929 53.7031C22.4069 53.7031 21.8233 53.4641 21.3377 52.9785C20.8557 52.4966 20.6145 51.9107 20.6145 51.2269C20.6145 50.5423 20.8557 49.9565 21.3377 49.4746C21.8233 48.9913 22.4069 48.75 23.0929 48.75ZM23.0929 13.6948C23.7468 13.6948 24.3149 13.9354 24.7967 14.4211C25.2808 14.9028 25.5214 15.4888 25.5214 16.1732C25.5214 16.857 25.2885 17.4353 24.8221 17.9016C24.3558 18.3682 23.7776 18.6017 23.0929 18.6017C22.4377 18.6017 21.8595 18.3682 21.3623 17.9016C20.8634 17.4353 20.6145 16.857 20.6145 16.1732C20.6145 15.4888 20.8557 14.9028 21.3377 14.4211C21.8233 13.9354 22.4069 13.6948 23.0929 13.6948ZM17.2494 48.75C17.9047 48.75 18.4736 48.9913 18.9531 49.4746C19.4388 49.9565 19.6801 50.5423 19.6801 51.2269C19.6801 51.9107 19.4388 52.4966 18.9531 52.9785C18.4736 53.4641 17.9047 53.7031 17.2494 53.7031C16.5656 53.7031 15.9797 53.4641 15.4956 52.9785C15.0138 52.4966 14.7732 51.9107 14.7732 51.2269C14.7732 50.5423 15.0138 49.9565 15.4956 49.4746C15.9797 48.9913 16.5656 48.75 17.2494 48.75ZM17.2494 42.9065C17.9047 42.9065 18.4736 43.1477 18.9531 43.631C19.4388 44.1153 19.6801 44.6989 19.6801 45.3849C19.6801 46.0695 19.4465 46.6477 18.9801 47.1141C18.5137 47.5805 17.9355 47.8133 17.2494 47.8133C16.5964 47.8133 16.0182 47.5805 15.521 47.1141C15.0215 46.6477 14.7732 46.0695 14.7732 45.3849C14.7732 44.6989 15.0138 44.1153 15.4956 43.631C15.9797 43.1477 16.5656 42.9065 17.2494 42.9065ZM17.2494 31.2215C17.9047 31.2215 18.4736 31.4621 18.9531 31.9478C19.4388 32.4297 19.6801 33.0155 19.6801 33.7001C19.6801 34.3839 19.4465 34.9622 18.9801 35.4285C18.5137 35.8949 17.9355 36.1286 17.2494 36.1286C16.5964 36.1286 16.0182 35.8949 15.521 35.4285C15.0215 34.9622 14.7732 34.3839 14.7732 33.7001C14.7732 33.0155 15.0138 32.4297 15.4956 31.9478C15.9797 31.4621 16.5656 31.2215 17.2494 31.2215ZM17.2494 25.3796C17.9047 25.3796 18.4736 25.621 18.9531 26.1043C19.4388 26.586 19.6801 27.172 19.6801 27.8566C19.6801 28.5426 19.4465 29.1201 18.9801 29.5872C18.5137 30.0538 17.9355 30.2865 17.2494 30.2865C16.5964 30.2865 16.0182 30.0538 15.521 29.5872C15.0215 29.1201 14.7732 28.5426 14.7732 27.8566C14.7732 27.172 15.0138 26.586 15.4956 26.1043C15.9797 25.621 16.5656 25.3796 17.2494 25.3796ZM17.2494 19.5383C17.9047 19.5383 18.4736 19.7789 18.9531 20.263C19.4388 20.7449 19.6801 21.3307 19.6801 22.0145C19.6801 22.6991 19.4465 23.2774 18.9801 23.7453C18.5137 24.2117 17.9355 24.4453 17.2494 24.4453C16.5964 24.4453 16.0182 24.2117 15.521 23.7453C15.0215 23.2774 14.7732 22.6991 14.7732 22.0145C14.7732 21.3307 15.0138 20.7449 15.4956 20.263C15.9797 19.7789 16.5656 19.5383 17.2494 19.5383ZM17.2494 13.6948C17.9047 13.6948 18.4736 13.9354 18.9531 14.4211C19.4388 14.9028 19.6801 15.4888 19.6801 16.1732C19.6801 16.857 19.4465 17.4353 18.9801 17.9016C18.5137 18.3682 17.9355 18.6017 17.2494 18.6017C16.5964 18.6017 16.0182 18.3682 15.521 17.9016C15.0215 17.4353 14.7732 16.857 14.7732 16.1732C14.7732 15.4888 15.0138 14.9028 15.4956 14.4211C15.9797 13.9354 16.5656 13.6948 17.2494 13.6948ZM17.1569 37.0652C17.8415 37.0652 18.4274 37.3058 18.9092 37.7899C19.391 38.2716 19.6338 38.8576 19.6338 39.5414C19.6338 40.2274 19.4003 40.8057 18.9339 41.272C18.4659 41.7386 17.8739 41.972 17.1569 41.972C16.5016 41.972 15.9311 41.7307 15.4493 41.2489C14.9675 40.7632 14.7246 40.1966 14.7246 39.5414C14.7246 38.8576 14.9675 38.2716 15.4493 37.7899C15.9311 37.3058 16.5016 37.0652 17.1569 37.0652ZM11.4082 48.75C12.0611 48.75 12.6301 48.9913 13.1119 49.4746C13.5976 49.9565 13.8365 50.5423 13.8365 51.2269C13.8365 51.9107 13.5976 52.4966 13.1119 52.9785C12.6301 53.4641 12.0611 53.7031 11.4082 53.7031C10.7236 53.7031 10.1377 53.4641 9.65432 52.9785C9.1725 52.4966 8.93121 51.9107 8.93121 51.2269C8.93121 50.5423 9.1725 49.9565 9.65432 49.4746C10.1377 48.9913 10.7236 48.75 11.4082 48.75ZM11.4082 13.6948C12.0611 13.6948 12.6301 13.9354 13.1119 14.4211C13.5976 14.9028 13.8365 15.4888 13.8365 16.1732C13.8365 16.857 13.603 17.4353 13.1366 17.9016C12.6702 18.3682 12.092 18.6017 11.4082 18.6017C10.7544 18.6017 10.1762 18.3682 9.67899 17.9016C9.18022 17.4353 8.93121 16.857 8.93121 16.1732C8.93121 15.4888 9.1725 14.9028 9.65432 14.4211C10.1377 13.9354 10.7236 13.6948 11.4082 13.6948Z" fill="white"/>
<path d="M60.7933 48.7255C61.4461 48.7255 62.0151 48.966 62.4968 49.4501C62.9804 49.932 63.2215 50.5179 63.2215 51.204C63.2215 51.8878 62.9804 52.4737 62.4968 52.9555C62.0151 53.4396 61.4461 53.6802 60.7933 53.6802C60.1086 53.6802 59.5227 53.4396 59.037 52.9555C58.5553 52.4737 58.3147 51.8878 58.3147 51.204C58.3147 50.5179 58.5553 49.932 59.037 49.4501C59.5227 48.966 60.1086 48.7255 60.7933 48.7255ZM60.7933 42.8834C61.4461 42.8834 62.0151 43.124 62.4968 43.6081C62.9804 44.09 63.2215 44.6758 63.2215 45.3604C63.2215 46.0442 62.9881 46.6224 62.5215 47.0888C62.0552 47.5575 61.4769 47.7904 60.7933 47.7904C60.1379 47.7904 59.5598 47.5575 59.064 47.0888C58.563 46.6224 58.3147 46.0442 58.3147 45.3604C58.3147 44.6758 58.5553 44.09 59.037 43.6081C59.5227 43.124 60.1086 42.8834 60.7933 42.8834ZM60.6983 37.0399C61.383 37.0399 61.9689 37.2813 62.4507 37.767C62.9324 38.2479 63.1769 38.8323 63.1769 39.5185C63.1769 40.2029 62.944 40.7804 62.4753 41.2475C62.0074 41.7141 61.4153 41.9468 60.6983 41.9468C60.0453 41.9468 59.4749 41.7062 58.993 41.2244C58.5113 40.7403 58.2661 40.1721 58.2661 39.5185C58.2661 38.8323 58.5113 38.2479 58.993 37.767C59.4749 37.2813 60.0453 37.0399 60.6983 37.0399ZM57.846 31.1986C58.5343 31.1986 59.1163 31.4392 59.5999 31.9233C60.0816 32.4052 60.3267 32.991 60.3267 33.6748C60.3267 34.361 60.0933 34.9391 59.623 35.4056C59.1566 35.872 58.563 36.1056 57.846 36.1056C57.1621 36.1056 56.5855 35.872 56.1175 35.4056C55.6512 34.9391 55.4175 34.361 55.4175 33.6748C55.4175 33.022 55.6512 32.4453 56.1175 31.9464C56.5855 31.4493 57.1621 31.1986 57.846 31.1986ZM54.9496 37.0399C55.6048 37.0399 56.173 37.2813 56.6549 37.767C57.139 38.2479 57.3796 38.8323 57.3796 39.5185C57.3796 40.2029 57.1467 40.7804 56.6804 41.2475C56.2138 41.7141 55.6358 41.9468 54.9496 41.9468C54.296 41.9468 53.7177 41.7141 53.2204 41.2475C52.7217 40.7804 52.4726 40.2029 52.4726 39.5185C52.4726 38.8323 52.714 38.2479 53.1957 37.767C53.6792 37.2813 54.265 37.0399 54.9496 37.0399ZM54.9496 25.3567C55.6048 25.3567 56.173 25.5957 56.6549 26.0814C57.139 26.5631 57.3796 27.1491 57.3796 27.8337C57.3796 28.5173 57.1467 29.0956 56.6804 29.5619C56.2138 30.0285 55.6358 30.262 54.9496 30.262C54.296 30.262 53.7177 30.0285 53.2204 29.5619C52.7217 29.0956 52.4726 28.5173 52.4726 27.8337C52.4726 27.1491 52.714 26.5631 53.1957 26.0814C53.6792 25.5957 54.265 25.3567 54.9496 25.3567ZM52.0047 19.513C52.6909 19.513 53.2744 19.7544 53.7586 20.2401C54.2403 20.7197 54.4832 21.3054 54.4832 21.9916C54.4832 22.6762 54.2496 23.2543 53.7816 23.7208C53.3153 24.1864 52.7217 24.4201 52.0047 24.4201C51.3187 24.4201 50.7443 24.1864 50.2741 23.7208C49.8075 23.2543 49.574 22.6762 49.574 21.9916C49.574 21.3364 49.8075 20.7605 50.2741 20.2608C50.7443 19.7637 51.3187 19.513 52.0047 19.513ZM49.1077 37.0399C49.7613 37.0399 50.3295 37.2813 50.8113 37.767C51.2969 38.2479 51.5359 38.8323 51.5359 39.5185C51.5359 40.2029 51.3033 40.7804 50.8367 41.2475C50.3704 41.7141 49.7921 41.9468 49.1077 41.9468C48.4546 41.9468 47.8764 41.7141 47.3793 41.2475C46.8797 40.7804 46.6315 40.2029 46.6315 39.5185C46.6315 38.8323 46.8719 38.2479 47.3538 37.767C47.8379 37.2813 48.4239 37.0399 49.1077 37.0399ZM49.1077 13.6719C49.7613 13.6719 50.3295 13.9123 50.8113 14.3966C51.2969 14.8784 51.5359 15.4643 51.5359 16.1481C51.5359 16.8326 51.3033 17.4108 50.8367 17.8787C50.3704 18.3451 49.7921 18.5788 49.1077 18.5788C48.4546 18.5788 47.8764 18.3451 47.3793 17.8787C46.8797 17.4108 46.6315 16.8326 46.6315 16.1481C46.6315 15.4643 46.8719 14.8784 47.3538 14.3966C47.8379 13.9123 48.4239 13.6719 49.1077 13.6719ZM46.1612 19.513C46.8488 19.513 47.431 19.7544 47.9165 20.2401C48.3984 20.7197 48.6411 21.3054 48.6411 21.9916C48.6411 22.6762 48.4085 23.2543 47.9397 23.7208C47.4718 24.1864 46.8797 24.4201 46.1612 24.4201C45.4766 24.4201 44.9007 24.1864 44.432 23.7208C43.9656 23.2543 43.7327 22.6762 43.7327 21.9916C43.7327 21.3364 43.9656 20.7605 44.432 20.2608C44.9007 19.7637 45.4766 19.513 46.1612 19.513ZM43.2664 37.0399C43.9194 37.0399 44.4882 37.2813 44.9701 37.767C45.4535 38.2479 45.6948 38.8323 45.6948 39.5185C45.6948 40.2029 45.4612 40.7804 44.9948 41.2475C44.5283 41.7141 43.9502 41.9468 43.2664 41.9468C42.6112 41.9468 42.0329 41.7141 41.5356 41.2475C41.0361 40.7804 40.7878 40.2029 40.7878 39.5185C40.7878 38.8323 41.0284 38.2479 41.5103 37.767C41.9944 37.2813 42.5802 37.0399 43.2664 37.0399ZM43.2664 25.3567C43.9194 25.3567 44.4882 25.5957 44.9701 26.0814C45.4535 26.5631 45.6948 27.1491 45.6948 27.8337C45.6948 28.5173 45.4612 29.0956 44.9948 29.5619C44.5283 30.0285 43.9502 30.262 43.2664 30.262C42.6112 30.262 42.0329 30.0285 41.5356 29.5619C41.0361 29.0956 40.7878 28.5173 40.7878 27.8337C40.7878 27.1491 41.0284 26.5631 41.5103 26.0814C41.9944 25.5957 42.5802 25.3567 43.2664 25.3567ZM40.3191 31.1986C41.0053 31.1986 41.5896 31.4392 42.073 31.9233C42.5547 32.4052 42.8 32.991 42.8 33.6748C42.8 34.361 42.5664 34.9391 42.0961 35.4056C41.6297 35.872 41.0361 36.1056 40.3191 36.1056C39.6354 36.1056 39.0588 35.872 38.5908 35.4056C38.1221 34.9391 37.8892 34.361 37.8892 33.6748C37.8892 33.022 38.1221 32.4453 38.5908 31.9464C39.0588 31.4493 39.6354 31.1986 40.3191 31.1986ZM37.4229 48.7255C38.0781 48.7255 38.6463 48.966 39.1265 49.4501C39.6121 49.932 39.8527 50.5179 39.8527 51.204C39.8527 51.8878 39.6121 52.4737 39.1265 52.9555C38.6463 53.4396 38.0781 53.6802 37.4229 53.6802C36.7383 53.6802 36.1523 53.4396 35.669 52.9555C35.1871 52.4737 34.9459 51.8878 34.9459 51.204C34.9459 50.5179 35.1871 49.932 35.669 49.4501C36.1523 48.966 36.7383 48.7255 37.4229 48.7255ZM37.4229 42.8834C38.0781 42.8834 38.6463 43.124 39.1265 43.6081C39.6121 44.09 39.8527 44.6758 39.8527 45.3604C39.8527 46.0442 39.6198 46.6224 39.1535 47.0888C38.6871 47.5575 38.1089 47.7904 37.4229 47.7904C36.7691 47.7904 36.1908 47.5575 35.6937 47.0888C35.195 46.6224 34.9459 46.0442 34.9459 45.3604C34.9459 44.6758 35.1871 44.09 35.669 43.6081C36.1523 43.124 36.7383 42.8834 37.4229 42.8834ZM37.3303 37.0399C38.0142 37.0399 38.5999 37.2813 39.0819 37.767C39.5636 38.2479 39.8065 38.8323 39.8065 39.5185C39.8065 40.2029 39.5737 40.7804 39.1073 41.2475C38.6386 41.7141 38.0473 41.9468 37.3303 41.9468C36.6751 41.9468 36.1046 41.7062 35.6226 41.2244C35.1409 40.7403 34.8981 40.1721 34.8981 39.5185C34.8981 38.8323 35.1409 38.2479 35.6226 37.767C36.1046 37.2813 36.6751 37.0399 37.3303 37.0399Z" fill="white"/>
<path d="M94.8383 14.7816H88.0659V20.1988H92.7708C93.3852 20.1988 93.7075 20.6676 93.7075 21.1355C93.7075 21.6018 93.3852 22.0706 92.7708 22.0706H88.0659V29.1376C88.0659 29.7544 87.5995 30.0488 87.1316 30.0488C86.6651 30.0488 86.1964 29.7544 86.1964 29.1376V13.8464C86.1964 13.353 86.6382 12.9121 87.1316 12.9121H94.8383C95.5036 12.9121 95.775 13.3785 95.775 13.8464C95.775 14.3129 95.5036 14.7816 94.8383 14.7816Z" fill="white"/>
<path d="M99.1748 30.0488C98.7069 30.0488 98.2405 29.7544 98.2405 29.1376V13.6984C98.2405 13.0832 98.7069 12.7633 99.1748 12.7633C99.6435 12.7633 100.111 13.0832 100.111 13.6984V29.1376C100.111 29.7544 99.6435 30.0488 99.1748 30.0488Z" fill="white"/>
<path d="M113.31 30.0488C112.942 30.0488 112.4 30.0488 112.03 29.2363L106.663 17.0958V29.1376C106.663 29.7544 106.194 30.0488 105.726 30.0488C105.26 30.0488 104.791 29.7544 104.791 29.1376V13.723C104.791 13.0585 105.333 12.7633 105.899 12.7633C106.466 12.7633 106.859 12.8851 107.154 13.5498L112.499 25.7402V13.6984C112.499 13.0832 112.99 12.7633 113.458 12.7633C113.926 12.7633 114.37 13.0832 114.37 13.6984V28.9642C114.37 29.7775 113.879 30.0488 113.31 30.0488Z" fill="white"/>
<path d="M125.182 14.7816H122.472V29.1376C122.472 29.7544 122.006 30.0488 121.538 30.0488C121.071 30.0488 120.601 29.7544 120.601 29.1376V14.7816H117.893C117.278 14.7816 116.958 14.3129 116.958 13.8464C116.958 13.3785 117.278 12.9121 117.893 12.9121H125.182C125.798 12.9121 126.118 13.3785 126.118 13.8464C126.118 14.3129 125.798 14.7816 125.182 14.7816Z" fill="white"/>
<path d="M137.347 29.9258H129.64C129.147 29.9258 128.705 29.4833 128.705 28.9915V13.8467C128.705 13.3533 129.147 12.9124 129.64 12.9124H137.347C138.014 12.9124 138.283 13.3788 138.283 13.8467C138.283 14.3132 138.014 14.782 137.347 14.782H130.574V20.1991H135.279C135.894 20.1991 136.216 20.6679 136.216 21.1358C136.216 21.6021 135.894 22.0709 135.279 22.0709H130.574V28.0549H137.347C138.014 28.0549 138.283 28.5236 138.283 28.9915C138.283 29.4579 138.014 29.9258 137.347 29.9258Z" fill="white"/>
<path d="M145.796 30.0488H145.549C142.965 30.0488 140.872 28.0066 140.872 25.3948V17.4181C140.872 14.8549 142.965 12.7633 145.549 12.7633H145.796C148.159 12.7633 150.105 14.4864 150.426 16.7759V16.9247C150.426 17.516 149.982 17.8359 149.514 17.8359C149.096 17.8359 148.701 17.5892 148.578 17.0226C148.308 15.6682 147.199 14.6328 145.796 14.6328H145.549C143.998 14.6328 142.743 15.9149 142.743 17.4181V25.3948C142.743 26.9466 143.998 28.201 145.549 28.201H145.796C147.199 28.201 148.308 27.1678 148.578 25.8134C148.701 25.2468 149.121 25.0017 149.514 25.0017C149.982 25.0017 150.426 25.3216 150.426 25.9113V26.0848C150.105 28.3498 148.111 30.0488 145.796 30.0488Z" fill="white"/>
<path d="M162.273 30.0488C161.804 30.0488 161.336 29.8021 161.336 29.1376V22.0706H155.5V29.1376C155.5 29.7544 155.032 30.0488 154.565 30.0488C154.097 30.0488 153.631 29.7544 153.631 29.1376V13.6984C153.631 13.0832 154.097 12.7633 154.565 12.7633C155.032 12.7633 155.5 13.0832 155.5 13.6984V20.1988H161.336V13.6984C161.336 13.0832 161.804 12.7633 162.273 12.7633C162.741 12.7633 163.207 13.0832 163.207 13.6984V29.1376C163.207 29.8021 162.741 30.0488 162.273 30.0488Z" fill="white"/>
<path d="M97.3384 54.0986C96.8697 54.0986 96.4018 53.8034 96.4018 53.1889V41.1471L93.1523 48.6074C92.9536 49.0761 92.5356 49.2496 92.117 49.2496C91.6491 49.2496 91.2559 49.0275 91.0594 48.6074L87.7097 41.1471V53.1889C87.7097 53.8034 87.2409 54.0986 86.773 54.0986C86.3067 54.0986 85.838 53.8034 85.838 53.1889V37.8955C85.838 37.2326 86.0846 36.8124 86.9465 36.8124H87.0197C87.6842 36.8124 87.9564 37.1592 88.1275 37.5278L92.0692 46.3432L95.9832 37.5278C96.1551 37.1592 96.4264 36.8124 97.1164 36.8124H97.1896C98.0517 36.8124 98.2729 37.2326 98.2729 37.8955V53.1889C98.2729 53.8034 97.805 54.0986 97.3384 54.0986Z" fill="white"/>
<path d="M110.86 53.9766H103.151C102.659 53.9766 102.216 53.5333 102.216 53.0399V37.8952C102.216 37.4042 102.659 36.961 103.151 36.961H110.86C111.525 36.961 111.795 37.4289 111.795 37.8952C111.795 38.3655 111.525 38.8319 110.86 38.8319H104.088V44.2499H108.791C109.407 44.2499 109.727 44.7178 109.727 45.1866C109.727 45.653 109.407 46.1209 108.791 46.1209H104.088V52.1055H110.86C111.525 52.1055 111.795 52.5735 111.795 53.0399C111.795 53.5086 111.525 53.9766 110.86 53.9766Z" fill="white"/>
<path d="M125.76 54.0986C125.292 54.0986 124.823 53.8034 124.823 53.1889V41.1471L121.574 48.6074C121.376 49.0761 120.957 49.2496 120.539 49.2496C120.071 49.2496 119.677 49.0275 119.481 48.6074L116.131 41.1471V53.1889C116.131 53.8034 115.663 54.0986 115.197 54.0986C114.728 54.0986 114.26 53.8034 114.26 53.1889V37.8955C114.26 37.2326 114.507 36.8124 115.368 36.8124H115.441C116.107 36.8124 116.378 37.1592 116.55 37.5278L120.491 46.3432L124.405 37.5278C124.577 37.1592 124.849 36.8124 125.539 36.8124H125.612C126.473 36.8124 126.695 37.2326 126.695 37.8955V53.1889C126.695 53.8034 126.229 54.0986 125.76 54.0986Z" fill="white"/>
<path d="M137.681 49.0758C137.681 47.4762 136.375 46.1463 134.875 46.1463H132.016V52.1055H134.875C136.424 52.1055 137.681 50.8489 137.681 49.2971V49.0758ZM137.484 41.4437C137.484 39.8672 136.424 38.8319 134.875 38.8319H132.016V44.2745H134.875C136.351 44.2745 137.484 43.1167 137.484 41.467V41.4437ZM134.875 53.9766H131.082C130.588 53.9766 130.146 53.5333 130.146 53.0399V37.8952C130.146 37.4042 130.588 36.961 131.082 36.961H134.875C137.509 36.961 139.355 38.882 139.355 41.4437V41.467C139.355 43.3148 138.494 44.6199 137.434 45.2097C138.469 45.801 139.552 47.0807 139.552 49.0758V49.2971C139.552 51.8835 137.458 53.9766 134.875 53.9766Z" fill="white"/>
<path d="M151.399 53.9766H143.691C143.198 53.9766 142.757 53.5333 142.757 53.0399V37.8952C142.757 37.4042 143.198 36.961 143.691 36.961H151.399C152.064 36.961 152.336 37.4289 152.336 37.8952C152.336 38.3655 152.064 38.8319 151.399 38.8319H144.627V44.2499H149.331C149.946 44.2499 150.267 44.7178 150.267 45.1866C150.267 45.653 149.946 46.1209 149.331 46.1209H144.627V52.1055H151.399C152.064 52.1055 152.336 52.5735 152.336 53.0399C152.336 53.5086 152.064 53.9766 151.399 53.9766Z" fill="white"/>
<path d="M162.679 41.6405C162.679 40.0887 161.423 38.8321 159.872 38.8321H156.67V44.6679H159.969C161.521 44.6679 162.679 43.4137 162.679 41.8619V41.6405ZM161.178 46.3933L164.231 52.7703C164.304 52.8921 164.329 53.0402 164.329 53.1889C164.329 53.7055 163.934 54.0986 163.342 54.0986C163.048 54.0986 162.728 53.9768 162.531 53.5821L159.182 46.5398H156.67V53.1889C156.67 53.8034 156.202 54.0986 155.736 54.0986C155.267 54.0986 154.799 53.8034 154.799 53.1889V37.8955C154.799 37.4045 155.242 36.9612 155.736 36.9612H159.872C162.458 36.9612 164.549 39.0534 164.549 41.6405V41.8619C164.549 44.0281 163.171 45.8012 161.178 46.3933Z" fill="white"/>
</svg>
