<svg viewBox="0 0 91 96" fill="none" xmlns="http://www.w3.org/2000/svg"><path d="M87.621 21.07c-22.7 0-32.7-9.19-41.745-19.426-.016-.02-.038-.027-.056-.043-.018-.016-.024-.038-.041-.055-.04-.034-.089-.047-.132-.075-.062-.041-.122-.083-.19-.11-.068-.029-.136-.04-.209-.054-.067-.013-.131-.026-.2-.026a.984.984 0 00-.218.03c-.066.012-.13.024-.191.05-.071.027-.133.07-.198.113-.042.028-.09.04-.129.074-.018.016-.025.038-.041.054-.018.017-.04.024-.056.042C35.17 11.88 25.17 21.07 2.47 21.07c-.612 0-1.108.496-1.108 1.107 0 39.922 22.342 63.609 43.252 72.466.015.007.03.004.046.01.122.044.248.077.38.078h.007c.133-.001.26-.032.38-.078.015-.006.032-.003.046-.01 20.91-8.857 43.252-32.544 43.252-72.466a1.104 1.104 0 00-1.105-1.107zM45.046 92.41c-19.94-8.64-41.052-31.247-41.448-69.157 22.1-.31 32.739-9.511 41.448-19.22 8.708 9.709 19.346 18.91 41.449 19.22-.396 37.91-21.509 60.517-41.449 69.157z" fill="#212A3F"/><path d="M59.095 34.901L42.336 58.715 30.897 46.594a1.108 1.108 0 00-1.611 1.52l12.37 13.107c.024.028.06.037.088.06.03.029.047.063.08.087.044.03.094.045.141.07.037.02.07.039.108.054.126.045.256.078.387.078.157 0 .31-.043.456-.11.045-.02.082-.05.123-.078.06-.037.127-.063.182-.113.034-.031.049-.074.077-.11.02-.023.05-.032.067-.059l17.539-24.923a1.108 1.108 0 00-1.81-1.276z" fill="#FB5F61"/></svg>