<svg viewBox="0 0 96 96" fill="none" xmlns="http://www.w3.org/2000/svg"><path d="M64.7 43.414h-8.247v1.5H64.7v-1.5z" fill="#FB5F61"/><path d="M80.173 10.793H40.308a3.11 3.11 0 00-3.105 3.105v26.656h-2.41v3.609c0 1.99 1.923 3.609 4.286 3.609h42.998c2.363 0 4.285-1.619 4.285-3.609v-3.609H83.28V13.898a3.111 3.111 0 00-3.107-3.105zm4.688 31.262v2.109c0 1.144-1.275 2.109-2.785 2.109H39.078c-1.51 0-2.785-.966-2.785-2.109v-2.109H84.86zm-46.16-1.5V13.898c0-.886.72-1.605 1.606-1.605h39.865c.886 0 1.606.72 1.606 1.605v26.656H38.702v.001z" fill="#FB5F61"/><path d="M60.24 17.203c-5.084 0-9.22 4.137-9.22 9.221 0 5.084 4.136 9.221 9.22 9.221 5.084 0 9.221-4.137 9.221-9.221 0-5.084-4.136-9.221-9.221-9.221zm0 16.942c-4.258 0-7.72-3.464-7.72-7.721s3.462-7.721 7.72-7.721c4.258 0 7.721 3.464 7.721 7.721s-3.463 7.721-7.721 7.721z" fill="#FB5F61"/><path d="M60.623 25.786c-1.334-.925-1.773-1.593-1.425-2.166.267-.438.516-.514.68-.533.662-.067 1.525.638 1.78.895l1.068-1.053c-.106-.108-.829-.793-1.754-1.141v-1.563h-1.5v1.414c-.48.109-1.077.414-1.556 1.202-.821 1.352-.198 2.757 1.886 4.202 1.388.955 1.83 1.608 1.479 2.185-.266.437-.515.513-.678.532-.653.083-1.525-.638-1.778-.892l-1.07 1.051c.105.107.802.789 1.717 1.139v1.565h1.5v-1.405c.485-.103 1.101-.404 1.591-1.211 1.239-2.033-1.131-3.664-1.94-4.221z" fill="#FB5F61"/><path d="M85.32 57.395c-.145.074-13.182 6.611-21.545 8.354.215-.583.316-1.313.316-2.251 0-2.404-.42-5.602-4.049-5.602-3.896 0-16.955-.297-21.441-4.116-4.577-3.894-16.095-3.078-19.336-2.76v-3.667H.752v35.525h18.514v-4.439c3.981 1.525 18.429 6.768 28.941 6.768 12.556 0 37.804-11.705 45.79-21.228 1.221-1.457 2.041-4.81.042-7.699-2.098-3.031-8.109.717-8.719 1.115zM17.766 81.379H2.252V48.854h15.514v32.525zm75.082-18.362c-7.622 9.088-32.654 20.69-44.641 20.69-10.67 0-26.075-5.766-28.941-6.876V52.529c2.855-.28 14.211-1.139 18.363 2.394 4.743 4.038 17.255 4.474 22.414 4.474 1.29 0 2.549.316 2.549 4.102 0 2.828-.284 2.938-7.594 2.938H49.08v1.5h5.918c2.845 0 4.87-.005 6.284-.305v.006c8.188-.613 24.043-8.564 24.782-8.941 1.766-1.137 5.738-3.013 6.74-1.562 1.535 2.216.932 4.819.044 5.882z" fill="#212A3F"/></svg>