<svg viewBox="0 0 96 96" fill="none" xmlns="http://www.w3.org/2000/svg"><path d="M51.472 30.765a4.205 4.205 0 00.774-2.428 4.238 4.238 0 00-4.234-4.234 4.24 4.24 0 00-4.236 4.234c0 .904.291 1.74.775 2.429-1.683.403-4.188 1.285-4.188 2.962v6.092H55.66v-6.092c0-1.678-2.506-2.559-4.188-2.963zm-3.46-5.162a2.737 2.737 0 012.734 2.734 2.738 2.738 0 01-2.734 2.736 2.74 2.74 0 01-2.736-2.736 2.737 2.737 0 012.736-2.734zm.735 6.896l-.735 1.437-.734-1.437c.24.042.482.074.734.074s.495-.032.735-.074zm5.413 5.82H41.863v-4.592c0-.475 1.68-1.224 3.533-1.613l2.615 5.116 2.617-5.116c1.854.39 3.531 1.139 3.531 1.613v4.592h.001z" fill="#FB5F61"/><path d="M48.011 20.701c7.118 0 12.91 5.792 12.91 12.909 0 7.117-5.79 12.907-12.909 12.907-7.118 0-12.909-5.79-12.909-12.907s5.79-12.909 12.908-12.909zM36.303 33.61c0 6.455 5.253 11.707 11.71 11.707 6.455 0 11.707-5.252 11.707-11.707 0-6.456-5.252-11.709-11.708-11.709S36.303 27.154 36.303 33.61z" fill="#FB5F61" stroke="#FB5F61" stroke-width=".3"/><path d="M87.682 68.278c-3.914 0-7.141 2.99-7.52 6.807h-24.54a7.564 7.564 0 00-6.854-6.773V55.23l1.483-.001 1.506-6.069a16.232 16.232 0 006.573-3.285l5.445 2.762 2.878-3.732-3.836-5.005a16.192 16.192 0 001.173-4.102c.104-.718.155-1.458.157-2.248l5.609-2.56-1.116-4.846-6.284-.12a16.392 16.392 0 00-3.671-4.684l1.507-6.02-.454-.291a21.67 21.67 0 00-3.535-1.825l-.51-.204-3.924 4.735a15.05 15.05 0 00-1.427-.285 16.121 16.121 0 00-4.71.01l-3.837-5.018-4.48 1.885 1.256 6.003a16.193 16.193 0 00-4.626 5.134l-6.294-.131-1.241 4.393 5.459 2.758a16.108 16.108 0 001.364 7.573L29.28 44.81l2.632 3.498 5.58-2.559a16.085 16.085 0 007.077 3.486l1.24 5.996 1.458-.001v13.097a7.57 7.57 0 00-6.683 6.758H15.837c-.378-3.816-3.604-6.807-7.52-6.807-4.166 0-7.556 3.39-7.556 7.557s3.39 7.557 7.557 7.557c3.914 0 7.14-2.99 7.519-6.807h24.748c.378 3.816 3.604 6.807 7.519 6.807s7.14-2.99 7.519-6.807h24.54c.379 3.816 3.605 6.807 7.52 6.807 4.167 0 7.557-3.39 7.557-7.557s-3.391-7.557-7.558-7.557zM47.03 53.731l-1.195-5.781-.497-.091a14.59 14.59 0 01-7.21-3.55l-.366-.334-5.377 2.465-1.192-1.584 3.809-4.578-.211-.436a14.6 14.6 0 01-1.387-7.733l.047-.509-5.26-2.656.59-2.088 6.05.127.217-.408a14.694 14.694 0 014.779-5.289l.42-.281-1.208-5.775 2.27-.955 3.684 4.816.449-.08a14.64 14.64 0 014.683-.076c.534.079 1.098.2 1.722.37l.467.127 3.832-4.623c.804.352 1.584.754 2.329 1.203l-1.47 5.871.36.301a14.889 14.889 0 013.849 4.908l.2.416 6.028.114.579 2.514-5.39 2.458.012.494c.02.896-.024 1.714-.137 2.496a14.7 14.7 0 01-1.236 4.1l-.192.412 3.684 4.807-1.415 1.834-5.238-2.656-.382.338a14.727 14.727 0 01-6.738 3.378l-.461.097-1.45 5.837H47.03zM8.318 81.892a6.064 6.064 0 01-6.057-6.057 6.064 6.064 0 016.057-6.057 6.064 6.064 0 016.057 6.057 6.064 6.064 0 01-6.057 6.057zm39.786 0a6.064 6.064 0 01-6.057-6.057 6.064 6.064 0 016.057-6.057 6.064 6.064 0 016.057 6.057 6.064 6.064 0 01-6.057 6.057zm39.578 0a6.064 6.064 0 01-6.057-6.057 6.064 6.064 0 016.057-6.057 6.064 6.064 0 016.057 6.057 6.064 6.064 0 01-6.057 6.057z" fill="#212A3F"/></svg>