<svg viewBox="0 0 96 96" fill="none" xmlns="http://www.w3.org/2000/svg"><path d="M50.355 86.036h17.327L59.418 94.3l1.131 1.13 10.196-10.194-10.196-10.195-1.131 1.132 8.264 8.263H50.355v1.6zM36.582 94.3l-8.262-8.264h17.327v-1.6H28.32l8.262-8.263-1.131-1.132-10.193 10.195L35.45 95.43l1.131-1.13zM59.418 19.827l1.131 1.13 10.196-10.194L60.549.568 59.418 1.7l8.264 8.263H50.355v1.6h17.327l-8.264 8.264zM36.582 19.827l-8.262-8.264h17.327v-1.6H28.32L36.582 1.7 35.451.568 25.258 10.763 35.45 20.958l1.131-1.13zM84.436 28.319v17.327h1.6V28.319l8.265 8.265 1.132-1.132-10.197-10.195-10.193 10.195 1.13 1.132 8.263-8.265zM95.433 60.55L94.3 59.418l-8.265 8.263V50.355h-1.6v17.327l-8.262-8.263-1.13 1.13 10.192 10.196 10.197-10.196zM9.964 28.319v17.327h1.6V28.319l8.264 8.265 1.13-1.132-10.194-10.195L.57 35.452 1.7 36.584l8.263-8.265zM20.959 60.55l-1.13-1.131-8.265 8.263V50.355h-1.6v17.327L1.7 59.42.57 60.549l10.194 10.196 10.195-10.196z" fill="#212A3F"/><path d="M64.213 33.067H31.229a2.572 2.572 0 00-2.57 2.569V57.69h-1.992v2.986c0 1.647 1.59 2.987 3.545 2.987h35.576c1.955 0 3.545-1.34 3.545-2.986V57.69h-2.55V35.636a2.574 2.574 0 00-2.57-2.57zm3.878 25.865v1.745c0 .947-1.054 1.745-2.304 1.745H30.211c-1.25 0-2.304-.799-2.304-1.745v-1.745h40.185zm-38.19-1.24V35.635c0-.733.595-1.328 1.327-1.328h32.984a1.33 1.33 0 011.329 1.328V57.69H29.9v.001z" fill="#FB5F61"/><path d="M47.72 38.37c-4.206 0-7.629 3.423-7.629 7.63 0 4.206 3.422 7.629 7.629 7.629 4.207 0 7.63-3.423 7.63-7.63 0-4.206-3.423-7.629-7.63-7.629zm0 14.018A6.395 6.395 0 0141.333 46a6.395 6.395 0 016.387-6.389A6.396 6.396 0 0154.109 46a6.396 6.396 0 01-6.39 6.388z" fill="#FB5F61"/><path d="M47.909 45.315c-.891-.618-1.185-1.064-.952-1.447.178-.292.345-.343.454-.356.442-.045 1.02.426 1.19.598l.713-.703c-.07-.073-.554-.53-1.172-.763V41.6H47.14v.945c-.32.072-.72.276-1.04.803-.548.903-.132 1.842 1.26 2.807.928.638 1.223 1.075.989 1.46-.178.292-.344.343-.453.355-.437.056-1.02-.426-1.188-.596l-.715.703c.07.071.536.527 1.147.76v1.046h1.002v-.938c.324-.07.736-.27 1.063-.81.828-1.358-.756-2.447-1.296-2.82z" fill="#FB5F61"/></svg>