<svg viewBox="0 0 96 87" fill="none" xmlns="http://www.w3.org/2000/svg"><path d="M95.511 20.386v66.19H27.8L.487 66.32V.132h67.711l27.313 20.254zM1.987 65.194h25.311V21.141L1.987 2.372v62.822zm26.811 0H67.2v-43.68H28.798v43.68zm65.213-43.68H68.7v44.053l25.311 18.77V21.513zM68.7 2.374v17.64h23.79L68.7 2.374zm-.997 64.32H28.798v18.382H92.49L67.703 66.694zM27.298 84.335v-17.64H3.509l23.789 17.64zm.998-64.32H67.2V1.631H3.508l24.788 18.382z" fill="#212A3F"/><g clip-path="url(#clip0)"><path d="M63.926 35.675l.061.045V58.008h-22.77l-.04-.03-9.104-6.75-.06-.046V28.895h22.77l.04.03 9.103 6.75zM32.813 50.58h8.138V36.122l-8.138-6.033V50.58zm8.938 0h12.5v-14.26h-12.5v14.26zm21.437-14.26H55.05v14.46l8.137 6.033V36.321zm-.811-.8L55.05 30.09v5.432h7.326zm0 21.688l-7.858-5.828H41.75v5.828h20.627zM33.624 51.38l7.325 5.433V51.38h-7.325zm7.858-15.86H54.25v-5.827H33.624l7.858 5.827z" fill="#FB5F61" stroke="#FB5F61" stroke-width=".3"/></g><defs><clipPath id="clip0"><path fill="#fff" transform="matrix(-1 0 0 1 64 29)" d="M0 0h32v29H0z"/></clipPath></defs></svg>