<svg viewBox="0 0 120 29" fill="none" xmlns="http://www.w3.org/2000/svg"><path d="M112.938 12.308c0 1.703 1.513 2.391 2.862 3.024 1.047.47 2.143.96 2.143 1.78 0 .25-.048.458-.165.6-.252.338-.756.47-1.571.426-.805-.033-1.707-.317-2.716-.852l-.398-.218v2.117l.272.077.155.033c.504.142 1.474.393 2.435.393 2.532 0 4.045-1.136 4.045-3.013 0-1.769-1.562-2.456-2.939-3.068-1.019-.458-2.067-.917-2.067-1.68 0-.219 0-.852 1.31-.852.97 0 1.911.447 2.445.677l.485.229V9.84l-.485-.098c-.495-.11-1.31-.295-2.164-.295-2.192 0-3.647 1.157-3.647 2.86zM108.388 9.798h-1.61l-.01.043c-.485 1.474-3.521 8.919-3.783 9.53l-.049.131h2.057l.009-.054c.175-.666.408-1.409.679-2.227.068 0 1.698-.033 1.698-.033l1.416.022h.301c.369 1.048.65 1.834.767 2.227l.019.054h2.377l-3.822-9.704h-.049v.01zm-.999 2.849c.194.447.689 1.746 1.242 3.285-.088 0-.194.011-.194.011l-1.058.011s-1.096-.022-1.261-.022c.456-1.233.893-2.335 1.271-3.285zM94.438 9.885c.068 1.015.107 3.58.107 4.52 0 .862 0 3.754-.126 4.999l-.02.098h4.016c1.97 0 4.056-.688 4.056-2.663 0-1.234-.796-2.14-2.29-2.642 1.106-.328 1.843-1.18 1.843-2.15 0-1.605-1.639-2.217-3.172-2.26H94.42l.02.098zm3.095.993c1.688.011 2.299.393 2.299 1.42 0 .283-.078.534-.233.72-.3.437-.95.655-1.746.6h-.039l-.466 1.365h.466c.931-.033 1.717.295 2.134.862.204.262.301.568.301.884 0 1.07-.844 1.627-2.503 1.627-.271 0-.718 0-.999-.011-.068-1.43-.068-3.362-.068-3.952 0-.676.02-2.172.068-3.46.175-.033.495-.055.786-.055zM89.888 9.798l.01.087c.058 1.015.107 3.58.107 4.52 0 .862-.01 3.743-.117 4.999l-.01.098h2.387l-.01-.098c-.087-1.256-.116-4.137-.116-5 0-.938.058-3.504.117-4.519v-.087h-2.368zM80.382 9.885c.067 1.015.106 3.58.106 4.52 0 .862 0 3.754-.135 4.999v.098h2.415l-.01-.098c-.126-1.256-.135-4.137-.135-5 0-.677.019-2.172.077-3.395.184-.01.466-.043.65-.043 1.116-.022 1.911.24 2.28.764.174.23.252.535.252.873 0 1.124-.931 1.692-1.795 1.736-.29.01-.504-.033-.504-.033l-.165-.033.097.175c.854 1.408 2.144 3.842 2.668 5l.02.043h2.58l-.068-.13c-.107-.165-1.785-2.948-2.503-4.138 0 0-.03-.033-.058-.076 1.319-.448 1.96-1.278 1.96-2.555 0-2.238-2.154-2.762-3.978-2.805h-3.764l.01.098zM73.97 9.798h-.03l-.02.043c-.445 1.376-3.327 8.45-3.783 9.53l-.038.12h2.046l.02-.054c.184-.666.417-1.42.689-2.216.077 0 1.707-.033 1.707-.033l1.416.01s.224.012.301.012c.359 1.048.64 1.834.766 2.227l.02.043h2.367l-3.832-9.704h-1.63v.022zm.581 2.86c.194.458.69 1.757 1.242 3.296h-.194l-1.048.011s-1.086-.01-1.27-.022c.456-1.222.902-2.336 1.27-3.285zM63.017 9.885c.078 1.015.116 3.58.116 4.52 0 .862-.01 3.754-.135 4.999v.098h2.405l-.01-.098c-.077-.895-.116-2.61-.116-3.908.117 0 .437.022.437.022l.35.01c3.152 0 4.704-.938 4.704-2.914 0-2.249-2.163-2.773-3.968-2.805h-3.773v.076h-.01zm2.95 1.08c1.124-.021 1.91.23 2.288.765.175.23.262.535.262.873 0 1.408-1.406 1.714-2.56 1.714l-.476-.033s-.126-.01-.194-.022c-.01-.327-.01-.753-.01-1.233 0-.622 0-1.332.02-2.009.145-.021.407-.054.67-.054zM50.697 9.885c.078 1.015.107 3.58.107 4.52 0 .862 0 3.754-.117 4.999v.098h2.396l-.01-.098c-.077-.895-.126-2.61-.135-3.908.116 0 .456.022.456.022l.34.01c3.162 0 4.694-.938 4.694-2.914 0-2.249-2.153-2.773-3.948-2.805h-3.783v.076zm2.959 1.08c1.125-.021 1.91.23 2.28.765.174.23.261.535.261.873 0 1.408-1.406 1.714-2.58 1.714l-.475-.033s-.117-.01-.195-.022c-.01-.327-.01-.753-.01-1.233 0-.611 0-1.332.03-2.009.175-.021.417-.054.689-.054zM48.369 9.798h-1.95l.077 2.445c.04 1.212.078 2.456.156 3.657-.127-.382-.243-.568-.835-1.55 0-.033-2.027-3.548-2.735-4.541l-.02-.022h-2.26v.087c.068 1.015.097 3.58.097 4.52 0 .862 0 3.754-.107 4.999l-.02.098h2.009v-.098c-.117-2.369-.117-4.76-.117-7.074.068.284.156.524.476 1.048.029.066 3.502 5.753 3.667 6.08l.02.044h1.62v-.098c-.127-1.245-.137-4.137-.137-5 0-.938.059-3.504.107-4.519l.03-.087h-.078v.01zM31.082 9.885c.048 1.015.106 3.58.106 4.52 0 .862 0 3.754-.136 4.999l-.01.098h4.007c1.97 0 4.055-.688 4.055-2.663 0-1.234-.795-2.14-2.28-2.642 1.107-.328 1.834-1.18 1.834-2.15 0-1.605-1.64-2.217-3.182-2.26h-4.424l.03.098zm3.094.993c1.669.011 2.29.393 2.29 1.42 0 .283-.078.534-.224.72-.32.437-.94.655-1.736.6h-.039l-.465 1.365h.465c.922-.033 1.727.295 2.135.862.194.262.28.568.28.884 0 1.07-.834 1.627-2.492 1.627-.282 0-.728 0-1.01-.011-.048-1.43-.067-3.362-.067-3.952 0-.676.039-2.172.068-3.46a5.25 5.25 0 01.795-.055z" fill="#B3B2B2"/><path d="M24.834.672H0v27.945h24.834V.672z" fill="url(#paint0_linear)"/><path d="M24.068 14.808c0 5.83.242 11.8.242 11.8-.01.677-.388 1.103-.873 1.103H1.94c-.485 0-.815-.48-.873-1.103 0 0-.62-5.097-.62-12.892 0-7.783.62-11.45.62-11.45.078-.645.388-1.103.873-1.103h21.497c.485 0 .883.502.873 1.103 0 0-.242 6.713-.242 12.542z" fill="url(#paint1_linear)"/><path d="M8.061 23.334l.078-.197c-.815-.35-1.63-.633-2.29-1.332.204-.655.447-1.157.835-1.8l.078-.197c-.699.12-1.34.404-1.94.546-.476-.95-.66-2.238-.903-3.472l-.077.197c-.136 1.408-.194 2.412-.01 3.537-.505.163-.95.185-1.349.382l-.077.185c.65.448 1.174.786 1.91 1.18.389.938.796 1.582 1.456 2.313l.078-.196c-.117-.535-.272-.983-.214-1.561.805.24 1.504.37 2.425.415zM12.757 21.554a21.7 21.7 0 01-1.184 1.649c-.65.207-1.436.109-2.037.13l-.078.197c.456.262.903.426 1.378.535-.388.393-.902.699-1.261.971l-.078.197c.776-.207 1.795-.579 2.561-1.08.398.021.767-.012 1.038-.077l.078-.197c-.049-.196-.204-.316-.252-.589.708-.622 1.232-1.19 1.823-1.867l.078-.196c-.592.458-1.3 1.08-1.989 1.452-.029-.371-.058-.699-.077-1.125zM10.331 9.296s-.33.655-.591 1.517h-.068c1.91.295 3.715 1.157 4.171 1.463l-.077.196c-1.98-.393-3.027-.35-3.764-.273-.738.077-.893.186-.893.186-.427 1.048-.679 2.762-.776 3.384l-.078.196c-.358-.982-.882-2.947-.882-2.947-1 .6-3.308 3.035-3.308 3.035 1.27-2.85 2.551-4.149 2.551-4.149-.446-.502-1.6-.753-2.454-.796l.077-.197c.534-.175 1.63-.251 2.358-.284.873-.033 1.397.022 1.397.022.776-.688 1.93-1.288 2.337-1.353zM19.285 8.226c-1.532 1.015-2.008 1.091-3.667 2.216l.078-.208c.873-1.07 1.252-1.528 1.833-2.478-1.542.099-3.773.306-5.364.699l.087-.197c1.446-.796 4.143-1.582 5.51-1.779-.34-.535-3.055-2.183-3.735-2.51l.078-.197c2.066.262 4.802 1.343 5.995 2.172.505-.174 1.019-.196 1.95-.284 0 0-.136.634-1.154 1.42.252.764-.35 4.977-.854 6.09-.039-1.757-.175-3.984-.757-4.944z" fill="#929292"/><path d="M12.844 21.369a19.392 19.392 0 01-1.193 1.648 6.595 6.595 0 01-2.115.328c.456.262.902.425 1.378.534-.476.492-.883.83-1.34 1.168.777-.207 1.795-.578 2.552-1.08.398.022.767-.011 1.038-.077-.068-.262-.116-.447-.175-.786.718-.633 1.232-1.19 1.834-1.866-.63.491-1.184.862-1.911 1.255-.039-.382-.049-.699-.068-1.124zM8.139 23.126c-.883-.36-1.513-.797-2.212-1.528a8.632 8.632 0 01.835-1.812c-.718.12-1.242.218-1.863.35-.505-.994-.728-1.944-.99-3.276-.135 1.409-.194 2.413-.01 3.537-.562.175-.97.328-1.435.568.65.447 1.184.797 1.911 1.179.388.95.796 1.583 1.455 2.303a4.91 4.91 0 01-.136-1.768 7.532 7.532 0 002.445.447zM10.438 9.132c-.272.404-.592 1.146-.679 1.495 2.27.35 4.094 1.66 4.094 1.66-1.98-.393-3.027-.35-3.774-.273-.737.076-.883.174-.883.174-.533 1.321-.853 3.592-.853 3.592-.36-.983-.883-2.937-.883-2.937-1 .6-3.308 3.035-3.308 3.035 1.27-2.85 2.551-4.148 2.551-4.148-.446-.502-1.6-.753-2.444-.797.436-.197 1.571-.437 2.435-.48.873-.033 1.397.022 1.397.022.766-.7 1.94-1.278 2.347-1.343zM19.363 8.03c-1.533 1.014-1.998 1.102-3.667 2.226.97-1.179 1.31-1.692 1.911-2.685-1.533.087-3.773.295-5.364.698 1.387-.83 4.142-1.757 5.587-1.986-.34-.524-3.065-2.184-3.744-2.5 2.153.185 4.792 1.092 6.072 1.976.505-.175 1.029-.186 1.96-.273-.242.458-.252.731-1.164 1.408.252.764-.35 4.978-.854 6.091-.01-1.768-.155-3.995-.737-4.956z" fill="#fff"/><defs><linearGradient id="paint0_linear" x1="12.417" y1="-.016" x2="12.417" y2="29.483" gradientUnits="userSpaceOnUse"><stop stop-color="#929292"/><stop offset=".6" stop-color="#C4C4C4"/><stop offset="1" stop-color="#929292"/></linearGradient><linearGradient id="paint1_linear" x1="12.378" y1="27.711" x2="12.378" y2="1.17" gradientUnits="userSpaceOnUse"><stop stop-color="#C4C4C4"/><stop offset=".25" stop-color="#A7A7A7"/><stop offset=".357" stop-color="#929292"/><stop offset=".59" stop-color="#C4C4C4"/><stop offset="1" stop-color="#E5E5E5"/></linearGradient></defs></svg>