<svg viewBox="0 0 116 51" fill="none" xmlns="http://www.w3.org/2000/svg"><path d="M44.46 30.848h-2.772v3.299h2.772v5.623c0 3.358 2.343 4.998 5.252 4.998.8.02 1.62-.078 2.402-.293v-3.339a4.425 4.425 0 01-1.523.215c-1.64 0-2.363-.624-2.363-2.303v-4.881h3.027v-3.3h-3.027v-5.486l-3.748 3.202-.02 2.265zm-34.049 8.434c0 1.132-1.054 1.874-2.616 1.874a5.277 5.277 0 01-4.236-2.304L.513 41.43c1.406 2.148 4.022 3.495 7.126 3.495 4.041 0 6.814-2.401 6.872-5.896 0-2.948-1.776-4.744-4.646-5.798l-1.562-.567c-2.09-.742-3.065-1.269-3.065-2.44 0-1.191 1.25-1.738 2.616-1.738a4.356 4.356 0 013.494 1.68l2.636-2.714a7.88 7.88 0 00-6.15-2.695c-3.787 0-6.599 2.167-6.599 5.857 0 2.675 1.68 4.471 4.823 5.584l1.64.566c1.932.664 2.713 1.425 2.713 2.5v.019zm1.933-24.522a2.25 2.25 0 01-2.264 2.245H5.92v-4.451h3.983a2.258 2.258 0 012.44 2.07v.195-.059zm-1.327-7.79c0 1.21-.976 2.167-2.187 2.167H5.921V4.764h2.792a2.198 2.198 0 012.304 2.128v.078zm5.212 7.946a4.946 4.946 0 00-2.909-4.588 4.59 4.59 0 001.543-3.494c0-3.144-2.577-5.701-5.72-5.701H1.937v19.523h8.278c3.456.02 6.033-2.48 6.013-5.74zm1.387 13.628v2.284h-2.792v3.3h2.772v5.622c0 3.358 2.343 4.998 5.252 4.998.8.02 1.62-.078 2.401-.292v-3.34a4.563 4.563 0 01-1.542.255c-1.62 0-2.343-.664-2.343-2.343v-4.881h3.885v-3.3h-3.885v-5.486l-3.748 3.183zm6.267-25.81a2.062 2.062 0 00-2.07-2.09 2.063 2.063 0 00-2.089 2.07 2.062 2.062 0 002.07 2.09h.039a2.08 2.08 0 002.05-2.07zm6.462 0c0-1.152-.918-2.07-2.07-2.09-1.151 0-2.07.918-2.089 2.07 0 1.152.918 2.07 2.07 2.09h.02c1.151 0 2.069-.918 2.069-2.07zm-1.874 11.05c0 2.109-1.425 3.65-3.417 3.65a3.45 3.45 0 01-3.456-3.455v-.214a3.448 3.448 0 013.222-3.651h.215c2.01.02 3.436 1.561 3.436 3.67zm3.826 0a7.224 7.224 0 00-7.165-7.302 7.224 7.224 0 00-7.302 7.165 7.224 7.224 0 007.166 7.302h.058c3.963.02 7.204-3.163 7.224-7.126v-.059l.02.02zm1.094 27.645c-1.62 0-2.343-1.21-2.343-3.28v-7.32h-3.749v7.965c0 3.65 1.875 6.072 5.174 6.072a4.334 4.334 0 003.748-1.875v1.562h3.749V30.81h-3.748v6.735c0 2.675-1.152 3.905-2.831 3.905v-.02zm7.828-30.984a5.03 5.03 0 011.7.313V6.93a4.493 4.493 0 00-1.25-.175c-1.523 0-2.87.956-3.417 2.362V6.912h-3.749v13.744h3.749v-6.58c.02-2.244 1.19-3.65 2.967-3.63zm6.56.118c0-.567.625-.86 1.465-.86a4.15 4.15 0 012.752 1.133l2.109-2.284A6.193 6.193 0 0049.4 6.599c-2.89 0-4.998 1.68-4.998 4.178-.059 2.148 1.21 3.788 3.71 4.452l.956.273c1.484.41 2.03.664 2.03 1.25 0 .585-.742.995-1.698.995a3.643 3.643 0 01-3.124-1.503l-2.499 2.148a6.455 6.455 0 005.389 2.557c3.084 0 5.33-1.737 5.33-4.373 0-2.245-1.367-3.788-3.788-4.49l-1.289-.352c-1.347-.39-1.64-.625-1.64-1.152v-.02zm7.01 17.98v2.285h-2.207v3.3h2.206v5.622c0 3.358 2.343 4.998 5.252 4.998.8.02 1.62-.078 2.402-.292v-3.34a4.54 4.54 0 01-1.543.216c-1.62 0-2.343-.625-2.343-2.304v-4.881h3.886v-3.3h-3.886v-5.486l-3.768 3.183zm11.245-16.418H59.61c.351-1.68 1.933-2.402 3.319-2.402 1.483-.097 2.811.937 3.123 2.401h-.02zm3.71 2.577c.038-.43.058-.86.058-1.289 0-4.451-3.163-6.755-6.755-6.755a7.027 7.027 0 00-7.243 6.814v.332c0 4.373 3.182 7.184 7.282 7.184a7.55 7.55 0 006.384-3.084l-2.811-2.09a4.179 4.179 0 01-3.554 1.738c-1.815 0-3.436-1.015-3.65-2.87l10.288.02zm4.744 22.823a3.483 3.483 0 01-3.515 3.436 3.483 3.483 0 01-3.436-3.514c.02-1.914 1.582-3.437 3.495-3.437 1.874-.039 3.436 1.465 3.475 3.358-.02.04-.02.098-.02.157zm3.455 6.032v-12.71h-3.748v1.543a4.767 4.767 0 00-3.963-1.874c-3.573 0-6.482 3.084-6.482 6.95 0 3.885 2.909 6.93 6.481 6.93a4.794 4.794 0 003.964-1.815v.937c0 2.206-1.425 3.749-3.651 3.749-1.601 0-3.124-.605-4.295-1.699l-2.09 2.87c1.563 1.484 4.042 2.206 6.404 2.206 4.217-.02 7.38-2.128 7.38-7.087zm12.398-5.837c0 2.147-1.406 3.748-3.475 3.748-2.07 0-3.456-1.6-3.456-3.748s1.406-3.749 3.456-3.749c2.069.02 3.475 1.601 3.475 3.749zm-.293 6.872h3.748V30.848h-3.748v1.542a4.901 4.901 0 00-3.963-1.874c-3.651 0-6.463 3.28-6.463 7.184 0 3.905 2.812 7.185 6.463 7.185a4.901 4.901 0 003.963-1.874v1.581zm12.28-10.23c.586 0 1.152.117 1.699.293v-3.827a3.853 3.853 0 00-1.25-.156c-1.523 0-2.87.956-3.416 2.362v-2.206h-3.749v13.745h3.749v-6.56c.02-2.245 1.19-3.651 2.967-3.651zm9.254 4.705v-4.92h3.885v-3.3h-3.885v-5.486l-3.748 3.202v2.285h-2.773v3.299h2.773v5.623c0 3.358 2.343 4.998 5.252 4.998.8.02 1.62-.078 2.401-.293v-3.339a4.564 4.564 0 01-1.542.254c-1.621 0-2.343-.663-2.343-2.343" fill="#B3B2B2"/></svg>