<svg viewBox="0 0 88 89" fill="none" xmlns="http://www.w3.org/2000/svg"><rect y=".816" width="88" height="88" rx="15" fill="#6A717E"/><g clip-path="url(#clip0)"><path d="M51.688 31.191l-5.5-4.687a3.75 3.75 0 00-4.5 0l-5.5 4.687c-.688.688-.813 1.688-.188 2.313.625.625 1.688.812 2.313.187l4-3.312v33.75c0 1 .687 1.687 1.687 1.687s1.688-.687 1.688-1.687V30.566l4 3.313c.187.187.687.312 1 .312.5 0 1-.187 1.312-.687.5-.625.5-1.625-.313-2.313z" fill="#fff"/></g><defs><clipPath id="clip0"><path fill="#fff" transform="translate(24 25.816)" d="M0 0h40v40H0z"/></clipPath></defs></svg>