<svg viewBox="0 0 84 51" fill="none" xmlns="http://www.w3.org/2000/svg"><path d="M32.73 41.784c-.732-.412-1.521-.4-1.671-.4h-.038c-.3 0-.688-.258-.688-.557-.019-.281.388-.557.67-.557h.056c.131 0 .826-.033 1.445-.389.789-.411 1.146-1.114 1.146-2.105 0-1.048-.413-1.755-1.277-2.204-.676-.318-1.37-.312-1.39-.312h-4.677v5.01h2.538c.3 0 .545.258.545.557 0 .28-.244.556-.545.556h-2.538v5.77H30.965c.075 0 .901-.024 1.708-.379.958-.43 1.427-1.138 1.427-2.205 0-1.329-.47-2.26-1.37-2.785z" fill="#B3B2B2"/><path d="M46.155.644L23.921 26.392a3.91 3.91 0 01-5.504.424 3.9 3.9 0 01-.41-5.502L35.855.644H.305v27.258l8.542-9.992a3.92 3.92 0 015.512-.394 3.882 3.882 0 01.388 5.487L.306 39.758v10.886h49.97v-50h-4.12zM34.532 46.626a3.432 3.432 0 01-1.427 1.129c-.976.43-1.971.46-2.14.46h-5.218c-.282 0-.558-.267-.558-.566V34.7c0-.299.276-.554.557-.554h5.238c.037 0 .938.025 1.82.436a3.364 3.364 0 011.334 1.093c.394.561.582 1.29.582 2.095 0 1.665-.845 2.544-1.577 2.994a.935.935 0 00.131.055c.864.505 1.897 1.575 1.897 3.727 0 .823-.207 1.518-.639 2.08zm2.514 1.566a.764.764 0 01-.337-.093.555.555 0 01-.094-.766l4.59-6.142-4.59-6.143a.552.552 0 01.094-.766c.244-.168.58-.13.75.113l4.833 6.478a.53.53 0 010 .654l-4.834 6.44a.493.493 0 01-.412.225zm10.024-.093a.634.634 0 01-.319.093.502.502 0 01-.43-.224l-3.954-5.228a.52.52 0 01.113-.747.54.54 0 01.749.112l3.953 5.228c.168.224.112.579-.112.766zm.112-13.051l-3.953 5.228a.525.525 0 01-.431.224.632.632 0 01-.318-.094c-.244-.186-.3-.56-.113-.765l3.953-5.246a.54.54 0 01.75-.113c.224.169.28.542.112.766zM58.063 40.536a.52.52 0 01-.127.15.283.283 0 01-.174.05c-.076 0-.164-.038-.264-.114a4.18 4.18 0 00-.382-.25 3.113 3.113 0 00-.555-.25 2.397 2.397 0 00-.786-.113c-.29 0-.546.039-.77.117-.223.078-.409.183-.558.316a1.3 1.3 0 00-.338.47c-.076.18-.114.375-.114.584 0 .266.066.488.198.663.131.176.305.326.522.45.216.125.461.233.736.324.274.09.555.185.843.283.287.098.568.208.843.33.274.122.52.276.736.463.216.187.39.416.521.687.132.271.198.604.198 1 0 .418-.072.81-.215 1.177a2.712 2.712 0 01-.625.957 2.93 2.93 0 01-1.01.64 3.73 3.73 0 01-1.362.233 4.17 4.17 0 01-1.696-.337 3.976 3.976 0 01-1.307-.91l.374-.613a.494.494 0 01.13-.124.306.306 0 01.171-.05c.094 0 .2.05.321.15.12.1.271.21.452.33.18.12.399.23.655.33.257.1.57.15.94.15.308 0 .582-.042.823-.126.241-.084.445-.203.613-.357.167-.153.295-.337.384-.55a1.83 1.83 0 00.134-.713c0-.29-.066-.526-.197-.71a1.638 1.638 0 00-.519-.464 3.632 3.632 0 00-.733-.316l-.842-.267a8.537 8.537 0 01-.843-.317 2.74 2.74 0 01-.733-.466 2.143 2.143 0 01-.518-.717c-.132-.287-.198-.641-.198-1.064 0-.337.066-.664.198-.98.131-.315.322-.595.572-.84.25-.244.558-.44.926-.586.368-.147.79-.22 1.268-.22a4.07 4.07 0 011.465.253c.442.169.827.413 1.157.733l-.314.614zM59.124 41.842h.937a.369.369 0 01.368.247l1.297 4.347c.036.16.07.315.1.463.032.15.059.3.081.45.036-.15.076-.3.12-.45a62.6 62.6 0 01.141-.463l1.432-4.374a.352.352 0 01.117-.166.327.327 0 01.21-.067h.516c.089 0 .163.022.22.067.059.044.099.1.121.166l1.398 4.374c.05.156.093.309.13.46l.111.447a6.919 6.919 0 01.2-.907l1.325-4.347a.359.359 0 01.348-.247h.897l-2.195 6.754h-.943c-.116 0-.196-.075-.24-.226l-1.5-4.58a2.557 2.557 0 01-.086-.31 91.667 91.667 0 00-.067-.31c-.023.101-.045.206-.067.312a2.522 2.522 0 01-.087.314l-1.519 4.574c-.049.15-.14.226-.274.226h-.897l-2.194-6.754zM71.891 39.722a.753.753 0 01-.07.324.934.934 0 01-.187.266.866.866 0 01-.271.184.816.816 0 01-.652 0 .873.873 0 01-.452-.45.832.832 0 010-.653.881.881 0 01.452-.457.82.82 0 01.652 0 .874.874 0 01.458.456c.047.105.07.215.07.33zm-.267 2.12v6.754h-1.191v-6.754h1.19zM77.5 42.956a.264.264 0 01-.248.146.467.467 0 01-.228-.073 5.211 5.211 0 00-.31-.163 2.952 2.952 0 00-.44-.167 2.101 2.101 0 00-.601-.076c-.201 0-.382.025-.542.076-.16.051-.298.121-.412.21a.931.931 0 00-.26.31.831.831 0 00-.09.383c0 .174.05.318.15.434.1.115.233.215.398.3.165.084.352.159.562.223.21.065.424.134.645.207.221.073.436.154.646.243.21.09.397.2.562.334.165.133.297.296.398.49.1.193.15.425.15.696 0 .312-.055.6-.167.864a1.883 1.883 0 01-.495.687 2.388 2.388 0 01-.803.456 3.312 3.312 0 01-1.097.167c-.473 0-.9-.077-1.284-.23a3.256 3.256 0 01-.977-.59l.28-.454a.406.406 0 01.128-.133.359.359 0 01.194-.047.45.45 0 01.254.094c.09.062.198.131.325.206.127.076.28.145.461.207.18.063.407.093.68.093.231 0 .434-.03.608-.09s.319-.14.435-.243a.962.962 0 00.258-.353c.055-.133.083-.276.083-.427a.706.706 0 00-.15-.463 1.271 1.271 0 00-.398-.314 3.243 3.243 0 00-.566-.226 40.265 40.265 0 01-.649-.204 7.248 7.248 0 01-.649-.243 2.273 2.273 0 01-.565-.343 1.554 1.554 0 01-.398-.51c-.1-.203-.15-.448-.15-.737a1.822 1.822 0 01.629-1.37c.204-.18.456-.323.755-.43.3-.107.64-.16 1.024-.16.446 0 .846.07 1.2.21.355.14.662.332.92.577l-.267.433zM83.313 42.956a.264.264 0 01-.248.146.467.467 0 01-.227-.073 5.242 5.242 0 00-.311-.163 2.952 2.952 0 00-.439-.167 2.102 2.102 0 00-.602-.076c-.2 0-.381.025-.542.076a1.31 1.31 0 00-.411.21.931.931 0 00-.26.31.83.83 0 00-.091.383c0 .174.05.318.15.434.1.115.233.215.398.3.165.084.353.159.562.223.21.065.425.134.646.207.22.073.436.154.645.243.21.09.397.2.562.334.166.133.298.296.398.49.1.193.151.425.151.696 0 .312-.056.6-.167.864a1.885 1.885 0 01-.495.687 2.388 2.388 0 01-.803.456 3.31 3.31 0 01-1.097.167c-.473 0-.901-.077-1.285-.23a3.256 3.256 0 01-.976-.59l.28-.454a.406.406 0 01.127-.133.358.358 0 01.194-.047.45.45 0 01.255.094c.089.062.197.131.324.206a2.108 2.108 0 001.14.3c.233 0 .436-.03.61-.09s.319-.14.434-.243a.962.962 0 00.258-.353c.056-.133.084-.276.084-.427a.706.706 0 00-.15-.463 1.271 1.271 0 00-.399-.314 3.25 3.25 0 00-.565-.226 40.265 40.265 0 01-.649-.204 7.248 7.248 0 01-.649-.243 2.27 2.27 0 01-.565-.343 1.552 1.552 0 01-.398-.51c-.1-.203-.15-.448-.15-.737a1.822 1.822 0 01.629-1.37c.204-.18.456-.323.755-.43.299-.107.64-.16 1.023-.16.446 0 .847.07 1.201.21.355.14.662.332.92.577l-.267.433z" fill="#B3B2B2"/></svg>