<svg viewBox="0 0 120 37" fill="none" xmlns="http://www.w3.org/2000/svg"><path d="M25.792 9.138V.447c-10.114 1-18.117 9.206-18.83 19.427H0v1.2h14.993c.085-6.19 4.779-11.264 10.799-11.936z" fill="#B3B2B2"/><path d="M31.255 21.246c-.527-.371-.841-.772-.913-1.215a6.132 6.132 0 01-.07-.786c0-.686.213-1.244.627-1.701.413-.458 1.07-.815 1.954-1.087.885-.271 2.083-.486 3.153-.629v5.26s-.043.601.599.601h2.71c-.185-.128-.285-.357-.3-.686v-7.52c.03-1.729-.384-2.987-1.212-3.759-.827-.772-2.14-1.158-3.908-1.158a7.06 7.06 0 00-1.84.243 8.742 8.742 0 00-1.541.558c-.443.214-.956.5-1.684.829v1.644h.614c.613-.743 1.184-1.287 1.712-1.615a3.334 3.334 0 011.797-.5c.727 0 1.355.185 1.911.542.543.358.97.815 1.27 1.359.3.543.442 1.072.442 1.6 0 .415-.1.772-.313 1.073-.215.3-.528.486-.956.572l-3.752.7c-.899.229-1.626.529-2.168.9-.543.387-.942.83-1.184 1.33-.243.5-.357 1.086-.357 1.744 0 .8.228 1.501.685 2.116h3.01c-.043.028 0-.215-.286-.415zM46.434 14.442c0-.53.114-1.087.328-1.673.214-.586.528-1.086.956-1.487.427-.4.941-.6 1.54-.6.485 0 1.027.157 1.627.472l.228-2.816c-.214-.015-.371-.029-.457-.029a3.74 3.74 0 00-1.726.4 4.793 4.793 0 00-1.426 1.087c-.414.457-.77.986-1.07 1.586V8.566a3.791 3.791 0 01-1.17.172 3.79 3.79 0 01-1.17-.172V21.69h2.34v-7.247zM58.317 20.446c-.813-.844-1.227-2.302-1.227-4.36 0-1.616.257-3.06.756-4.303.514-1.244 1.583-1.93 3.224-2.03.043 0 .1 0 .143-.015.042 0 .1-.014.157-.014 1.526 0 2.567.63 3.11 1.902.541 1.272.813 2.673.813 4.216 0 1.23-.186 2.288-.557 3.174-.37.886-1.498 2.659-1.498 2.659h4.537V.347a4.26 4.26 0 01-2.397 0v10.578c-.085-.372-.3-.772-.756-1.187-.442-.414-1.027-.757-1.726-1.014a5.75 5.75 0 00-2.054-.4c-1.042 0-1.969.185-2.796.542a5.44 5.44 0 00-2.069 1.616c-.57.715-.984 1.572-1.27 2.587-.285 1.015-.427 2.159-.427 3.46 0 1.2.285 2.316.856 3.33a6.61 6.61 0 001.483 1.816h3.067c0 .014-.656-.5-1.37-1.23zM91.355 14.67c0-.986.171-1.844.514-2.559.342-.714.799-1.258 1.37-1.615.57-.357 1.155-.543 1.782-.543.913 0 1.712.372 2.368 1.115.657.743.985 1.787.985 3.145v7.49h2.582V14.2c0-1.401-.214-2.56-.656-3.474-.428-.915-1.013-1.587-1.727-2.001a4.528 4.528 0 00-2.31-.63c-.714 0-1.341.1-1.884.286-.542.186-1.012.43-1.383.73s-.656.557-.856.786c-.2.228-.457.571-.785 1.015V8.323c-.356.115-.784.172-1.284.172-.513 0-.941-.057-1.284-.172v13.352h2.582V14.67h-.014zM108.987 20.145c-.627-1.258-.941-2.458-.941-3.602-.015-.272-.029-.486-.029-.615 0-1.687.428-3.188 1.27-4.488.841-1.301 1.997-1.945 3.438-1.945.998 0 1.826.258 2.482.787.656.529 1.155 1.272 1.483 2.244.329.958.485 2.073.485 3.316-.114 2.059-.599 3.632-1.426 4.718a4.332 4.332 0 01-1.284 1.13h2.768c.399-.3.756-.644 1.055-1.03.585-.743 1.027-1.53 1.298-2.359.271-.829.414-1.644.414-2.458 0-.858-.2-1.859-.599-3.017-.4-1.158-1.127-2.201-2.183-3.116-1.055-.915-2.468-1.372-4.237-1.372-1.526 0-2.881.343-4.065 1.015a6.766 6.766 0 00-2.725 2.83c-.642 1.215-.956 2.587-.956 4.146 0 1.272.286 2.43.842 3.459a6.046 6.046 0 001.641 1.916h2.824a3.426 3.426 0 01-1.555-1.559zM75.934 21.246c-.527-.371-.841-.772-.913-1.215a6.132 6.132 0 01-.07-.786c0-.686.213-1.244.627-1.701.413-.458 1.07-.815 1.954-1.087.885-.271 2.083-.486 3.153-.629v5.26s-.043.601.599.601h2.71c-.185-.128-.285-.357-.3-.686v-7.52c.03-1.729-.384-2.987-1.212-3.759-.827-.772-2.14-1.158-3.909-1.158a7.06 7.06 0 00-1.84.243 8.74 8.74 0 00-1.54.558c-.443.214-.956.5-1.684.829v1.644h.614c.613-.743 1.184-1.287 1.712-1.615a3.334 3.334 0 011.797-.5c.727 0 1.355.185 1.911.542.543.358.97.815 1.27 1.359.3.543.442 1.072.442 1.6 0 .415-.1.772-.313 1.073-.214.3-.528.486-.956.572l-3.752.7c-.899.229-1.626.529-2.168.9-.542.387-.942.83-1.184 1.33-.243.5-.357 1.086-.357 1.744 0 .8.228 1.501.685 2.116h2.967c0 .028.057-.215-.243-.415zM12.297 20.789v.3h-.6c0 .1-.014.2-.014.3 0 8.12 6.192 14.796 14.095 15.553v-5.146c-5.165-.73-9.145-5.175-9.145-10.564 0-5.39 3.98-9.835 9.145-10.564v-4.56c-7.533.614-13.481 6.947-13.481 14.68v.3-.3z" fill="#E5E5E5"/></svg>