<svg viewBox="0 0 20 20" fill="none" xmlns="http://www.w3.org/2000/svg"><path d="M8.782 19.219c-.594 0-1.157 0-1.75-.032-1.563-.062-3.5-.28-4.938-1.5C.969 16.72.25 15.22.063 13.282c-.188-1.656.031-4.031.844-5.656.78-1.563 2.812-2.531 3.75-3.031.125-.063.28-.157.343-.188 1.563-.968 2.782-1.812 3.813-2.656.562-.438 1.25-1 2.125-1 1 0 1.968.719 2.281 1.719.25.781.156 1.687-.313 2.562l-.28.469c1.187 0 2.374 0 3.53.031.657.032 1.282.063 1.907.344.687.313 1.25.969 1.469 1.75.218.75.125 1.531-.282 2.156-.125.188-.25.344-.437.5-.563.531-1.375.844-2.313.938-.531.062-1.031.031-1.531 0 .031.719-.188 1.469-.688 2.031a2.877 2.877 0 01-.75 2.656c.094.469.063.969-.093 1.469a2.615 2.615 0 01-1.5 1.594c-.563.218-1.188.218-1.657.25h-1.5zM11 2.344c-.375 0-.781.344-1.187.656-1.094.875-2.375 1.75-3.969 2.75-.094.063-.25.125-.469.25-.75.375-2.5 1.25-3.062 2.344-.688 1.312-.844 3.406-.688 4.781.125 1.063.469 2.5 1.5 3.375 1.063.906 2.688 1.063 3.969 1.125 1.063.031 2.156.031 3.187.031.407 0 .813 0 1.125-.125.25-.093.5-.343.594-.656.094-.281.094-.594-.031-.813A.771.771 0 0112.25 15c.531-.313.75-1.063.469-1.563-.188-.343-.063-.78.25-1 .469-.343.625-1.093.313-1.593a.837.837 0 01-.032-.813.776.776 0 01.688-.406c.312 0 .656.031.968.031.563.031 1.032.063 1.5.031.563-.062 1.094-.25 1.376-.53.062-.063.125-.157.187-.22.156-.218.188-.53.094-.874a1.17 1.17 0 00-.625-.75c-.344-.157-.781-.188-1.281-.188-1.72-.063-3.438-.031-5.126 0a.79.79 0 01-.718-.469.821.821 0 01.125-.843c.406-.47.843-.938 1.125-1.47.25-.5.312-.968.187-1.374-.125-.344-.437-.625-.75-.625z" fill="#FB5F61"/></svg>