<svg viewBox="0 0 140 126" fill="none" xmlns="http://www.w3.org/2000/svg"><path d="M4.59 16.801c8.828 42.854-111.759.712-173.157-25.715l-1.046-71.985C-115.223-66.19-4.238-26.053 4.59 16.8z" stroke="#fff" stroke-opacity=".4" stroke-width="3"/><path d="M18.176 22.985c10.21 49.52-129.259.824-200.27-29.714l-1.209-83.183c62.906 17 191.27 63.377 201.48 112.897z" stroke="#fff" stroke-opacity=".4" stroke-width="3"/><path d="M33.616 30.054c11.78 57.139-149.146.95-231.081-34.286l-1.395-95.98C-126.277-80.597 21.835-27.084 33.616 30.054z" stroke="#fff" stroke-opacity=".4" stroke-width="3"/><path d="M52.144 38.596C65.81 104.941-120.865 39.7-215.911-1.215l-1.619-111.444c84.197 22.775 256.007 84.91 269.673 151.255z" stroke="#fff" stroke-opacity=".4" stroke-width="3"/><path d="M73.76 48.61c15.867 77.138-200.849 1.28-311.19-46.29l-1.883-129.574C-141.567-100.773 57.893-28.526 73.76 48.611z" stroke="#fff" stroke-opacity=".4" stroke-width="3"/><path d="M99.697 60.39c18.504 89.835-234.258 1.493-362.952-53.907l-2.193-150.902C-151.443-113.58 81.192-29.444 99.697 60.391z" stroke="#fff" stroke-opacity=".4" stroke-width="3"/><path d="M117.607 68.638c20.327 98.723-257.325 1.64-398.693-59.243l-2.409-165.832C-158.264-122.546 97.28-30.085 117.607 68.638z" stroke="#fff" stroke-opacity=".4" stroke-width="3"/><path d="M136.753 77.474c22.276 108.246-281.984 1.796-436.899-64.96l-2.642-181.828c137.232 37.16 417.265 138.542 439.541 246.788z" stroke="#fff" stroke-opacity=".4" stroke-width="3"/></svg>