<svg viewBox="0 0 478 415" fill="none" xmlns="http://www.w3.org/2000/svg"><path d="M464.536 373.791c-30.648-148.776 387.996-2.472 601.144 89.276l3.64 249.91c-188.827-51.072-574.136-190.41-604.784-339.186z" stroke="#fff" stroke-opacity=".6" stroke-width="3"/><path d="M417.369 352.321c-35.445-171.919 448.749-2.86 695.281 103.159l4.19 288.785C898.453 685.25 452.814 524.24 417.369 352.321z" stroke="#fff" stroke-opacity=".6" stroke-width="3"/><path d="M363.768 327.782c-40.897-198.368 517.788-3.3 802.242 119.03l4.84 333.213C918.866 711.931 404.666 526.15 363.768 327.782z" stroke="#fff" stroke-opacity=".6" stroke-width="3"/><path d="M299.445 298.127C252 67.8 900.079 294.3 1230.05 436.341l5.62 386.898c-292.306-79.068-888.78-294.784-936.225-525.112z" stroke="#fff" stroke-opacity=".6" stroke-width="3"/><path d="M224.398 263.357c-55.086-267.798 697.287-4.442 1080.362 160.71l6.53 449.838C971.948 781.971 279.484 531.155 224.398 263.357z" stroke="#fff" stroke-opacity=".6" stroke-width="3"/><path d="M134.354 222.463C70.112-89.415 947.626 217.281 1394.41 409.614l7.62 523.886C1006.24 826.437 198.596 534.342 134.354 222.463z" stroke="#fff" stroke-opacity=".6" stroke-width="3"/><path d="M72.175 193.832c-70.57-342.736 893.357-5.693 1384.145 205.672l8.36 575.718C1029.92 857.566 142.745 536.568 72.175 193.832z" stroke="#fff" stroke-opacity=".6" stroke-width="3"/><path d="M5.707 163.154c-77.335-375.798 978.964-6.237 1516.783 225.518l9.17 631.258C1055.23 890.918 83.042 538.952 5.707 163.154z" stroke="#fff" stroke-opacity=".6" stroke-width="3"/></svg>