<svg viewBox="0 0 177 65" fill="none" xmlns="http://www.w3.org/2000/svg"><path d="M73.456 64.514H.3v-64h73.154v64z" fill="#17223D"/><path d="M176.413 64.514H75.754v-64h100.659v64z" fill="#66CA9F"/><path d="M23.093 48.75c.654 0 1.222.241 1.704.725.484.481.724 1.067.724 1.752 0 .684-.24 1.27-.724 1.752-.482.485-1.05.724-1.704.724-.686 0-1.27-.239-1.755-.725a2.389 2.389 0 01-.724-1.751c0-.685.242-1.27.724-1.752a2.395 2.395 0 011.755-.725zm0-35.055c.654 0 1.222.24 1.704.726.484.482.724 1.068.724 1.752 0 .684-.233 1.262-.699 1.729-.466.466-1.044.7-1.73.7-.654 0-1.232-.234-1.73-.7a2.274 2.274 0 01-.747-1.729c0-.684.24-1.27.723-1.752a2.388 2.388 0 011.755-.726zM17.249 48.75c.656 0 1.225.241 1.704.725.486.481.727 1.067.727 1.752 0 .684-.241 1.27-.727 1.752-.48.485-1.048.724-1.704.724-.683 0-1.27-.239-1.753-.725a2.389 2.389 0 01-.723-1.751c0-.685.24-1.27.723-1.752a2.393 2.393 0 011.753-.725zm0-5.843c.656 0 1.225.24 1.704.724.486.484.727 1.068.727 1.754 0 .684-.233 1.263-.7 1.73-.466.465-1.044.698-1.73.698-.654 0-1.232-.233-1.729-.699a2.273 2.273 0 01-.748-1.73c0-.685.24-1.269.723-1.753a2.393 2.393 0 011.753-.724zm0-11.685c.656 0 1.225.24 1.704.726.486.482.727 1.068.727 1.752 0 .684-.233 1.262-.7 1.728-.466.467-1.044.7-1.73.7-.654 0-1.232-.233-1.729-.7a2.272 2.272 0 01-.748-1.728c0-.684.24-1.27.723-1.752a2.386 2.386 0 011.753-.727zm0-5.842c.656 0 1.225.241 1.704.724.486.482.727 1.068.727 1.753 0 .686-.233 1.263-.7 1.73-.466.467-1.044.7-1.73.7-.654 0-1.232-.233-1.729-.7a2.275 2.275 0 01-.748-1.73c0-.685.24-1.271.723-1.753a2.393 2.393 0 011.753-.724zm0-5.842c.656 0 1.225.24 1.704.725.486.482.727 1.068.727 1.752 0 .684-.233 1.262-.7 1.73-.466.467-1.044.7-1.73.7-.654 0-1.232-.233-1.729-.7a2.278 2.278 0 01-.748-1.73c0-.684.24-1.27.723-1.752a2.39 2.39 0 011.753-.725zm0-5.843c.656 0 1.225.24 1.704.726.486.482.727 1.068.727 1.752 0 .684-.233 1.262-.7 1.729-.466.466-1.044.7-1.73.7-.654 0-1.232-.234-1.729-.7a2.272 2.272 0 01-.748-1.729c0-.684.24-1.27.723-1.752a2.386 2.386 0 011.753-.726zm-.092 23.37c.684 0 1.27.24 1.752.725a2.39 2.39 0 01.725 1.751c0 .686-.234 1.265-.7 1.731-.468.467-1.06.7-1.777.7-.655 0-1.226-.241-1.708-.723-.482-.486-.724-1.052-.724-1.708 0-.683.242-1.27.724-1.751.482-.484 1.053-.725 1.708-.725zM11.408 48.75c.653 0 1.222.241 1.704.725.486.481.724 1.067.724 1.752 0 .684-.238 1.27-.724 1.752-.482.485-1.05.724-1.704.724-.684 0-1.27-.239-1.754-.725a2.39 2.39 0 01-.723-1.751c0-.685.242-1.27.723-1.752a2.391 2.391 0 011.754-.725zm0-35.055c.653 0 1.222.24 1.704.726.486.482.724 1.068.724 1.752 0 .684-.233 1.262-.7 1.729-.466.466-1.044.7-1.728.7-.654 0-1.232-.234-1.729-.7a2.275 2.275 0 01-.748-1.729c0-.684.242-1.27.723-1.752a2.383 2.383 0 011.754-.726zM60.793 48.725c.653 0 1.222.241 1.704.725.483.482.724 1.068.724 1.754 0 .684-.24 1.27-.724 1.752-.482.484-1.05.724-1.704.724-.684 0-1.27-.24-1.756-.724a2.389 2.389 0 01-.722-1.752c0-.686.24-1.272.722-1.754a2.397 2.397 0 011.756-.725zm0-5.842c.653 0 1.222.241 1.704.725.483.482.724 1.068.724 1.752 0 .684-.233 1.262-.7 1.729-.466.468-1.044.701-1.728.701-.655 0-1.233-.233-1.729-.701a2.268 2.268 0 01-.75-1.729c0-.684.241-1.27.723-1.752a2.397 2.397 0 011.756-.725zm-.095-5.843c.685 0 1.27.241 1.753.727.481.48.726 1.065.726 1.752 0 .684-.233 1.261-.702 1.729-.468.466-1.06.699-1.777.699-.653 0-1.223-.24-1.705-.723-.482-.484-.727-1.052-.727-1.705 0-.687.245-1.271.727-1.752.482-.486 1.052-.727 1.705-.727zm-2.852-5.841c.688 0 1.27.24 1.754.724.482.482.727 1.068.727 1.752 0 .686-.234 1.264-.704 1.73-.466.467-1.06.7-1.777.7-.684 0-1.26-.233-1.728-.7-.467-.466-.7-1.044-.7-1.73 0-.653.233-1.23.7-1.729a2.283 2.283 0 011.728-.747zm-2.896 5.84c.655 0 1.223.242 1.705.728.484.48.725 1.065.725 1.752 0 .684-.233 1.261-.7 1.729-.466.466-1.044.699-1.73.699-.654 0-1.232-.233-1.73-.7a2.276 2.276 0 01-.747-1.728c0-.687.241-1.271.723-1.752a2.384 2.384 0 011.754-.727zm0-11.682c.655 0 1.223.239 1.705.724.484.482.725 1.068.725 1.753 0 .683-.233 1.262-.7 1.728-.466.466-1.044.7-1.73.7-.654 0-1.232-.233-1.73-.7a2.275 2.275 0 01-.747-1.728c0-.685.241-1.27.723-1.753a2.382 2.382 0 011.754-.724zm-2.945-5.844c.686 0 1.27.241 1.754.727.481.48.724 1.065.724 1.752 0 .684-.233 1.262-.701 1.729-.467.465-1.06.7-1.777.7-.686 0-1.26-.235-1.73-.7-.468-.467-.701-1.045-.701-1.73 0-.655.233-1.23.7-1.73a2.288 2.288 0 011.73-.748zM49.108 37.04c.653 0 1.222.241 1.703.727a2.37 2.37 0 01.725 1.752c0 .684-.233 1.261-.7 1.729-.466.466-1.044.699-1.728.699-.653 0-1.232-.233-1.729-.7a2.273 2.273 0 01-.747-1.728c0-.687.24-1.271.722-1.752a2.387 2.387 0 011.754-.727zm0-23.368c.653 0 1.222.24 1.703.725.486.481.725 1.067.725 1.751 0 .685-.233 1.263-.7 1.73-.466.467-1.044.7-1.728.7-.653 0-1.232-.233-1.729-.7a2.278 2.278 0 01-.747-1.73c0-.684.24-1.27.722-1.751a2.39 2.39 0 011.754-.725zm-2.947 5.841c.688 0 1.27.241 1.755.727.482.48.725 1.065.725 1.752 0 .684-.233 1.262-.701 1.729-.468.465-1.06.7-1.779.7-.684 0-1.26-.235-1.729-.7-.466-.467-.7-1.045-.7-1.73 0-.655.234-1.23.7-1.73a2.285 2.285 0 011.73-.748zM43.266 37.04c.653 0 1.222.241 1.704.727.483.48.725 1.065.725 1.752 0 .684-.234 1.261-.7 1.729-.467.466-1.045.699-1.729.699-.655 0-1.233-.233-1.73-.7a2.274 2.274 0 01-.748-1.728c0-.687.24-1.271.722-1.752a2.388 2.388 0 011.756-.727zm0-11.683c.653 0 1.222.239 1.704.724.483.482.725 1.068.725 1.753 0 .683-.234 1.262-.7 1.728-.467.466-1.045.7-1.729.7-.655 0-1.233-.233-1.73-.7a2.272 2.272 0 01-.748-1.728c0-.685.24-1.27.722-1.753a2.385 2.385 0 011.756-.724zm-2.947 5.842c.686 0 1.27.24 1.754.724.482.482.727 1.068.727 1.752 0 .686-.234 1.264-.704 1.73-.466.467-1.06.7-1.777.7-.684 0-1.26-.233-1.728-.7-.469-.466-.702-1.044-.702-1.73 0-.653.233-1.23.702-1.729a2.283 2.283 0 011.728-.747zm-2.896 17.526c.655 0 1.223.241 1.703.725.486.482.727 1.068.727 1.754 0 .684-.24 1.27-.727 1.752-.48.484-1.048.724-1.703.724-.685 0-1.27-.24-1.754-.724a2.389 2.389 0 01-.723-1.752c0-.686.241-1.272.723-1.754a2.388 2.388 0 011.754-.725zm0-5.842c.655 0 1.223.241 1.703.725.486.482.727 1.068.727 1.752 0 .684-.233 1.262-.7 1.729-.466.468-1.044.701-1.73.701-.654 0-1.232-.233-1.73-.701a2.275 2.275 0 01-.747-1.729c0-.684.241-1.27.723-1.752a2.388 2.388 0 011.754-.725zm-.093-5.843c.684 0 1.27.241 1.752.727.482.48.724 1.065.724 1.752 0 .684-.232 1.261-.699 1.729-.468.466-1.06.699-1.777.699-.655 0-1.225-.24-1.707-.723-.482-.484-.725-1.052-.725-1.705 0-.687.243-1.271.725-1.752.482-.486 1.052-.727 1.707-.727zM94.838 14.782h-6.772v5.417h4.705c.614 0 .936.469.936.936 0 .467-.322.936-.936.936h-4.705v7.067c0 .616-.466.91-.934.91-.467 0-.936-.294-.936-.91V13.846c0-.493.442-.934.936-.934h7.706c.666 0 .937.466.937.934 0 .467-.271.936-.937.936zM99.175 30.049c-.468 0-.934-.295-.934-.911v-15.44c0-.615.466-.935.934-.935.469 0 .936.32.936.935v15.44c0 .616-.468.91-.936.91zM113.31 30.049c-.368 0-.91 0-1.28-.813l-5.367-12.14v12.042c0 .616-.469.91-.937.91-.466 0-.935-.294-.935-.91V13.723c0-.665.542-.96 1.108-.96.567 0 .96.122 1.255.787l5.345 12.19V13.698c0-.615.491-.935.959-.935.468 0 .912.32.912.935v15.266c0 .814-.491 1.085-1.06 1.085zM125.182 14.782h-2.71v14.356c0 .616-.466.91-.934.91-.467 0-.937-.294-.937-.91V14.782h-2.708c-.615 0-.935-.47-.935-.936 0-.467.32-.934.935-.934h7.289c.616 0 .936.466.936.934 0 .467-.32.936-.936.936zM137.347 29.926h-7.707c-.493 0-.935-.443-.935-.934V13.846c0-.494.442-.935.935-.935h7.707c.667 0 .936.467.936.935 0 .466-.269.935-.936.935h-6.773v5.417h4.705c.615 0 .937.469.937.937 0 .466-.322.935-.937.935h-4.705v5.984h6.773c.667 0 .936.469.936.936 0 .467-.269.935-.936.935zM145.796 30.049h-.247c-2.584 0-4.677-2.042-4.677-4.654v-7.977c0-2.563 2.093-4.655 4.677-4.655h.247a4.654 4.654 0 014.63 4.013v.149c0 .591-.444.91-.912.91-.418 0-.813-.246-.936-.812-.27-1.355-1.379-2.39-2.782-2.39h-.247c-1.551 0-2.806 1.282-2.806 2.785v7.977a2.804 2.804 0 002.806 2.806h.247c1.403 0 2.512-1.033 2.782-2.388.123-.566.543-.811.936-.811.468 0 .912.32.912.91v.173c-.321 2.265-2.315 3.964-4.63 3.964zM162.273 30.049c-.469 0-.937-.247-.937-.911V22.07H155.5v7.067c0 .616-.468.91-.935.91-.468 0-.934-.294-.934-.91v-15.44c0-.615.466-.935.934-.935.467 0 .935.32.935.935v6.5h5.836v-6.5c0-.615.468-.935.937-.935.468 0 .934.32.934.935v15.44c0 .664-.466.91-.934.91zM97.338 54.099c-.468 0-.936-.296-.936-.91V41.147l-3.25 7.46c-.198.47-.616.643-1.035.643-.468 0-.861-.222-1.058-.643l-3.35-7.46V53.19c0 .614-.468.91-.936.91-.466 0-.935-.296-.935-.91V37.895c0-.662.247-1.083 1.109-1.083h.073c.664 0 .936.347 1.108.716l3.941 8.815 3.914-8.815c.172-.369.443-.716 1.133-.716h.074c.862 0 1.083.42 1.083 1.084v15.293c0 .614-.468.91-.935.91zM110.86 53.977h-7.709c-.492 0-.935-.444-.935-.937V37.895c0-.49.443-.934.935-.934h7.709c.665 0 .935.468.935.934 0 .47-.27.937-.935.937h-6.772v5.418h4.703c.616 0 .936.468.936.937 0 .466-.32.934-.936.934h-4.703v5.984h6.772c.665 0 .935.469.935.935 0 .469-.27.937-.935.937zM125.76 54.099c-.468 0-.937-.296-.937-.91V41.147l-3.249 7.46c-.198.47-.617.643-1.035.643-.468 0-.862-.222-1.058-.643l-3.35-7.46V53.19c0 .614-.468.91-.934.91-.469 0-.937-.296-.937-.91V37.895c0-.662.247-1.083 1.108-1.083h.073c.666 0 .937.347 1.109.716l3.941 8.815 3.914-8.815c.172-.369.444-.716 1.134-.716h.073c.861 0 1.083.42 1.083 1.084v15.293c0 .614-.466.91-.935.91zM137.681 49.076c0-1.6-1.306-2.93-2.806-2.93h-2.859v5.96h2.859a2.807 2.807 0 002.806-2.809v-.221zm-.197-7.632c0-1.577-1.06-2.612-2.609-2.612h-2.859v5.443h2.859c1.476 0 2.609-1.158 2.609-2.808v-.023zm-2.609 12.533h-3.793c-.494 0-.936-.444-.936-.937V37.895c0-.49.442-.934.936-.934h3.793c2.634 0 4.48 1.921 4.48 4.483v.023c0 1.848-.861 3.153-1.921 3.743 1.035.591 2.118 1.87 2.118 3.866v.221a4.677 4.677 0 01-4.677 4.68zM151.399 53.977h-7.708c-.493 0-.934-.444-.934-.937V37.895c0-.49.441-.934.934-.934h7.708c.665 0 .937.468.937.934 0 .47-.272.937-.937.937h-6.772v5.418h4.704c.615 0 .936.468.936.937 0 .466-.321.934-.936.934h-4.704v5.984h6.772c.665 0 .937.469.937.935 0 .469-.272.937-.937.937zM162.679 41.64a2.807 2.807 0 00-2.807-2.808h-3.202v5.836h3.299c1.552 0 2.71-1.254 2.71-2.806v-.221zm-1.501 4.753l3.053 6.377c.073.122.098.27.098.419 0 .517-.395.91-.987.91-.294 0-.614-.122-.811-.517l-3.349-7.042h-2.512v6.649c0 .614-.468.91-.934.91-.469 0-.937-.296-.937-.91V37.895c0-.49.443-.934.937-.934h4.136a4.674 4.674 0 014.677 4.68v.22c0 2.167-1.378 3.94-3.371 4.532z" fill="#fff"/></svg>