<svg viewBox="0 0 121 30" fill="none" xmlns="http://www.w3.org/2000/svg"><path d="M66.819 21.229v5.643c-3.19 1.573-6.216 2.349-9.254 2.349-8.373 0-13.394-4.857-13.394-10.98 0-6.59 5.74-12.073 13.08-12.073 1.833 0 3.19.319 4.628.786 1.032.32 1.67.707 2.307.707.557 0 .72-.946.8-1.493h.8l.72 7.604h-.963c-.394-1.493-1.113-2.747-2.076-3.603-1.507-1.493-3.583-2.268-5.983-2.268-5.022 0-7.967 3.922-7.967 9.793 0 5.803 3.583 9.794 8.372 9.794 1.438 0 2.714-.308 4.303-1.015V20.67c0-1.881-.313-2.588-3.027-2.588v-.867H69.29v.867c-2.552.011-2.47.787-2.47 3.146zM38.987 11.97v16.85H37.63L20.49 11.425c.082.467.082.855.082 1.334v10.58c0 3.295 0 4.469 3.027 4.469v.866H15.55v-.866c3.027 0 3.027-1.414 3.027-4.47V11.265c0-1.801 0-3.762-3.19-3.762v-.855h7.573l14.113 14.262c-.081-.387-.081-.627-.081-1.174v-7.764c0-3.135.08-4.47-2.946-4.47v-.854h8.048v.866c-2.945-.011-3.108 1.243-3.108 4.458zM0 28.673v-.866c1.913 0 3.27-.16 3.27-2.896V10.41C3.27 7.58 2.227 7.513 0 7.513v-.866h11.318v.866c-2.308 0-3.27.08-3.27 2.896V24.91c0 2.748 1.194 2.896 3.27 2.896v.866H0z" fill="#B8B8B8"/><path d="M115.983 9.337c-1.136-1.117-2.423-1.664-3.397-2.782-.488-.478-.893-.957-1.218-1.596-.406-.399-.65-.638-1.125-.878l.244.719h-.082c-.405 0-.811-.24-1.136-.48l.325-.318c-.082-.16-.325-.16-.487-.16-1.299-.24-2.505.479-3.804.718v.16c.812.24.974 1.197 1.461 1.676h.487c.162 0 .406.16.568.16 0-.16-.162-.48-.162-.48.162-.16.325-.16.487 0 .406.24.974-.16 1.38.48-.487 0-.974 0-1.38.239 0 .08.244.24.162.399-.405-.16-.893 0-1.055-.32l-.081.08a4.625 4.625 0 001.937 1.277c1.055.16 1.936-.319 2.991-.08 3.723 1.745 6.309 5.883 6.309 10.022 0 5.883-3.398 8.266-5.578 8.266-.406 0-1.055-.24-1.299-.48.244-.877.406-1.823.406-3.26 0-3.42-1.38-7.08-3.235-8.984-.893-.878-1.867-1.585-2.911-1.585-.487 0-.974 0-1.287.4-.406.319-.65.957-.568 1.356-.65.48-1.694.719-2.505.719-.893 0-2.018-.32-3.073-1.118V12.29c-.244-.08-1.056-.559-.65-.958.244.08.406.24.487.32-.08-.559-.08-1.197-.487-1.676-.162 0-.406 0-.65-.16-.243-.24-.486-.559-.486-.958.243.4.65.24.893.48-.406-.958-.244-1.358-.974-2.783-.163-.718-.893-1.117-1.38-1.596-.244-.16-.325-.399-.65-.399-.324-.08-.324-.479-.324-.718.08 0 .324.16.487.24-.487-1.118-.812-2.304-1.856-2.942l-.243.16h-1.287c.162-.16.487-.24.73-.4-.243-.239-.406-.319-.893-.319-.243.08-.568.32-.893.32H90.1c0-.24-.081-.56.406-.719-.487-.08-.893-.08-1.461 0-.081.4-.325.639-.325.958-.243.16-.325.399-.568.638 0-.479.243-.957.325-1.436-.325.08-.731.319-.893.319-.65-.32-1.462-.638-1.786-.638.487.319.243.877.324 1.276l-.324-.16c-.082-.318-.487-.558-.569-.957-.486 0-.811.16-1.217.4V.66c.243 0 .568.24.73.479-.568 0-.974-.24-1.542-.24 0 0 0-.08-.081-.08-.244.08-.487.32-.65.48-.568.478-.974.877-1.217 1.596.162 0 .406 0 .487.08-.325.08-.487.478-.812.558v1.197c-.243.24-.568.479-.73.958-.406 1.277-.487 2.702-.487 4.298-.082.32-.244.4-.406.479v1.277s.487-.479.73-.639v1.038c-.324 0-.568.399-.568.638 0 .32.081.639.081.958 0 .16 0 .16.081.32 0-.16.163-.32.406-.4 0 0 .163-.16.487-.16-.243.24-.324.56-.487.879l-.243.239s-.081.16-.081.24c.324 1.664.811 3.1 1.46 4.685-.649 1.038-1.38 3.021-1.855 4.925-.406-.399-.974-.478-1.46-.478-.488.08-.975.239-1.3.718-.487-.24-1.136-.16-1.45.16-.73.638-.73.957-.73 1.436-.162.16-.487.559-.487 1.117 0 .718.081 1.197.487 1.824h12.293c-.082-.239-.244-.558-.406-.718-.244-.479-.082-1.117-.082-1.585.244-.478.487-.957.812-1.356.081-.24 0-.24.081-.32l.569-.16c.324 0 .568-.239.974-.239.243.4.243-.239.65-.399.892-.16 1.785 0 2.272.639 0 .16.081.16.081.24h-.406c-.487-.24-1.055-.48-1.623-.24 0 .24-.081.24-.081.479v.399c.324 0 .568.319.892.479.163-.24.65-.48.975-.48.405 0 .974.24.974.879v.877c.324.32.73.4 1.136.56-.162.318-.406.318-.65.318h-.649c-.08-.08-.243-.08-.243-.319-.244.32-.406.639-.568.958h9.462c-.162-.32-.324-.559-.406-.718-.162-.48-.162-1.118-.162-1.585l.893-1.197c.487 0 .893-.16 1.774-.24.163-.24 0-.399.731-.399.568 0 .974.16 1.136.24.081.16.081.16 0 .319-.162.16-.487-.16-.73-.08-.163.16.081.24.081.4.162.159-.731-.16-.731-.16s-.162.478-.243.638l.487.479c.162.24-.244.479-.244.718-.162-.08-.487-.32-.487-.24-.162.64 0 1.198-.081 1.825h.893l.081-1.357c.081-.798 1.055-2.223 1.624-2.223.324 0 .568.16.811.32.163.318.569.478.569.638 0 .16-.244.239-.65.239-.162 0-.162-.24-.406-.399l-.487.479s.569.479.569.798c0 .399-.082.559-.325.798l-.487-.958c-.244 0-.65.48-.65.719 0 .319-.162.478-.162.957h5.033c.568 0 1.055-.16 1.623-.479h.975c2.017 0 3.641-.558 5.09-1.983 1.949-1.904 3.073-4.926 3.073-7.867 0-3.557-1.449-7.057-4.047-9.6zm-7.92-4.138c-.162-.24-.406 0-.568 0-.163 0-.244 0-.569-.24.487 0 .731-.24 1.137-.399.325.24.649.32.893.639h-.893zm2.586 1.197c-.244-.32-.568-.719-.893-.719.244 0 .568-.239.974-.239.162.4.487.639.568.958l.081.479c-.162-.32-.487-.48-.73-.48zm-13.348 10.5l-.406.16c-.892 0-1.298-.24-1.704-.559.325 0 .73-.399.73-.399.406.4.974.718 1.38.798zm-4.21-.878c-.405.08-.73-.319-1.136-.479-.162-.479-.162-.957-.324-1.197.324.24 1.055.24.893.958 0 .24.324.399.568.718zm0 2.622c.244.08.65.32.894.48h-.244c-.893.319-1.612-.24-2.342-.719.406-.16.974-.24 1.461-.24l.232.48zm.163-1.265c.325-.24.73-.24.893-.32.325.32.65.879 1.218 1.198-.325 0-.893 0-1.218-.24-.487-.239-.65-.399-.893-.638zm-.881 4.925c0-.24.162-.479.487-.638.487.16.893-.878 1.38-.32.244.08.487.08.65.08.568.24.73.719.973 1.118-.405 0-.73 0-.974-.4-.08 0-.243-.239-.324-.08-.406.32-.812-.239-1.3-.159a1.61 1.61 0 01-.892.479v-.08zm4.035-8.425c-.08.32-.405 0-.487 0h-.73c-.081-.16-.163-.24-.163-.4.325-.079.569-.239.812-.079.163.24.325.479.569.479zm-1.53-3.42c.162.319.162.478.324.638.325-.16.325.24.406.32.081.239.244.478.244.717-.487 0-.73-.239-.974-.718 0-.25-.081-.558 0-.958zm-.65 3.899l.812.718c-.487 0-1.055.24-1.299-.24.163-.09.325-.33.487-.478zm-.08-6.054c0 .08-.163.798-.163.798l-.65.16.406-1.745c.163.32.406.627.406.787zM82.666 2.497c.162 0 .406-.08.487-.24.406-.08.65-.479 1.136-.24.325 0 .65.16.893.24 0 .16 0 .24.162.4.487 0 .487.478.731.877.244.08.487.08.65.08.487.16.892.16 1.055.399.65-.4 1.298-.479 2.017-.4.082-.239.244-.558.325-.957.081.24.081 0 .244 0 .324-.24.73-.638 1.298-.479.325.24.893.08 1.218.48.244.318.406.797.65 1.196-.244.48 0 1.118-.487 1.357l-.488.479c-.162 0-.162.16-.405.16.243.558.08 1.356-.163 1.903.163-.08.406-.08.406-.319.081.08 0 .24 0 .32v.239c0 .399-.243.798-.568 1.117-.163.479-.568 1.117-1.137 1.197v.16c1.218 0 2.18.32 3.317.878v.558c-.974-.558-2.018-.957-3.235-1.037 0 .24 0 .479-.082.559.974.478 1.856.878 2.668 1.596v.718c-.812-.798-1.705-1.585-2.749-1.824-.08.16-.406.32-.487.638-.568-.399-1.217-.798-1.855-.878-.244 0-.406-.877-.406-.877.406-.16.65-.4.812-.799h.324c.244 0 .244-.16.244-.399 0-.478-1.055-.478-1.53-.478-.57 0-.975 0-1.3.239-.162 0-.08.24-.08.4 0 .079.243.238.243.238.162 0 .324-.16.487-.16-.081.48.08.72.568.959l-.081.798c-.974 0-1.624.399-2.343.718-.243-.16-.406-.4-.568-.639-.974.32-2.667 1.585-2.667 1.585V12.7c.73-.638 1.705-.957 2.424-1.356v-.559c-.325-.16-.65 0-.974 0-.731.08-1.462.4-1.949.798 0-.24-.08-.558-.08-.558.892-.48 2.017-.878 3.072-.719v-.319c-.081-.16-.081-.399-.243-.399-.487-.479-.975-1.197-.975-1.665l.325-.16c-.162-.478-.325-1.664 0-2.063-.487-.24-.974-.638-1.136-.957-.163-.4-.325-.639-.406-1.118.232-.49.394-.65.638-1.128zm7.514 14.878c-.406-.24-1.136-.32-.974-.798.162-.4.406-.479.568-.639.081.56.163.958.406 1.437zm-5.01-2.315l-.243 1.038c-.243-.479-.487-.958-.568-1.516l.811.478zm-1.055 1.277c-.487-.16-1.055-.638-1.299-1.037a2.373 2.373 0 01-.243-.958c.325 0 .568.24.65.4v.08c.405.478.811.877.892 1.515zm-.893.958c0 .32-.162.718-.568 1.117-.081.08-.325.24-.325.24 0-.479.244-.878.244-1.277.255-.08.487-.24.65-.08zm.812.946c.081-.08.162 0 .325 0l-.325 1.198c-.406.319-.974.16-1.45.16.638-.16 1.125-.879 1.45-1.358zm-2.83-12.564c.163-.239.244-.478.488-.718v.958l-.569.16.082-.4zm0 1.597l.65-.24-.406.479c.081.798-.243 1.357-.243 2.064L80.8 8.3c.08-.308.162-.627.406-1.026zm-.08 9.223c.08-.32.324-.479.405-.559.244.08.406.08.73.16-.405.4-.81.559-.973 1.038 0-.24-.082-.48-.163-.639zm-5.184 10.66c-.081 0-.325-.24-.569-.24-.243.48 0 .799 0 1.346 0 .24-.08.479-.08.479-.163 0-.488-.32-.569-.639v-1.277l.73-.878c.488.331.65.81.488 1.21zm1.867 0c-.081-.32-.325-.718-.73-.718-.326.638-.407.878-.082 1.824-.243.24-.406.32-.73.479-.163-.32-.163-.878-.163-1.197 0-.559.081-1.118.244-1.585.243-.24.406-.639.649-.878h.893c-.406 0-.406.4-.406.639.244.08.568.16.568.558 0 .32-.08.639-.243.878zm2.018 1.106c0-.4.243-.878.243-1.345 0 0-.325-.32-.65-.32-.243.16-.243.32-.324.56-.243.478-.73.957-.812 1.436-.08 0-.08-.08-.08-.08 0-.798.08-2.144.567-2.702.406-.48.73-.48 1.218-.559l.406.08-.325.479c.325.16.812.479.812.957 0 .628-1.055 1.494-1.055 1.494zm3.073-1.505l-.569-1.436c-.649-.639-1.38-.719-1.774-1.038-.325-.08-.325.16-.487 0 0-.16 0-.399.244-.639h.487l.487.24c.243.24.811.24.811.718 0 .08-.08.16.163.48l.812.239.08.638-.254.798zm.892-1.436c-.162-.24 0-.639-.243-.878 0-.16.162-.24.081-.32-.081-.16-1.055-.479-1.055-.479-.325-.239-.73-.478-1.055-.797-.325-.08-.569.08-.975.16v-.16c.163-.32.163-.719.65-.719.243 0 .568 0 .73.24.325 0 .488.319.731.399.406.399.73.558.974.718 0 .24.081.399.244.479.487 0 .324.479.487.798l-.569.558zm.894-1.825c-.163-.558-.569-1.117-1.056-1.117-.243-.24-.487-.479-.568-.718-.244-.24-.487 0-.812-.24-.325 0-.73 0-1.055.24v-.24l.568-.638c.568.08 1.299 0 1.461.399.406.24.812.479.893.638v.24c.163.08.487.16.65.24 0 .239-.082 1.196-.082 1.196zm.88-3.899c-.243 0-.649.16-1.136 0 .244-.16.487-.24.812-.479l.65-.638h.649c-.244.479-.476.957-.974 1.117zm.256-3.58c.243 0 .487 0 .73.16 0 .399.163.718.163 1.197-.499-.479-.893-.878-.893-1.357zm.243 4.777c.082-.24.325-.319.488-.558.162-.24.486-.639.568-.878.406-.24.568-.24.893-.24-.082.48-.325.639-.73 1.197-.256.16-.743.24-1.219.48zM87.19 22.3l-.487-.638h1.218l.243.479c-.324.239-.568.239-.974.16zm.569-4.686l-.163-.798c.244-.16.487-.319.812-.718 0 .559-.081 1.277-.65 1.516zm.974-4.138c-.082 0 0 .24-.082.24 0 .159-.162.478-.162.797-.162.08-.487.24-.812.08v-.24c-.08-.159-.08-.478-.08-.638l-.082-.08c-.243.08-.243.24-.243.4-.082.16-.244.319-.244.558-.325 0-.487-.08-.73-.24v-.718c0-.16 0-.16-.082-.16l-.406.4c-.324-.24-.406-.878-.406-1.277 1.3-.718 2.911-.479 3.885-.08.163.08.325.08.487.16-.08.479-.243 1.197-.73 1.505 0-.308-.151-.468-.313-.707zm1.45 8.585c-.082 0-.65-.24-.813-.4-.08-.239-.08-.478-.08-.478h.649l.406.878h-.163zm0-2.144c-.488-.399-.813-.878-1.3-1.516l1.3.24c.243.16.73.718.973.957-.162.16-.65.32-.974.32zm.892-3.02c-.487-.72-.243-1.358 0-1.905.163.479.244.958.325 1.357.081.32.568.479.73.718-.324.069-.892.228-1.055-.17zm.325 7.08l.406-.959c.324 0 .568-.16.73-.16.325-.079.569-.079.812-.079v.08c.893 0 1.937-.08 2.586.638l.081.639c-.325-.24-.812-.24-.974-.639-.325-.08-.568-.08-.974-.08-.325.08-.73.08-1.055.08-.081 0 0-.08-.163-.16-.475.16-.962.16-1.45.64zm2.586 2.94l-.244.24c-.243-.24-.08-.878-.487-.958-.406 0-.73-.399-.893-.479l.325-.16s.162-.079.325 0c.162.16.324.24.324.4.163.24.406 0 .569.24.08.239.162.558.08.718zm2.505-.159c-.163-.479-.325-1.197-.893-1.197-.081-.32-.163-.479-.487-.718l-.65-.08c.081.32.569.32.244.798.325.24.568.24.73.638.163.24 0 .559.082.719l-.488.24c0-.4.082-1.198-.487-1.358-.487.16-.568-.479-.892-.718-.163 0-.163-.399-.406-.24-.406.24-.893 0-1.3.24l.407-.638c.324-.24.65-.16.974-.24l.65-.08c.649 0 1.205.32 1.855.559.324.16.487.4.487.798.162.08.487.08.487.32-.07.159-.232.638-.313.957zm1.136-1.197c-.162-.24-.243-.479-.406-.479.244-.878-.243-1.585-.406-2.303v-.24c.244.4.893.799.812 1.198.081.718.081 1.357.081 1.824h-.08zm-.812-9.942l.65-.319c.243.24.568.32.73.399-.243.24-.893.32-1.38-.08zm5.509 1.277c.162.16.324.24.487.479v.638c-.731-.399-1.137-1.117-1.775-1.824.638-.011.801.627 1.288.707zm-3.642.16c.244.24.569.558.569.798s-.163.319-.325.479c0 0-.325-.4-.325-.559 0-.32 0-.479.081-.718zm.73 5.962c0-.478-.08-.877-.405-1.197 0-.16.244-.16.081-.399 0 0-.487-.24-.487-.558 0-.32.325-.559.487-.798 0-.08.325.16.325.638 0 .08 0 .32-.081.479-.081.24.487.24.487.479-.012.479-.337.878-.406 1.357zm.882-3.42c0 .16-.243.32-.324.32 0 0-.406-.4-.487-.799-.082-.319.243-.878.243-.878.081 0 .162.16.244.16.081.08 0 .32.081.559.243.16.406.479.243.638zm.731 4.139c.162-.4.162-1.197 0-1.197-.162-.08-.487 0-.487-.16 0-.24.081-.559.081-.718 0-.32-.244-.48-.244-.639 0-.479.569-.558.731-.878.081.32.081.639.081 1.038 0 .16.244.638 0 1.037 0 .24.487.08.487.32 0 .399-.487.878-.649 1.197zm1.299-1.916c-.244 0-.244-.16-.244-.479-.081-.478-.243-.877-.406-1.356-.162-.639-.568-1.197-.893-1.904-.081-.32-.487-.479-.811-.718.405 0 .811 0 1.136.319 0 .16.081.24.325.479.568 0 .406.718.893 1.037-.244.24-.325.4-.487.559.243.16.487.24.568.479 0 .479-.081 1.026-.081 1.584zm1.125-.786c-.163-.48-.488-.958-.65-1.437 0-.08-.081-.08.081-.16.081 0 .406 0 .406.08.081.16.244.4.244.639 0 .319-.163.558-.081.878zm4.371-2.395c-.162-.16 0-.478-.406-.478-.162 0-.405.239-.405.239-.163.08-.65-.24-.65 0 0 .4-.324.559-.73.559-.163 0-.325 0-.487-.08v-.798c1.055 0 .974-.32 1.461-.32.324 0 .568.16.811.16.406 0 .163-.16.569-.16.406 0 .568.32.811.4 0 .239.244.558.244.878-.568 0-1.136-.16-1.218-.4zm.487 2.155c-.243-.08-.811-.16-.811-.399 0-.319-.163-.399-.569-.399-.324 0-.568.08-1.055.24 0 0-.243-.32-.325-.639.163-.08.812-.24 1.137-.24.568 0 1.136 0 1.136.24 0 .32.487.4.487 1.197zm-.893-4.458c.244 0 .406-.16.569-.16.406 0 .73.64.811 1.118-.649-.399-1.611-.638-2.18-.638-.324 0-1.298.399-1.612.718l-.162-.718c.487-.08.487-.48.812-.48.243 0 .568-.079.812-.079.243 0 .405-.16.487-.16.382 0 .22.4.463.4zm-2.504-1.037c.243-.24.649-.559.974-.559.568 0 1.055.4 1.055.798-.487 0-.568-.08-.893-.08-.406 0-.893.16-1.136.56-.163-.32-.082-.48 0-.719zm.243-2.064c.325-.16.487-.08.65 0 0 .48.568.24.893.4.162.239.243.398.324.718-.568-.16-.893-.4-1.368-.4-.163 0-.893.24-.974.4-.255-.32.15-.958.475-1.118zm1.531 12.085c-.406-.239-.649-.319-1.137-.319 0-.319-.243-.718-.405-.718-.487 0-.406.32-.812.32l.73-.719c.082-.16.082-.16.244-.16.243.16.325.24.568.24 0 .16 0 .24-.081.479.244.16.406-.08.568.16.244.079.487.159.487.478 0 .08-.162.24-.162.24zm.812-1.117c-.569-.08-.569-.718-.65-.798-.406-.479-.962-.08-1.368-.08-.162-.479.081-.479.081-.798.244 0 .487-.16.731 0 .406-.16.649.24 1.055.24.081.16.243.558.325.638-.012.33-.093.41-.174.798zm.406-1.664c-.569 0-.244-1.118-1.462-1.118-.243 0-.405.4-.73.48 0-.08.081-.56.081-.56a.73.73 0 01.406-.638c.649 0 .487.24.974.4.243.079.406.239.731.239v1.197zm1.124 3.66c0-.4-.487-.64-.811-1.357l.324-.559c.244.16.569.399.569.798 0 0-.082.24 0 .4 0 .079.162.079.162.239-.151.239-.151.239-.244.478zm.569-1.597l-.487-.718c.162-.24.162-.559.405-.958.082 0 .325.559.325.639 0 .49 0 .638-.243 1.037zm-7.921 1.676c.325.16.325.559.325.639 0 .24-.162.479-.325.638-.162-.16-.162-.399-.324-.638-.163 0-.244.399-.244.558 0 .719.325 1.277.568 1.745h.731c-.081-.639-.244-1.198-.244-1.904 0-.4.244-.878.325-1.118l-.812.08zm-10.436.479c-.163 0-.569.24-.569.4 0 .318-.162 2.063-.162 2.063h.568c.244-.719.73-1.676.73-2.064 0-.32-.243-.399-.567-.399zm-1.949-.32c-.162 0-.406.48-.406.64 0 .638.163 1.516.406 2.143h.65c0-.719.08-1.517.08-2.144-.08 0 .082.16-.73-.638zm-.881-.638l-.893.16c-.243.32-.325.479-.325.638l.406-.16c.081 0 .162.16.244.32-.082.4-.569.4-.73.559-.244.798.486 1.277.567 1.904h.974c-.405-.719-.487-1.825-.487-2.064 0-.399 0-.958.244-1.357zM91.886 5.2h.243c.244-.24.406 0 .569-.24.162-.399.162-1.117-.163-1.516-.162-.32-.568-.479-.962-.798l-.569.319c-.324.16-.487.479-.487.878.557.25 1.125.89 1.369 1.357zM88.65 4.81c.406 0 .244.559.569.638h.73c0-.239-.08-.239-.162-.239-.406 0-.406-.638-.73-.479-.163 0-.325-.16-.569 0 0 .08 0 .08.162.08zm.244 1.744h-.162c.162.639.162 1.357.162 2.064.325.08.65.24.65.718.324.16.649.24.974.48.162-.08.243-.32.324-.56-.325-.399-1.055-.16-1.055-.877l-.487-.16c0-.479 0-.958-.081-1.277l.08-.08c0 .08.082.16.244.32.325 0 .65.08.974-.16.163-.08.163-.479.325-.479s.325 0 .406-.16c0 0 .162 0 0-.08l-1.774-.239c-.186.25-.58.25-.58.49zm-1.705-1.824c-.162-.16-.65.08-.893.16-.324.08-.568.319-.568.558h.893c.081-.25.406-.57.568-.718zm-3.316.08c.324-.24 1.136-.798 1.53-.958-.08-.798-.974-.878-1.38-1.197H83.7c-.65.24-.812.878-.893 1.437.255.718.742.24 1.067.718zm5.415 6.043l.893.319v-.4h-.812l-.08.08zm-4.603-4.299c0 .32.243.4.324.48.244.159.325.159.568 0 .244.159.325-.16.406 0 0 .478 0 .717-.08 1.117-.082.558-.57.478-.975.718 0 .24-.243.638 0 .878.243-.16.406-.24.812-.4 0-.239.243-.478.568-.638 0-.718.243-1.436.243-2.143 0-.16-.162-.32-.405-.48h-1.937c-.012.309.232.468.475.468zm.243 4.06c0 .159 0 .318.243.478.244-.24.65-.32.731-.32-.162-.319-.568 0-.974-.159z" fill="#E5E5E5"/></svg>