<svg viewBox="0 0 683 435" fill="none" xmlns="http://www.w3.org/2000/svg"><path d="M110.682 245c-135.2 12.4-115 131.833-88 190l679.5 185.5c37.167-205.833 89.2-617.5 0-617.5-111.5 0-247.5 77-306.5 177s-116 49.5-285 65z" stroke="#16AAF4" stroke-width="5"/><path opacity=".6" d="M134.682 275c-135.2 12.4-115 131.833-88 190l679.5 185.5c37.167-205.833 89.2-617.5 0-617.5-111.5 0-247.5 77-306.5 177s-116 49.5-285 65z" stroke="#16AAF4" stroke-width="3"/><path opacity=".6" d="M142.682 291c-135.2 12.4-115 131.833-88 190l679.5 185.5c37.167-205.833 89.2-617.5 0-617.5-111.5 0-247.5 77-306.5 177s-116 49.5-285 65z" stroke="#16AAF4" stroke-width="3"/><path opacity=".3" d="M150.682 309c-135.2 12.4-115 131.833-88 190l679.5 185.5c37.167-205.833 89.2-617.5 0-617.5-111.5 0-247.5 77-306.5 177s-116 49.5-285 65z" stroke="#16AAF4" stroke-width="5"/></svg>