<svg viewBox="0 0 96 96" fill="none" xmlns="http://www.w3.org/2000/svg"><path d="M8.147 81.635h79.707c4.026 0 7.302-2.715 7.302-6.05v-6.052h-5.713v-50.05a5.124 5.124 0 00-5.118-5.118H10.429a5.123 5.123 0 00-5.117 5.117v50.051H.846v6.051c0 3.336 3.275 6.051 7.301 6.051zM6.812 19.482a3.622 3.622 0 013.617-3.617h73.896a3.622 3.622 0 013.618 3.617v50.051H6.812v-50.05zM2.346 71.033H93.657v4.551c0 2.51-2.603 4.551-5.802 4.551H8.147c-3.2 0-5.802-2.04-5.802-4.55v-4.552h.001z" fill="#212A3F"/><path d="M40.506 76.184v-1.2h14.987v1.2H40.506z" fill="#212A3F" stroke="#FB5F61" stroke-width=".3"/><path d="M59.033 24.63v3.526h1.5v-6.087h-6.087v1.5h3.526L34.72 46.822l1.061 1.06 17.355-17.354v13.504H40.117v6.756h-13.02V63.33h40.56V30.51H53.153l5.88-5.88zm-17.416 20.9h11.519v14.845H41.617V45.53zm-13.019 6.757h11.52v8.088h-11.52v-8.088zM54.636 32.01h11.521v28.365H54.636V32.01z" fill="#FB5F61"/></svg>