<svg viewBox="0 0 96 96" fill="none" xmlns="http://www.w3.org/2000/svg"><path d="M90.184 70.156V19.209A5.215 5.215 0 0084.974 14H9.754a5.215 5.215 0 00-5.208 5.209v50.947H0v6.16c0 3.395 3.334 6.159 7.433 6.159h81.134c4.098 0 7.433-2.764 7.433-6.16v-6.159h-5.816zM6.073 19.209a3.686 3.686 0 013.682-3.682h75.219a3.687 3.687 0 013.683 3.682v50.947h-8.823V55.934a4.22 4.22 0 003.456-4.143 4.225 4.225 0 00-4.22-4.22 4.225 4.225 0 00-4.22 4.22 4.222 4.222 0 003.457 4.143v14.223h-7.7v-7.493l-4.445-2.815c.104-.366.177-.744.177-1.143a4.225 4.225 0 00-4.22-4.22 4.225 4.225 0 00-4.22 4.22 4.225 4.225 0 004.22 4.22 4.203 4.203 0 003.364-1.7l3.598 2.278v6.652H26.917v-6.652l3.599-2.278a4.203 4.203 0 003.365 1.7 4.225 4.225 0 004.22-4.22 4.225 4.225 0 00-4.22-4.22 4.225 4.225 0 00-4.22 4.22c0 .399.073.776.177 1.142l-4.447 2.816v7.493h-7.7V55.934a4.22 4.22 0 003.457-4.143 4.225 4.225 0 00-4.22-4.22 4.225 4.225 0 00-4.22 4.22 4.222 4.222 0 003.456 4.143v14.223H6.073V19.209zM79.07 54.484a2.697 2.697 0 01-2.693-2.693 2.698 2.698 0 012.693-2.694 2.698 2.698 0 012.694 2.694 2.697 2.697 0 01-2.694 2.693zm-14.258 4.22a2.697 2.697 0 01-2.693 2.694 2.698 2.698 0 01-2.694-2.694 2.698 2.698 0 012.694-2.693 2.697 2.697 0 012.693 2.694zm-33.625 0a2.697 2.697 0 012.693-2.693 2.698 2.698 0 012.694 2.694 2.698 2.698 0 01-2.694 2.693 2.697 2.697 0 01-2.693-2.694zm-14.26-4.22a2.697 2.697 0 01-2.694-2.693 2.698 2.698 0 012.694-2.694 2.698 2.698 0 012.693 2.694 2.697 2.697 0 01-2.693 2.693zm77.545 21.831c0 2.555-2.65 4.633-5.906 4.633H7.432c-3.257 0-5.906-2.078-5.906-4.633v-4.632h92.946v4.632z" fill="#212A3F"/><path d="M55.78 75.552H40.217v1.527H55.78v-1.527z" fill="#212A3F"/><path d="M47.364 53.77c8.27 0 14.998-6.728 14.998-14.998 0-8.272-6.727-15-14.998-15-8.27 0-14.998 6.727-14.998 14.999 0 8.27 6.728 14.999 14.998 14.999zm0-28.472c7.429 0 13.471 6.044 13.471 13.473 0 7.429-6.043 13.47-13.47 13.47-7.428 0-13.472-6.041-13.472-13.47 0-7.43 6.042-13.473 13.471-13.473z" fill="#FB5F61"/><path d="M46.911 39.4c1.837 1.264 3.584 2.769 2.629 4.337-.42.692-.913 1.062-1.509 1.131-1.314.172-2.897-1.136-3.4-1.645l-1.089 1.071c.071.073 1.39 1.378 3.03 1.893v3.001H48.1v-2.797c.035-.003.07-.002.106-.006 1.08-.125 1.969-.75 2.64-1.854 1.837-3.013-1.725-5.465-3.12-6.426-2.507-1.736-3.287-3.065-2.532-4.306.42-.69.912-1.06 1.507-1.13 1.314-.148 2.899 1.139 3.402 1.648l1.089-1.071c-.074-.075-1.42-1.43-3.09-1.93v-2.964h-1.528v2.797c-.016.002-.03 0-.046.003-1.08.125-1.967.748-2.639 1.853-1.844 3.027 1.775 5.533 3.023 6.395z" fill="#FB5F61"/></svg>