<svg viewBox="0 0 96 96" fill="none" xmlns="http://www.w3.org/2000/svg"><path d="M48 .752c12.016 0 23.342 4.464 32.102 12.594l-.001-10.918h1.5l.001 13.438-13.438-.001v-1.5l10.834.001C70.528 6.544 59.596 2.252 48 2.252 22.774 2.252 2.252 22.774 2.252 48c0 12.225 4.762 23.715 13.409 32.356a46.114 46.114 0 004.168 3.689l.264.205-.916 1.188-.271-.21a47.776 47.776 0 01-4.306-3.812C5.67 72.493.752 60.625.752 48 .752 21.947 21.947.752 48 .752z" fill="#212A3F"/><path d="M93.708 46.057l1.498-.063a47.728 47.728 0 01-1.315 13.294l-1.457-.357a45.944 45.944 0 001.274-12.874z" fill="#FB5F61"/><path d="M43.947 93.571l-.131 1.494a46.995 46.995 0 01-13.012-3.045l.547-1.396a45.51 45.51 0 0012.596 2.947zM69.765 89.945a46.94 46.94 0 01-12.61 4.416l-.29-1.473a45.468 45.468 0 0012.209-4.273l.69 1.33zM88.896 71.679a47.386 47.386 0 01-8.268 10.493l-1.035-1.084a45.928 45.928 0 008.006-10.163l1.297.754zM92.748 32.798l-1.42.482a45.545 45.545 0 00-2.255-5.448l1.346-.662a47.025 47.025 0 012.329 5.628z" fill="#212A3F"/><path d="M48.136 31.927c-8.632 0-15.655 7.023-15.655 15.654 0 8.63 7.023 15.652 15.654 15.652 8.633 0 15.656-7.021 15.656-15.652s-7.023-15.654-15.655-15.654zm0 30.484c-8.179 0-14.832-6.653-14.832-14.83 0-8.178 6.653-14.832 14.831-14.832 8.18 0 14.834 6.654 14.834 14.832-.001 8.177-6.655 14.83-14.834 14.83z" fill="#FB5F61" stroke="#FB5F61" stroke-width=".7"/><path d="M67.734 47.252l6.887-3.143-1.201-5.212-7.711-.147a19.83 19.83 0 00-4.82-6.148l1.858-7.423-.25-.16a26.289 26.289 0 00-4.305-2.223l-.28-.114-4.842 5.841a19.268 19.268 0 00-2.037-.423 19.558 19.558 0 00-6 .058L40.326 22l-4.8 2.018 1.542 7.373a19.587 19.587 0 00-6.023 6.675l-7.728-.163L22 42.562l6.706 3.388a19.482 19.482 0 001.76 9.796l-4.856 5.838 2.77 3.683 6.856-3.143a19.45 19.45 0 009.14 4.502l1.524 7.368 4.687-.003 1.85-7.453a19.652 19.652 0 008.52-4.265l6.687 3.39 3.067-3.978L66 55.541a19.577 19.577 0 001.544-5.24c.14-.967.202-1.969.189-3.05zm-1.004 2.932a18.768 18.768 0 01-1.58 5.236l-.105.227 4.626 6.037-2.263 2.934-6.575-3.333-.21.186a18.814 18.814 0 01-8.607 4.315l-.254.053-1.82 7.327-3.37.002-1.5-7.252-.274-.05c-3.465-.634-6.65-2.202-9.211-4.535l-.201-.183-6.747 3.092-1.978-2.63 4.778-5.745-.116-.24a18.648 18.648 0 01-1.772-9.88l.026-.28-6.599-3.333.958-3.391 7.596.16.119-.225a18.75 18.75 0 016.105-6.757l.231-.154-1.515-7.25 3.585-1.508 4.626 6.05.247-.044a18.678 18.678 0 015.984-.097 18.9 18.9 0 012.197.472l.257.07 4.794-5.784a25.48 25.48 0 013.641 1.88l-1.838 7.347.198.165c2.074 1.733 3.774 3.901 4.915 6.27l.11.228 7.572.144.905 3.93-6.768 3.087.006.272a19.006 19.006 0 01-.173 3.187z" fill="#FB5F61" stroke="#FB5F61" stroke-width=".7"/></svg>