<svg viewBox="0 0 95 51" fill="none" xmlns="http://www.w3.org/2000/svg"><path fill-rule="evenodd" clip-rule="evenodd" d="M21.224 34.754h.405c4.689 0 7.798 1.662 7.798 4.668 0 2.608-3.163 5.457-8.096 5.457h-.668l-.001-2.823.685-.056c1.614-.213 2.37-.707 2.33-2.314-.035-1.392-1.375-1.834-2.722-1.834H19.42V50.09h-5.685v-13.3s4.403-.662 7.489-2.036zm26.366 7.101v7.631c-2.196.558-4.03.803-5.683.803-6.019 0-10.978-3.122-10.978-8.23 0-4.728 4.357-7.901 10.642-7.918 1.957-.005 6.465.95 7.962 1.71l-2.96 2.493c-1.016-.327-1.672-.956-4.718-.947-2.58.01-5.243 1.45-5.243 4.84 0 3.323 2.866 4.794 4.726 4.794.181 0 .465-.022.802-.11v-5.067l5.45.001zm19.713 0v7.631c-2.197.558-4.03.803-5.684.803-6.02 0-10.978-3.122-10.978-8.23 0-4.728 4.357-7.901 10.642-7.918 1.958-.005 6.465.95 7.962 1.71l-2.96 2.493c-1.016-.327-1.67-.956-4.716-.947-2.581.01-5.244 1.45-5.244 4.84 0 3.323 2.867 4.794 4.727 4.794.18 0 .465-.022.802-.11v-5.067l5.449.001zm16.945-5.588c-1.935-3.673-6.051-1.38-7.378-.188v-1.414h-5.006v15.424h5.006v-9.441c.18-2.904 3.789-2.662 3.668 0v9.441h4.708v-9.257c.18-2.905 3.79-2.662 3.669 0v9.257h5.103V39.084c0-7.237-8.556-4.583-9.77-2.817z" fill="#B8B8B8"/><path fill-rule="evenodd" clip-rule="evenodd" d="M49.11 32.078c-5.148.376-10.194-1.644-14.449-5.797-2.317-2.261-2.751-2.258-5.645-3.143 5.05-.885 6.427.448 10.678 3.628 2.601 1.571 5.507 2.791 8.387 3.342 5.1.456 9.807-1.087 14.842-2.307.02 0-7.998 3.854-13.813 4.277z" fill="#E5E5E5"/><path d="M.5 35.848c10.746 1.232 17.224-.23 25.42-4.52 4.43-2.32 6.669-3.268 9.289-3.378-1.959-1.305-4.095-.989-8.696.432C17.287 31.23 13.087 34.397.5 35.848zM85.681.289c-8.094 10.905-16.537 17.668-32.833 19.253-6.213.604-10.617 3.742-12.963 6.05.5-2.914 2.431-5.903 7.843-7.6C58.994 14.458 73.582 10.582 85.681.29z" fill="#E5E5E5"/></svg>