<svg viewBox="0 0 24 24" fill="none" xmlns="http://www.w3.org/2000/svg"><g clip-path="url(#clip0)" fill="#FB5F61"><path d="M1.988 5.775v1.5c0 .788.3 1.388.712 1.913.6.487 1.2.787 1.988.787h2.587c.788 0 1.388-.3 1.913-.787.487-.488.712-1.2.712-1.913v-.787c1.012-.188 2.1-.3 3.3-.113.3 0 .488.113.788.113v.787c0 1.613 1.087 2.7 2.7 2.7h2.625c.712 0 1.387-.3 1.912-.787.525-.488.712-1.088.712-1.913V5.588c0-.9-.3-1.688-.787-2.288-.787-.9-1.8-1.5-2.4-1.8C17.1.75 15.488.263 13.5.075c-2.512-.187-4.912.113-7.2.9-1.575.45-3.187 1.913-3.187 1.913-.825.787-1.125 1.762-1.125 2.887 0 0 0-.112 0 0zm2.512-1.5c.788-.787 1.65-1.012 2.513-1.387a14.772 14.772 0 016.3-.825c1.8.187 3.187.487 4.612 1.2.488.187 1.2.6 1.688 1.312.337.525.412.6.412 1.013v1.687c0 .188.038.3-.188.525-.112.113-.187.15-.487.15h-2.588c-.3 0-.712-.112-.712-.712V5.625c0-.412-.188-.787-.6-1.012-.6-.188-2.25-.638-3.412-.6-1.838.037-3.263.6-3.263.6-.562.3-.712.487-.712 1.012v1.613c0 .187 0 .412-.188.487 0 0-.112.188-.412.188H4.875a.835.835 0 01-.487-.188c-.188-.187-.3-.412-.3-.6V5.513c.037-.6.112-.863.412-1.238zM22.125 13.8c-.113-1.012-1.012-1.8-1.988-1.8H3.9c-1.012 0-1.912.788-1.987 1.8l-.825 7.988c-.113.6.112 1.087.487 1.5.375.412.9.712 1.5.712h17.812c.6 0 1.088-.187 1.5-.712.413-.413.6-1.013.488-1.5l-.75-7.988zm-19.05 8.213l.788-8.025H20.1l.787 8.025H3.075z"/><path d="M12 15c-1.688 0-3 1.313-3 3 0 1.688 1.313 3 3 3 1.688 0 3-1.313 3-3 0-1.688-1.313-3-3-3zm0 3.975c-.6 0-1.012-.413-1.012-1.013 0-.6.412-1.012 1.012-1.012.6 0 1.012.413 1.012 1.012 0 .6-.412 1.013-1.012 1.013z"/></g><defs><clipPath id="clip0"><path fill="#fff" d="M0 0h24v24H0z"/></clipPath></defs></svg>