<svg viewBox="0 0 96 96" fill="none" xmlns="http://www.w3.org/2000/svg"><path d="M75.38 56.36L57.695 74.044V56.912h-1.565v19.806h19.805v-1.566H58.801l17.686-17.687-1.106-1.106zM20.066 20.849h17.133L19.513 38.535l1.106 1.106 17.686-17.686v17.133h1.565V19.283H20.066v1.566z" fill="#FB5F61"/><path d="M57.148 11.791v38.12h38.59V.262H68.677l-11.529 11.53zM68.22 2.932v8.401h-8.4l8.4-8.4zm25.954 45.415h-35.46v-35.45h11.072V1.828h24.388v46.52z" fill="#212A3F"/><path d="M87.313 23.108h-21.74v1.565h21.74v-1.565zM87.313 34.883h-21.74v1.566h21.74v-1.566zM.261 57.619v38.12h38.59V46.09H11.79L.26 57.618zm11.072-8.858v8.4h-8.4l8.4-8.4zm25.954 45.413H1.827v-35.45H12.9v-11.07h24.388v46.52z" fill="#212A3F"/><path d="M30.426 68.934H8.687V70.5h21.739v-1.566zM30.426 80.709H8.687v1.565h21.739V80.71z" fill="#212A3F"/></svg>