<svg viewBox="0 0 96 97" fill="none" xmlns="http://www.w3.org/2000/svg"><g clip-path="url(#clip0)"><path d="M90.621 21.57c-22.7 0-32.7-9.19-41.745-19.426-.016-.02-.038-.027-.056-.043-.018-.016-.024-.039-.041-.055-.04-.034-.089-.047-.132-.075-.062-.042-.122-.083-.19-.111-.068-.028-.136-.04-.209-.053-.067-.013-.131-.027-.2-.027a.984.984 0 00-.218.03c-.066.013-.13.025-.191.05-.071.028-.133.07-.198.114-.042.028-.09.04-.129.074-.018.016-.025.038-.041.054-.018.016-.04.024-.056.042C38.17 12.38 28.17 21.57 5.47 21.57c-.612 0-1.108.496-1.108 1.107 0 39.921 22.342 63.608 43.252 72.465.015.008.03.005.046.01.122.045.248.078.38.08h.007a1.11 1.11 0 00.38-.08c.015-.005.032-.002.046-.01 20.91-8.857 43.252-32.543 43.252-72.465a1.104 1.104 0 00-1.105-1.107zM48.046 92.91C28.106 84.27 6.994 61.665 6.598 23.755c22.1-.31 32.739-9.511 41.448-19.22 8.708 9.709 19.346 18.91 41.449 19.22-.396 37.91-21.509 60.517-41.449 69.157z" fill="#212A3F"/><path d="M62.095 35.4L45.336 59.216 33.897 47.094a1.108 1.108 0 00-1.611 1.52l12.37 13.107c.024.028.06.037.088.06.03.029.047.063.08.086.044.031.094.046.141.071.037.02.07.039.108.053.126.046.256.079.387.079.157 0 .31-.043.456-.11.045-.02.082-.05.123-.078.06-.037.127-.063.182-.114.034-.03.049-.074.077-.109.02-.024.05-.032.067-.059l17.539-24.923a1.108 1.108 0 00-1.81-1.276z" fill="#FB5F61"/></g><defs><clipPath id="clip0"><path fill="#fff" transform="translate(0 .5)" d="M0 0h96v96H0z"/></clipPath></defs></svg>