<svg viewBox="0 0 96 96" fill="none" xmlns="http://www.w3.org/2000/svg"><path d="M41.372 31.56c.831-.098 1.927.792 2.244 1.11a.784.784 0 001.114-1.1c-.129-.13-1.011-.995-2.146-1.387V28.23a.783.783 0 00-1.565 0v1.804c-.567.106-1.303.445-1.892 1.412-.953 1.565-.215 3.203 2.236 4.898 1.739 1.197 2.283 2.032 1.82 2.794-.389.638-.78.684-.908.7-.831.103-1.928-.793-2.245-1.111a.784.784 0 00-1.114 1.1c.128.13.989.972 2.104 1.372v1.97a.783.783 0 001.565 0V41.37c.574-.097 1.33-.428 1.935-1.418 1.432-2.35-1.352-4.268-2.307-4.925-1.67-1.154-2.21-2.009-1.748-2.767.387-.639.778-.685.907-.7z" fill="#FB5F61"/><path d="M29.983 82.844h-1.965v1.566h5.457v-1.566h-1.632l15.375-23.927v23.927H45.27v1.566h5.457v-1.566H48.78V58.917l15.375 23.927h-1.632v1.566h5.457v-1.566h-1.965L49.43 57.036h46.306v-4.66H84.842V15.382h10.895v-4.66H.259v4.66h10.895v36.994H.259v4.66h46.306L29.983 82.844zM1.826 13.816v-1.53h92.348v1.53H1.826zm10.895 1.565h70.558v36.994H12.721V15.38zM1.826 55.47v-1.53h92.348v1.53H1.826z" fill="#212A3F"/><path d="M61.611 34.651H48.784V21.823A.783.783 0 0048 21.04c-7.937 0-14.393 6.457-14.393 14.393 0 7.936 6.457 14.395 14.393 14.395 7.936 0 14.393-6.458 14.393-14.394a.78.78 0 00-.783-.783zM48 48.262c-7.074 0-12.828-5.755-12.828-12.83 0-6.809 5.336-12.397 12.045-12.804v12.805c0 .432.351.782.783.782h12.805C60.399 42.927 54.81 48.262 48 48.262z" fill="#FB5F61"/><path d="M51.088 17.917a.783.783 0 00-.783.783v13.61c0 .433.35.783.783.783h13.61a.784.784 0 00.782-.783c0-7.936-6.456-14.393-14.392-14.393zm.782 13.611V19.506c6.451.39 11.632 5.571 12.022 12.022H51.87z" fill="#FB5F61"/></svg>