<svg viewBox="0 0 96 97" fill="none" xmlns="http://www.w3.org/2000/svg"><circle cx="41.5" cy="48" r="2.5" fill="#FB5F61"/><circle cx="48.5" cy="48" r="2.5" fill="#FB5F61"/><circle cx="55.5" cy="48" r="2.5" fill="#FB5F61"/><path d="M48 95.745c26.05 0 47.244-21.193 47.245-47.243V48.5 48.5C95.245 22.449 74.052 1.255 48 1.255 21.949 1.255.755 22.449.755 48.5v.002C.755 74.552 21.95 95.745 48 95.745zM23.947 26.722C21.992 33.244 20.88 40.648 20.88 48.5c0 7.853 1.11 15.257 3.065 21.779-13.007-4.522-21.69-12.591-21.691-21.777V48.5c0-9.188 8.683-17.257 21.69-21.78zM22.38 48.5c0-8.111 1.193-15.73 3.276-22.343C32.27 24.074 39.889 22.88 48 22.88c8.11 0 15.73 1.193 22.344 3.276 2.082 6.613 3.275 14.232 3.275 22.343 0 8.11-1.193 15.73-3.276 22.344C63.73 72.926 56.11 74.119 48 74.119s-15.73-1.193-22.343-3.275C23.574 64.23 22.38 56.61 22.38 48.5zm3.84-24.054c4.523-13.008 12.592-21.691 21.78-21.691 9.187 0 17.256 8.684 21.778 21.69-6.522-1.953-13.926-3.064-21.78-3.064-7.851 0-15.255 1.11-21.777 3.065zm45.833 2.276c13.008 4.522 21.69 12.592 21.69 21.779 0 9.188-8.684 17.256-21.69 21.777 1.954-6.521 3.065-13.926 3.065-21.778 0-7.852-1.111-15.256-3.065-21.778zM48 75.619c7.853 0 15.257-1.111 21.778-3.065C65.257 85.562 57.187 94.244 48 94.244c-9.188 0-17.257-8.683-21.78-21.69 6.523 1.954 13.927 3.065 21.779 3.065zm8.292 17.86c6.468-3.628 11.879-11.38 15.217-21.47 10.09-3.338 17.842-8.75 21.469-15.217-3.42 18.586-18.1 33.268-36.686 36.687zm36.687-53.27c-3.628-6.468-11.38-11.88-21.47-15.217C68.17 14.9 62.759 7.149 56.292 3.52 74.879 6.94 89.56 21.623 92.979 40.21zM39.709 3.522C33.24 7.149 27.829 14.9 24.49 24.99 14.4 28.33 6.649 33.742 3.02 40.21 6.44 21.623 21.12 6.94 39.709 3.52zM24.492 72.009c3.338 10.09 8.749 17.842 15.217 21.47C21.123 90.059 6.44 75.378 3.022 56.792 6.649 63.26 14.4 68.67 24.492 72.009z" fill="#212A3F"/><path d="M62.482 56.148l-.453-.597-.443.336.192.52.704-.259zm-6.465 3.157l.313-.681-.255-.117-.269.079.212.72zm9.178 4.207l-.312.682 1.64.751-.624-1.692-.704.259zM66.25 48.17c0 2.751-1.534 5.34-4.221 7.381l.907 1.195c2.941-2.234 4.814-5.224 4.814-8.576h-1.5zM48.5 36.737c4.983 0 9.46 1.332 12.669 3.445 3.215 2.117 5.081 4.957 5.081 7.988h1.5c0-3.697-2.275-6.948-5.756-9.24-3.487-2.297-8.26-3.693-13.494-3.693v1.5zM30.75 48.17c0-3.03 1.866-5.87 5.081-7.988 3.209-2.113 7.686-3.445 12.669-3.445v-1.5c-5.234 0-10.007 1.396-13.494 3.692-3.48 2.293-5.756 5.544-5.756 9.241h1.5zM48.5 59.603c-4.983 0-9.46-1.331-12.669-3.444-3.215-2.117-5.081-4.957-5.081-7.989h-1.5c0 3.698 2.275 6.95 5.756 9.241 3.487 2.297 8.26 3.692 13.494 3.692v-1.5zm7.306-1.017c-2.226.653-4.698 1.017-7.306 1.017v1.5c2.746 0 5.36-.384 7.729-1.078l-.422-1.44zm-.101 1.401l9.178 4.207.625-1.364-9.178-4.206-.625 1.363zm10.194 3.266l-2.713-7.364-1.408.518 2.713 7.364 1.408-.518z" fill="#FB5F61"/></svg>