<svg viewBox="0 0 96 97" fill="none" xmlns="http://www.w3.org/2000/svg"><path d="M48 1.252c12.016 0 23.342 4.464 32.102 12.594L80.1 2.928h1.5v13.438l-13.437-.001v-1.5h10.834C70.528 7.045 59.596 2.753 48 2.753 22.774 2.752 2.252 23.274 2.252 48.5c0 12.225 4.762 23.715 13.409 32.356a46.114 46.114 0 004.168 3.689l.264.205-.916 1.188-.271-.21a47.76 47.76 0 01-4.306-3.812C5.67 72.993.752 61.125.752 48.5.752 22.447 21.947 1.252 48 1.252zM93.708 46.557l1.498-.063a47.728 47.728 0 01-1.315 13.294l-1.457-.357a45.944 45.944 0 001.274-12.874zM43.947 94.07l-.131 1.495a46.995 46.995 0 01-13.012-3.045l.547-1.396a45.51 45.51 0 0012.596 2.947zM69.765 90.445a46.94 46.94 0 01-12.61 4.416l-.29-1.473a45.468 45.468 0 0012.209-4.273l.69 1.33zM88.896 72.179a47.386 47.386 0 01-8.268 10.493l-1.035-1.084a45.928 45.928 0 008.006-10.163l1.297.754zM92.748 33.298l-1.42.482a45.545 45.545 0 00-2.255-5.448l1.346-.662a47.025 47.025 0 012.329 5.628z" fill="#212A3F"/><path d="M48.136 32.427c-8.632 0-15.655 7.023-15.655 15.654 0 8.63 7.023 15.652 15.654 15.652 8.633 0 15.656-7.021 15.656-15.652s-7.023-15.654-15.655-15.654zm0 30.483c-8.179 0-14.833-6.652-14.833-14.83 0-8.177 6.654-14.831 14.833-14.831 8.178 0 14.832 6.654 14.832 14.832 0 8.177-6.654 14.83-14.833 14.83z" fill="#212A3F" stroke="#FB5F61" stroke-width=".7"/><path d="M67.734 47.751l6.887-3.143-1.201-5.211-7.711-.147a19.831 19.831 0 00-4.82-6.149l1.858-7.422-.25-.16a26.281 26.281 0 00-4.305-2.224l-.28-.113-4.842 5.841a19.293 19.293 0 00-2.037-.424 19.561 19.561 0 00-6 .059L40.326 22.5l-4.8 2.018 1.542 7.373a19.587 19.587 0 00-6.023 6.674l-7.728-.162L22 43.061l6.706 3.388a19.482 19.482 0 001.76 9.796l-4.856 5.838 2.77 3.683 6.856-3.143a19.451 19.451 0 009.14 4.501l1.524 7.368 4.687-.002 1.85-7.453a19.65 19.65 0 008.52-4.266l6.687 3.391 3.067-3.978L66 56.041a19.578 19.578 0 001.544-5.24c.14-.967.202-1.969.189-3.05zm-1.004 2.933a18.766 18.766 0 01-1.58 5.236l-.105.227 4.626 6.037-2.263 2.934-6.575-3.333-.21.185a18.815 18.815 0 01-8.607 4.315l-.254.054-1.82 7.327-3.37.002-1.5-7.252-.274-.05c-3.465-.634-6.65-2.202-9.211-4.535l-.201-.183-6.747 3.092-1.978-2.63 4.778-5.745-.116-.24a18.648 18.648 0 01-1.772-9.88l.026-.28-6.599-3.334.958-3.39 7.596.16.119-.225a18.748 18.748 0 016.105-6.757l.231-.154-1.515-7.25 3.585-1.508 4.626 6.05.247-.044a18.681 18.681 0 015.984-.097c.682.1 1.4.255 2.197.471l.257.07 4.794-5.783a25.47 25.47 0 013.641 1.88L59.965 33.4l.198.166c2.074 1.733 3.774 3.901 4.915 6.27l.11.228 7.572.144.905 3.93-6.768 3.087.006.272a19.007 19.007 0 01-.173 3.187z" fill="#FB5F61" stroke="#FB5F61" stroke-width=".7"/></svg>