<svg viewBox="0 0 120 29" fill="none" xmlns="http://www.w3.org/2000/svg"><path d="M26.864 2.844c0-.225-.266-.3-.607-.3-1.293 0-2.47.075-4.219.075-.987 0-2.545-.074-3.875-.074-.494 0-.646.112-.646.412 0 .974 3.268-.187 3.268 3.558 0 1.724-1.254 4.196-4.56 12.475h-.076c-4.712-11.726-5.32-13.261-5.32-13.973 0-1.798 2.318-1.386 2.318-2.098 0-.3-.266-.374-.836-.374-1.938 0-3.875.074-5.814.074-2.014 0-4.027-.074-6.04-.074a.415.415 0 00-.425.243.4.4 0 00-.032.17c0 .822 1.672-.152 2.66 2.209l9.537 22.739c.19.449.342.711.722.711.38 0 .532-.262.722-.712L21.924 7.94c2.166-5.244 4.94-4.12 4.94-5.095zM31.08 25.208a2.21 2.21 0 01-1.483.787c-.988 0-1.558-.637-1.558-3.11 0-1.685.684-2.772 3.04-3.708v6.03zm9.308-.337c-.57 0-.722 1.349-1.747 1.349-.419 0-.646-.263-.646-.712V15.431c0-3.034-1.482-4.72-5.662-4.72-4.94 0-10.525 2.96-10.525 5.956 0 1.386.835 2.285 2.925 2.285 2.052 0 3.23-1.199 3.23-2.884 0-.9-.152-1.835-.152-2.698 0-1.124.912-1.76 2.128-1.76.76 0 1.14.337 1.14 1.536v5.244c-7.751 2.697-9.956 3.596-9.956 6.518 0 1.611 1.293 3.409 4.484 3.409 1.9 0 3.686-.786 5.738-2.398.456 1.5 1.558 2.398 4.028 2.398 4.065 0 5.358-2.735 5.358-3.11a.36.36 0 00-.108-.23.37.37 0 00-.235-.106zM87.25 19.477c1.671 0 2.963-.975 2.963-3.11 0-2.435-2.698-5.656-7.562-5.656-4.75 0-9.385 3.82-9.385 9.178a8.088 8.088 0 00.573 3.237 8.181 8.181 0 001.818 2.754 8.319 8.319 0 002.769 1.829 8.413 8.413 0 003.275.608c6.232 0 8.512-5.132 8.512-6.106 0-.224-.076-.374-.342-.374-.836 0-.646 2.434-4.522 2.434-2.888 0-5.927-2.621-5.927-7.641 0-2.847 1.443-5.245 3.267-5.245 1.14 0 1.9.562 1.9 1.798 0 .75-.228 1.985-.228 3.184 0 2.023 1.33 3.11 2.888 3.11zM99.56 25.808V.672c-6.535 2.435-8.815 1.46-8.815 2.322 0 .712 2.356.225 2.356 2.098v20.716c0 1.835-2.203 1.123-2.203 1.91 0 .187.075.375.418.375 1.444 0 3.077-.075 5.015-.075 1.938 0 3.571.075 5.016.075.342 0 .417-.188.417-.375 0-.787-2.203-.075-2.203-1.91z" fill="#B3B2B2"/><path d="M111.568 25.845l-6.08-10.49c3.724-4.082 6.346-3.296 6.346-4.045 0-.224-.152-.374-.608-.374-.76 0-2.09.075-3.951.075-1.559 0-3.116-.075-3.838-.075-.343 0-.532.075-.532.337 0 .824 2.204.112 2.204 2.697 0 1.273-.837 2.023-4.256 4.907l2.812 5.582c.37.581.615 1.232.721 1.91 0 1.087-1.292.712-1.292 1.312 0 .336.228.412.608.412 1.558 0 3.079-.076 4.636-.076 1.786 0 3.306.076 4.788.076.76 0 .95-.076.95-.375 0-.862-1.406 0-2.508-1.873zM53.68 5.392V8.28a.334.334 0 00.144.278.345.345 0 00.313.043 6.147 6.147 0 012.123-.378 6.278 6.278 0 012.407.488c.761.319 1.45.785 2.026 1.37a.346.346 0 00.586-.243V3.795a.332.332 0 01.103-.245.343.343 0 01.25-.097c1.762.059 4.193.336 5.68 1.054 1.385.67 2.225 1.074 3.01 2.008.475.57.841 1.22 1.08 1.92a.217.217 0 00.368.064.21.21 0 00.05-.137l-.051-5.694a.132.132 0 00-.013-.052.128.128 0 00-.118-.07c-4.632.037-9.302.073-14.159.073-2.774 0-4.94-.074-6.421-.074-.418 0-.57.112-.57.449 0 1.199 3.192-.224 3.192 2.398zM71.467 22.264a.21.21 0 00-.05-.138.215.215 0 00-.273-.047.213.213 0 00-.095.113 6.066 6.066 0 01-1.069 1.925c-.781.938-1.618 1.347-3 2.023a10.94 10.94 0 01-4.941 1.043c-.584-.144-1.208-.398-1.208-1.376v-9.515c0-3.259-1.026-5.58-4.826-5.58-2.09 0-3.61.561-6.27 2.584V10.71c-6.572 1.649-8.967.974-8.967 1.573 0 .712 2.508.263 2.508 2.81v10.713c0 1.836-2.204 1.124-2.204 1.911 0 .187.076.375.419.375 1.443 0 3.077-.075 5.015-.075 1.938 0 3.572.075 4.712.075.342 0 .417-.188.417-.375 0-.787-1.9-.075-1.9-1.91V14.493c.799-.749 1.862-1.46 2.85-1.46.912 0 1.786.6 1.786 2.247v10.526c0 1.836-1.9 1.124-1.9 1.911 0 .187.076.375.419.375l18.426-.013a.129.129 0 00.091-.035.126.126 0 00.039-.088l.021-5.694z" fill="#B3B2B2"/><path d="M67.049 10.58c-.264 1.709-1.935 3.165-4.193 3.547a.135.135 0 00-.117.153c.027.275.038.384.068.604a.133.133 0 00.116.107c2.17.408 3.81 1.875 4.126 3.905.069.455.069.883.444.883.205 0 .342-.058.342-.37v-9.34c0-.314-.137-.371-.342-.371-.375 0-.375.427-.444.882zM116.888 5.132h-.512v-.815h.827c.399 0 .752.029.752.444 0 .445-.617.37-1.067.37zm1.548-.423c0-.689-.541-.867-1.143-.867h-1.398v3.276h.481V5.606h.617l.849 1.512h.549l-.842-1.512a.854.854 0 00.65-.25.83.83 0 00.237-.647z" fill="#B3B2B2"/><path d="M117.038 7.896a2.496 2.496 0 01-1.372-.414 2.445 2.445 0 01-.908-1.096 2.4 2.4 0 01-.137-1.409c.096-.472.332-.906.678-1.246a2.507 2.507 0 012.695-.525c.451.185.837.497 1.109.898a2.417 2.417 0 01-.311 3.081 2.503 2.503 0 01-1.754.711zm0-5.351a2.987 2.987 0 00-1.64.494 2.918 2.918 0 00-1.085 1.31 2.87 2.87 0 00-.165 1.682c.115.564.397 1.083.81 1.49a2.993 2.993 0 003.219.628 2.942 2.942 0 001.325-1.073A2.88 2.88 0 00120 5.458a2.868 2.868 0 00-.863-2.068 2.97 2.97 0 00-2.099-.846z" fill="#B3B2B2"/></svg>