<svg viewBox="0 0 355 41" fill="none" xmlns="http://www.w3.org/2000/svg" xmlns:xlink="http://www.w3.org/1999/xlink"><path d="M88.06 20.603v-.086a15.531 15.531 0 011.144-6.088 15.487 15.487 0 013.433-5.151 15.425 15.425 0 015.17-3.388 15.383 15.383 0 016.08-1.082c6.15 0 10.107 2.59 12.773 6.258l-6.279 4.877c-1.721-2.115-3.699-3.54-6.58-3.54-4.215 0-7.183 3.626-7.183 8.028v.086c0 4.532 2.968 8.07 7.183 8.07 3.139 0 4.989-1.467 6.795-3.668l6.279 4.488c-2.838 3.928-6.666 6.82-13.289 6.82a15.243 15.243 0 01-5.99-1.125 15.284 15.284 0 01-5.077-3.382 15.345 15.345 0 01-3.356-5.103 15.386 15.386 0 01-1.104-6.014zM125.086 20.603v-.086c0-8.675 6.967-15.71 16.257-15.71 9.29 0 16.171 6.95 16.171 15.624v.086c0 8.675-6.967 15.71-16.257 15.71-9.29 0-16.171-6.95-16.171-15.624zm23.87 0v-.086c0-4.402-3.097-8.157-7.699-8.157s-7.656 3.712-7.656 8.07v.087c0 4.359 3.14 8.157 7.742 8.157 4.559 0 7.613-3.712 7.613-8.07zM167.831 5.412h8.817l7.182 11.696 7.183-11.696h8.817v30.21h-8.301v-17.35l-7.699 11.826h-.172l-7.655-11.782v17.306h-8.172V5.412zM211.609 5.412h12.946c7.569 0 12.472 3.928 12.472 10.574v.086c0 7.164-5.462 10.919-12.902 10.919h-4.172v8.63h-8.344V5.413zm12.343 15.019c2.925 0 4.774-1.597 4.774-3.97v-.087c0-2.59-1.849-3.927-4.817-3.927h-3.956v7.984h3.999zM254.399 5.196h8.043l12.816 30.426h-8.946l-2.15-5.438h-11.656l-2.15 5.438h-8.731l12.774-30.426zm7.311 18.472l-3.355-8.546-3.397 8.546h6.752zM284.629 5.412h7.785L304.8 21.38V5.412h8.258v30.21h-7.269L292.887 19.05v16.572h-8.258V5.412zM334.428 24.315L322.944 5.412h9.506l6.193 11.005 6.236-11.005h9.333l-11.44 18.773v11.437h-8.344V24.315z" fill="#fff"/><path d="M0 5.44h9.288l6.877 19.094 6.878-19.093h9.075L19.923 35.639h-7.728L0 5.44zM39.42 5.44h8.438v30.223h-8.437V5.441zM82.316.534h-6.665l-19.072 40h6.665l19.072-40z" fill="#FB5F61"/><path d="M156.175 20.7c0 7.997-6.595 14.52-14.783 14.52-8.188 0-14.784-6.523-14.784-14.52 0-7.996 6.596-14.52 14.784-14.52s14.783 6.524 14.783 14.52z" fill="url(#pattern0)" stroke="#fff" stroke-width="3"/><defs><pattern id="pattern0" patternContentUnits="objectBoundingBox" width="1" height="1"><use xlink:href="#image0" transform="matrix(.00123 0 0 .00123 -.237 0)"/></pattern></defs></svg>