<svg viewBox="0 0 356 41" fill="none" xmlns="http://www.w3.org/2000/svg"><path d="M88.916 20.42v-.086a15.531 15.531 0 011.146-6.089 15.487 15.487 0 013.432-5.15 15.425 15.425 0 015.17-3.388 15.38 15.38 0 016.08-1.082c6.15 0 10.107 2.589 12.773 6.257l-6.279 4.877c-1.72-2.115-3.699-3.539-6.58-3.539-4.215 0-7.183 3.626-7.183 8.027v.087c0 4.531 2.968 8.07 7.183 8.07 3.139 0 4.989-1.467 6.796-3.668l6.279 4.488c-2.839 3.927-6.667 6.819-13.29 6.819a15.24 15.24 0 01-5.99-1.124 15.284 15.284 0 01-5.076-3.382 15.345 15.345 0 01-3.357-5.104 15.386 15.386 0 01-1.103-6.013zM168.688 5.229h8.817l7.183 11.695L191.87 5.23h8.817v30.21h-8.301v-17.35l-7.698 11.826h-.172l-7.656-11.782v17.306h-8.172V5.229zM212.466 5.229h12.946c7.57 0 12.472 3.928 12.472 10.574v.086c0 7.163-5.462 10.918-12.902 10.918h-4.172v8.632h-8.344V5.229zm12.343 15.018c2.925 0 4.774-1.596 4.774-3.97v-.086c0-2.59-1.849-3.927-4.816-3.927h-3.957v7.983h3.999zM255.256 5.013h8.043l12.816 30.426h-8.946L265.019 30h-11.655l-2.151 5.438h-8.731l12.774-30.426zm7.311 18.471l-3.354-8.545-3.398 8.545h6.752zM285.486 5.229h7.785l12.386 15.968V5.229h8.258v30.21h-7.268l-12.903-16.573V35.44h-8.258V5.229zM335.285 24.132L323.802 5.229h9.505l6.193 11.005 6.237-11.005h9.332l-11.44 18.773V35.44h-8.344V24.132z" fill="#fff"/><path d="M.857 5.258h9.288l6.878 19.093L23.9 5.258h9.075L20.78 35.455h-7.728L.857 5.258zM40.278 5.258h8.437V35.48h-8.437V5.258zM83.173.351h-6.665l-19.072 40h6.665l19.072-40z" fill="#FB5F61"/><g clip-path="url(#clip0)"><path d="M156.853 21.813H129.99l3.616 10.875 9.38.669 9.218-1.185 4.649-10.36z" fill="#000C8A"/><path d="M150.737 8.092l-12.998-.67-7.749 11.39h26.863l-6.116-10.72z" fill="#E1392D"/><path d="M125.899 3.813h-.042v.061h.042v-.061z" fill="#000C8A"/><path d="M125.899 3.813h-.042v.03h.042v-.03z" fill="#E1392D"/><path d="M130.507 13.61l4.717-6.345 8.239 7.548 13.39.859v9.281l-13.39.86-8.307 7.906-2.066-1.547-2.583-18.563z" fill="#fff"/><path d="M131.54 10.516l1.549-2.578 9.919 9.037h13.798v6.361l-13.798.314-9.402 8.006-2.583-1.03.517-20.11z" fill="#007847"/><path d="M130.061 11.687l8.36 8.626-8.36 7.883v-16.51z" fill="#FFB915"/><path d="M128.957 14.125l6.199 6.188-6.199 5.671V14.125z" fill="#000"/><path fill-rule="evenodd" clip-rule="evenodd" d="M126.89 20.313c0-8.544 6.939-15.47 15.498-15.47 8.56 0 15.499 6.926 15.499 15.47 0 8.543-6.939 15.468-15.499 15.468-8.559 0-15.498-6.925-15.498-15.468zm15.498-12.375c-6.847 0-12.398 5.54-12.398 12.375 0 6.834 5.551 12.375 12.398 12.375 6.848 0 12.399-5.541 12.399-12.375 0-6.835-5.551-12.375-12.399-12.375z" fill="#fff"/></g><defs><clipPath id="clip0"><path fill="#fff" transform="translate(125.857 3.332)" d="M0 0h32.029v33H0z"/></clipPath></defs></svg>