<svg viewBox="0 0 264 30" fill="none" xmlns="http://www.w3.org/2000/svg"><path d="M189.02 3.497h5.975l9.523 22.819h-6.647l-1.597-4.079h-8.66l-1.598 4.079h-6.487l9.491-22.82zm5.432 13.853l-2.493-6.409-2.524 6.409h5.017zM211.481 3.658h5.784l9.203 11.976V3.658h6.136v22.657h-5.401l-9.587-12.429v12.43h-6.135V3.657zM248.482 17.835L239.95 3.658h7.062l4.602 8.254 4.634-8.254h6.934l-8.501 14.08v8.577h-6.199v-8.48z" fill="#fff"/><path d="M0 3.68h6.897L12.004 18l5.107-14.32h6.74l-9.056 22.648h-5.74L0 3.68zM29.273 3.68h6.266v22.666h-6.266V3.68zM61.127 0h-4.95L42.016 30h4.949L61.127 0z" fill="#FB5F61"/><path d="M65.429 15.052v-.065a11.743 11.743 0 01.85-4.566 11.624 11.624 0 012.55-3.863 11.452 11.452 0 013.842-2.54 11.335 11.335 0 014.517-.812c4.57 0 7.51 1.942 9.491 4.693l-4.665 3.658c-1.279-1.587-2.748-2.655-4.89-2.655-3.131 0-5.336 2.72-5.336 6.02v.066c0 3.398 2.205 6.052 5.337 6.052 2.332 0 3.706-1.1 5.049-2.751l4.665 3.366c-2.109 2.946-4.953 5.114-9.874 5.114a11.231 11.231 0 01-4.45-.843 11.349 11.349 0 01-3.772-2.536 11.521 11.521 0 01-2.494-3.828 11.636 11.636 0 01-.82-4.51zM92.94 15.052v-.065c0-6.506 5.176-11.782 12.079-11.782 6.902 0 12.015 5.211 12.015 11.717v.065c0 6.506-5.177 11.782-12.079 11.782-6.903 0-12.016-5.211-12.016-11.717zm17.735 0v-.065c0-3.301-2.301-6.118-5.72-6.118-3.42 0-5.689 2.784-5.689 6.053v.065c0 3.269 2.333 6.118 5.753 6.118 3.387 0 5.656-2.784 5.656-6.053zM124.7 3.658h6.551l5.336 8.772 5.337-8.772h6.551v22.657h-6.168V13.304l-5.72 8.868h-.128l-5.688-8.836v12.98H124.7V3.657zM157.227 3.658h9.618c5.625 0 9.268 2.946 9.268 7.93v.065c0 5.373-4.059 8.189-9.587 8.189h-3.1v6.473h-6.199V3.658zm9.171 11.264c2.173 0 3.547-1.198 3.547-2.978v-.065c0-1.942-1.374-2.945-3.579-2.945h-2.94v5.988h2.972z" fill="#fff"/></svg>