<svg viewBox="0 0 356 68" fill="none" xmlns="http://www.w3.org/2000/svg"><path d="M76.982 61h1.33v-8.554h2.744V51.2h-6.72v1.246h2.646V61zm4.61 0h1.245v-3.654c0-1.512.714-2.24 1.624-2.24.336 0 .714.084.994.238l.406-1.232c-.252-.14-.7-.28-1.134-.28-.91 0-1.526.42-1.904 1.106L82.641 54h-1.05v7zm8.3-.966c-1.4 0-2.324-1.12-2.324-2.534 0-1.414.924-2.534 2.324-2.534 1.386 0 2.324 1.12 2.324 2.534 0 1.414-.938 2.534-2.324 2.534zm-.126 1.134c1.05 0 1.96-.532 2.352-1.106L92.3 61h1.064v-7H92.3l-.182.882c-.35-.462-1.148-1.05-2.352-1.05-2.044 0-3.472 1.624-3.472 3.668s1.344 3.668 3.472 3.668zm9.218-1.134c-1.386 0-2.324-1.12-2.324-2.534 0-1.414.938-2.534 2.324-2.534 1.4 0 2.324 1.12 2.324 2.534 0 1.414-.924 2.534-2.324 2.534zm-.098 1.134c1.092 0 1.96-.616 2.352-1.162l.168.994h1.05V50.99h-1.246v3.906c-.35-.434-1.12-1.064-2.324-1.064-2.072 0-3.486 1.624-3.486 3.668s1.344 3.668 3.486 3.668zm9.091 0c1.526 0 2.59-.798 3.122-1.89l-1.022-.504c-.462.812-1.12 1.26-2.044 1.26-1.302 0-2.184-.84-2.282-2.128h5.516c.014-.168.028-.392.028-.56 0-1.96-1.19-3.514-3.318-3.514-2.17 0-3.472 1.624-3.472 3.668 0 2.072 1.26 3.668 3.472 3.668zm-2.212-4.284c.126-1.148 1.008-1.918 2.226-1.918 1.204 0 1.974.77 2.072 1.918h-4.298zM116.755 61h1.246v-3.318c0-1.862.784-2.716 1.736-2.716.854 0 1.428.546 1.428 1.722V61h1.246v-3.318c0-1.862.798-2.716 1.736-2.716.854 0 1.428.546 1.428 1.722V61h1.26v-4.256c0-1.792-.784-2.912-2.52-2.912-1.162 0-1.862.574-2.212 1.176-.35-.742-.966-1.176-2.072-1.176-.994 0-1.624.434-2.044 1.064l-.182-.896h-1.05v7zm12.481-8.428h1.4V51.2h-1.4v1.372zM129.32 61h1.246v-7h-1.246v7zm5.507.168c1.498 0 2.45-.938 2.45-2.156 0-1.022-.616-1.68-1.456-2.03l-1.022-.406c-.406-.168-.812-.378-.812-.882 0-.42.364-.756.812-.756.462 0 .826.266 1.036.77l.994-.574c-.392-.812-1.05-1.302-2.03-1.302-1.134 0-2.002.812-2.002 1.82 0 .854.504 1.512 1.232 1.792l.896.364c.812.322 1.162.63 1.162 1.218 0 .574-.476 1.036-1.19 1.036-.812 0-1.33-.448-1.554-1.19l-1.05.434c.392 1.106 1.218 1.862 2.534 1.862zm5.989 0c1.498 0 2.45-.938 2.45-2.156 0-1.022-.616-1.68-1.456-2.03l-1.022-.406c-.406-.168-.812-.378-.812-.882 0-.42.364-.756.812-.756.462 0 .826.266 1.036.77l.994-.574c-.392-.812-1.05-1.302-2.03-1.302-1.134 0-2.002.812-2.002 1.82 0 .854.504 1.512 1.232 1.792l.896.364c.812.322 1.162.63 1.162 1.218 0 .574-.476 1.036-1.19 1.036-.812 0-1.33-.448-1.554-1.19l-1.05.434c.392 1.106 1.218 1.862 2.534 1.862zm4.238-8.596h1.4V51.2h-1.4v1.372zm.084 8.428h1.246v-7h-1.246v7zm6.88.168c2.128 0 3.626-1.624 3.626-3.668s-1.498-3.668-3.626-3.668-3.612 1.624-3.612 3.668 1.484 3.668 3.612 3.668zm0-1.134c-1.33 0-2.338-1.05-2.338-2.534 0-1.484 1.008-2.534 2.338-2.534s2.352 1.05 2.352 2.534c0 1.484-1.022 2.534-2.352 2.534zm5.671.966h1.246v-3.318c0-1.904.882-2.716 1.848-2.716.966 0 1.638.686 1.638 1.932V61h1.246v-4.214c0-1.792-.868-2.954-2.618-2.954-1.008 0-1.708.406-2.128 1.036l-.182-.868h-1.05v7zm14.497.168c1.848 0 3.038-1.288 3.038-2.842 0-1.218-.588-2.058-1.848-2.744l-1.428-.784c-.798-.42-1.134-.784-1.134-1.428 0-.602.532-1.078 1.176-1.078.77 0 1.162.42 1.428 1.078l1.176-.588c-.476-1.106-1.316-1.75-2.562-1.75-1.498 0-2.548 1.008-2.548 2.394 0 1.008.588 1.862 1.554 2.366.196.112 1.162.616 1.372.728.882.448 1.484.924 1.484 1.82 0 .924-.77 1.568-1.722 1.568-1.232 0-1.876-.868-2.1-1.638l-1.218.476c.49 1.526 1.568 2.422 3.332 2.422zm8.05 0c2.128 0 3.626-1.624 3.626-3.668s-1.498-3.668-3.626-3.668-3.612 1.624-3.612 3.668 1.484 3.668 3.612 3.668zm0-1.134c-1.33 0-2.338-1.05-2.338-2.534 0-1.484 1.008-2.534 2.338-2.534s2.352 1.05 2.352 2.534c0 1.484-1.022 2.534-2.352 2.534zm8.164 1.134c1.008 0 1.75-.434 2.142-1.036l.196.868h1.05v-7h-1.246v3.584c0 1.596-.798 2.45-1.876 2.45-.966 0-1.68-.644-1.68-1.89V54h-1.246v4.158c0 1.82.826 3.01 2.66 3.01zm6.207-.168h1.26v-5.866h1.512V54h-1.512v-2.156l-1.26.238V54h-.91v1.134h.91V61zm4.426 0h1.246v-3.318c0-1.89.91-2.716 1.862-2.716.966 0 1.666.686 1.666 1.932V61h1.26v-4.214c0-1.792-.854-2.954-2.66-2.954-.924 0-1.722.42-2.128 1.036V50.99h-1.246V61zm13.641-3.584l1.666-4.69 1.652 4.69h-3.318zM209.944 61h1.442l.854-2.352h4.186L217.28 61h1.47l-3.654-9.8h-1.498l-3.654 9.8zm10.436 0h1.26v-5.866h1.736V54h-1.736v-.672c0-.7.378-1.134 1.008-1.134.252 0 .518.084.77.21v-1.218a2.24 2.24 0 00-.868-.154c-1.386 0-2.17.784-2.17 2.422V54h-.98v1.134h.98V61zm4.684 0h1.246v-3.654c0-1.512.714-2.24 1.624-2.24.336 0 .714.084.994.238l.406-1.232c-.252-.14-.7-.28-1.134-.28-.91 0-1.526.42-1.904 1.106l-.182-.938h-1.05v7zm5.699-8.428h1.4V51.2h-1.4v1.372zm.084 8.428h1.246v-7h-1.246v7zm6.782.168c1.54 0 2.59-.868 3.108-1.89l-1.106-.504a2.162 2.162 0 01-2.002 1.26c-1.316 0-2.24-1.05-2.24-2.534 0-1.484.924-2.534 2.198-2.534.994 0 1.582.476 1.974 1.246l1.12-.504c-.546-1.246-1.666-1.876-3.052-1.876-2.114 0-3.514 1.624-3.514 3.668s1.4 3.668 3.514 3.668zm7.849-1.134c-1.4 0-2.324-1.12-2.324-2.534 0-1.414.924-2.534 2.324-2.534 1.386 0 2.324 1.12 2.324 2.534 0 1.414-.938 2.534-2.324 2.534zm-.126 1.134c1.05 0 1.96-.532 2.352-1.106l.182.938h1.064v-7h-1.064l-.182.882c-.35-.462-1.148-1.05-2.352-1.05-2.044 0-3.472 1.624-3.472 3.668s1.344 3.668 3.472 3.668zm9.19-.168h5.978v-1.232h-4.368l2.618-2.772c1.008-1.078 1.624-2.002 1.624-3.248 0-1.47-1.246-2.716-2.8-2.716-1.582 0-2.576 1.008-2.898 2.366l1.218.378c.154-.826.686-1.526 1.61-1.526s1.568.686 1.568 1.568c0 .938-.476 1.54-1.47 2.632l-3.08 3.374V61zm10.86.168c2.086 0 3.57-1.89 3.57-5.068 0-3.192-1.484-5.068-3.57-5.068-2.1 0-3.584 1.876-3.584 5.068 0 3.178 1.484 5.068 3.584 5.068zm0-1.218c-1.358 0-2.296-1.302-2.296-3.85s.98-3.85 2.296-3.85c1.33 0 2.282 1.302 2.282 3.85s-.91 3.85-2.282 3.85zm4.671 1.05h5.978v-1.232h-4.368l2.618-2.772c1.008-1.078 1.624-2.002 1.624-3.248 0-1.47-1.246-2.716-2.8-2.716-1.582 0-2.576 1.008-2.898 2.366l1.218.378c.154-.826.686-1.526 1.61-1.526s1.568.686 1.568 1.568c0 .938-.476 1.54-1.47 2.632l-3.08 3.374V61zm13.52 0v-1.204h-1.862V51.2h-1.022l-2.114 1.008v1.19l1.848-.742v7.14h-1.904V61h5.054z" fill="#AFAFAF"/><path d="M88.916 20.42v-.086a15.531 15.531 0 011.146-6.089 15.487 15.487 0 013.432-5.15 15.425 15.425 0 015.17-3.388 15.38 15.38 0 016.08-1.082c6.15 0 10.107 2.589 12.773 6.257l-6.279 4.877c-1.72-2.115-3.699-3.539-6.58-3.539-4.215 0-7.183 3.626-7.183 8.027v.087c0 4.531 2.968 8.07 7.183 8.07 3.139 0 4.989-1.467 6.796-3.668l6.279 4.488c-2.839 3.927-6.667 6.819-13.29 6.819a15.24 15.24 0 01-5.99-1.124 15.284 15.284 0 01-5.076-3.382 15.345 15.345 0 01-3.357-5.104 15.386 15.386 0 01-1.103-6.013zM168.688 5.229h8.817l7.183 11.695L191.87 5.23h8.817v30.21h-8.301v-17.35l-7.698 11.826h-.172l-7.656-11.782v17.306h-8.172V5.229zM212.466 5.229h12.946c7.57 0 12.472 3.928 12.472 10.574v.086c0 7.163-5.462 10.918-12.902 10.918h-4.172v8.632h-8.344V5.229zm12.343 15.018c2.925 0 4.774-1.596 4.774-3.97v-.086c0-2.59-1.849-3.927-4.816-3.927h-3.957v7.983h3.999zM255.256 5.013h8.043l12.816 30.426h-8.946L265.019 30h-11.655l-2.151 5.438h-8.731l12.774-30.426zm7.311 18.471l-3.354-8.545-3.398 8.545h6.752zM285.486 5.229h7.785l12.386 15.968V5.229h8.258v30.21h-7.268l-12.903-16.573V35.44h-8.258V5.229zM335.285 24.132L323.802 5.229h9.505l6.193 11.005 6.237-11.005h9.332l-11.44 18.773V35.44h-8.344V24.132z" fill="#fff"/><path d="M.857 5.258h9.288l6.878 19.093L23.9 5.258h9.075L20.78 35.455h-7.728L.857 5.258zM40.278 5.258h8.437V35.48h-8.437V5.258zM83.173.351h-6.665l-19.072 40h6.665l19.072-40z" fill="#FB5F61"/><g clip-path="url(#clip0)"><path d="M156.853 21.813H129.99l3.616 10.875 9.38.669 9.218-1.185 4.649-10.36z" fill="#000C8A"/><path d="M150.737 8.092l-12.998-.67-7.749 11.39h26.863l-6.116-10.72z" fill="#E1392D"/><path d="M125.899 3.813h-.042v.061h.042v-.061z" fill="#000C8A"/><path d="M125.899 3.813h-.042v.03h.042v-.03z" fill="#E1392D"/><path d="M130.507 13.61l4.717-6.345 8.239 7.548 13.39.859v9.281l-13.39.86-8.307 7.906-2.066-1.547-2.583-18.563z" fill="#fff"/><path d="M131.54 10.516l1.549-2.578 9.919 9.037h13.798v6.361l-13.798.314-9.402 8.006-2.583-1.03.517-20.11z" fill="#007847"/><path d="M130.061 11.687l8.36 8.626-8.36 7.883v-16.51z" fill="#FFB915"/><path d="M128.957 14.125l6.199 6.188-6.199 5.671V14.125z" fill="#000"/><path fill-rule="evenodd" clip-rule="evenodd" d="M126.89 20.313c0-8.544 6.939-15.47 15.498-15.47 8.56 0 15.499 6.926 15.499 15.47 0 8.543-6.939 15.468-15.499 15.468-8.559 0-15.498-6.925-15.498-15.468zm15.498-12.375c-6.847 0-12.398 5.54-12.398 12.375 0 6.834 5.551 12.375 12.398 12.375 6.848 0 12.399-5.541 12.399-12.375 0-6.835-5.551-12.375-12.399-12.375z" fill="#fff"/></g><defs><clipPath id="clip0"><path fill="#fff" transform="translate(125.857 3.332)" d="M0 0h32.029v33H0z"/></clipPath></defs></svg>