<svg viewBox="0 0 348 73" fill="none" xmlns="http://www.w3.org/2000/svg"><path d="M249.506 5.432h7.889l12.57 30.121h-8.774l-2.109-5.383H247.65l-2.109 5.383h-8.562l12.527-30.121zm7.171 18.286l-3.29-8.46-3.332 8.46h6.622zM279.155 5.646h7.635l12.149 15.807V5.646h8.099v29.907h-7.129l-12.655-16.406v16.406h-8.099V5.646zM327.997 24.36L316.734 5.645h9.323l6.074 10.894 6.116-10.894h9.154L336.18 24.23v11.322h-8.183V24.36z" fill="#212A3F"/><path d="M0 5.674h9.104l6.742 18.902 6.741-18.902h8.896L19.529 35.57h-7.575L0 5.674zM38.641 5.674h8.27v29.92h-8.27V5.674zM80.688.816h-6.533l-18.695 39.6h6.533L80.688.816z" fill="#FB5F61"/><path d="M86.366 20.685V20.6a15.5 15.5 0 011.123-6.028 15.342 15.342 0 013.366-5.099 15.116 15.116 0 015.071-3.354 14.963 14.963 0 015.963-1.071c6.032 0 9.912 2.563 12.528 6.195l-6.159 4.828c-1.687-2.094-3.627-3.504-6.453-3.504-4.134 0-7.045 3.59-7.045 7.947v.086c0 4.486 2.91 7.99 7.045 7.99 3.079 0 4.893-1.453 6.664-3.632l6.159 4.443c-2.784 3.888-6.538 6.75-13.034 6.75a14.826 14.826 0 01-5.875-1.112 14.98 14.98 0 01-4.979-3.348 15.203 15.203 0 01-3.292-5.052 15.36 15.36 0 01-1.082-5.954zM122.68 20.684V20.6c0-8.588 6.834-15.552 15.945-15.552s15.86 6.879 15.86 15.467v.085c0 8.588-6.833 15.552-15.944 15.552-9.112 0-15.861-6.879-15.861-15.467zm23.411 0V20.6c0-4.358-3.037-8.075-7.55-8.075-4.514 0-7.509 3.674-7.509 7.99v.085c0 4.315 3.08 8.075 7.593 8.075 4.471 0 7.466-3.674 7.466-7.99zM164.604 5.646h8.647l7.045 11.578 7.044-11.578h8.647v29.907h-8.141V18.377l-7.55 11.707h-.169l-7.509-11.664v17.133h-8.014V5.646zM207.54 5.646h12.696c7.425 0 12.233 3.888 12.233 10.467v.085c0 7.093-5.357 10.81-12.654 10.81h-4.092v8.545h-8.183V5.646zm12.106 14.868c2.868 0 4.682-1.581 4.682-3.93v-.086c0-2.564-1.814-3.888-4.724-3.888h-3.881v7.904h3.923zM8.069 68.933c2.478 0 4.074-1.787 4.074-3.942 0-1.69-.789-2.854-2.478-3.806l-1.916-1.087c-1.07-.583-1.52-1.087-1.52-1.98 0-.836.713-1.496 1.577-1.496 1.032 0 1.558.583 1.915 1.495l1.577-.815c-.638-1.534-1.765-2.427-3.436-2.427-2.009 0-3.417 1.398-3.417 3.32 0 1.398.789 2.583 2.084 3.282.263.155 1.558.854 1.84 1.01 1.183.62 1.99 1.28 1.99 2.524 0 1.281-1.032 2.174-2.31 2.174-1.651 0-2.515-1.204-2.815-2.272l-1.634.66c.657 2.117 2.103 3.36 4.469 3.36zM14.642 57.01h1.878v-1.902h-1.878v1.903zm.113 11.69h1.67V58.99h-1.67V68.7zM19.926 68.7h1.67v-4.602c0-2.583 1.052-3.767 2.329-3.767 1.145 0 1.915.757 1.915 2.388v5.98h1.671v-4.601c0-2.583 1.07-3.767 2.328-3.767 1.145 0 1.915.757 1.915 2.388v5.98h1.69v-5.902c0-2.485-1.051-4.039-3.38-4.039-1.558 0-2.497.796-2.966 1.631-.47-1.029-1.296-1.63-2.779-1.63-1.333 0-2.178.601-2.741 1.475l-.244-1.243h-1.408V68.7zM41.432 67.36c-1.859 0-3.117-1.553-3.117-3.514 0-1.962 1.277-3.515 3.136-3.515 1.84 0 3.116 1.553 3.116 3.515 0 1.96-1.258 3.514-3.135 3.514zm-4.638 5.223h1.671v-5.145c.45.64 1.502 1.495 3.117 1.495 2.779 0 4.675-2.253 4.675-5.087 0-2.835-1.746-5.088-4.6-5.088-1.408 0-2.647.777-3.248 1.612l-.207-1.379h-1.408v13.592zM49.006 68.7h1.67V54.816h-1.67V68.7zM54.063 57.01h1.878v-1.902h-1.878v1.903zm.113 11.69h1.67V58.99h-1.67V68.7zM59.666 68.7h1.69v-8.136h2.328v-1.573h-2.328v-.932c0-.97.507-1.573 1.352-1.573.337 0 .694.117 1.032.292v-1.69c-.319-.136-.695-.213-1.164-.213-1.859 0-2.91 1.087-2.91 3.359v.757h-1.314v1.573h1.314V68.7zM68.428 72.583l4.75-13.592h-1.746l-2.498 7.379-2.722-7.379h-1.784l3.643 9.592-1.37 4h1.727zM75.149 57.01h1.877v-1.902H75.15v1.903zm.112 11.69h1.671V58.99h-1.67V68.7zM80.432 68.7h1.671v-4.602c0-2.64 1.183-3.767 2.479-3.767 1.295 0 2.197.951 2.197 2.68V68.7h1.67v-5.845c0-2.485-1.164-4.097-3.51-4.097-1.352 0-2.291.563-2.854 1.437l-.244-1.204h-1.409V68.7zM95.348 72.816c2.385 0 4.3-1.67 4.3-4.058 0-1.728-1.014-3.029-2.103-3.553.695-.427 1.502-1.495 1.502-2.738a3.088 3.088 0 00-.939-2.272l1.521-.272v-1.165h-4.28c-2.028 0-3.793 1.515-3.793 3.65 0 1.38.826 2.35 1.52 2.836-1.07.524-2.121 1.883-2.121 3.514 0 2.389 2.009 4.058 4.393 4.058zm0-8.233c-1.276 0-2.196-.99-2.196-2.136 0-1.184.938-2.155 2.196-2.155 1.333 0 2.103.971 2.103 2.155 0 1.146-.75 2.136-2.103 2.136zm0 6.7c-1.483 0-2.74-1.088-2.74-2.583s1.295-2.621 2.74-2.621c1.54 0 2.704 1.126 2.704 2.62 0 1.496-1.145 2.584-2.704 2.584zM107.354 68.7h1.784v-6.175h5.238v-1.747h-5.238v-3.942h5.613v-1.728h-7.397V68.7zM117.357 57.01h1.877v-1.902h-1.877v1.903zm.112 11.69h1.671V58.99h-1.671V68.7zM122.64 68.7h1.671v-4.602c0-2.64 1.183-3.767 2.479-3.767 1.295 0 2.196.951 2.196 2.68V68.7h1.671v-5.845c0-2.485-1.164-4.097-3.511-4.097-1.351 0-2.29.563-2.853 1.437l-.245-1.204h-1.408V68.7zM138.063 67.36c-1.877 0-3.116-1.553-3.116-3.514 0-1.962 1.239-3.515 3.116-3.515 1.859 0 3.117 1.553 3.117 3.515 0 1.96-1.258 3.514-3.117 3.514zm-.169 1.573c1.408 0 2.629-.738 3.155-1.534l.244 1.3h1.427v-9.708h-1.427l-.244 1.224c-.47-.641-1.54-1.457-3.155-1.457-2.741 0-4.656 2.253-4.656 5.088 0 2.834 1.802 5.087 4.656 5.087zM146.238 68.7h1.671v-4.602c0-2.64 1.183-3.767 2.478-3.767 1.296 0 2.197.951 2.197 2.68V68.7h1.671v-5.845c0-2.485-1.164-4.097-3.511-4.097-1.352 0-2.291.563-2.854 1.437l-.244-1.204h-1.408V68.7zM161.548 68.933c2.066 0 3.474-1.204 4.168-2.621l-1.483-.7c-.394.894-1.314 1.748-2.685 1.748-1.765 0-3.004-1.456-3.004-3.514 0-2.059 1.239-3.515 2.948-3.515 1.333 0 2.122.66 2.647 1.728l1.502-.699c-.732-1.728-2.234-2.602-4.093-2.602-2.835 0-4.712 2.253-4.712 5.088 0 2.834 1.877 5.087 4.712 5.087zM168.091 57.01h1.877v-1.902h-1.877v1.903zm.112 11.69h1.671V58.99h-1.671V68.7zM177.411 67.36c-1.878 0-3.117-1.553-3.117-3.514 0-1.962 1.239-3.515 3.117-3.515 1.859 0 3.117 1.553 3.117 3.515 0 1.96-1.258 3.514-3.117 3.514zm-.169 1.573c1.408 0 2.629-.738 3.154-1.534l.244 1.3h1.427v-9.708h-1.427l-.244 1.224c-.469-.641-1.539-1.457-3.154-1.457-2.741 0-4.656 2.253-4.656 5.088 0 2.834 1.802 5.087 4.656 5.087zM185.586 68.7h1.671V54.816h-1.671V68.7zM195.675 68.7h1.765v-9.864l3.755 9.864h1.577l3.755-9.864V68.7h1.765V55.108h-2.196l-4.093 11.087-4.131-11.087h-2.197V68.7zM216.08 67.36c-1.877 0-3.117-1.553-3.117-3.514 0-1.962 1.24-3.515 3.117-3.515 1.859 0 3.117 1.553 3.117 3.515 0 1.96-1.258 3.514-3.117 3.514zm-.169 1.573c1.408 0 2.629-.738 3.154-1.534l.245 1.3h1.426v-9.708h-1.426l-.245 1.224c-.469-.641-1.539-1.457-3.154-1.457-2.741 0-4.656 2.253-4.656 5.088 0 2.834 1.802 5.087 4.656 5.087zM224.255 68.7h1.671v-5.068c0-2.097.957-3.107 2.178-3.107.45 0 .957.117 1.333.33l.544-1.708a3.322 3.322 0 00-1.521-.389c-1.22 0-2.046.583-2.553 1.534l-.244-1.3h-1.408V68.7zM232.102 68.7h1.671v-4.563l3.887 4.563h2.121l-4.562-5.301 4.131-4.408h-2.141l-3.436 3.748v-7.923h-1.671V68.7zM245.138 68.933c2.046 0 3.473-1.107 4.187-2.621l-1.371-.7c-.62 1.127-1.502 1.748-2.741 1.748-1.746 0-2.929-1.165-3.061-2.951h7.398c.019-.233.037-.544.037-.777 0-2.718-1.595-4.874-4.449-4.874-2.91 0-4.657 2.253-4.657 5.088 0 2.873 1.69 5.087 4.657 5.087zm-2.967-5.942c.169-1.592 1.352-2.66 2.985-2.66 1.615 0 2.648 1.068 2.779 2.66h-5.764zM252.479 68.7h1.689v-8.136h2.028v-1.573h-2.028v-2.99l-1.689.33v2.66h-1.221v1.573h1.221V68.7zM260.629 68.933c2.009 0 3.286-1.301 3.286-2.99 0-1.418-.826-2.33-1.953-2.816l-1.37-.563c-.545-.233-1.089-.524-1.089-1.223 0-.583.488-1.049 1.089-1.049.619 0 1.107.37 1.389 1.068l1.333-.796c-.526-1.126-1.408-1.806-2.722-1.806-1.521 0-2.685 1.126-2.685 2.524 0 1.185.676 2.098 1.652 2.486l1.201.505c1.089.446 1.559.874 1.559 1.69 0 .795-.639 1.436-1.596 1.436-1.089 0-1.784-.621-2.084-1.65l-1.408.601c.525 1.534 1.633 2.583 3.398 2.583zM273.354 68.7h1.784V56.836h3.68v-1.728h-9.012v1.728h3.548V68.7zM283.885 68.933c2.854 0 4.863-2.253 4.863-5.087 0-2.835-2.009-5.088-4.863-5.088-2.854 0-4.844 2.253-4.844 5.088 0 2.834 1.99 5.087 4.844 5.087zm0-1.573c-1.784 0-3.136-1.456-3.136-3.514 0-2.059 1.352-3.515 3.136-3.515 1.783 0 3.154 1.456 3.154 3.515 0 2.058-1.371 3.514-3.154 3.514zM295.02 72.816c2.385 0 4.3-1.67 4.3-4.058 0-1.728-1.014-3.029-2.103-3.553.695-.427 1.502-1.495 1.502-2.738a3.087 3.087 0 00-.939-2.272l1.521-.272v-1.165h-4.281c-2.027 0-3.792 1.515-3.792 3.65 0 1.38.826 2.35 1.52 2.836-1.07.524-2.121 1.883-2.121 3.514 0 2.389 2.009 4.058 4.393 4.058zm0-8.233c-1.276 0-2.196-.99-2.196-2.136 0-1.184.938-2.155 2.196-2.155 1.333 0 2.103.971 2.103 2.155 0 1.146-.751 2.136-2.103 2.136zm0 6.7c-1.483 0-2.741-1.088-2.741-2.583s1.296-2.621 2.741-2.621c1.54 0 2.704 1.126 2.704 2.62 0 1.496-1.145 2.584-2.704 2.584zM305.993 68.933c2.046 0 3.473-1.107 4.187-2.621l-1.371-.7c-.62 1.127-1.502 1.748-2.741 1.748-1.746 0-2.929-1.165-3.061-2.951h7.398c.019-.233.038-.544.038-.777 0-2.718-1.596-4.874-4.45-4.874-2.91 0-4.657 2.253-4.657 5.088 0 2.873 1.69 5.087 4.657 5.087zm-2.967-5.942c.169-1.592 1.352-2.66 2.986-2.66 1.614 0 2.647 1.068 2.778 2.66h-5.764zM313.334 68.7h1.689v-8.136h2.028v-1.573h-2.028v-2.99l-1.689.33v2.66h-1.221v1.573h1.221V68.7zM319.269 68.7h1.671v-4.602c0-2.621 1.22-3.767 2.497-3.767 1.295 0 2.234.951 2.234 2.68V68.7h1.69v-5.845c0-2.485-1.146-4.097-3.568-4.097-1.239 0-2.309.583-2.853 1.437v-5.379h-1.671V68.7zM334.578 68.933c2.046 0 3.473-1.107 4.186-2.621l-1.37-.7c-.62 1.127-1.502 1.748-2.741 1.748-1.747 0-2.929-1.165-3.061-2.951h7.398c.019-.233.037-.544.037-.777 0-2.718-1.596-4.874-4.449-4.874-2.911 0-4.657 2.253-4.657 5.088 0 2.873 1.69 5.087 4.657 5.087zm-2.967-5.942c.169-1.592 1.352-2.66 2.985-2.66 1.615 0 2.648 1.068 2.779 2.66h-5.764zM341.674 68.7h1.671v-5.068c0-2.097.958-3.107 2.178-3.107.451 0 .958.117 1.333.33l.545-1.708a3.326 3.326 0 00-1.521-.389c-1.22 0-2.046.583-2.553 1.534l-.245-1.3h-1.408V68.7z" fill="#212A3F"/></svg>