<svg width="24" height="16" viewBox="0 0 24 16" fill="none" xmlns="http://www.w3.org/2000/svg">
<path d="M22.0125 0.0123901H1.9875C0.9 0.0123901 0 0.91239 0 1.99989V13.9999C0 15.0874 0.9 15.9874 1.9875 15.9874H21.975C23.0625 15.9874 23.9625 15.0874 23.9625 13.9999V1.99989C24 0.91239 23.1 0.0123901 22.0125 0.0123901ZM19.6125 1.99989L12.4125 6.38739C12.225 6.49989 11.925 6.49989 11.7 6.38739L4.3875 1.99989H19.6125ZM1.9875 13.9999V2.89989L10.575 8.11239C10.9875 8.41239 11.475 8.52489 11.9625 8.52489C12.45 8.52489 12.975 8.41239 13.35 8.11239L21.9375 2.89989V13.9999H1.9875Z" fill="#FB5F61"/>
</svg>
