<svg width="20" height="20" viewBox="0 0 20 20" fill="none" xmlns="http://www.w3.org/2000/svg">
  <path d="M8.78152 19.2187C8.18777 19.2187 7.62527 19.2187 7.03152 19.1875C5.46902 19.125 3.53152 18.9062 2.09402 17.6875C0.969016 16.7187 0.250266 15.2187 0.0627662 13.2812C-0.124734 11.625 0.0940163 9.25 0.906516 7.625C1.68777 6.0625 3.71902 5.09375 4.65652 4.59375C4.78152 4.53125 4.93777 4.4375 5.00027 4.40625C6.56277 3.4375 7.78152 2.59375 8.81277 1.75C9.37527 1.3125 10.0628 0.75 10.9378 0.75C11.9378 0.75 12.9065 1.46875 13.219 2.46875C13.469 3.25 13.3753 4.15625 12.9065 5.03125L12.6253 5.5C13.8128 5.5 15.0003 5.5 16.1565 5.53125C16.8128 5.5625 17.4378 5.59375 18.0628 5.875C18.7503 6.1875 19.3128 6.84375 19.5315 7.625C19.7503 8.375 19.6565 9.15625 19.2503 9.78125C19.1253 9.96875 19.0003 10.125 18.8128 10.2812C18.2503 10.8125 17.4378 11.125 16.5003 11.2187C15.969 11.2812 15.469 11.25 14.969 11.2187C15.0003 11.9375 14.7815 12.6875 14.2815 13.25C14.5003 14.1875 14.219 15.2187 13.5315 15.9062C13.6253 16.375 13.594 16.875 13.4378 17.375C13.1878 18.125 12.6253 18.6875 11.9378 18.9687C11.3753 19.1875 10.7503 19.1875 10.2815 19.2187H8.78152ZM11.0003 2.34375C10.6253 2.34375 10.219 2.6875 9.81277 3C8.71902 3.875 7.43777 4.75 5.84402 5.75C5.75027 5.8125 5.59402 5.875 5.37527 6C4.62527 6.375 2.87527 7.25 2.31277 8.34375C1.62527 9.65625 1.46902 11.75 1.62527 13.125C1.75027 14.1875 2.09402 15.625 3.12527 16.5C4.18777 17.4062 5.81277 17.5625 7.09402 17.625C8.15652 17.6562 9.25027 17.6562 10.2815 17.6562C10.6878 17.6562 11.094 17.6562 11.4065 17.5312C11.6565 17.4375 11.9065 17.1875 12.0003 16.875C12.094 16.5937 12.094 16.2812 11.969 16.0625C11.7503 15.6875 11.8753 15.2187 12.2503 15C12.7815 14.6875 13.0003 13.9375 12.719 13.4375C12.5315 13.0937 12.6565 12.6562 12.969 12.4375C13.4378 12.0937 13.594 11.3437 13.2815 10.8437C13.1253 10.5937 13.1253 10.2812 13.2503 10.0312C13.3753 9.78125 13.6565 9.625 13.9378 9.625C14.2503 9.625 14.594 9.65625 14.9065 9.65625C15.469 9.6875 15.9378 9.71875 16.4065 9.6875C16.969 9.625 17.5003 9.4375 17.7815 9.15625C17.844 9.09375 17.9065 9 17.969 8.9375C18.1253 8.71875 18.1565 8.40625 18.0628 8.0625C17.969 7.71875 17.719 7.4375 17.4378 7.3125C17.094 7.15625 16.6565 7.125 16.1565 7.125C14.4378 7.0625 12.719 7.09375 11.0315 7.125C10.719 7.125 10.4378 6.9375 10.3128 6.65625C10.1878 6.375 10.2503 6.03125 10.4378 5.8125C10.844 5.34375 11.2815 4.875 11.5628 4.34375C11.8128 3.84375 11.8753 3.375 11.7503 2.96875C11.6253 2.625 11.3128 2.34375 11.0003 2.34375Z" fill="#FB5F61"/>
</svg>
