<svg width="24" height="24" viewBox="0 0 24 24" fill="none" xmlns="http://www.w3.org/2000/svg">
<g clip-path="url(#clip0)">
<path d="M1.98753 5.77514V7.27514C1.98753 8.06264 2.28753 8.66264 2.70003 9.18764C3.30003 9.67514 3.90003 9.97514 4.68753 9.97514H7.27503C8.06253 9.97514 8.66253 9.67514 9.18753 9.18764C9.67503 8.70014 9.90003 7.98764 9.90003 7.27514V6.48764C10.9125 6.30014 12 6.18764 13.2 6.37514C13.5 6.37514 13.6875 6.48764 13.9875 6.48764V7.27514C13.9875 8.88764 15.075 9.97514 16.6875 9.97514H19.3125C20.025 9.97514 20.7 9.67514 21.225 9.18764C21.75 8.70014 21.9375 8.10014 21.9375 7.27514V5.58764C21.9375 4.68764 21.6375 3.90014 21.15 3.30014C20.3625 2.40014 19.35 1.80014 18.75 1.50014C17.1 0.750144 15.4875 0.262644 13.5 0.0751437C10.9875 -0.112356 8.58753 0.187644 6.30003 0.975144C4.72503 1.42514 3.11253 2.88764 3.11253 2.88764C2.28753 3.67514 1.98753 4.65014 1.98753 5.77514C1.98753 5.77514 1.98753 5.66264 1.98753 5.77514ZM4.50003 4.27514C5.28753 3.48764 6.15003 3.26264 7.01253 2.88764C9.00003 2.17514 11.1 1.87514 13.3125 2.06264C15.1125 2.25014 16.5 2.55014 17.925 3.26264C18.4125 3.45014 19.125 3.86264 19.6125 4.57514C19.95 5.10014 20.025 5.17514 20.025 5.58764V7.27514C20.025 7.46264 20.0625 7.57514 19.8375 7.80014C19.725 7.91264 19.65 7.95014 19.35 7.95014H16.7625C16.4625 7.95014 16.05 7.83764 16.05 7.23764V5.62514C16.05 5.21264 15.8625 4.83764 15.45 4.61264C14.85 4.42514 13.2 3.97514 12.0375 4.01264C10.2 4.05014 8.77503 4.61264 8.77503 4.61264C8.21253 4.91264 8.06253 5.10014 8.06253 5.62514V7.23764C8.06253 7.42514 8.06253 7.65014 7.87503 7.72514C7.87503 7.72514 7.76253 7.91264 7.46253 7.91264H4.87503C4.68753 7.91264 4.46253 7.80014 4.38753 7.72514C4.20003 7.53764 4.08753 7.31264 4.08753 7.12514V5.51264C4.12503 4.91264 4.20003 4.65014 4.50003 4.27514ZM22.125 13.8001C22.0125 12.7876 21.1125 12.0001 20.1375 12.0001H3.90003C2.88753 12.0001 1.98753 12.7876 1.91253 13.8001L1.08753 21.7876C0.975031 22.3876 1.20003 22.8751 1.57503 23.2876C1.95003 23.7001 2.47503 24.0001 3.07503 24.0001H20.8875C21.4875 24.0001 21.975 23.8126 22.3875 23.2876C22.8 22.8751 22.9875 22.2751 22.875 21.7876L22.125 13.8001ZM3.07503 22.0126L3.86253 13.9876H20.1L20.8875 22.0126H3.07503Z" fill="#FB5F61"/>
<path d="M12 15C10.3125 15 9 16.3125 9 18C9 19.6875 10.3125 21 12 21C13.6875 21 15 19.6875 15 18C15 16.3125 13.6875 15 12 15ZM12 18.975C11.4 18.975 10.9875 18.5625 10.9875 17.9625C10.9875 17.3625 11.4 16.95 12 16.95C12.6 16.95 13.0125 17.3625 13.0125 17.9625C13.0125 18.5625 12.6 18.975 12 18.975Z" fill="#FB5F61"/>
</g>
<defs>
<clipPath id="clip0">
<rect width="24" height="24" fill="white"/>
</clipPath>
</defs>
</svg>
