<svg width="88" height="89" viewBox="0 0 88 89" fill="none" xmlns="http://www.w3.org/2000/svg">
<rect y="0.816406" width="88" height="88" rx="15" fill="#6A717E"/>
<g clip-path="url(#clip0)">
<path d="M51.6875 31.1914L46.1875 26.5039C44.875 25.5039 43 25.5039 41.6875 26.5039L36.1875 31.1914C35.5 31.8789 35.375 32.8789 36 33.5039C36.625 34.1289 37.6875 34.3164 38.3125 33.6914L42.3125 30.3789V64.1289C42.3125 65.1289 43 65.8164 44 65.8164C45 65.8164 45.6875 65.1289 45.6875 64.1289V30.5664L49.6875 33.8789C49.875 34.0664 50.375 34.1914 50.6875 34.1914C51.1875 34.1914 51.6875 34.0039 52 33.5039C52.5 32.8789 52.5 31.8789 51.6875 31.1914Z" fill="white"/>
</g>
<defs>
<clipPath id="clip0">
<rect width="40" height="40" fill="white" transform="translate(24 25.8164)"/>
</clipPath>
</defs>
</svg>
