<svg width="120" height="29" viewBox="0 0 120 29" fill="none" xmlns="http://www.w3.org/2000/svg">
<path d="M112.938 12.3084C112.938 14.0113 114.451 14.699 115.8 15.3321C116.847 15.8015 117.943 16.2928 117.943 17.1115C117.943 17.3625 117.895 17.5699 117.778 17.7118C117.526 18.0502 117.022 18.1812 116.207 18.1376C115.402 18.1048 114.5 17.821 113.491 17.2861L113.093 17.0678V19.1855L113.365 19.2619L113.52 19.2947C114.024 19.4366 114.994 19.6877 115.955 19.6877C118.487 19.6877 120 18.5524 120 16.6748C120 14.9064 118.438 14.2187 117.061 13.6074C116.042 13.1489 114.994 12.6904 114.994 11.9263C114.994 11.708 114.994 11.0749 116.304 11.0749C117.274 11.0749 118.215 11.5224 118.749 11.7517L119.234 11.9809V9.84134L118.749 9.74309C118.254 9.63393 117.439 9.44836 116.585 9.44836C114.393 9.44836 112.938 10.6055 112.938 12.3084Z" fill="#B3B2B2"/>
<path d="M108.388 9.79768H106.778L106.768 9.84134C106.283 11.315 103.247 18.7598 102.985 19.3711L102.936 19.5021H104.993L105.002 19.4475C105.177 18.7816 105.41 18.0393 105.681 17.2206C105.749 17.2206 107.379 17.1879 107.379 17.1879L108.795 17.2097C108.795 17.2097 109.038 17.2097 109.096 17.2097C109.465 18.2577 109.746 19.0436 109.863 19.4366L109.882 19.4912H112.259L108.437 9.78676H108.388V9.79768ZM107.389 12.6468C107.583 13.0943 108.078 14.3934 108.631 15.9325C108.543 15.9325 108.437 15.9434 108.437 15.9434L107.379 15.9544C107.379 15.9544 106.283 15.9325 106.118 15.9325C106.574 14.699 107.011 13.5965 107.389 12.6468Z" fill="#B3B2B2"/>
<path d="M94.4382 9.88501C94.5061 10.9002 94.5449 13.4655 94.5449 14.4043C94.5449 15.2666 94.5449 18.1594 94.4188 19.4038L94.3994 19.5021H98.4155C100.385 19.5021 102.471 18.8144 102.471 16.8386C102.471 15.605 101.675 14.699 100.181 14.1969C101.287 13.8694 102.024 13.0179 102.024 12.0464C102.024 10.4417 100.385 9.83043 98.8521 9.78676H94.4188L94.4382 9.88501ZM97.5327 10.8784C99.2207 10.8893 99.8319 11.2714 99.8319 12.2975C99.8319 12.5813 99.7542 12.8324 99.599 13.0179C99.2983 13.4546 98.6484 13.6729 97.8529 13.6183H97.8141L97.3484 14.9828H97.8141C98.7454 14.9501 99.5311 15.2776 99.9483 15.8452C100.152 16.1072 100.249 16.4128 100.249 16.7294C100.249 17.7992 99.405 18.3559 97.7462 18.3559C97.4745 18.3559 97.0283 18.3559 96.747 18.345C96.6791 16.915 96.6791 14.9828 96.6791 14.3934C96.6791 13.7166 96.6985 12.2211 96.747 10.933C96.9216 10.9002 97.2417 10.8784 97.5327 10.8784Z" fill="#B3B2B2"/>
<path d="M89.8885 9.79768L89.8982 9.88501C89.9564 10.9002 90.0049 13.4655 90.0049 14.4043C90.0049 15.2667 89.9952 18.1485 89.8885 19.4038L89.8788 19.5021H92.2652L92.2555 19.4038C92.1682 18.1485 92.1391 15.2667 92.1391 14.4043C92.1391 13.4655 92.1973 10.9002 92.2555 9.88501V9.79768H89.8885Z" fill="#B3B2B2"/>
<path d="M80.3816 9.88501C80.4495 10.9002 80.4883 13.4655 80.4883 14.4043C80.4883 15.2666 80.4883 18.1594 80.3525 19.4038V19.5021H82.768L82.7583 19.4038C82.6322 18.1485 82.6225 15.2666 82.6225 14.4043C82.6225 13.7275 82.6419 12.232 82.7001 11.0094C82.8844 10.9984 83.1657 10.9657 83.35 10.9657C84.4656 10.9439 85.2611 11.2059 85.6298 11.7298C85.8044 11.9591 85.882 12.2647 85.882 12.6031C85.882 13.7275 84.9507 14.2951 84.0873 14.3388C83.7963 14.3497 83.5829 14.306 83.5829 14.306L83.418 14.2733L83.515 14.4479C84.3686 15.8561 85.6589 18.2904 86.1827 19.4475L86.2021 19.4912H88.7825L88.7146 19.3602C88.6079 19.1964 86.9297 16.4128 86.2118 15.223C86.2118 15.223 86.1827 15.1902 86.1536 15.1466C87.4729 14.699 88.1132 13.8694 88.1132 12.5922C88.1132 10.3544 85.9596 9.83043 84.1358 9.78676H80.3719L80.3816 9.88501Z" fill="#B3B2B2"/>
<path d="M73.9693 9.79767H73.9402L73.9208 9.84134C73.4745 11.2168 70.5934 18.2904 70.1374 19.3711L70.0986 19.4912H72.1455L72.1649 19.4366C72.3492 18.7707 72.5821 18.0175 72.8537 17.2206C72.9313 17.2206 74.561 17.1879 74.561 17.1879L75.9774 17.1988C75.9774 17.1988 76.2005 17.2097 76.2781 17.2097C76.637 18.2577 76.9184 19.0436 77.0445 19.4366L77.0639 19.4803H79.4309L75.599 9.77585H73.9693V9.79767ZM74.5513 12.6577C74.7454 13.1162 75.2401 14.4152 75.793 15.9544C75.7057 15.9544 75.599 15.9544 75.599 15.9544L74.5513 15.9653C74.5513 15.9653 73.4648 15.9544 73.2805 15.9434C73.7365 14.7208 74.1827 13.6074 74.5513 12.6577Z" fill="#B3B2B2"/>
<path d="M63.017 9.88502C63.0946 10.9002 63.1334 13.4655 63.1334 14.4043C63.1334 15.2667 63.1237 18.1594 62.9976 19.4038V19.5021H65.4034L65.3937 19.4038C65.3161 18.5087 65.2773 16.7949 65.2773 15.4959C65.3937 15.4959 65.7138 15.5177 65.7138 15.5177L66.0631 15.5286C69.2159 15.5286 70.768 14.5899 70.768 12.614C70.768 10.3653 68.6047 9.84134 66.8003 9.8086H63.0267V9.88502H63.017ZM65.9661 10.9657C67.0914 10.9439 67.8771 11.195 68.2555 11.7298C68.4301 11.9591 68.5174 12.2647 68.5174 12.6031C68.5174 14.0113 67.1108 14.3169 65.9564 14.3169L65.481 14.2842C65.481 14.2842 65.3549 14.2733 65.287 14.2624C65.2773 13.9349 65.2773 13.5092 65.2773 13.0288C65.2773 12.4066 65.2773 11.6971 65.2967 11.0203C65.4422 10.9985 65.7041 10.9657 65.9661 10.9657Z" fill="#B3B2B2"/>
<path d="M50.6968 9.88502C50.7745 10.9002 50.8036 13.4655 50.8036 14.4043C50.8036 15.2667 50.8036 18.1594 50.6871 19.4038V19.5021H53.0833L53.0736 19.4038C52.996 18.5087 52.9475 16.7949 52.9378 15.4959C53.0542 15.4959 53.3937 15.5177 53.3937 15.5177L53.7332 15.5286C56.8957 15.5286 58.4285 14.5899 58.4285 12.614C58.4285 10.3653 56.2749 9.84134 54.4802 9.8086H50.6968V9.88502ZM53.6556 10.9657C54.7809 10.9439 55.5667 11.195 55.9353 11.7298C56.1099 11.9591 56.1973 12.2647 56.1973 12.6031C56.1973 14.0113 54.7906 14.3169 53.6168 14.3169L53.1415 14.2842C53.1415 14.2842 53.0251 14.2733 52.9475 14.2624C52.9378 13.9349 52.9378 13.5092 52.9378 13.0288C52.9378 12.4175 52.9378 11.6971 52.9669 11.0203C53.1415 10.9985 53.384 10.9657 53.6556 10.9657Z" fill="#B3B2B2"/>
<path d="M48.3686 9.79768H46.4188L46.4964 12.2429C46.5352 13.4546 46.574 14.699 46.6516 15.8998C46.5255 15.5177 46.409 15.3321 45.8173 14.3497C45.8173 14.3169 43.7898 10.802 43.0816 9.80859L43.0622 9.78676H40.8019V9.8741C40.8698 10.8893 40.8989 13.4546 40.8989 14.3933C40.8989 15.2557 40.8989 18.1485 40.7922 19.3929L40.7728 19.4912H42.7809V19.3929C42.6645 17.0241 42.6645 14.6335 42.6645 12.3193C42.7324 12.6031 42.8197 12.8433 43.1399 13.3672C43.169 13.4327 46.6419 19.12 46.8068 19.4475L46.8262 19.4912H48.4462V19.3929C48.3201 18.1485 48.3104 15.2557 48.3104 14.3933C48.3104 13.4546 48.3686 10.8893 48.4171 9.8741L48.4462 9.78676H48.3686V9.79768Z" fill="#B3B2B2"/>
<path d="M31.0816 9.88501C31.1302 10.9002 31.1884 13.4655 31.1884 14.4043C31.1884 15.2666 31.1884 18.1594 31.0525 19.4038L31.0428 19.5021H35.0493C37.0186 19.5021 39.1043 18.8144 39.1043 16.8386C39.1043 15.605 38.3088 14.699 36.8246 14.1969C37.9305 13.8694 38.658 13.0179 38.658 12.0464C38.658 10.4417 37.0186 9.83043 35.4762 9.78676H31.0525L31.0816 9.88501ZM34.1762 10.8784C35.8448 10.8893 36.4656 11.2714 36.4656 12.2975C36.4656 12.5813 36.388 12.8324 36.2425 13.0179C35.9224 13.4546 35.3015 13.6729 34.5061 13.6183H34.4673L34.0016 14.9828H34.4673C35.3888 14.9501 36.194 15.2776 36.6015 15.8452C36.7955 16.1072 36.8828 16.4128 36.8828 16.7294C36.8828 17.7992 36.0485 18.3559 34.3897 18.3559C34.1083 18.3559 33.6621 18.3559 33.3808 18.345C33.3323 16.915 33.3129 14.9828 33.3129 14.3934C33.3129 13.7166 33.3517 12.2211 33.3808 10.933C33.5651 10.9002 33.8852 10.8784 34.1762 10.8784Z" fill="#B3B2B2"/>
<path d="M24.8343 0.671814H0V28.617H24.8343V0.671814Z" fill="url(#paint0_linear)"/>
<path d="M24.0679 14.8081C24.0679 20.6373 24.3104 26.6084 24.3104 26.6084C24.3007 27.2852 23.9224 27.711 23.4373 27.711H1.94016C1.45512 27.711 1.12529 27.2307 1.06708 26.6084C1.06708 26.6084 0.446228 21.5106 0.446228 13.7165C0.446228 5.93336 1.06708 2.26555 1.06708 2.26555C1.14469 1.6215 1.45512 1.16302 1.94016 1.16302H23.4373C23.9224 1.16302 24.3201 1.66516 24.3104 2.26555C24.3104 2.26555 24.0679 8.97895 24.0679 14.8081Z" fill="url(#paint1_linear)"/>
<path d="M8.06144 23.3336L8.13905 23.1371C7.32417 22.7878 6.5093 22.504 5.84964 21.8054C6.05336 21.1504 6.29588 20.6483 6.68391 20.0042L6.76152 19.8077C6.06306 19.9278 5.4228 20.2116 4.82134 20.3535C4.346 19.4038 4.16168 18.1157 3.91916 16.8822L3.84155 17.0787C3.70574 18.4869 3.64754 19.4911 3.83185 20.6155C3.32741 20.7792 2.88117 20.8011 2.48343 20.9976L2.40582 21.1831C3.05578 21.6307 3.57963 21.9691 4.3169 22.3621C4.70493 23.3009 5.11237 23.9449 5.77203 24.6763L5.84964 24.4798C5.73323 23.9449 5.57801 23.4974 5.63622 22.9188C6.44139 23.159 7.13986 23.2899 8.06144 23.3336Z" fill="#929292"/>
<path d="M12.7567 21.5543C12.3589 22.1656 12.0097 22.6459 11.5732 23.2026C10.9232 23.4101 10.1374 23.3118 9.53598 23.3336L9.45837 23.5301C9.91432 23.7921 10.3606 23.9559 10.8359 24.065C10.4479 24.458 9.93372 24.7636 9.57478 25.0365L9.49718 25.233C10.2732 25.0256 11.2918 24.6545 12.0582 24.1523C12.4559 24.1742 12.8246 24.1414 13.0962 24.0759L13.1738 23.8794C13.1253 23.683 12.9701 23.5629 12.9216 23.29C13.6298 22.6678 14.1536 22.1001 14.7454 21.4233L14.823 21.2268C14.2312 21.6853 13.523 22.3075 12.8343 22.6787C12.8052 22.3075 12.7761 21.98 12.7567 21.5543Z" fill="#929292"/>
<path d="M10.3314 9.29553C10.3314 9.29553 10.0016 9.9505 9.73969 10.8129H9.67178C11.5829 11.1076 13.3872 11.97 13.8432 12.2756L13.7656 12.4721C11.7866 12.0791 10.7389 12.1228 10.0016 12.1992C9.26434 12.2756 9.10913 12.3848 9.10913 12.3848C8.68229 13.4327 8.43007 15.1466 8.33306 15.7688L8.25545 15.9653C7.89652 14.9828 7.37267 13.0179 7.37267 13.0179C6.37348 13.6183 4.06467 16.0526 4.06467 16.0526C5.33548 13.2035 6.616 11.9045 6.616 11.9045C6.16976 11.4023 5.01535 11.1513 4.16168 11.1076L4.23928 10.9111C4.77283 10.7365 5.86903 10.66 6.5966 10.6273C7.46968 10.5945 7.99353 10.6491 7.99353 10.6491C8.7696 9.96142 9.924 9.36103 10.3314 9.29553Z" fill="#929292"/>
<path d="M19.2854 8.22573C17.7526 9.24093 17.2773 9.31735 15.6184 10.4417L15.696 10.2343C16.5691 9.16452 16.9475 8.70605 17.5295 7.75635C15.9871 7.85459 13.7559 8.062 12.1649 8.45498L12.2522 8.25849C13.6977 7.46161 16.3945 6.67565 17.7623 6.47916C17.4228 5.94427 14.7066 4.29594 14.0275 3.96845L14.1051 3.77197C16.1714 4.03396 18.907 5.11466 20.1002 5.94428C20.6047 5.76962 21.1188 5.74778 22.0501 5.66045C22.0501 5.66045 21.9143 6.29358 20.8957 7.07954C21.1479 7.84367 20.5465 12.0573 20.042 13.1707C20.0032 11.4132 19.8674 9.18635 19.2854 8.22573Z" fill="#929292"/>
<path d="M12.844 21.3687C12.4462 21.98 12.097 22.4603 11.6508 23.017C10.8844 23.2572 10.2732 23.3445 9.53598 23.3445C9.99192 23.6065 10.4382 23.7703 10.9135 23.8794C10.4382 24.3706 10.0307 24.7091 9.57478 25.0475C10.3509 24.84 11.3694 24.4689 12.1261 23.9668C12.5239 23.9886 12.8925 23.9558 13.1641 23.8903C13.0962 23.6283 13.0477 23.4428 12.9895 23.1044C13.7074 22.4712 14.2215 21.9145 14.823 21.2377C14.1924 21.729 13.6395 22.1001 12.9119 22.4931C12.8731 22.111 12.8634 21.7944 12.844 21.3687Z" fill="white"/>
<path d="M8.13904 23.1262C7.25626 22.766 6.6257 22.3293 5.92724 21.598C6.14066 20.9539 6.37348 20.4409 6.76151 19.7859C6.04365 19.906 5.5198 20.0042 4.89894 20.1352C4.3945 19.1418 4.17138 18.1921 3.90945 16.8604C3.77364 18.2686 3.71543 19.2728 3.89975 20.3972C3.3371 20.5718 2.92966 20.7247 2.46402 20.9648C3.11398 21.4124 3.64753 21.7617 4.37509 22.1438C4.76313 23.0935 5.17057 23.7266 5.83023 24.4471C5.67501 23.8249 5.63621 23.3336 5.69442 22.6787C6.51899 22.9625 7.21746 23.1044 8.13904 23.1262Z" fill="white"/>
<path d="M10.4382 9.13177C10.1665 9.53567 9.8464 10.278 9.75909 10.6273C12.0291 10.9766 13.8529 12.2865 13.8529 12.2865C11.8739 11.8936 10.8262 11.9372 10.0792 12.0136C9.34195 12.09 9.19644 12.1883 9.19644 12.1883C8.66289 13.5091 8.34276 15.7797 8.34276 15.7797C7.98383 14.7972 7.45998 12.8432 7.45998 12.8432C6.46079 13.4436 4.15198 15.8779 4.15198 15.8779C5.42279 13.0288 6.70331 11.7298 6.70331 11.7298C6.25707 11.2277 5.10266 10.9766 4.25869 10.9329C4.69523 10.7364 5.83023 10.4963 6.69361 10.4526C7.56669 10.4199 8.09054 10.4745 8.09054 10.4745C8.85691 9.77583 10.0307 9.19727 10.4382 9.13177Z" fill="white"/>
<path d="M19.363 8.02926C17.8302 9.04446 17.3646 9.13179 15.696 10.2561C16.6661 9.07721 17.0057 8.56414 17.6071 7.57078C16.0744 7.65811 13.8335 7.86552 12.2425 8.26941C13.6298 7.43979 16.3848 6.51192 17.8302 6.28269C17.4907 5.75871 14.7648 4.09946 14.0857 3.7829C16.2393 3.96847 18.8779 4.8745 20.1584 5.75871C20.6629 5.58405 21.1867 5.57314 22.118 5.48581C21.8755 5.94428 21.8658 6.21719 20.9539 6.89399C21.2061 7.65811 20.6047 11.8717 20.1002 12.9852C20.0905 11.2168 19.945 8.98988 19.363 8.02926Z" fill="white"/>
<defs>
<linearGradient id="paint0_linear" x1="12.4166" y1="-0.0156381" x2="12.4166" y2="29.4833" gradientUnits="userSpaceOnUse">
<stop stop-color="#929292"/>
<stop offset="0.6" stop-color="#C4C4C4"/>
<stop offset="1" stop-color="#929292"/>
</linearGradient>
<linearGradient id="paint1_linear" x1="12.3779" y1="27.7108" x2="12.3779" y2="1.17003" gradientUnits="userSpaceOnUse">
<stop stop-color="#C4C4C4"/>
<stop offset="0.25" stop-color="#A7A7A7"/>
<stop offset="0.3567" stop-color="#929292"/>
<stop offset="0.5902" stop-color="#C4C4C4"/>
<stop offset="1" stop-color="#E5E5E5"/>
</linearGradient>
</defs>
</svg>
