<svg width="116" height="51" viewBox="0 0 116 51" fill="none" xmlns="http://www.w3.org/2000/svg">
<path d="M44.4604 30.8476H41.6881V34.147H44.4604V39.7698C44.4604 43.1279 46.8032 44.7678 49.7122 44.7678C50.5127 44.7874 51.3327 44.6897 52.1136 44.475V41.1365C51.6255 41.2927 51.1179 41.3708 50.5908 41.3512C48.9508 41.3512 48.2285 40.7265 48.2285 39.0475V34.1666H51.2546V30.8671H48.2285V25.381L44.4799 28.5828L44.4604 30.8476ZM10.4114 39.2817C10.4114 40.4141 9.35715 41.156 7.79527 41.156C6.09672 41.1169 4.51532 40.2579 3.55867 38.8522L0.513 41.4293C1.91869 43.5769 4.53484 44.924 7.63908 44.924C11.6804 44.924 14.4528 42.5226 14.5114 39.0279C14.5114 36.0799 12.7347 34.2837 9.86476 33.2295L8.30288 32.6633C6.21387 31.9214 5.23769 31.3942 5.23769 30.2228C5.23769 29.0319 6.48719 28.4852 7.85384 28.4852C9.22049 28.4657 10.509 29.0905 11.3485 30.1643L13.9842 27.4505C12.4419 25.6738 10.1771 24.6977 7.83432 24.7562C4.04676 24.7562 1.23537 26.9234 1.23537 30.6133C1.23537 33.288 2.91439 35.0842 6.05768 36.197L7.69765 36.7632C9.63048 37.427 10.4114 38.1884 10.4114 39.2622V39.2817ZM12.3442 14.7602C12.3442 16.0097 11.329 17.0054 10.0795 17.0054C10.021 17.0054 9.96238 17.0054 9.88428 17.0054H5.92101V12.554H9.90381C11.1533 12.4564 12.2466 13.374 12.3442 14.6235C12.3442 14.6821 12.3442 14.7407 12.3442 14.8188V14.7602ZM11.0166 6.97033C11.0166 8.18079 10.0405 9.13743 8.83002 9.13743C8.79097 9.13743 8.75192 9.13743 8.71287 9.13743H5.92101V4.76416H8.71287C9.94286 4.70559 10.9776 5.66225 11.0166 6.89223C11.0166 6.93128 11.0166 6.95081 11.0166 6.97033ZM16.2294 14.9164C16.2685 12.9445 15.1166 11.1484 13.3204 10.3284C14.3161 9.44981 14.8823 8.16126 14.8628 6.83366C14.8628 3.69038 12.2857 1.1328 9.14239 1.1328C9.12287 1.1328 9.10334 1.1328 9.08382 1.1328H1.93822V20.6563H10.2162C13.6718 20.6758 16.249 18.1768 16.2294 14.9164ZM17.6156 28.5438V30.8281H14.8237V34.1275H17.5961V39.7503C17.5961 43.1083 19.9389 44.7483 22.8479 44.7483C23.6484 44.7678 24.4683 44.6702 25.2493 44.4555V41.1169C24.7612 41.2927 24.2341 41.3707 23.7069 41.3707C22.0865 41.3707 21.3641 40.7069 21.3641 39.0279V34.147H25.2493V30.8476H21.3641V25.3615L17.6156 28.5438ZM23.8826 2.73373C23.9022 1.58184 22.965 0.644709 21.8132 0.644709C20.6613 0.625185 19.7241 1.56231 19.7241 2.7142C19.7046 3.86608 20.6417 4.80321 21.7936 4.80321C21.8132 4.80321 21.8132 4.80321 21.8327 4.80321C22.965 4.78369 23.8826 3.86609 23.8826 2.73373ZM30.3449 2.73373C30.3449 1.58184 29.4273 0.664232 28.2754 0.644709C27.1235 0.644709 26.2059 1.56231 26.1864 2.7142C26.1864 3.86608 27.104 4.78369 28.2559 4.80321H28.2754C29.4273 4.80321 30.3449 3.88561 30.3449 2.73373ZM28.4707 13.784C28.4707 15.8926 27.0455 17.4349 25.0541 17.4349C23.1407 17.4349 21.5984 15.8926 21.5984 13.9793C21.5984 13.9012 21.5984 13.8426 21.5984 13.7645C21.4813 11.8707 22.926 10.2308 24.8198 10.1136C24.8979 10.1136 24.9564 10.1136 25.0345 10.1136C27.0455 10.1331 28.4707 11.6755 28.4707 13.784ZM32.2973 13.784C32.3363 9.78171 29.1345 6.52129 25.1321 6.48224C21.1298 6.4432 17.8694 9.64504 17.8304 13.6474C17.7913 17.6497 20.9932 20.9101 24.9955 20.9492C25.015 20.9492 25.0345 20.9492 25.0541 20.9492C29.0173 20.9687 32.2582 17.7863 32.2778 13.8231C32.2778 13.8036 32.2778 13.784 32.2778 13.7645L32.2973 13.784ZM33.3906 41.4293C31.7701 41.4293 31.0478 40.2189 31.0478 38.1494V30.8281H27.2993V38.7937C27.2993 42.4445 29.1735 44.8655 32.473 44.8655C33.9568 44.924 35.382 44.2212 36.2215 42.9912V44.5531H39.97V30.8085H36.2215V37.5441C36.2215 40.2189 35.0696 41.4488 33.3906 41.4488V41.4293ZM41.2195 10.4455C41.8052 10.4455 42.3714 10.5626 42.9181 10.7579V6.93128C42.5081 6.81414 42.0981 6.75556 41.6686 6.75556C40.1457 6.75556 38.7986 7.71222 38.2519 9.11792V6.91175H34.5034V20.6563H38.2519V14.0769C38.2715 11.8317 39.4429 10.426 41.2195 10.4455ZM47.7794 10.5626C47.7794 9.99647 48.4042 9.70362 49.2437 9.70362C50.2589 9.72314 51.2546 10.1331 51.9965 10.836L54.105 8.55173C52.8946 7.26318 51.1765 6.54081 49.3999 6.59938C46.5104 6.59938 44.4019 8.27841 44.4019 10.7774C44.3433 12.925 45.6123 14.565 48.1113 15.2288L49.068 15.5021C50.5518 15.9121 51.0984 16.1659 51.0984 16.7516C51.0984 17.3373 50.3565 17.7473 49.3999 17.7473C48.1699 17.8059 46.9985 17.2397 46.2761 16.244L43.7771 18.3916C45.0461 20.0706 47.057 21.0273 49.1656 20.9492C52.2503 20.9492 54.4955 19.2116 54.4955 16.5759C54.4955 14.3307 53.1289 12.7883 50.7079 12.0855L49.4194 11.7341C48.0723 11.3436 47.7794 11.1093 47.7794 10.5822V10.5626ZM54.7884 28.5438V30.8281H52.5822V34.1275H54.7884V39.7503C54.7884 43.1083 57.1312 44.7483 60.0402 44.7483C60.8406 44.7678 61.6606 44.6702 62.4416 44.4555V41.1169C61.9535 41.2731 61.4263 41.3512 60.8992 41.3317C59.2788 41.3317 58.5564 40.7069 58.5564 39.0279V34.147H62.4416V30.8476H58.5564V25.3615L54.7884 28.5438ZM66.0339 12.1245H59.6107C59.9621 10.4455 61.5435 9.72314 62.9297 9.72314C64.4135 9.62552 65.7411 10.6603 66.0534 12.1245H66.0339ZM69.7434 14.7016C69.7824 14.2721 69.8019 13.8426 69.8019 13.4131C69.8019 8.96173 66.6391 6.65795 63.0468 6.65795C59.1616 6.54081 55.9207 9.58648 55.8036 13.4717C55.8036 13.5888 55.8036 13.6864 55.8036 13.8036C55.8036 18.1768 58.9859 20.9882 63.0858 20.9882C65.5849 21.0858 67.9863 19.9339 69.47 17.9035L66.6587 15.8145C65.8387 16.9468 64.5111 17.6106 63.1054 17.5521C61.2897 17.5521 59.6692 16.5368 59.4545 14.6821L69.7434 14.7016ZM74.4876 37.5246C74.4681 39.4379 72.8867 40.9803 70.9734 40.9608C69.06 40.9412 67.5177 39.3598 67.5372 37.4465C67.5567 35.5332 69.1186 34.0104 71.0319 34.0104C72.9062 33.9713 74.4681 35.4746 74.5071 37.3684C74.4876 37.4075 74.4876 37.4661 74.4876 37.5246ZM77.9432 43.5574V30.8476H74.1947V32.3899C73.2576 31.16 71.7738 30.4571 70.2315 30.5157C66.6587 30.5157 63.7496 33.6004 63.7496 37.466C63.7496 41.3512 66.6587 44.3969 70.2315 44.3969C71.7738 44.4555 73.2381 43.7917 74.1947 42.5812V43.5183C74.1947 45.7245 72.7695 47.2668 70.5438 47.2668C68.9429 47.2668 67.4201 46.6616 66.2487 45.5683L64.1596 48.4383C65.7215 49.922 68.201 50.6444 70.5634 50.6444C74.7804 50.6249 77.9432 48.5163 77.9432 43.5574ZM90.3407 37.7199C90.3407 39.8674 88.935 41.4684 86.8655 41.4684C84.796 41.4684 83.4098 39.8674 83.4098 37.7199C83.4098 35.5723 84.8155 33.9713 86.8655 33.9713C88.935 33.9909 90.3407 35.5723 90.3407 37.7199ZM90.0478 44.5921H93.7963V30.8476H90.0478V32.3899C89.0912 31.1795 87.6269 30.4766 86.0845 30.5157C82.4336 30.5157 79.6223 33.7956 79.6223 37.7003C79.6223 41.605 82.4336 44.885 86.0845 44.885C87.6269 44.924 89.0912 44.2212 90.0478 43.0107V44.5921ZM102.328 34.3618C102.914 34.3618 103.48 34.479 104.027 34.6547V30.8281C103.617 30.7109 103.207 30.6523 102.777 30.6719C101.254 30.6719 99.9072 31.6285 99.3605 33.0342V30.8281H95.612V44.5726H99.3605V38.0127C99.3801 35.7675 100.551 34.3618 102.328 34.3618ZM111.582 39.067V34.147H115.467V30.8476H111.582V25.3615L107.834 28.5633V30.8476H105.061V34.147H107.834V39.7698C107.834 43.1279 110.177 44.7678 113.086 44.7678C113.886 44.7874 114.706 44.6897 115.487 44.475V41.1365C114.999 41.3122 114.472 41.3903 113.945 41.3903C112.324 41.3903 111.602 40.7265 111.602 39.0475" fill="#B3B2B2"/>
</svg>
