<svg width="84" height="51" viewBox="0 0 84 51" fill="none" xmlns="http://www.w3.org/2000/svg">
<path d="M32.7297 41.7843C31.9976 41.3724 31.209 41.3833 31.0587 41.3833C31.0211 41.3833 31.0211 41.3833 31.0211 41.3833C30.7208 41.3833 30.3332 41.1261 30.3332 40.8266C30.3144 40.5459 30.7208 40.2699 31.0023 40.2699C31.0023 40.2699 31.0211 40.2699 31.0587 40.2699C31.19 40.2699 31.8848 40.2366 32.5044 39.8813C33.2929 39.4696 33.6498 38.7673 33.6498 37.7755C33.6498 36.7281 33.2366 36.0209 32.373 35.5718C31.697 35.2539 31.0023 35.2598 30.9835 35.2598H26.3065V40.2699H28.8444C29.1448 40.2699 29.3889 40.5275 29.3889 40.8266C29.3889 41.1073 29.1448 41.3833 28.8444 41.3833H26.3065V47.1525H30.9272H30.9648C31.0399 47.1525 31.866 47.1294 32.6734 46.774C33.6309 46.3434 34.1005 45.6358 34.1005 44.5694C34.1005 43.2405 33.6309 42.3081 32.7297 41.7843Z" fill="#B3B2B2"/>
<path d="M46.1552 0.644409L23.921 26.3921C23.1492 27.2852 22.0588 27.7531 20.9622 27.7531C20.0603 27.7531 19.1542 27.4484 18.4172 26.8158C16.784 25.4141 16.6003 22.9411 18.0069 21.3136L35.8546 0.644409H0.305908V27.9023L8.84745 17.9102C10.2598 16.286 12.7296 16.11 14.3594 17.5158C15.9873 18.9233 16.1573 21.3789 14.7467 23.0031L0.305908 39.7577V50.6444H50.2758V0.644409H46.1552ZM34.5323 46.6256C34.1755 47.1121 33.7061 47.4922 33.1052 47.7545C32.1287 48.1849 31.1338 48.2153 30.9648 48.2153C30.9272 48.2153 30.9272 48.2153 30.9272 48.2153H25.7464C25.4645 48.2153 25.1893 47.9484 25.1893 47.6489V34.7003C25.1893 34.4011 25.4645 34.1464 25.7464 34.1464H30.9835C31.0211 34.1464 31.9224 34.1709 32.8048 34.5823C33.3682 34.8444 33.8188 35.2261 34.1381 35.675C34.5324 36.2364 34.7201 36.9653 34.7201 37.7699C34.7201 39.4354 33.8751 40.3143 33.1429 40.7636C33.1804 40.7822 33.218 40.8005 33.2742 40.8192C34.1381 41.3245 35.1707 42.3938 35.1707 44.546C35.1707 45.3691 34.9642 46.0643 34.5323 46.6256ZM37.0462 48.1919C36.9339 48.1919 36.8214 48.1547 36.709 48.0986C36.4841 47.9118 36.4279 47.5757 36.6153 47.333L41.2054 41.1905L36.6153 35.0479C36.428 34.8052 36.4842 34.4505 36.7091 34.2824C36.9526 34.1143 37.2899 34.1518 37.4584 34.3945L42.2923 40.8731C42.4422 41.0786 42.4422 41.3213 42.2923 41.5265L37.4584 47.9679C37.3648 48.1172 37.1962 48.1919 37.0462 48.1919ZM47.0696 48.0986C46.9759 48.1546 46.8634 48.1919 46.751 48.1919C46.5826 48.1919 46.4137 48.1172 46.3201 47.9678L42.367 42.7402C42.1797 42.5161 42.236 42.1613 42.4796 41.9932C42.7231 41.8253 43.0415 41.8627 43.2287 42.1054L47.1822 47.333C47.3505 47.5572 47.2943 47.9118 47.0696 48.0986ZM47.1821 35.0479L43.2287 40.2757C43.1165 40.4249 42.9667 40.4997 42.7979 40.4997C42.6857 40.4997 42.5732 40.4624 42.4796 40.4063C42.236 40.2197 42.1797 39.8462 42.367 39.6409L46.3201 34.3945C46.5074 34.1518 46.826 34.1143 47.0696 34.2824C47.2943 34.4505 47.3505 34.8238 47.1821 35.0479Z" fill="#B3B2B2"/>
<path d="M58.0632 40.5356C58.0229 40.6023 57.9805 40.6524 57.9359 40.6857C57.8913 40.719 57.8333 40.7356 57.762 40.7356C57.6861 40.7356 57.598 40.698 57.4978 40.6224C57.3975 40.5468 57.2703 40.4634 57.1163 40.3723C56.9625 40.2813 56.7773 40.198 56.5612 40.1224C56.3447 40.0468 56.0828 40.009 55.7751 40.009C55.4851 40.009 55.2286 40.048 55.0057 40.1257C54.7825 40.2036 54.5965 40.3091 54.4471 40.4424C54.2977 40.5758 54.1849 40.7324 54.1092 40.9124C54.0334 41.0925 53.9955 41.2869 53.9955 41.4958C53.9955 41.7624 54.0613 41.9836 54.193 42.1592C54.3244 42.3348 54.4984 42.4847 54.7146 42.6092C54.9311 42.7336 55.1764 42.8416 55.4506 42.9326C55.725 43.0237 56.0059 43.1181 56.2936 43.216C56.5812 43.3138 56.8622 43.4237 57.1365 43.546C57.4108 43.6683 57.6562 43.8225 57.8725 44.0094C58.0888 44.196 58.2627 44.425 58.3942 44.696C58.5258 44.9671 58.5917 45.3004 58.5917 45.696C58.5917 46.1138 58.5202 46.5061 58.3775 46.8728C58.2347 47.2394 58.0264 47.5585 57.752 47.8296C57.4778 48.1006 57.1409 48.314 56.7419 48.4696C56.3426 48.6251 55.8889 48.7028 55.3803 48.7028C54.7604 48.7028 54.1951 48.5905 53.6844 48.3661C53.1737 48.1417 52.7378 47.8384 52.3765 47.4561L52.7511 46.8428C52.7868 46.7939 52.8304 46.7527 52.8815 46.7194C52.9329 46.686 52.9897 46.6693 53.0521 46.6693C53.1457 46.6693 53.2528 46.7194 53.3733 46.8194C53.4936 46.9195 53.6443 47.0294 53.8248 47.1495C54.0055 47.2694 54.2239 47.3794 54.4805 47.4794C54.737 47.5795 55.0503 47.6295 55.4204 47.6295C55.7283 47.6295 56.0024 47.5872 56.2434 47.5027C56.4843 47.4185 56.6883 47.2995 56.8556 47.1461C57.0227 46.9927 57.1509 46.8094 57.2401 46.5961C57.3294 46.3827 57.3741 46.1451 57.3741 45.8826C57.3741 45.5938 57.3082 45.357 57.1767 45.1726C57.045 44.9883 56.8723 44.8339 56.6581 44.7093C56.444 44.585 56.1999 44.4792 55.9254 44.3926C55.6513 44.3059 55.3703 44.2171 55.0827 44.126C54.7948 44.0348 54.5139 43.9292 54.2397 43.8093C53.9652 43.6892 53.7211 43.5337 53.507 43.3425C53.2928 43.1515 53.1201 42.9124 52.9885 42.6257C52.8569 42.3391 52.7913 41.9848 52.7913 41.5623C52.7913 41.2246 52.8569 40.898 52.9885 40.5822C53.1201 40.2669 53.3107 39.9866 53.5606 39.7423C53.8103 39.4978 54.1192 39.3023 54.4872 39.1556C54.8551 39.009 55.2776 38.9355 55.7549 38.9355C56.2902 38.9355 56.7786 39.0199 57.2202 39.1889C57.6618 39.3578 58.0474 39.6021 58.3775 39.9223L58.0632 40.5356Z" fill="#B3B2B2"/>
<path d="M59.1241 41.8424H60.0607C60.1587 41.8424 60.2391 41.8668 60.3015 41.9157C60.3639 41.9647 60.4063 42.0223 60.4288 42.0891L61.7265 46.436C61.7623 46.5961 61.7956 46.7505 61.8269 46.8994C61.8581 47.0484 61.8848 47.1983 61.9073 47.3494C61.9428 47.1984 61.983 47.0484 62.0276 46.8994C62.0721 46.7505 62.1189 46.5961 62.1681 46.436L63.5998 42.0624C63.6221 41.9958 63.6611 41.9403 63.7169 41.8958C63.7726 41.8513 63.8428 41.8291 63.9275 41.8291H64.4428C64.5318 41.8291 64.6055 41.8513 64.6635 41.8958C64.7215 41.9403 64.7617 41.9958 64.784 42.0624L66.1823 46.436C66.2313 46.5917 66.2746 46.7449 66.3126 46.8961C66.3504 47.0471 66.3873 47.1962 66.4231 47.3428C66.4452 47.1962 66.4743 47.0428 66.51 46.8827C66.5455 46.7227 66.5834 46.5738 66.6238 46.436L67.9484 42.0891C67.9705 42.0181 68.013 41.9591 68.0755 41.9125C68.1379 41.8658 68.2116 41.8424 68.2964 41.8424H69.1927L66.9983 48.5961H66.055C65.9391 48.5961 65.8586 48.5206 65.8142 48.3695L64.3157 43.7891C64.28 43.6869 64.2509 43.5837 64.2286 43.4792C64.2063 43.3748 64.184 43.2714 64.1618 43.1692C64.1393 43.2714 64.1171 43.3757 64.0948 43.4824C64.0726 43.589 64.0435 43.6936 64.008 43.7958L62.4894 48.3695C62.4402 48.5205 62.3488 48.5961 62.2149 48.5961H61.3184L59.1241 41.8424Z" fill="#B3B2B2"/>
<path d="M71.8915 39.7223C71.8915 39.8379 71.8681 39.9457 71.8213 40.0457C71.7744 40.1457 71.7118 40.2346 71.6339 40.3123C71.5558 40.3903 71.4655 40.4514 71.363 40.4957C71.2603 40.5402 71.151 40.5624 71.0351 40.5624C70.9191 40.5624 70.8109 40.5402 70.7106 40.4957C70.6102 40.4514 70.5209 40.3903 70.443 40.3123C70.3648 40.2347 70.3034 40.1457 70.259 40.0457C70.2144 39.9457 70.1921 39.8379 70.1921 39.7223C70.1921 39.6068 70.2144 39.4968 70.259 39.3923C70.3034 39.2879 70.3648 39.1968 70.443 39.119C70.5208 39.0413 70.6102 38.9801 70.7106 38.9356C70.8109 38.8913 70.9191 38.8689 71.0351 38.8689C71.151 38.8689 71.2603 38.8913 71.363 38.9356C71.4655 38.9801 71.5558 39.0413 71.6339 39.119C71.7118 39.1968 71.7744 39.2879 71.8213 39.3923C71.8681 39.4968 71.8915 39.6068 71.8915 39.7223ZM71.6238 41.8424V48.5961H70.4329V41.8424H71.6238Z" fill="#B3B2B2"/>
<path d="M77.4991 42.9558C77.4456 43.0537 77.3629 43.1025 77.2516 43.1025C77.1848 43.1025 77.1087 43.0781 77.0241 43.0292C76.9394 42.9802 76.8356 42.9258 76.7131 42.8658C76.5904 42.8059 76.4443 42.7504 76.2748 42.6992C76.1053 42.6482 75.9046 42.6225 75.6726 42.6225C75.472 42.6225 75.2914 42.6482 75.1308 42.6992C74.9703 42.7504 74.8332 42.8204 74.7193 42.9091C74.6057 42.9981 74.5186 43.1014 74.4585 43.2191C74.3983 43.337 74.3681 43.4648 74.3681 43.6025C74.3681 43.7758 74.4182 43.9203 74.5186 44.0359C74.619 44.1514 74.7516 44.2515 74.9167 44.3359C75.0818 44.4204 75.2691 44.4949 75.4786 44.5593C75.6883 44.6237 75.9035 44.6926 76.1243 44.766C76.345 44.8393 76.5603 44.9205 76.7699 45.0093C76.9795 45.0983 77.1668 45.2093 77.332 45.3426C77.4969 45.4761 77.6295 45.6394 77.7299 45.8327C77.8303 46.0261 77.8806 46.2583 77.8806 46.5294C77.8806 46.8407 77.8246 47.1284 77.7132 47.3929C77.6017 47.6575 77.4366 47.8862 77.2181 48.0795C76.9996 48.2729 76.7319 48.4251 76.4153 48.5362C76.0986 48.6472 75.7329 48.7029 75.3182 48.7029C74.8452 48.7029 74.4171 48.6263 74.0336 48.4729C73.65 48.3195 73.3244 48.1229 73.0569 47.8829L73.3379 47.4295C73.3734 47.3718 73.4158 47.3273 73.4648 47.2962C73.5139 47.2651 73.5787 47.2494 73.6588 47.2494C73.7392 47.2494 73.8239 47.2807 73.9131 47.3429C74.0022 47.4051 74.1106 47.474 74.2377 47.5494C74.3646 47.6252 74.5186 47.6939 74.6993 47.7562C74.8799 47.8185 75.1063 47.8495 75.3782 47.8495C75.6102 47.8495 75.8132 47.8195 75.9871 47.7596C76.161 47.6996 76.3059 47.6186 76.4219 47.5162C76.5379 47.414 76.6238 47.2962 76.6795 47.1628C76.7352 47.0295 76.7631 46.8874 76.7631 46.7361C76.7631 46.5495 76.713 46.3951 76.6126 46.2728C76.5122 46.1505 76.3794 46.0461 76.2145 45.9594C76.0495 45.8728 75.861 45.7971 75.6491 45.7328C75.4374 45.6684 75.221 45.6006 75.0004 45.5294C74.7795 45.4584 74.5632 45.3772 74.3514 45.286C74.1395 45.195 73.951 45.0806 73.7861 44.9427C73.6209 44.8049 73.4883 44.635 73.3879 44.4326C73.2875 44.2303 73.2375 43.9849 73.2375 43.6959C73.2375 43.4382 73.291 43.1904 73.398 42.9526C73.5049 42.7148 73.661 42.5059 73.8663 42.3257C74.0713 42.1458 74.3234 42.0026 74.6224 41.8959C74.9211 41.7892 75.2623 41.7358 75.6459 41.7358C76.0918 41.7358 76.4921 41.8058 76.8468 41.9458C77.2013 42.0858 77.5079 42.2782 77.7667 42.5225L77.4991 42.9558Z" fill="#B3B2B2"/>
<path d="M83.3127 42.9558C83.2591 43.0537 83.1765 43.1025 83.0651 43.1025C82.9984 43.1025 82.9223 43.0781 82.8377 43.0292C82.753 42.9802 82.6491 42.9258 82.5267 42.8658C82.404 42.8059 82.2579 42.7504 82.0884 42.6992C81.9188 42.6482 81.7182 42.6225 81.4862 42.6225C81.2855 42.6225 81.105 42.6482 80.9444 42.6992C80.7839 42.7504 80.6467 42.8204 80.5329 42.9091C80.4193 42.9981 80.3322 43.1014 80.2721 43.2191C80.2118 43.337 80.1817 43.4648 80.1817 43.6025C80.1817 43.7758 80.2318 43.9203 80.3322 44.0359C80.4326 44.1514 80.5652 44.2515 80.7303 44.3359C80.8953 44.4204 81.0827 44.4949 81.2922 44.5593C81.5017 44.6237 81.7171 44.6926 81.9379 44.766C82.1586 44.8393 82.3738 44.9205 82.5835 45.0093C82.7931 45.0983 82.9803 45.2093 83.1454 45.3426C83.3105 45.4761 83.4431 45.6394 83.5435 45.8327C83.6439 46.0261 83.6941 46.2583 83.6941 46.5294C83.6941 46.8407 83.6382 47.1284 83.5268 47.3929C83.4151 47.6575 83.2502 47.8862 83.0317 48.0795C82.8132 48.2729 82.5455 48.4251 82.2288 48.5362C81.9122 48.6472 81.5465 48.7029 81.1318 48.7029C80.6588 48.7029 80.2307 48.6263 79.8472 48.4729C79.4636 48.3195 79.138 48.1229 78.8705 47.8829L79.1515 47.4295C79.187 47.3718 79.2294 47.3273 79.2784 47.2962C79.3274 47.2651 79.3923 47.2494 79.4724 47.2494C79.5528 47.2494 79.6374 47.2807 79.7267 47.3429C79.8158 47.4051 79.9242 47.474 80.0512 47.5494C80.1782 47.6252 80.3322 47.6939 80.5129 47.7562C80.6935 47.8185 80.9199 47.8495 81.1918 47.8495C81.4238 47.8495 81.6268 47.8195 81.8007 47.7596C81.9746 47.6996 82.1195 47.6186 82.2355 47.5162C82.3515 47.414 82.4374 47.2962 82.4931 47.1628C82.5487 47.0295 82.5767 46.8874 82.5767 46.7361C82.5767 46.5495 82.5266 46.3951 82.4262 46.2728C82.3258 46.1505 82.193 46.0461 82.0281 45.9594C81.863 45.8728 81.6745 45.7971 81.4627 45.7328C81.251 45.6684 81.0346 45.6006 80.814 45.5294C80.5931 45.4584 80.3768 45.3772 80.165 45.286C79.953 45.195 79.7646 45.0806 79.5997 44.9427C79.4345 44.8049 79.3018 44.635 79.2015 44.4326C79.1011 44.2303 79.0511 43.9849 79.0511 43.6959C79.0511 43.4382 79.1045 43.1904 79.2116 42.9526C79.3185 42.7148 79.4746 42.5059 79.6799 42.3257C79.8849 42.1458 80.137 42.0026 80.4359 41.8959C80.7347 41.7892 81.0759 41.7358 81.4595 41.7358C81.9054 41.7358 82.3057 41.8058 82.6604 41.9458C83.0149 42.0858 83.3215 42.2782 83.5802 42.5225L83.3127 42.9558Z" fill="#B3B2B2"/>
</svg>
