<svg width="120" height="37" viewBox="0 0 120 37" fill="none" xmlns="http://www.w3.org/2000/svg">
<path d="M25.7917 9.13808V0.446594C15.6776 1.44726 7.67475 9.65271 6.96148 19.8738H0V21.0746H6.90442H14.9929C15.0785 14.8848 19.7718 9.80996 25.7917 9.13808Z" fill="#B3B2B2"/>
<path d="M31.2554 21.2461C30.7276 20.8745 30.4137 20.4742 30.3424 20.031C30.2996 19.7165 30.2711 19.4592 30.2711 19.2448C30.2711 18.5586 30.4851 18.0011 30.8988 17.5437C31.3125 17.0862 31.9687 16.7288 32.8531 16.4572C33.7376 16.1856 34.9358 15.9712 36.0057 15.8282V21.0889C36.0057 21.0889 35.963 21.6893 36.6049 21.6893H39.3153C39.1299 21.5606 39.03 21.3319 39.0157 21.0031V13.4838C39.0443 11.7541 38.6306 10.4961 37.8032 9.72419C36.9758 8.95224 35.6634 8.56627 33.8945 8.56627C33.2525 8.56627 32.6391 8.65205 32.0542 8.80929C31.4694 8.96654 30.9558 9.15238 30.5136 9.36681C30.0714 9.58123 29.5578 9.86714 28.8303 10.1959V11.8399H29.4437C30.0571 11.0965 30.6277 10.5533 31.1555 10.2245C31.6833 9.89573 32.2825 9.72419 32.953 9.72419C33.6805 9.72419 34.3082 9.91002 34.8645 10.2674C35.4066 10.6248 35.8346 11.0822 36.1341 11.6255C36.4337 12.1687 36.5764 12.6976 36.5764 13.2265C36.5764 13.6411 36.4765 13.9985 36.2625 14.2987C36.0485 14.5989 35.7347 14.7847 35.3067 14.8705L31.555 15.5709C30.6562 15.7997 29.9287 16.0999 29.3866 16.4715C28.8445 16.8575 28.4451 17.3006 28.2026 17.801C27.9601 18.3013 27.846 18.8874 27.846 19.545C27.846 20.3455 28.0742 21.046 28.5307 21.6607H31.5407C31.4979 21.6893 31.5407 21.4463 31.2554 21.2461Z" fill="#E5E5E5"/>
<path d="M46.4337 14.4416C46.4337 13.9127 46.5478 13.3552 46.7618 12.7691C46.9758 12.183 47.2896 11.6826 47.7176 11.2824C48.1455 10.8821 48.6591 10.682 49.2582 10.682C49.7433 10.682 50.2853 10.8392 50.8845 11.1537L51.1127 8.33755C50.8988 8.32326 50.7418 8.30896 50.6562 8.30896C50.0428 8.30896 49.458 8.43762 48.9301 8.70923C48.3881 8.98083 47.9173 9.33821 47.5036 9.79566C47.0899 10.2531 46.7333 10.782 46.4337 11.3824V8.56627C46.0771 8.68064 45.6919 8.73782 45.2639 8.73782C44.836 8.73782 44.4508 8.68064 44.0942 8.56627V21.6893H46.4337V14.4416Z" fill="#E5E5E5"/>
<path d="M58.3167 20.4456C57.5036 19.6022 57.0899 18.1441 57.0899 16.0856C57.0899 14.4702 57.3467 13.0264 57.846 11.7827C58.3595 10.539 59.4294 9.85284 61.0699 9.75278C61.1127 9.75278 61.1698 9.75278 61.2126 9.73848C61.2554 9.73848 61.3124 9.72419 61.3695 9.72419C62.8959 9.72419 63.9373 10.3532 64.4794 11.6255C65.0214 12.8977 65.2925 14.2987 65.2925 15.8425C65.2925 17.0719 65.107 18.1298 64.7361 19.0161C64.3652 19.9024 63.2383 21.675 63.2383 21.675H67.7746V0.346527C67.4037 0.460889 66.9615 0.51807 66.5764 0.51807C66.1912 0.51807 65.7632 0.460889 65.3781 0.346527V10.925C65.2925 10.5533 65.0785 10.153 64.622 9.73848C64.1798 9.32392 63.5949 8.98083 62.8959 8.72352C62.1826 8.45191 61.4979 8.32326 60.8417 8.32326C59.8003 8.32326 58.8731 8.50909 58.0457 8.86647C57.2326 9.23815 56.5336 9.76707 55.9772 10.4818C55.4066 11.1966 54.9929 12.0543 54.7076 13.0693C54.4223 14.0842 54.2796 15.2278 54.2796 16.5287C54.2796 17.7295 54.5649 18.8445 55.1356 19.8595C55.535 20.5743 56.0343 21.1747 56.6192 21.675H59.6862C59.6862 21.6893 59.03 21.1747 58.3167 20.4456Z" fill="#E5E5E5"/>
<path d="M91.3552 14.6703C91.3552 13.684 91.5264 12.8262 91.8688 12.1115C92.2112 11.3967 92.6676 10.8535 93.2383 10.4961C93.8089 10.1387 94.3938 9.95291 95.0214 9.95291C95.9344 9.95291 96.7333 10.3246 97.3895 11.0679C98.0457 11.8113 98.3738 12.8548 98.3738 14.2129V21.7036H100.956V14.1986C100.956 12.7977 100.742 11.6397 100.3 10.7249C99.8716 9.80996 99.2868 9.13808 98.5735 8.72352C97.8602 8.30896 97.0899 8.09453 96.2625 8.09453C95.5492 8.09453 94.9216 8.1946 94.3795 8.38044C93.8374 8.56627 93.3667 8.80929 92.9958 9.10949C92.6249 9.40969 92.3396 9.66701 92.1398 9.89573C91.9401 10.1245 91.6833 10.4675 91.3552 10.9107V8.32326C90.9986 8.43762 90.5706 8.4948 90.0714 8.4948C89.5578 8.4948 89.1299 8.43762 88.7875 8.32326V21.675H91.3695V14.6703H91.3552Z" fill="#E5E5E5"/>
<path d="M108.987 20.1454C108.36 18.8874 108.046 17.6866 108.046 16.543C108.031 16.2714 108.017 16.057 108.017 15.9283C108.017 14.2415 108.445 12.7405 109.287 11.4396C110.128 10.1387 111.284 9.49546 112.725 9.49546C113.723 9.49546 114.551 9.75278 115.207 10.2817C115.863 10.8106 116.362 11.554 116.69 12.526C117.019 13.4838 117.175 14.5989 117.175 15.8425C117.061 17.901 116.576 19.4735 115.749 20.56C115.378 21.046 114.936 21.4177 114.465 21.6893H117.233C117.632 21.3891 117.989 21.046 118.288 20.66C118.873 19.9167 119.315 19.1304 119.586 18.3013C119.857 17.4722 120 16.6574 120 15.8425C120 14.9848 119.8 13.9842 119.401 12.8262C119.001 11.6683 118.274 10.6248 117.218 9.70989C116.163 8.795 114.75 8.33755 112.981 8.33755C111.455 8.33755 110.1 8.68064 108.916 9.35251C107.732 10.0244 106.819 10.9679 106.191 12.183C105.549 13.3981 105.235 14.7704 105.235 16.3286C105.235 17.6008 105.521 18.7588 106.077 19.788C106.491 20.5457 107.033 21.1747 107.718 21.7036H110.542C109.843 21.3462 109.33 20.8316 108.987 20.1454Z" fill="#E5E5E5"/>
<path d="M75.9344 21.2461C75.4066 20.8745 75.0928 20.4742 75.0214 20.031C74.9786 19.7165 74.9501 19.4592 74.9501 19.2448C74.9501 18.5586 75.1641 18.0011 75.5778 17.5437C75.9915 17.0862 76.6477 16.7288 77.5321 16.4572C78.4166 16.1856 79.6149 15.9712 80.6848 15.8282V21.0889C80.6848 21.0889 80.642 21.6893 81.2839 21.6893H83.9943C83.8089 21.5606 83.709 21.3319 83.6948 21.0031V13.4838C83.7233 11.7541 83.3096 10.4961 82.4822 9.72419C81.6548 8.95224 80.3424 8.56627 78.5735 8.56627C77.9316 8.56627 77.3182 8.65205 76.7333 8.80929C76.1484 8.96654 75.6348 9.15238 75.1926 9.36681C74.7504 9.58123 74.2368 9.86714 73.5093 10.1959V11.8399H74.1227C74.7361 11.0965 75.3067 10.5533 75.8345 10.2245C76.3624 9.89573 76.9615 9.72419 77.632 9.72419C78.3595 9.72419 78.9872 9.91002 79.5435 10.2674C80.0856 10.6248 80.5136 11.0822 80.8132 11.6255C81.1127 12.1687 81.2554 12.6976 81.2554 13.2265C81.2554 13.6411 81.1555 13.9985 80.9416 14.2987C80.7276 14.5989 80.4137 14.7847 79.9858 14.8705L76.234 15.5709C75.3353 15.7997 74.6077 16.0999 74.0657 16.4715C73.5236 16.8575 73.1241 17.3006 72.8816 17.801C72.6391 18.3013 72.525 18.8874 72.525 19.545C72.525 20.3455 72.7532 21.046 73.2097 21.6607H76.1769C76.1769 21.6893 76.234 21.4463 75.9344 21.2461Z" fill="#E5E5E5"/>
<path d="M12.2968 20.7887V21.0889H11.6976C11.6976 21.1889 11.6833 21.289 11.6833 21.3891C11.6833 29.5088 17.8745 36.1846 25.7775 36.9423V31.796C20.6134 31.0669 16.6334 26.6211 16.6334 21.2318C16.6334 15.8425 20.6134 11.3967 25.7775 10.6677V6.1075C18.2454 6.72219 12.2968 13.055 12.2968 20.7887C12.2968 20.8887 12.2968 20.9888 12.2968 21.0889V20.7887Z" fill="#E5E5E5"/>
</svg>
