<svg width="121" height="30" viewBox="0 0 121 30" fill="none" xmlns="http://www.w3.org/2000/svg">
<path d="M66.8187 21.2285V26.872C63.6297 28.4454 60.603 29.2206 57.5647 29.2206C49.1921 29.2206 44.1709 24.3638 44.1709 18.2414C44.1709 11.6516 49.9111 6.16772 57.2516 6.16772C59.0839 6.16772 60.4407 6.48696 61.8786 6.9544C62.9107 7.27363 63.5485 7.66126 64.1863 7.66126C64.7429 7.66126 64.9053 6.71498 64.9865 6.16772H65.7866L66.5056 13.7722H65.5431C65.1488 12.2787 64.4298 11.0246 63.4673 10.1695C61.9598 8.67596 59.884 7.90069 57.4836 7.90069C52.4623 7.90069 49.5168 11.8226 49.5168 17.6942C49.5168 23.4973 53.1001 27.4877 57.8894 27.4877C59.3274 27.4877 60.603 27.1799 62.1917 26.473V20.6699C62.1917 18.7887 61.8786 18.0818 59.1651 18.0818V17.2153H69.2887V18.0818C66.7375 18.0932 66.8187 18.8685 66.8187 21.2285ZM38.9872 11.9709V28.8216H37.6305L20.4909 11.4236C20.5721 11.8911 20.5721 12.2787 20.5721 12.7575V23.3377C20.5721 26.6326 20.5721 27.8069 23.5988 27.8069V28.6734H15.5508V27.8069C18.5775 27.8069 18.5775 26.3932 18.5775 23.3377V11.264C18.5775 9.46263 18.5775 7.50165 15.3885 7.50165V6.64657H22.961L37.0738 20.9093C36.9927 20.5216 36.9927 20.2822 36.9927 19.735V11.9709C36.9927 8.83557 37.0738 7.50165 34.0472 7.50165V6.64657H42.0951V7.51305C39.1496 7.50165 38.9872 8.75577 38.9872 11.9709ZM0 28.6734V27.8069C1.91341 27.8069 3.2702 27.6473 3.2702 24.9111V10.4089C3.2702 7.58146 2.22652 7.51305 0 7.51305V6.64657H11.3181V7.51305C9.01044 7.51305 8.04793 7.59286 8.04793 10.4089V24.9111C8.04793 27.6587 9.24236 27.8069 11.3181 27.8069V28.6734H0Z" fill="#B8B8B8"/>
<path d="M115.983 9.33721C114.847 8.21991 113.56 7.67266 112.586 6.55536C112.098 6.07651 111.693 5.59767 111.368 4.95921C110.962 4.56017 110.718 4.32075 110.243 4.08133C110.324 4.32075 110.405 4.56017 110.487 4.79959H110.405C110 4.79959 109.594 4.56017 109.269 4.32075L109.594 4.00152C109.512 3.8419 109.269 3.8419 109.107 3.8419C107.808 3.60248 106.602 4.32075 105.303 4.56017V4.71979C106.115 4.95921 106.277 5.91689 106.764 6.39574H107.251C107.413 6.39574 107.657 6.55536 107.819 6.55536C107.819 6.39574 107.657 6.07651 107.657 6.07651C107.819 5.9169 107.982 5.9169 108.144 6.07651C108.55 6.31593 109.118 5.9169 109.524 6.55536C109.037 6.55536 108.55 6.55535 108.144 6.79478C108.144 6.87458 108.388 7.0342 108.306 7.19381C107.901 7.0342 107.413 7.19381 107.251 6.87458L107.17 6.95439C107.657 7.51304 108.388 7.99189 109.107 8.23131C110.162 8.39092 111.043 7.91208 112.098 8.1515C115.821 9.89586 118.407 14.0344 118.407 18.173C118.407 24.056 115.009 26.4388 112.829 26.4388C112.423 26.4388 111.774 26.1994 111.53 25.9599C111.774 25.0821 111.936 24.1358 111.936 22.6992C111.936 19.2789 110.556 15.6192 108.701 13.7152C107.808 12.8373 106.834 12.1305 105.79 12.1305C105.303 12.1305 104.816 12.1305 104.503 12.5295C104.097 12.8487 103.853 13.4872 103.935 13.8862C103.285 14.3651 102.241 14.6045 101.43 14.6045C100.537 14.6045 99.412 14.2853 98.3567 13.4872V12.2901C98.1132 12.2103 97.3014 11.7314 97.7073 11.3324C97.9508 11.4122 98.1131 11.5718 98.1943 11.6516C98.1131 11.093 98.1131 10.4545 97.7073 9.97567C97.5449 9.97567 97.3014 9.97567 97.0579 9.81605C96.8143 9.57663 96.5708 9.2574 96.5708 8.85837C96.8143 9.2574 97.2202 9.09779 97.4637 9.33721C97.0579 8.37952 97.2202 7.98049 96.4896 6.55536C96.3273 5.83709 95.5967 5.43805 95.1097 4.95921C94.8661 4.79959 94.785 4.56017 94.4603 4.56017C94.1356 4.48037 94.1356 4.08133 94.1356 3.8419C94.2167 3.8419 94.4603 4.00152 94.6226 4.08133C94.1356 2.96402 93.8109 1.77832 92.7672 1.13986L92.5237 1.29947H91.2365C91.3988 1.13986 91.7235 1.06005 91.967 0.900435C91.7235 0.661013 91.5612 0.581203 91.0741 0.581203C90.8306 0.661011 90.5059 0.900435 90.1812 0.900435H90.1C90.1 0.661013 90.0188 0.341781 90.5059 0.182167C90.0188 0.102359 89.613 0.102359 89.0447 0.182167C88.9636 0.581203 88.72 0.820628 88.72 1.13986C88.4765 1.29947 88.3953 1.53889 88.1518 1.77831C88.1518 1.29947 88.3953 0.820628 88.4765 0.341784C88.1518 0.421591 87.7459 0.661012 87.5836 0.661012C86.9342 0.341783 86.1224 0.0225525 85.7977 0.0225525C86.2848 0.341782 86.0413 0.900435 86.1224 1.29947L85.7977 1.13986C85.7165 0.820628 85.3107 0.581203 85.2295 0.182167C84.7425 0.182167 84.4178 0.341781 84.0119 0.581203V0.661012C84.2554 0.661012 84.5801 0.900436 84.7425 1.13986C84.1742 1.13986 83.7684 0.900435 83.2001 0.900435C83.2001 0.900435 83.2001 0.820626 83.1189 0.820626C82.8754 0.900433 82.6319 1.13986 82.4696 1.29947C81.9013 1.77832 81.4954 2.17735 81.2519 2.89562C81.4143 2.89562 81.6578 2.89562 81.739 2.97542C81.4143 3.05523 81.2519 3.45427 80.9272 3.53408V4.73119C80.6837 4.97061 80.359 5.21003 80.1966 5.68888C79.7908 6.96579 79.7096 8.39092 79.7096 9.98707C79.6284 10.3063 79.4661 10.3861 79.3037 10.4659V11.7428C79.3037 11.7428 79.7908 11.264 80.0343 11.1044V12.1419C79.7096 12.1419 79.4661 12.5409 79.4661 12.7803C79.4661 13.0996 79.5472 13.4188 79.5472 13.738C79.5472 13.8976 79.5472 13.8976 79.6284 14.0572C79.6284 13.8976 79.7908 13.738 80.0343 13.6582C80.0343 13.6582 80.1966 13.4986 80.5213 13.4986C80.2778 13.738 80.1966 14.0572 80.0343 14.3765C79.7908 14.6159 79.7908 14.6159 79.7908 14.6159C79.7908 14.6159 79.7096 14.7755 79.7096 14.8553C80.0343 16.5199 80.5213 17.9564 81.1707 19.5412C80.5213 20.5786 79.7908 22.5624 79.3153 24.4664C78.9094 24.0674 78.3412 23.9876 77.8542 23.9876C77.3671 24.0674 76.8801 24.227 76.5554 24.7058C76.0683 24.4664 75.4189 24.5462 75.1058 24.8654C74.3752 25.5039 74.3752 25.8231 74.3752 26.302C74.2129 26.4616 73.8882 26.8606 73.8882 27.4193C73.8882 28.1375 73.9694 28.6164 74.3752 29.2434H86.6675C86.5863 29.004 86.4239 28.6848 86.2616 28.5252C86.0181 28.0463 86.1804 27.4079 86.1804 26.9404C86.4239 26.4616 86.6675 25.9827 86.9922 25.5837C87.0733 25.3443 86.9922 25.3443 87.0733 25.2645L87.6416 25.1049C87.9663 25.1049 88.2098 24.8654 88.6157 24.8654C88.8592 25.2645 88.8592 24.626 89.2651 24.4664C90.158 24.3068 91.0509 24.4664 91.538 25.1049C91.538 25.2645 91.6191 25.2645 91.6191 25.3443H91.2133C90.7262 25.1049 90.158 24.8654 89.5898 25.1049C89.5898 25.3443 89.5086 25.3443 89.5086 25.5837C89.5086 25.7433 89.5086 25.7433 89.5086 25.9827C89.8333 25.9827 90.0768 26.302 90.4015 26.4616C90.5639 26.2222 91.0509 25.9827 91.3756 25.9827C91.7815 25.9827 92.3497 26.2222 92.3497 26.8606V27.7385C92.6744 28.0577 93.0803 28.1375 93.4862 28.2972C93.3238 28.6164 93.0803 28.6164 92.8368 28.6164H92.1874C92.1062 28.5366 91.9438 28.5366 91.9438 28.2972C91.7003 28.6164 91.538 28.9356 91.3756 29.2548H100.838C100.676 28.9356 100.514 28.6962 100.432 28.5366C100.27 28.0577 100.27 27.4193 100.27 26.9518L101.163 25.7547C101.65 25.7547 102.056 25.5951 102.937 25.5153C103.1 25.2759 102.937 25.1163 103.668 25.1163C104.236 25.1163 104.642 25.2759 104.804 25.3557C104.885 25.5153 104.885 25.5153 104.804 25.6749C104.642 25.8345 104.317 25.5153 104.074 25.5951C103.911 25.7547 104.155 25.8345 104.155 25.9941C104.317 26.1538 103.424 25.8345 103.424 25.8345C103.424 25.8345 103.262 26.3134 103.181 26.473C103.181 26.473 103.505 26.7922 103.668 26.9518C103.83 27.1913 103.424 27.4307 103.424 27.6701C103.262 27.5903 102.937 27.3509 102.937 27.4307C102.775 28.0691 102.937 28.6278 102.856 29.2548H103.749L103.83 27.8981C103.911 27.1001 104.885 25.6749 105.454 25.6749C105.778 25.6749 106.022 25.8345 106.265 25.9941C106.428 26.3134 106.834 26.473 106.834 26.6326C106.834 26.7922 106.59 26.872 106.184 26.872C106.022 26.872 106.022 26.6326 105.778 26.473L105.291 26.9518C105.291 26.9518 105.86 27.4307 105.86 27.7499C105.86 28.1489 105.778 28.3086 105.535 28.548L105.048 27.5903C104.804 27.5903 104.398 28.0691 104.398 28.3086C104.398 28.6278 104.236 28.7874 104.236 29.2663H109.269C109.837 29.2663 110.324 29.1066 110.892 28.7874H111.867C113.884 28.7874 115.508 28.2288 116.957 26.8036C118.906 24.8996 120.03 21.8784 120.03 18.9369C120.03 15.3798 118.581 11.8796 115.983 9.33721ZM108.063 5.19863C107.901 4.95921 107.657 5.19863 107.495 5.19863C107.332 5.19863 107.251 5.19863 106.926 4.95921C107.413 4.95921 107.657 4.71979 108.063 4.56017C108.388 4.79959 108.712 4.8794 108.956 5.19863H108.063ZM110.649 6.39574C110.405 6.07651 110.081 5.67747 109.756 5.67747C110 5.67747 110.324 5.43805 110.73 5.43805C110.892 5.83709 111.217 6.07651 111.298 6.39574L111.379 6.87458C111.217 6.55536 110.892 6.39574 110.649 6.39574ZM97.3014 16.8961L96.8955 17.0557C96.0026 17.0557 95.5967 16.8163 95.1908 16.4971C95.5155 16.4971 95.9214 16.098 95.9214 16.098C96.3273 16.4971 96.8955 16.8163 97.3014 16.8961ZM93.0919 16.0182C92.686 16.098 92.3613 15.699 91.9554 15.5394C91.7931 15.0605 91.7931 14.5817 91.6307 14.3423C91.9554 14.5817 92.686 14.5817 92.5237 15.3C92.5237 15.5394 92.8484 15.699 93.0919 16.0182ZM93.0919 18.6405C93.3354 18.7203 93.7413 18.9597 93.9848 19.1193C93.9848 19.1193 93.8225 19.1193 93.7413 19.1193C92.8484 19.4385 92.1294 18.8799 91.3988 18.401C91.8047 18.2414 92.3729 18.1616 92.86 18.1616L93.0919 18.6405ZM93.2542 17.375C93.5789 17.1355 93.9848 17.1355 94.1472 17.0557C94.4719 17.375 94.7966 17.9336 95.3648 18.2528C95.0401 18.2528 94.4719 18.2528 94.1472 18.0134C93.6601 17.774 93.4978 17.6144 93.2542 17.375ZM92.3729 22.3002C92.3729 22.0608 92.5353 21.8214 92.86 21.6617C93.347 21.8214 93.7529 20.7839 94.2399 21.3425C94.4835 21.4223 94.727 21.4223 94.8893 21.4223C95.4576 21.6617 95.6199 22.1406 95.8634 22.5396C95.4576 22.5396 95.1329 22.5396 94.8893 22.1406C94.8082 22.1406 94.6458 21.9012 94.5646 22.0608C94.1588 22.38 93.7529 21.8214 93.2658 21.9012C93.0223 22.1406 92.7788 22.3002 92.3729 22.38V22.3002ZM96.4085 13.8748C96.3273 14.1941 96.0026 13.8748 95.9214 13.8748H95.1908C95.1097 13.7152 95.0285 13.6354 95.0285 13.4758C95.3532 13.396 95.5967 13.2364 95.8402 13.396C96.0026 13.6354 96.1649 13.8748 96.4085 13.8748ZM94.8777 10.4545C95.0401 10.7737 95.0401 10.9334 95.2024 11.093C95.5271 10.9334 95.5271 11.3324 95.6083 11.4122C95.6895 11.6516 95.8518 11.891 95.8518 12.1305C95.3648 12.1305 95.1213 11.891 94.8777 11.4122C94.8777 11.1614 94.7966 10.8536 94.8777 10.4545ZM94.2283 14.3537L95.0401 15.0719C94.553 15.0719 93.9848 15.3114 93.7413 14.8325C93.9036 14.7413 94.066 14.5019 94.2283 14.3537ZM94.1472 8.29972C94.1472 8.37952 93.9848 9.09779 93.9848 9.09779L93.3354 9.2574L93.7413 7.51304C93.9036 7.83227 94.1472 8.1401 94.1472 8.29972ZM82.6667 2.49658C82.829 2.49658 83.0726 2.41677 83.1537 2.25716C83.5596 2.17735 83.8031 1.77831 84.2902 2.01774C84.6149 2.01774 84.9396 2.17735 85.1831 2.25716C85.1831 2.41677 85.1831 2.49658 85.3455 2.6562C85.8325 2.6562 85.8325 3.13504 86.076 3.53408C86.3196 3.61389 86.5631 3.61388 86.7254 3.61388C87.2125 3.7735 87.6184 3.7735 87.7807 4.01292C88.4301 3.61388 89.0795 3.53408 89.7985 3.61388C89.8797 3.37446 90.042 3.05523 90.1232 2.6562C90.2044 2.89562 90.2044 2.6562 90.3667 2.6562C90.6914 2.41677 91.0973 2.01774 91.6655 2.17735C91.9902 2.41677 92.5585 2.25716 92.8832 2.6562C93.1267 2.97543 93.289 3.45427 93.5326 3.85331C93.289 4.33215 93.5326 4.97061 93.0455 5.21003L92.5585 5.68888C92.3961 5.68888 92.3961 5.84849 92.1526 5.84849C92.3961 6.40714 92.2338 7.20522 91.9902 7.75247C92.1526 7.67266 92.3961 7.67266 92.3961 7.43324C92.4773 7.51304 92.3961 7.67266 92.3961 7.75247C92.3961 7.91208 92.3961 7.99189 92.3961 7.99189C92.3961 8.39092 92.1526 8.78996 91.8279 9.10919C91.6655 9.58804 91.2596 10.2265 90.6914 10.3063V10.4659C91.909 10.4659 92.8716 10.7851 94.008 11.3438V11.9024C93.0339 11.3438 91.9902 10.9448 90.7726 10.865C90.7726 11.1044 90.7726 11.3438 90.6914 11.4236C91.6655 11.9024 92.5469 12.3015 93.3586 13.0197V13.738C92.5469 12.9399 91.6539 12.1533 90.6102 11.9138C90.5291 12.0735 90.2044 12.2331 90.1232 12.5523C89.555 12.1533 88.9056 11.7542 88.2678 11.6744C88.0242 11.6744 87.8619 10.7965 87.8619 10.7965C88.2678 10.6369 88.5113 10.3975 88.6736 9.99847H88.9983C89.2419 9.99847 89.2419 9.83886 89.2419 9.59943C89.2419 9.12059 88.1866 9.12059 87.7111 9.12059C87.1429 9.12059 86.737 9.12059 86.4123 9.36001C86.25 9.36001 86.3312 9.59943 86.3312 9.75905C86.3312 9.83886 86.5747 9.99847 86.5747 9.99847C86.737 9.99847 86.8994 9.83886 87.0617 9.83886C86.9806 10.3177 87.1429 10.5571 87.63 10.7965L87.5488 11.5946C86.5747 11.5946 85.9253 11.9937 85.2063 12.3129C84.9628 12.1533 84.8004 11.9138 84.6381 11.6744C83.664 11.9937 81.9709 13.2592 81.9709 13.2592C81.9709 13.2592 81.9709 12.9399 81.9709 12.7005C82.7015 12.0621 83.6756 11.7428 84.3946 11.3438V10.7851C84.0699 10.6255 83.7452 10.7851 83.4205 10.7851C82.6899 10.865 81.9593 11.1842 81.4723 11.5832C81.4723 11.3438 81.3911 11.0246 81.3911 11.0246C82.284 10.5457 83.4089 10.1467 84.4641 10.3063C84.4641 10.2265 84.4641 9.98707 84.4641 9.98707C84.383 9.82746 84.383 9.58803 84.2206 9.58803C83.7336 9.10919 83.2465 8.39093 83.2465 7.92348L83.5712 7.76386C83.4089 7.28502 83.2465 6.09931 83.5712 5.70028C83.0842 5.46086 82.5971 5.06182 82.4348 4.74259C82.2724 4.34355 82.1101 4.10413 82.0289 3.62529C82.2608 3.13504 82.4232 2.97543 82.6667 2.49658ZM90.1812 17.375C89.7753 17.1355 89.0447 17.0557 89.2071 16.5769C89.3694 16.1778 89.613 16.098 89.7753 15.9384C89.8565 16.4971 89.9377 16.8961 90.1812 17.375ZM85.1715 15.0605L84.928 16.098C84.6845 15.6192 84.4409 15.1403 84.3598 14.5817L85.1715 15.0605ZM84.1162 16.3375C83.6292 16.1778 83.061 15.699 82.8174 15.3C82.6551 14.9807 82.5739 14.5817 82.5739 14.3423C82.8986 14.3423 83.1421 14.5817 83.2233 14.7413V14.8211C83.6292 15.3 84.0351 15.699 84.1162 16.3375ZM83.2233 17.2951C83.2233 17.6144 83.061 18.0134 82.6551 18.4124C82.5739 18.4923 82.3304 18.6519 82.3304 18.6519C82.3304 18.173 82.5739 17.774 82.5739 17.375C82.829 17.2951 83.061 17.1355 83.2233 17.2951ZM84.0351 18.2414C84.1162 18.1616 84.1974 18.2414 84.3598 18.2414L84.0351 19.4385C83.6292 19.7578 83.061 19.5982 82.5855 19.5982C83.2233 19.4385 83.7104 18.7203 84.0351 18.2414ZM81.2055 5.67747C81.3679 5.43805 81.4491 5.19863 81.6926 4.95921V5.9169L81.1244 6.07651L81.2055 5.67747ZM81.2055 7.27362L81.8549 7.0342L81.4491 7.51304C81.5302 8.31112 81.2055 8.86977 81.2055 9.57664L80.7997 8.29972C80.8808 7.99189 80.962 7.67266 81.2055 7.27362ZM81.1244 16.4971C81.2055 16.1778 81.4491 16.0182 81.5302 15.9384C81.7738 16.0182 81.9361 16.0182 82.2608 16.098C81.8549 16.4971 81.4491 16.6567 81.2867 17.1355C81.2867 16.8961 81.2055 16.6567 81.1244 16.4971ZM75.9407 27.1571C75.8596 27.1571 75.6161 26.9176 75.3725 26.9176C75.129 27.3965 75.3725 27.7157 75.3725 28.263C75.3725 28.5024 75.2914 28.7418 75.2914 28.7418C75.129 28.7418 74.8043 28.4226 74.7231 28.1033V26.8264L75.4537 25.9485C75.9408 26.2792 76.1031 26.758 75.9407 27.1571ZM77.8078 27.1571C77.7266 26.8378 77.4831 26.4388 77.0772 26.4388C76.7525 27.0772 76.6713 27.3167 76.996 28.263C76.7525 28.5024 76.5902 28.5822 76.2655 28.7418C76.1031 28.4226 76.1031 27.8639 76.1031 27.5447C76.1031 26.986 76.1843 26.4274 76.3466 25.9599C76.5901 25.7205 76.7525 25.3215 76.996 25.0821H77.889C77.4831 25.0821 77.4831 25.4811 77.4831 25.7205C77.7266 25.8003 78.0513 25.8801 78.0513 26.2792C78.0513 26.5984 77.9701 26.9176 77.8078 27.1571ZM79.8256 28.263C79.8256 27.8639 80.0691 27.3851 80.0691 26.9176C80.0691 26.9176 79.7444 26.5984 79.4197 26.5984C79.1762 26.758 79.1762 26.9176 79.095 27.1571C78.8515 27.6359 78.3644 28.1147 78.2832 28.5936C78.2021 28.5936 78.2021 28.5138 78.2021 28.5138C78.2021 27.7157 78.2832 26.3704 78.7703 25.8117C79.1762 25.3329 79.5009 25.3329 79.9879 25.2531L80.3938 25.3329L80.0691 25.8117C80.3938 25.9713 80.8808 26.2906 80.8808 26.7694C80.8808 27.3965 79.8256 28.263 79.8256 28.263ZM82.8986 26.758L82.3304 25.3215C81.681 24.683 80.9504 24.6032 80.5561 24.284C80.2314 24.2042 80.2314 24.4436 80.0691 24.284C80.0691 24.1244 80.0691 23.885 80.3126 23.6455H80.7997L81.2867 23.885C81.5302 24.1244 82.0985 24.1244 82.0985 24.6032C82.0985 24.683 82.0173 24.7628 82.2608 25.0821L83.0726 25.3215L83.1537 25.9599L82.8986 26.758ZM83.7915 25.3215C83.6292 25.0821 83.7915 24.683 83.548 24.4436C83.548 24.284 83.7104 24.2042 83.6292 24.1244C83.548 23.9648 82.5739 23.6455 82.5739 23.6455C82.2492 23.4061 81.8433 23.1667 81.5186 22.8475C81.1939 22.7677 80.9504 22.9273 80.5445 23.0071C80.5445 22.9273 80.5445 22.8475 80.5445 22.8475C80.7069 22.5282 80.7069 22.1292 81.1939 22.1292C81.4375 22.1292 81.7622 22.1292 81.9245 22.3686C82.2492 22.3686 82.4116 22.6878 82.6551 22.7676C83.061 23.1667 83.3857 23.3263 83.6292 23.4859C83.6292 23.7253 83.7104 23.885 83.8727 23.9648C84.3598 23.9648 84.1974 24.4436 84.3598 24.7628L83.7915 25.3215ZM84.6845 23.4973C84.5221 22.9387 84.1162 22.38 83.6292 22.38C83.3857 22.1406 83.1421 21.9012 83.061 21.6617C82.8174 21.4223 82.5739 21.6617 82.2492 21.4223C81.9245 21.4223 81.5186 21.4223 81.1939 21.6617V21.4223L81.7622 20.7839C82.3304 20.8637 83.061 20.7839 83.2233 21.1829C83.6292 21.4223 84.0351 21.6617 84.1162 21.8214C84.1162 21.9012 84.1162 21.9012 84.1162 22.0608C84.2786 22.1406 84.6033 22.2204 84.7656 22.3002C84.7656 22.5396 84.6845 23.4973 84.6845 23.4973ZM85.5658 19.5982C85.3223 19.5982 84.9164 19.7578 84.4293 19.5982C84.6729 19.4385 84.9164 19.3587 85.2411 19.1193L85.8905 18.4809H86.5399C86.2964 18.9597 86.0644 19.4385 85.5658 19.5982ZM85.8209 16.0182C86.0644 16.0182 86.308 16.0182 86.5515 16.1778C86.5515 16.5769 86.7138 16.8961 86.7138 17.375C86.2152 16.8961 85.8209 16.4971 85.8209 16.0182ZM86.0644 20.7953C86.1456 20.5558 86.3891 20.476 86.5515 20.2366C86.7138 19.9972 87.0385 19.5982 87.1197 19.3587C87.5256 19.1193 87.6879 19.1193 88.0126 19.1193C87.9315 19.5982 87.6879 19.7578 87.2821 20.3164C87.027 20.476 86.5399 20.5558 86.0644 20.7953ZM87.1893 22.3002L86.7023 21.6617H87.9199L88.1634 22.1406C87.8387 22.38 87.5952 22.38 87.1893 22.3002ZM87.7575 17.6144L87.5952 16.8163C87.8387 16.6567 88.0822 16.4971 88.4069 16.098C88.4069 16.6567 88.3258 17.375 87.7575 17.6144ZM88.7316 13.4758C88.6505 13.4758 88.7316 13.7152 88.6505 13.7152C88.6505 13.8748 88.4881 14.1941 88.4881 14.5133C88.3257 14.5931 88.001 14.7527 87.6763 14.5931V14.3537C87.5952 14.1941 87.5952 13.8748 87.5952 13.7152L87.514 13.6354C87.2705 13.7152 87.2705 13.8748 87.2705 14.0344C87.1893 14.1941 87.027 14.3537 87.027 14.5931C86.7023 14.5931 86.5399 14.5133 86.2964 14.3537V13.6354C86.2964 13.4758 86.2964 13.4758 86.2152 13.4758L85.8093 13.8748C85.4846 13.6354 85.4034 12.997 85.4034 12.5979C86.7023 11.8796 88.3142 12.1191 89.2883 12.5181C89.4506 12.5979 89.613 12.5979 89.7753 12.6777C89.6941 13.1566 89.5318 13.8748 89.0447 14.1827C89.0447 13.8748 88.894 13.7152 88.7316 13.4758ZM90.1812 22.0608C90.1 22.0608 89.5318 21.8214 89.3694 21.6617C89.2883 21.4223 89.2883 21.1829 89.2883 21.1829H89.9377L90.3435 22.0608H90.1812ZM90.1812 19.9174C89.6941 19.5183 89.3694 19.0395 88.8824 18.401L90.1812 18.6405C90.4247 18.8001 90.9118 19.3587 91.1553 19.5982C90.9929 19.7578 90.5059 19.9174 90.1812 19.9174ZM91.0741 16.8961C90.5871 16.1778 90.8306 15.5394 91.0741 14.9921C91.2365 15.471 91.3176 15.9498 91.3988 16.3489C91.48 16.6681 91.967 16.8277 92.1294 17.0671C91.8047 17.1355 91.2365 17.2951 91.0741 16.8961ZM91.3988 23.9762L91.8047 23.0185C92.1294 23.0185 92.3729 22.8589 92.5353 22.8589C92.86 22.7791 93.1035 22.7791 93.347 22.7791V22.8589C94.2399 22.8589 95.2836 22.779 95.933 23.4973L96.0142 24.1358C95.6895 23.8964 95.2024 23.8964 95.0401 23.4973C94.7154 23.4175 94.4719 23.4175 94.066 23.4175C93.7413 23.4973 93.3354 23.4973 93.0107 23.4973C92.9295 23.4973 93.0107 23.4175 92.8484 23.3377C92.3729 23.4973 91.8859 23.4973 91.3988 23.9762ZM93.9848 26.9176L93.7413 27.1571C93.4978 26.9176 93.6601 26.2792 93.2542 26.1994C92.8484 26.1994 92.5237 25.8003 92.3613 25.7205L92.686 25.5609C92.686 25.5609 92.8484 25.4811 93.0107 25.5609C93.1731 25.7205 93.3354 25.8003 93.3354 25.9599C93.4978 26.1994 93.7413 25.9599 93.9036 26.1994C93.9848 26.4388 94.066 26.758 93.9848 26.9176ZM96.4896 26.758C96.3273 26.2792 96.1649 25.5609 95.5967 25.5609C95.5155 25.2417 95.4344 25.0821 95.1097 24.8426L94.4603 24.7628C94.5414 25.0821 95.0285 25.0821 94.7038 25.5609C95.0285 25.8003 95.272 25.8003 95.4344 26.1994C95.5967 26.4388 95.4344 26.758 95.5155 26.9176L95.0285 27.1571C95.0285 26.758 95.1097 25.9599 94.5414 25.8003C94.0544 25.9599 93.9732 25.3215 93.6485 25.0821C93.4862 25.0821 93.4862 24.683 93.2426 24.8426C92.8368 25.0821 92.3497 24.8426 91.9438 25.0821L92.3497 24.4436C92.6744 24.2042 92.9991 24.284 93.3238 24.2042L93.9732 24.1244C94.6226 24.1244 95.1792 24.4436 95.8286 24.683C96.1533 24.8426 96.3157 25.0821 96.3157 25.4811C96.478 25.5609 96.8027 25.5609 96.8027 25.8003C96.7332 25.9599 96.5708 26.4388 96.4896 26.758ZM97.6261 25.5609C97.4637 25.3215 97.3826 25.0821 97.2202 25.0821C97.4637 24.2042 96.9767 23.4973 96.8143 22.7791V22.5396C97.0579 22.9387 97.7073 23.3377 97.6261 23.7367C97.7073 24.455 97.7073 25.0935 97.7073 25.5609H97.6261ZM96.8143 15.6192L97.4637 15.3C97.7073 15.5394 98.032 15.6192 98.1943 15.699C97.9508 15.9384 97.3014 16.0182 96.8143 15.6192ZM102.323 16.8961C102.485 17.0557 102.647 17.1355 102.81 17.375V18.0134C102.079 17.6144 101.673 16.8961 101.035 16.1892C101.673 16.1778 101.836 16.8163 102.323 16.8961ZM98.6814 17.0557C98.9249 17.2951 99.2496 17.6144 99.2496 17.8538C99.2496 18.0932 99.0872 18.173 98.9249 18.3326C98.9249 18.3326 98.6002 17.9336 98.6002 17.774C98.6002 17.4548 98.6002 17.2951 98.6814 17.0557ZM99.4119 23.0185C99.4119 22.5396 99.3308 22.1406 99.0061 21.8214C99.0061 21.6617 99.2496 21.6617 99.0872 21.4223C99.0872 21.4223 98.6002 21.1829 98.6002 20.8637C98.6002 20.5444 98.9249 20.305 99.0872 20.0656C99.0872 19.9858 99.4119 20.2252 99.4119 20.7041C99.4119 20.7839 99.4119 21.0233 99.3308 21.1829C99.2496 21.4223 99.8178 21.4223 99.8178 21.6617C99.8062 22.1406 99.4815 22.5396 99.4119 23.0185ZM100.293 19.5982C100.293 19.7578 100.05 19.9174 99.9686 19.9174C99.9686 19.9174 99.5627 19.5183 99.4815 19.1193C99.4004 18.8001 99.7251 18.2414 99.7251 18.2414C99.8062 18.2414 99.8874 18.401 99.9686 18.401C100.05 18.4809 99.9686 18.7203 100.05 18.9597C100.293 19.1193 100.456 19.4385 100.293 19.5982ZM101.024 23.7367C101.186 23.3377 101.186 22.5396 101.024 22.5396C100.862 22.4598 100.537 22.5396 100.537 22.38C100.537 22.1406 100.618 21.8214 100.618 21.6617C100.618 21.3425 100.374 21.1829 100.374 21.0233C100.374 20.5444 100.943 20.4646 101.105 20.1454C101.186 20.4646 101.186 20.7839 101.186 21.1829C101.186 21.3425 101.43 21.8214 101.186 22.2204C101.186 22.4598 101.673 22.3002 101.673 22.5396C101.673 22.9387 101.186 23.4175 101.024 23.7367ZM102.323 21.8214C102.079 21.8214 102.079 21.6617 102.079 21.3425C101.998 20.8637 101.836 20.4646 101.673 19.9858C101.511 19.3473 101.105 18.7887 100.78 18.0818C100.699 17.7626 100.293 17.603 99.9686 17.3636C100.374 17.3636 100.78 17.3636 101.105 17.6828C101.105 17.8424 101.186 17.9222 101.43 18.1616C101.998 18.1616 101.836 18.8799 102.323 19.1991C102.079 19.4385 101.998 19.5982 101.836 19.7578C102.079 19.9174 102.323 19.9972 102.404 20.2366C102.404 20.7155 102.323 21.2627 102.323 21.8214ZM103.448 21.0347C103.285 20.5558 102.96 20.077 102.798 19.5982C102.798 19.5184 102.717 19.5184 102.879 19.4385C102.96 19.4385 103.285 19.4385 103.285 19.5183C103.366 19.678 103.529 19.9174 103.529 20.1568C103.529 20.476 103.366 20.7155 103.448 21.0347ZM107.819 18.6405C107.657 18.4809 107.819 18.1616 107.413 18.1616C107.251 18.1616 107.008 18.401 107.008 18.401C106.845 18.4809 106.358 18.1616 106.358 18.401C106.358 18.8001 106.034 18.9597 105.628 18.9597C105.465 18.9597 105.303 18.9597 105.141 18.8799V18.0818C106.196 18.0818 106.115 17.7626 106.602 17.7626C106.926 17.7626 107.17 17.9222 107.413 17.9222C107.819 17.9222 107.576 17.7626 107.982 17.7626C108.388 17.7626 108.55 18.0818 108.793 18.1616C108.793 18.401 109.037 18.7203 109.037 19.0395C108.469 19.0395 107.901 18.8799 107.819 18.6405ZM108.306 20.7953C108.063 20.7155 107.495 20.6357 107.495 20.3962C107.495 20.077 107.332 19.9972 106.926 19.9972C106.602 19.9972 106.358 20.077 105.871 20.2366C105.871 20.2366 105.628 19.9174 105.546 19.5982C105.709 19.5184 106.358 19.3587 106.683 19.3587C107.251 19.3587 107.819 19.3587 107.819 19.5982C107.819 19.9174 108.306 19.9972 108.306 20.7953ZM107.413 16.3375C107.657 16.3375 107.819 16.1778 107.982 16.1778C108.388 16.1778 108.712 16.8163 108.793 17.2951C108.144 16.8961 107.182 16.6567 106.613 16.6567C106.289 16.6567 105.315 17.0557 105.001 17.375L104.839 16.6567C105.326 16.5769 105.326 16.1778 105.651 16.1778C105.894 16.1778 106.219 16.098 106.463 16.098C106.706 16.098 106.868 15.9384 106.95 15.9384C107.332 15.9384 107.17 16.3375 107.413 16.3375ZM104.909 15.3C105.152 15.0605 105.558 14.7413 105.883 14.7413C106.451 14.7413 106.938 15.1403 106.938 15.5394C106.451 15.5394 106.37 15.4596 106.045 15.4596C105.639 15.4596 105.152 15.6192 104.909 16.0182C104.746 15.699 104.827 15.5394 104.909 15.3ZM105.152 13.2364C105.477 13.0768 105.639 13.1566 105.802 13.2364C105.802 13.7152 106.37 13.4758 106.695 13.6354C106.857 13.8748 106.938 14.0344 107.019 14.3537C106.451 14.1941 106.126 13.9546 105.651 13.9546C105.488 13.9546 104.758 14.1941 104.677 14.3537C104.422 14.0344 104.827 13.396 105.152 13.2364ZM106.683 25.3215C106.277 25.0821 106.034 25.0023 105.546 25.0023C105.546 24.683 105.303 24.284 105.141 24.284C104.654 24.284 104.735 24.6032 104.329 24.6032L105.059 23.885C105.141 23.7253 105.141 23.7253 105.303 23.7253C105.546 23.885 105.628 23.9648 105.871 23.9648C105.871 24.1244 105.871 24.2042 105.79 24.4436C106.034 24.6032 106.196 24.3638 106.358 24.6032C106.602 24.683 106.845 24.7628 106.845 25.0821C106.845 25.1619 106.683 25.3215 106.683 25.3215ZM107.495 24.2042C106.926 24.1244 106.926 23.4859 106.845 23.4061C106.439 22.9273 105.883 23.3263 105.477 23.3263C105.315 22.8475 105.558 22.8475 105.558 22.5282C105.802 22.5282 106.045 22.3686 106.289 22.5282C106.695 22.3686 106.938 22.7676 107.344 22.7676C107.425 22.9273 107.587 23.3263 107.669 23.4061C107.657 23.7367 107.576 23.8165 107.495 24.2042ZM107.901 22.5396C107.332 22.5396 107.657 21.4223 106.439 21.4223C106.196 21.4223 106.034 21.8214 105.709 21.9012C105.709 21.8214 105.79 21.3425 105.79 21.3425C105.79 21.1829 105.871 20.8637 106.196 20.7041C106.845 20.7041 106.683 20.9435 107.17 21.1031C107.413 21.1829 107.576 21.3425 107.901 21.3425V22.5396ZM109.025 26.1994C109.025 25.8003 108.538 25.5609 108.214 24.8426L108.538 24.284C108.782 24.4436 109.107 24.683 109.107 25.0821C109.107 25.0821 109.025 25.3215 109.107 25.4811C109.107 25.5609 109.269 25.5609 109.269 25.7205C109.118 25.9599 109.118 25.9599 109.025 26.1994ZM109.594 24.6032L109.107 23.885C109.269 23.6455 109.269 23.3263 109.512 22.9273C109.594 22.9273 109.837 23.4859 109.837 23.5657C109.837 24.056 109.837 24.2042 109.594 24.6032ZM101.673 26.2792C101.998 26.4388 101.998 26.8378 101.998 26.9176C101.998 27.1571 101.836 27.3965 101.673 27.5561C101.511 27.3965 101.511 27.1571 101.349 26.9176C101.186 26.9176 101.105 27.3167 101.105 27.4763C101.105 28.1945 101.43 28.7532 101.673 29.2206H102.404C102.323 28.5822 102.16 28.0235 102.16 27.3167C102.16 26.9176 102.404 26.4388 102.485 26.1994L101.673 26.2792ZM91.2365 26.758C91.0741 26.758 90.6682 26.9974 90.6682 27.1571C90.6682 27.4763 90.5059 29.2206 90.5059 29.2206H91.0741C91.3176 28.5024 91.8047 27.5447 91.8047 27.1571C91.8047 26.8378 91.5612 26.758 91.2365 26.758ZM89.2883 26.4388C89.1259 26.4388 88.8824 26.9176 88.8824 27.0772C88.8824 27.7157 89.0447 28.5936 89.2883 29.2206H89.9377C89.9377 28.5024 90.0188 27.7043 90.0188 27.0772C89.9377 27.0772 90.1 27.2369 89.2883 26.4388ZM88.4069 25.8003L87.514 25.9599C87.2705 26.2792 87.1893 26.4388 87.1893 26.5984L87.5952 26.4388C87.6763 26.4388 87.7575 26.5984 87.8387 26.758C87.7575 27.1571 87.2705 27.1571 87.1081 27.3167C86.8646 28.1147 87.5952 28.5936 87.6763 29.2206H88.6505C88.2446 28.5024 88.1634 27.3965 88.1634 27.1571C88.1634 26.758 88.1634 26.1994 88.4069 25.8003ZM91.8859 5.19863H92.1294C92.3729 4.95921 92.5353 5.19863 92.6976 4.95921C92.86 4.56017 92.86 3.8419 92.5353 3.44287C92.3729 3.12364 91.967 2.96402 91.5728 2.64479L91.0045 2.96403C90.6798 3.12364 90.5175 3.44287 90.5175 3.8419C91.0741 4.09273 91.6423 4.73119 91.8859 5.19863ZM88.6505 4.81099C89.0563 4.81099 88.894 5.36965 89.2187 5.44945H89.9493C89.9493 5.21003 89.8681 5.21003 89.7869 5.21003C89.381 5.21003 89.381 4.57157 89.0563 4.73119C88.894 4.73119 88.7316 4.57157 88.4881 4.73119C88.4881 4.811 88.4881 4.81099 88.6505 4.81099ZM88.894 6.55536H88.7316C88.894 7.19382 88.894 7.91208 88.894 8.61894C89.2187 8.69875 89.5434 8.85837 89.5434 9.33721C89.8681 9.49683 90.1928 9.57663 90.5175 9.81605C90.6798 9.73625 90.761 9.49683 90.8422 9.2574C90.5175 8.85837 89.7869 9.09779 89.7869 8.37952L89.2999 8.21991C89.2999 7.74106 89.2998 7.26222 89.2187 6.94299L89.2999 6.86318C89.2999 6.94299 89.381 7.0228 89.5434 7.18241C89.8681 7.18241 90.1928 7.26222 90.5175 7.0228C90.6798 6.94299 90.6798 6.54395 90.8422 6.54395C91.0045 6.54395 91.1669 6.54396 91.2481 6.38434C91.2481 6.38434 91.4104 6.38434 91.2481 6.30453L89.4738 6.06511C89.2883 6.31593 88.894 6.31593 88.894 6.55536ZM87.1893 4.73119C87.0269 4.57157 86.5399 4.811 86.2964 4.8908C85.9717 4.97061 85.7281 5.21003 85.7281 5.44945H86.6211C86.7023 5.19863 87.0269 4.8794 87.1893 4.73119ZM83.8727 4.81099C84.1974 4.57157 85.0092 4.01292 85.4034 3.85331C85.3223 3.05523 84.4293 2.97543 84.0235 2.6562H83.6988C83.0494 2.89562 82.887 3.53408 82.8058 4.09273C83.061 4.811 83.548 4.33215 83.8727 4.81099ZM89.2883 10.8536L90.1812 11.1728V10.7737H89.3694L89.2883 10.8536ZM84.6845 6.55536C84.6845 6.87459 84.928 6.95439 85.0092 7.0342C85.2527 7.19381 85.3339 7.19381 85.5774 7.0342C85.8209 7.19381 85.9021 6.87458 85.9833 7.0342C85.9833 7.51304 85.9833 7.75247 85.9021 8.1515C85.8209 8.71016 85.3339 8.63035 84.928 8.86977C84.928 9.10919 84.6845 9.50823 84.928 9.74765C85.1715 9.58804 85.3339 9.50823 85.7397 9.34861C85.7397 9.10919 85.9833 8.86977 86.308 8.71015C86.308 7.99189 86.5515 7.27362 86.5515 6.56675C86.5515 6.40714 86.3891 6.24753 86.1456 6.08791H84.209C84.1974 6.39574 84.4409 6.55536 84.6845 6.55536ZM84.928 10.6141C84.928 10.7737 84.928 10.9334 85.1715 11.093C85.415 10.8536 85.8209 10.7737 85.9021 10.7737C85.7397 10.4545 85.3339 10.7737 84.928 10.6141Z" fill="#E5E5E5"/>
</svg>
