<svg width="95" height="51" viewBox="0 0 95 51" fill="none" xmlns="http://www.w3.org/2000/svg">
<path fill-rule="evenodd" clip-rule="evenodd" d="M21.224 34.7544H21.6295C26.3179 34.7544 29.427 36.4157 29.427 39.4215C29.427 42.0297 26.2636 44.879 21.3315 44.879H20.6627L20.6616 42.0559L21.347 42.0002C22.9608 41.7869 23.7175 41.2928 23.6765 39.6862C23.6419 38.294 22.3021 37.8524 20.9548 37.8524H19.4202V50.09H13.7346V36.7903C13.7346 36.7903 18.1383 36.1279 21.224 34.7544ZM47.5895 41.855V49.486C45.3945 50.0439 43.5603 50.2888 41.9071 50.2888C35.8884 50.2888 30.9286 47.1667 30.9286 42.0581C30.9286 37.3305 35.2855 34.158 41.5713 34.1414C43.5284 34.136 48.0364 35.0915 49.5327 35.8514L46.5731 38.3443C45.5568 38.0169 44.9007 37.3878 41.8549 37.3969C39.2742 37.4065 36.6115 38.8476 36.6115 42.2365C36.6115 45.5596 39.4785 47.0311 41.3383 47.0311C41.5192 47.0311 41.8033 47.0091 42.1396 46.9212V41.8544L47.5895 41.855ZM67.303 41.855V49.486C65.1059 50.0439 63.2728 50.2888 61.619 50.2888C55.5998 50.2888 50.6411 47.1667 50.6411 42.0581C50.6411 37.3305 54.998 34.158 61.2833 34.1414C63.2414 34.136 67.7484 35.0915 69.2452 35.8514L66.2856 38.3443C65.2693 38.0169 64.6153 37.3878 61.5685 37.3969C58.9877 37.4065 56.3246 38.8476 56.3246 42.2365C56.3246 45.5596 59.1921 47.0311 61.0523 47.0311C61.2322 47.0311 61.5169 47.0091 61.8537 46.9212V41.8544L67.303 41.855ZM84.2475 36.2667C82.3132 32.5937 78.1968 34.8863 76.8698 36.0792V34.6649H71.8637V50.0894H76.8698V40.6476C77.0507 37.7442 80.6589 37.9858 80.5376 40.6487V50.0894H85.2457V40.8319C85.4266 37.9274 89.0359 38.1702 88.9146 40.8319V50.0894H94.0185V39.0839C94.0175 31.8467 85.4622 34.501 84.2475 36.2667Z" fill="#B8B8B8"/>
<path fill-rule="evenodd" clip-rule="evenodd" d="M49.1103 32.0782C43.9616 32.4539 38.9161 30.4341 34.6614 26.2809C32.3441 24.0195 31.9099 24.0232 29.0163 23.138C34.0654 22.2527 35.4431 23.586 39.6941 26.7659C42.295 28.3372 45.2009 29.5574 48.0812 30.1077C53.1809 30.5643 57.8879 29.0215 62.9233 27.8007C62.9424 27.8002 54.9251 31.6554 49.1103 32.0782Z" fill="#E5E5E5"/>
<path d="M0.5 35.8482C11.2465 37.0797 17.7243 35.6178 25.9193 31.3275C30.3502 29.0071 32.5888 28.0602 35.2089 27.9498C33.2502 26.6449 31.1143 26.9611 26.5126 28.3822C17.2869 31.2305 13.0875 34.3965 0.5 35.8482Z" fill="#E5E5E5"/>
<path d="M85.6814 0.288818C77.5865 11.1936 69.1435 17.9565 52.8477 19.5417C46.6348 20.1462 42.2311 23.2843 39.885 25.5919C40.3847 22.6777 42.3162 19.6891 47.7283 17.9924C58.9941 14.4577 73.5824 10.5822 85.6814 0.288818Z" fill="#E5E5E5"/>
</svg>
