<svg width="120" height="29" viewBox="0 0 120 29" fill="none" xmlns="http://www.w3.org/2000/svg">
<path d="M26.8645 2.84423C26.8645 2.61912 26.5983 2.5446 26.2566 2.5446C24.9642 2.5446 23.7863 2.61912 22.0383 2.61912C21.0509 2.61912 19.4929 2.5446 18.1627 2.5446C17.6687 2.5446 17.517 2.6569 17.517 2.95705C17.517 3.9305 20.7847 2.76971 20.7847 6.51541C20.7847 8.23871 19.5307 10.7108 16.2246 18.9899H16.149C11.4373 7.26424 10.8294 5.72881 10.8294 5.01672C10.8294 3.21891 13.147 3.63084 13.147 2.91927C13.147 2.61912 12.8808 2.5446 12.3113 2.5446C10.3732 2.5446 8.43569 2.61912 6.49711 2.61912C4.48347 2.61912 2.46983 2.5446 0.456194 2.5446C0.39789 2.53805 0.33884 2.54392 0.283035 2.56181C0.22723 2.5797 0.175971 2.60919 0.132724 2.64829C0.0894777 2.68739 0.055251 2.73519 0.0323582 2.78846C0.00946541 2.84173 -0.00155977 2.89922 2.80263e-05 2.95705C2.80263e-05 3.7804 1.67194 2.80646 2.65986 5.1668L12.1974 27.9055C12.3874 28.3546 12.5391 28.617 12.9191 28.617C13.2992 28.617 13.4509 28.3546 13.6409 27.9055L21.9244 7.93907C24.0902 2.69468 26.8645 3.81818 26.8645 2.84423Z" fill="#B3B2B2"/>
<path d="M31.0791 25.2079C30.7103 25.6532 30.1773 25.9362 29.5972 25.9945C28.6087 25.9945 28.0386 25.3579 28.0386 22.8858C28.0386 21.1998 28.7232 20.1135 31.0791 19.1769V25.2079ZM40.3882 24.871C39.8181 24.871 39.6664 26.2196 38.6407 26.2196C38.2223 26.2196 37.9945 25.9572 37.9945 25.508V15.4312C37.9945 12.3965 36.5126 10.711 32.3326 10.711C27.3935 10.711 21.8077 13.6706 21.8077 16.667C21.8077 18.0534 22.6434 18.9523 24.7331 18.9523C26.7851 18.9523 27.9631 17.7532 27.9631 16.0677C27.9631 15.1683 27.8113 14.2326 27.8113 13.3705C27.8113 12.2464 28.7232 11.6099 29.9389 11.6099C30.699 11.6099 31.0791 11.9473 31.0791 13.1459V18.3903C23.3279 21.0875 21.1232 21.9864 21.1232 24.9082C21.1232 26.5192 22.4156 28.317 25.6072 28.317C27.5069 28.317 29.2932 27.531 31.3452 25.9194C31.8008 27.4181 32.9027 28.317 35.3725 28.317C39.4381 28.317 40.7305 25.5825 40.7305 25.2078C40.7244 25.1204 40.6864 25.038 40.6234 24.9761C40.5605 24.9141 40.4769 24.8768 40.3882 24.871Z" fill="#B3B2B2"/>
<path d="M87.2491 19.4766C88.921 19.4766 90.2129 18.5021 90.2129 16.3674C90.2129 13.9325 87.5147 10.7111 82.6512 10.7111C77.9017 10.7111 73.266 14.5318 73.266 19.889C73.2334 20.995 73.4285 22.0961 73.8394 23.1258C74.2503 24.1554 74.8685 25.0923 75.6568 25.88C76.4451 26.6676 77.3871 27.2896 78.4259 27.7085C79.4648 28.1274 80.5789 28.3344 81.7011 28.3171C87.9331 28.3171 90.2129 23.185 90.2129 22.2111C90.2129 21.9865 90.1368 21.8369 89.8712 21.8369C89.035 21.8369 89.225 24.2713 85.3489 24.2713C82.4612 24.2713 79.4219 21.6496 79.4219 16.6298C79.4219 13.7825 80.8654 11.3854 82.689 11.3854C83.8292 11.3854 84.5893 11.9474 84.5893 13.1832C84.5893 13.9325 84.361 15.1683 84.361 16.3674C84.361 18.3903 85.6911 19.4766 87.2491 19.4766Z" fill="#B3B2B2"/>
<path d="M99.5607 25.8076V0.671814C93.0248 3.10667 90.745 2.13273 90.745 2.99386C90.745 3.70595 93.1014 3.21897 93.1014 5.09182V25.8076C93.1014 27.6432 90.8978 26.9311 90.8978 27.7182C90.8978 27.905 90.9733 28.0929 91.3156 28.0929C92.7597 28.0929 94.3933 28.0178 96.3308 28.0178C98.2688 28.0178 99.9024 28.0929 101.347 28.0929C101.689 28.0929 101.764 27.905 101.764 27.7182C101.764 26.9311 99.5607 27.6431 99.5607 25.8076Z" fill="#B3B2B2"/>
<path d="M111.568 25.845L105.488 15.3557C109.212 11.2731 111.834 12.0592 111.834 11.3099C111.834 11.0858 111.682 10.9357 111.226 10.9357C110.466 10.9357 109.136 11.0107 107.275 11.0107C105.716 11.0107 104.159 10.9357 103.437 10.9357C103.094 10.9357 102.905 11.0107 102.905 11.2731C102.905 12.097 105.109 11.3854 105.109 13.9698C105.109 15.2434 104.272 15.9928 100.853 18.8773L103.665 24.4586C104.035 25.0403 104.28 25.6905 104.386 26.3692C104.386 27.4555 103.094 27.0813 103.094 27.6806C103.094 28.0175 103.322 28.0926 103.702 28.0926C105.26 28.0926 106.781 28.0175 108.338 28.0175C110.124 28.0175 111.644 28.0926 113.126 28.0926C113.886 28.0926 114.076 28.0175 114.076 27.7184C114.076 26.8563 112.67 27.7184 111.568 25.845Z" fill="#B3B2B2"/>
<path d="M53.6796 5.39155V8.28026C53.6792 8.3346 53.6921 8.38823 53.7172 8.43662C53.7423 8.485 53.7788 8.5267 53.8238 8.55819C53.8687 8.58968 53.9206 8.61002 53.9752 8.61749C54.0298 8.62497 54.0854 8.61935 54.1374 8.60112C54.8164 8.35106 55.5354 8.22294 56.2602 8.22282C57.0874 8.22555 57.9058 8.39142 58.667 8.71066C59.4282 9.0299 60.117 9.49606 60.6927 10.0817C60.7411 10.1289 60.8027 10.1609 60.8695 10.1736C60.9364 10.1863 61.0056 10.1792 61.0683 10.1532C61.1311 10.1271 61.1846 10.0833 61.2221 10.0273C61.2596 9.97131 61.2794 9.90559 61.2791 9.83847V3.79453C61.2786 3.74903 61.2875 3.70391 61.3052 3.66186C61.3228 3.61982 61.3489 3.58171 61.3818 3.54983C61.4147 3.51795 61.4538 3.49293 61.4968 3.47629C61.5398 3.45965 61.5857 3.45172 61.6318 3.45298C63.3935 3.51197 65.825 3.78935 67.3116 4.50662C68.6974 5.17627 69.5368 5.58147 70.3226 6.51505C70.7974 7.08539 71.1632 7.7359 71.4024 8.435C71.4194 8.48221 71.4529 8.52194 71.4968 8.54711C71.5408 8.57228 71.5924 8.58125 71.6424 8.57243C71.6924 8.56361 71.7377 8.53757 71.77 8.49894C71.8024 8.46032 71.8198 8.41161 71.8192 8.36151C71.8029 6.55128 71.7698 2.81127 71.7688 2.66844C71.7683 2.65018 71.764 2.63223 71.7562 2.61565C71.7452 2.59424 71.7282 2.57634 71.7073 2.56398C71.6864 2.55162 71.6624 2.54532 71.6381 2.54579C67.0061 2.58305 62.3363 2.61927 57.4791 2.61927C54.7053 2.61927 52.5395 2.54475 51.0576 2.54475C50.6397 2.54475 50.4875 2.65705 50.4875 2.99395C50.4875 4.19301 53.6796 2.76987 53.6796 5.39155Z" fill="#B3B2B2"/>
<path d="M71.4674 22.2635C71.4677 22.2134 71.45 22.1648 71.4173 22.1263C71.3847 22.0878 71.3392 22.062 71.2891 22.0535C71.239 22.0449 71.1874 22.0541 71.1436 22.0795C71.0997 22.1049 71.0664 22.1448 71.0495 22.1922C70.8143 22.8924 70.452 23.5447 69.9803 24.1173C69.1986 25.055 68.3619 25.4643 66.9792 26.1402C65.439 26.8675 63.7458 27.2247 62.0386 27.1825C61.4548 27.0386 60.8307 26.7845 60.8307 25.8074V16.2921C60.8307 13.0333 59.805 10.7113 56.0055 10.7113C53.9152 10.7113 52.3956 11.2733 49.7352 13.2957V10.7113C43.1625 12.3595 40.7683 11.6847 40.7683 12.2845C40.7683 12.9961 43.2759 12.5469 43.2759 15.094V25.8074C43.2759 27.643 41.0722 26.9309 41.0722 27.718C41.0722 27.9054 41.1484 28.0927 41.4906 28.0927C42.9342 28.0927 44.5683 28.0177 46.5058 28.0177C48.4439 28.0177 50.078 28.0927 51.2176 28.0927C51.5599 28.0927 51.6355 27.9054 51.6355 27.718C51.6355 26.9309 49.7352 27.643 49.7352 25.8074V14.4942C50.5336 13.7454 51.5971 13.0333 52.5856 13.0333C53.4974 13.0333 54.3714 13.6331 54.3714 15.2813V25.8074C54.3714 27.643 52.4717 26.9309 52.4717 27.718C52.4717 27.9053 52.5473 28.0927 52.8895 28.0927L71.3157 28.0797C71.3325 28.0802 71.3492 28.0774 71.3649 28.0715C71.3805 28.0655 71.3949 28.0565 71.407 28.0451C71.4191 28.0336 71.4288 28.0199 71.4355 28.0047C71.4421 27.9895 71.4457 27.9731 71.4459 27.9566C71.4464 27.8137 71.4606 24.0738 71.4674 22.2635Z" fill="#B3B2B2"/>
<path d="M67.0488 10.5804C66.7847 12.2887 65.1144 13.7455 62.8556 14.1274C62.8377 14.1295 62.8203 14.1352 62.8047 14.1441C62.789 14.1529 62.7753 14.1648 62.7644 14.179C62.7534 14.1932 62.7455 14.2094 62.7411 14.2267C62.7366 14.244 62.7358 14.262 62.7386 14.2796C62.7659 14.5554 62.7774 14.6641 62.8073 14.884C62.8127 14.9115 62.8268 14.9367 62.8475 14.9559C62.8683 14.9752 62.8946 14.9875 62.9228 14.9911C65.0939 15.3994 66.7333 16.8661 67.0488 18.8957C67.1175 19.3506 67.1175 19.7786 67.4934 19.7786C67.6981 19.7786 67.8351 19.7212 67.8351 19.4081V10.0681C67.8351 9.75453 67.6981 9.6976 67.4934 9.6976C67.1175 9.6976 67.1175 10.1251 67.0488 10.5804Z" fill="#B3B2B2"/>
<path d="M116.888 5.13161H116.376V4.31654H117.203C117.602 4.31654 117.955 4.34603 117.955 4.76107C117.955 5.20561 117.338 5.13161 116.888 5.13161ZM118.436 4.70932C118.436 4.02001 117.895 3.84198 117.293 3.84198H115.895V7.11831H116.376V5.60616H116.993L117.842 7.11831H118.391L117.549 5.60616C117.669 5.61252 117.789 5.5935 117.901 5.55037C118.013 5.50724 118.115 5.441 118.199 5.35608C118.283 5.27116 118.347 5.16953 118.388 5.05798C118.429 4.94644 118.446 4.82757 118.436 4.70932Z" fill="#B3B2B2"/>
<path d="M117.038 7.89635C116.549 7.89482 116.071 7.7505 115.666 7.48163C115.26 7.21275 114.944 6.83138 114.758 6.38567C114.572 5.93996 114.524 5.44991 114.621 4.9774C114.717 4.5049 114.953 4.07113 115.299 3.73087C115.645 3.39062 116.086 3.15915 116.566 3.06569C117.045 2.97223 117.542 3.02097 117.994 3.20576C118.445 3.39054 118.831 3.70309 119.103 4.10393C119.374 4.50477 119.519 4.97591 119.519 5.45787C119.519 5.77881 119.455 6.09663 119.33 6.39308C119.206 6.68953 119.023 6.95878 118.792 7.18536C118.562 7.41193 118.288 7.59138 117.987 7.7134C117.686 7.83541 117.363 7.89758 117.038 7.89635ZM117.038 2.54483C116.454 2.54626 115.883 2.71833 115.398 3.03929C114.913 3.36024 114.535 3.8157 114.313 4.34811C114.09 4.88052 114.033 5.46601 114.148 6.0306C114.263 6.5952 114.545 7.11357 114.958 7.52024C115.372 7.92691 115.898 8.20364 116.471 8.31545C117.044 8.42726 117.638 8.36915 118.177 8.14846C118.717 7.92777 119.178 7.5544 119.502 7.07551C119.827 6.59662 120 6.0337 120 5.45787C120.002 5.07408 119.927 4.69368 119.779 4.33876C119.631 3.98385 119.412 3.6615 119.137 3.39046C118.861 3.11941 118.534 2.90508 118.173 2.75991C117.813 2.61474 117.427 2.54163 117.038 2.54483Z" fill="#B3B2B2"/>
</svg>
