<svg width="140" height="126" viewBox="0 0 140 126" fill="none" xmlns="http://www.w3.org/2000/svg">
<path d="M4.59014 16.8013C13.4181 59.6552 -107.169 17.5134 -168.567 -8.91423L-169.613 -80.8992C-115.223 -66.1882 -4.23785 -26.0527 4.59014 16.8013Z" stroke="white" stroke-opacity="0.4" stroke-width="3"/>
<path d="M18.1762 22.9854C28.3859 72.5055 -111.083 23.8092 -182.094 -6.72901L-183.303 -89.9116C-120.397 -72.9127 7.96652 -26.5347 18.1762 22.9854Z" stroke="white" stroke-opacity="0.4" stroke-width="3"/>
<path d="M33.6156 30.0543C45.396 87.1929 -115.53 31.0048 -197.465 -4.23157L-198.86 -100.212C-126.277 -80.5974 21.8352 -27.0843 33.6156 30.0543Z" stroke="white" stroke-opacity="0.4" stroke-width="3"/>
<path d="M52.1435 38.5962C65.8097 104.941 -120.865 39.6986 -215.911 -1.21534L-217.53 -112.659C-133.333 -89.8839 38.4774 -27.7482 52.1435 38.5962Z" stroke="white" stroke-opacity="0.4" stroke-width="3"/>
<path d="M73.7602 48.6109C89.6273 125.748 -127.089 49.8905 -237.43 2.31946L-239.313 -127.254C-141.567 -100.773 57.8932 -28.5265 73.7602 48.6109Z" stroke="white" stroke-opacity="0.4" stroke-width="3"/>
<path d="M99.6968 60.3904C118.201 150.225 -134.561 61.8832 -263.255 6.48285L-265.448 -144.419C-151.443 -113.58 81.1925 -29.4443 99.6968 60.3904Z" stroke="white" stroke-opacity="0.4" stroke-width="3"/>
<path d="M117.607 68.6378C137.934 167.361 -139.718 70.2774 -281.086 9.39538L-283.495 -156.437C-158.264 -122.546 97.2799 -30.0852 117.607 68.6378Z" stroke="white" stroke-opacity="0.4" stroke-width="3"/>
<path d="M136.753 77.4738C159.029 185.72 -145.231 79.2705 -300.146 12.5149L-302.788 -169.314C-165.556 -132.154 114.477 -30.7724 136.753 77.4738Z" stroke="white" stroke-opacity="0.4" stroke-width="3"/>
</svg>
