<svg width="478" height="415" viewBox="0 0 478 415" fill="none" xmlns="http://www.w3.org/2000/svg">
<path d="M464.536 373.791C433.888 225.015 852.532 371.319 1065.68 463.067L1069.32 712.977C880.493 661.905 495.184 522.567 464.536 373.791Z" stroke="white" stroke-opacity="0.6" stroke-width="3"/>
<path d="M417.369 352.321C381.924 180.402 866.118 349.461 1112.65 455.48L1116.84 744.265C898.453 685.25 452.814 524.24 417.369 352.321Z" stroke="white" stroke-opacity="0.6" stroke-width="3"/>
<path d="M363.768 327.782C322.871 129.414 881.556 324.482 1166.01 446.812L1170.85 780.025C918.866 711.931 404.666 526.15 363.768 327.782Z" stroke="white" stroke-opacity="0.6" stroke-width="3"/>
<path d="M299.445 298.127C252 67.7997 900.079 294.3 1230.05 436.341L1235.67 823.239C943.364 744.171 346.89 528.455 299.445 298.127Z" stroke="white" stroke-opacity="0.6" stroke-width="3"/>
<path d="M224.398 263.357C169.312 -4.44062 921.685 258.915 1304.76 424.067L1311.29 873.905C971.948 781.971 279.484 531.155 224.398 263.357Z" stroke="white" stroke-opacity="0.6" stroke-width="3"/>
<path d="M134.354 222.463C70.1125 -89.4155 947.626 217.281 1394.41 409.614L1402.03 933.5C1006.24 826.437 198.596 534.342 134.354 222.463Z" stroke="white" stroke-opacity="0.6" stroke-width="3"/>
<path d="M72.1752 193.832C1.60554 -148.904 965.532 188.139 1456.32 399.504L1464.68 975.222C1029.92 857.566 142.745 536.568 72.1752 193.832Z" stroke="white" stroke-opacity="0.6" stroke-width="3"/>
<path d="M5.70706 163.154C-71.6283 -212.644 984.671 156.917 1522.49 388.672L1531.66 1019.93C1055.23 890.918 83.0424 538.952 5.70706 163.154Z" stroke="white" stroke-opacity="0.6" stroke-width="3"/>
</svg>
