<svg width="683" height="435" viewBox="0 0 683 435" fill="none" xmlns="http://www.w3.org/2000/svg">
<path d="M110.682 245C-24.5181 257.4 -4.31808 376.833 22.6819 435L702.182 620.5C739.349 414.667 791.382 3 702.182 3C590.682 3 454.682 80 395.682 180C336.682 280 279.682 229.5 110.682 245Z" stroke="#16AAF4" stroke-width="5"/>
<path opacity="0.6" d="M134.682 275C-0.518082 287.4 19.6819 406.833 46.6819 465L726.182 650.5C763.349 444.667 815.382 33 726.182 33C614.682 33 478.682 110 419.682 210C360.682 310 303.682 259.5 134.682 275Z" stroke="#16AAF4" stroke-width="3"/>
<path opacity="0.6" d="M142.682 291C7.48192 303.4 27.6819 422.833 54.6819 481L734.182 666.5C771.349 460.667 823.382 49 734.182 49C622.682 49 486.682 126 427.682 226C368.682 326 311.682 275.5 142.682 291Z" stroke="#16AAF4" stroke-width="3"/>
<path opacity="0.3" d="M150.682 309C15.4819 321.4 35.6819 440.833 62.6819 499L742.182 684.5C779.349 478.667 831.382 67 742.182 67C630.682 67 494.682 144 435.682 244C376.682 344 319.682 293.5 150.682 309Z" stroke="#16AAF4" stroke-width="5"/>
</svg>
